M48
;GenerationSoftware,Autodesk,EAGLE,9.7.0*%
;CreationDate,2024-05-19T18:55:26Z*%
FMAT,2
ICI,OFF
METRIC,TZ,000.000
T7C0.350
T6C0.660
T5C1.016
T4C1.200
T3C1.900
T2C3.400
T1C5.080
%
G90
M71
T1
X-68000Y-30000
T2
X36000Y1000
X54000Y1000
X-53453Y-57251
X54000Y-33000
X-35727Y-54126
X-18000Y-51000
X-36000Y-27000
X-36000Y-10000
X-18000Y-27000
X-18000Y-10000
X0Y-17000
X0Y0
X18000Y-22000
X18000Y-5000
X36000Y-33000
X36000Y-16000
X54000Y-16000
X-36000Y7000
X-18000Y7000
X0Y17000
X18000Y12000
T3
X48500Y-16000
X48500Y-33000
X59500Y-33000
X30500Y-16000
X41500Y-16000
X30500Y-33000
X41500Y-33000
X12500Y-5000
X23500Y-5000
X12500Y-22000
X-5500Y0
X5500Y0
X-5500Y-17000
X5500Y-17000
X-23500Y-10000
X23500Y-22000
X-12500Y-10000
X-23500Y-27000
X-12500Y-27000
X-41500Y-10000
X-30500Y-10000
X-41500Y-27000
X-30500Y-27000
X-23416Y-51955
X-12584Y-50045
X-41143Y-55081
X-30310Y-53171
X-58870Y-58206
X-48037Y-56296
X48500Y1000
X59500Y1000
X41500Y1000
X12500Y12000
X23500Y12000
X-5500Y17000
X5500Y17000
X-23500Y7000
X-12500Y7000
X-41500Y7000
X-30500Y7000
X59500Y-16000
X30500Y1000
T4
X-23000Y10800
X-13000Y10800
X-18000Y12900
X-5000Y20800
X5000Y20800
X0Y22900
X13000Y15800
X23000Y15800
X18000Y17900
X31000Y4800
X41000Y4800
X36000Y6900
X49000Y4800
X59000Y4800
X-41000Y10800
X-59037Y-54377
X-49189Y-52641
X-54478Y-51441
X-41310Y-51252
X-31462Y-49515
X-36751Y-48315
X-23584Y-48126
X-13736Y-46389
X-19025Y-45190
X-41000Y-23200
X-31000Y-23200
X-36000Y-21100
X-41000Y-6200
X-31000Y-6200
X54000Y-10100
X-36000Y-4100
X-23000Y-23200
X-13000Y-23200
X-18000Y-21100
X-23000Y-6200
X-13000Y-6200
X-18000Y-4100
X-5000Y-13200
X36000Y-27100
X18000Y-16100
X36000Y-10100
X59000Y-29200
X23000Y-18200
X13000Y-18200
X41000Y-29200
X54000Y-27100
X0Y5900
X54000Y6900
X41000Y-12200
X5000Y3800
X31000Y-29200
X59000Y-12200
X-5000Y3800
X49000Y-29200
X18000Y900
X0Y-11100
X31000Y-12200
X49000Y-12200
X5000Y-13200
X23000Y-1200
X13000Y-1200
X-36000Y12900
X-31000Y10800
T5
X-76620Y-9570
X-76620Y-12110
X-76620Y-14650
X-76620Y-17190
X-76620Y-19730
X-76620Y-22270
X-76620Y-24810
X-76620Y-27350
X-76620Y-29890
X-76620Y-32430
X-76620Y-34970
X-61380Y-7030
X-61380Y-9570
X-61380Y-12110
X-61380Y-14650
X-61380Y-17190
X-61380Y-22270
X-61380Y-24810
X-61380Y-27350
X-61380Y-29890
X-61380Y-32430
X-61380Y-34970
X-58380Y-7030
X-58380Y-9570
X-58380Y-12110
X-58380Y-14650
X-58380Y-17190
X-58380Y-19730
X-58380Y-22270
X-58380Y-24810
X-58380Y-27350
X-58380Y-29890
X-58380Y-32430
X-58380Y-34970
X-73620Y-7030
X-73620Y-9570
X-73620Y-12110
X-73620Y-14650
X-73620Y-17190
X-73620Y-19730
X-73620Y-22270
X-73620Y-24810
X-73620Y-27350
X-73620Y-29890
X-73620Y-32430
X-73620Y-34970
X-80190Y-14540
X-80190Y-12000
X-80190Y-9460
X-80190Y-6920
X-73190Y-50080
X-73190Y-47540
X-73190Y-45000
X-73190Y-42460
X-73190Y-39920
X-61380Y-19730
X-76620Y-7030
X-80190Y-17080
T6
X-69620Y-40000
X-62380Y-40000
X-69620Y-44000
X-62380Y-44000
T7
X-70000Y-37000
X-71934Y-28706
X-70159Y-25877
X-64000Y-30000
X-63000Y-42000
X-71000Y-12000
X-27000Y-15000
X-49000Y-62000
X-31496Y-58674
X-49000Y-7000
X50000Y-38000
X50000Y-21000
X-13589Y-55753
X-32000Y-32000
X-48000Y-9000
X32000Y-38000
X32000Y-21000
X32004Y-3556
X-14000Y-32000
X-14000Y-15000
X4000Y-22000
X-46000Y-18000
X14000Y-27000
X14000Y-10000
X14478Y7239
X4000Y-5000
X50165Y-3556
X-40000Y-15000
X-56261Y-62230
X58000Y-21000
X-64759Y-38000
X-71083Y-32481
X-40000Y-32000
X-39751Y2159
X-32258Y2159
X-13970Y2286
X3683Y12192
X21336Y7239
X39370Y-3556
X-78613Y-31242
X-78688Y-18312
X22000Y-27000
X-71170Y-26000
X22000Y-10000
X40000Y-38000
X-20701Y-56261
X-47000Y-26000
X-3937Y12192
X-4000Y-5000
X-4000Y-22000
X40000Y-21000
X58000Y-38000
X-69000Y-47000
X-38481Y-59309
X-51000Y-28000
X-22000Y-32000
X-22000Y-15000
X-22098Y2286
X57658Y-3683
X-32000Y-15000
X-64000Y-27000
M30