G04 EAGLE Gerber RS-274X export*
G75*
%MOMM*%
%FSLAX34Y34*%
%LPD*%
%INBottom Copper*%
%IPPOS*%
%AMOC8*
5,1,8,0,0,1.08239X$1,22.5*%
G01*
G04 Define Apertures*
%ADD10C,2.540000*%
%ADD11C,1.778000*%
%ADD12C,1.524000*%
%ADD13R,0.635000X1.270000*%
%ADD14C,1.260000*%
%ADD15R,0.900000X0.950000*%
%ADD16C,0.756400*%
%ADD17C,0.254000*%
G36*
X-83764Y-581441D02*
X-606924Y-678323D01*
X-607427Y-678315D01*
X-607890Y-678110D01*
X-838542Y-514732D01*
X-838977Y-514191D01*
X-839078Y-513695D01*
X-839078Y-42192D01*
X-838993Y-41734D01*
X-838720Y-41308D01*
X-838303Y-41023D01*
X-837808Y-40922D01*
X-457827Y-40922D01*
X-453813Y-39259D01*
X-450741Y-36187D01*
X-449078Y-32173D01*
X-449078Y160601D01*
X-448915Y161224D01*
X-448585Y161606D01*
X-448131Y161830D01*
X-78746Y259036D01*
X-78423Y259078D01*
X78293Y259078D01*
X78641Y259029D01*
X628157Y102025D01*
X628692Y101716D01*
X628977Y101299D01*
X629078Y100804D01*
X629078Y-417808D01*
X628993Y-418266D01*
X628720Y-418692D01*
X628303Y-418977D01*
X627808Y-419078D01*
X283567Y-419078D01*
X282883Y-418878D01*
X37001Y-261514D01*
X36788Y-261342D01*
X36187Y-260741D01*
X35177Y-260322D01*
X34978Y-260219D01*
X34058Y-259630D01*
X33221Y-259480D01*
X32958Y-259403D01*
X32173Y-259078D01*
X31079Y-259078D01*
X30856Y-259058D01*
X29780Y-258866D01*
X28950Y-259048D01*
X28678Y-259078D01*
X-70624Y-259078D01*
X-71063Y-259000D01*
X-71493Y-258734D01*
X-71785Y-258322D01*
X-71894Y-257828D01*
X-71801Y-257331D01*
X-71522Y-256910D01*
X-41306Y-226694D01*
X-40903Y-226423D01*
X-40408Y-226322D01*
X-38742Y-226322D01*
X-36419Y-225360D01*
X-35241Y-224182D01*
X-34839Y-223911D01*
X-34343Y-223810D01*
X-24060Y-223810D01*
X-23602Y-223895D01*
X-23176Y-224168D01*
X-22891Y-224585D01*
X-22790Y-225080D01*
X-22790Y-225802D01*
X-21302Y-227290D01*
X-10198Y-227290D01*
X-8710Y-225802D01*
X-8710Y-214198D01*
X-10198Y-212710D01*
X-10670Y-212710D01*
X-11128Y-212625D01*
X-11554Y-212352D01*
X-11839Y-211935D01*
X-11940Y-211440D01*
X-11940Y-196574D01*
X-11907Y-196284D01*
X-11696Y-195825D01*
X-11322Y-195484D01*
X-10846Y-195316D01*
X-10341Y-195347D01*
X-3576Y-197160D01*
X3576Y-197160D01*
X10341Y-195347D01*
X10630Y-195305D01*
X11128Y-195389D01*
X11554Y-195662D01*
X11839Y-196079D01*
X11940Y-196574D01*
X11940Y-211440D01*
X11855Y-211898D01*
X11582Y-212324D01*
X11165Y-212609D01*
X10670Y-212710D01*
X10198Y-212710D01*
X8710Y-214198D01*
X8710Y-225802D01*
X10198Y-227290D01*
X21302Y-227290D01*
X22790Y-225802D01*
X22790Y-225080D01*
X22875Y-224622D01*
X23148Y-224196D01*
X23565Y-223911D01*
X24060Y-223810D01*
X34343Y-223810D01*
X34820Y-223903D01*
X35241Y-224182D01*
X36419Y-225360D01*
X38742Y-226322D01*
X41258Y-226322D01*
X43581Y-225360D01*
X45360Y-223581D01*
X46322Y-221258D01*
X46322Y-218742D01*
X45360Y-216419D01*
X43581Y-214640D01*
X41258Y-213678D01*
X38742Y-213678D01*
X36419Y-214640D01*
X35241Y-215818D01*
X34839Y-216089D01*
X34343Y-216190D01*
X24060Y-216190D01*
X23602Y-216105D01*
X23176Y-215832D01*
X22891Y-215415D01*
X22790Y-214920D01*
X22790Y-214198D01*
X21302Y-212710D01*
X20830Y-212710D01*
X20372Y-212625D01*
X19946Y-212352D01*
X19661Y-211935D01*
X19560Y-211440D01*
X19560Y-196560D01*
X19653Y-196084D01*
X19932Y-195662D01*
X32240Y-183354D01*
X32240Y-156646D01*
X19932Y-144338D01*
X19661Y-143935D01*
X19560Y-143440D01*
X19560Y-125172D01*
X13842Y-119454D01*
X13575Y-119061D01*
X13470Y-118566D01*
X13567Y-118070D01*
X15240Y-114031D01*
X15240Y-107969D01*
X12920Y-102367D01*
X8633Y-98080D01*
X3031Y-95760D01*
X-3031Y-95760D01*
X-8633Y-98080D01*
X-9772Y-99219D01*
X-10138Y-99474D01*
X-10630Y-99591D01*
X-11128Y-99506D01*
X-11554Y-99234D01*
X-11839Y-98817D01*
X-11940Y-98321D01*
X-11940Y-58560D01*
X-11855Y-58102D01*
X-11582Y-57676D01*
X-11165Y-57391D01*
X-10670Y-57290D01*
X-10198Y-57290D01*
X-8710Y-55802D01*
X-8710Y-44198D01*
X-10198Y-42710D01*
X-10670Y-42710D01*
X-11128Y-42625D01*
X-11554Y-42352D01*
X-11839Y-41935D01*
X-11940Y-41440D01*
X-11940Y-26574D01*
X-11907Y-26284D01*
X-11696Y-25825D01*
X-11322Y-25484D01*
X-10846Y-25316D01*
X-10341Y-25347D01*
X-3576Y-27160D01*
X3576Y-27160D01*
X10341Y-25347D01*
X10630Y-25305D01*
X11128Y-25389D01*
X11554Y-25662D01*
X11839Y-26079D01*
X11940Y-26574D01*
X11940Y-41440D01*
X11855Y-41898D01*
X11582Y-42324D01*
X11165Y-42609D01*
X10670Y-42710D01*
X10198Y-42710D01*
X8710Y-44198D01*
X8710Y-55802D01*
X10198Y-57290D01*
X21302Y-57290D01*
X22790Y-55802D01*
X22790Y-55080D01*
X22875Y-54622D01*
X23148Y-54196D01*
X23565Y-53911D01*
X24060Y-53810D01*
X34343Y-53810D01*
X34820Y-53903D01*
X35241Y-54182D01*
X36419Y-55360D01*
X38742Y-56322D01*
X41258Y-56322D01*
X43581Y-55360D01*
X45360Y-53581D01*
X46322Y-51258D01*
X46322Y-48742D01*
X45360Y-46419D01*
X43581Y-44640D01*
X41258Y-43678D01*
X38742Y-43678D01*
X36419Y-44640D01*
X35241Y-45818D01*
X34839Y-46089D01*
X34343Y-46190D01*
X24060Y-46190D01*
X23602Y-46105D01*
X23176Y-45832D01*
X22891Y-45415D01*
X22790Y-44920D01*
X22790Y-44198D01*
X21302Y-42710D01*
X20830Y-42710D01*
X20372Y-42625D01*
X19946Y-42352D01*
X19661Y-41935D01*
X19560Y-41440D01*
X19560Y-26560D01*
X19653Y-26084D01*
X19932Y-25662D01*
X32240Y-13354D01*
X32240Y13354D01*
X19932Y25662D01*
X19661Y26065D01*
X19560Y26560D01*
X19560Y44828D01*
X13842Y50546D01*
X13575Y50939D01*
X13470Y51434D01*
X13567Y51930D01*
X15240Y55969D01*
X15240Y62031D01*
X12920Y67633D01*
X8633Y71920D01*
X3031Y74240D01*
X-3031Y74240D01*
X-8633Y71920D01*
X-11042Y69511D01*
X-11408Y69256D01*
X-11900Y69139D01*
X-12398Y69224D01*
X-12824Y69496D01*
X-13109Y69913D01*
X-13210Y70409D01*
X-13210Y113980D01*
X-13125Y114438D01*
X-12852Y114864D01*
X-12435Y115149D01*
X-11940Y115250D01*
X-11468Y115250D01*
X-9980Y116738D01*
X-9980Y128342D01*
X-11468Y129830D01*
X-22572Y129830D01*
X-24060Y128342D01*
X-24060Y127620D01*
X-24145Y127162D01*
X-24418Y126736D01*
X-24835Y126451D01*
X-25330Y126350D01*
X-34333Y126350D01*
X-34810Y126443D01*
X-35231Y126722D01*
X-35789Y127280D01*
X-38112Y128242D01*
X-40628Y128242D01*
X-42951Y127280D01*
X-44730Y125501D01*
X-45692Y123178D01*
X-45692Y120662D01*
X-44730Y118339D01*
X-42951Y116560D01*
X-40628Y115598D01*
X-38112Y115598D01*
X-35789Y116560D01*
X-33991Y118358D01*
X-33589Y118629D01*
X-33093Y118730D01*
X-25330Y118730D01*
X-24872Y118645D01*
X-24446Y118372D01*
X-24161Y117955D01*
X-24060Y117460D01*
X-24060Y116738D01*
X-22572Y115250D01*
X-22100Y115250D01*
X-21642Y115165D01*
X-21216Y114892D01*
X-20931Y114475D01*
X-20830Y113980D01*
X-20830Y25290D01*
X-20923Y24814D01*
X-21202Y24392D01*
X-32240Y13354D01*
X-32240Y-13354D01*
X-19932Y-25662D01*
X-19661Y-26065D01*
X-19560Y-26560D01*
X-19560Y-41440D01*
X-19645Y-41898D01*
X-19918Y-42324D01*
X-20335Y-42609D01*
X-20830Y-42710D01*
X-21302Y-42710D01*
X-22790Y-44198D01*
X-22790Y-44920D01*
X-22875Y-45378D01*
X-23148Y-45804D01*
X-23565Y-46089D01*
X-24060Y-46190D01*
X-34343Y-46190D01*
X-34820Y-46097D01*
X-35241Y-45818D01*
X-36419Y-44640D01*
X-38742Y-43678D01*
X-41258Y-43678D01*
X-43581Y-44640D01*
X-45360Y-46419D01*
X-46322Y-48742D01*
X-46322Y-51258D01*
X-45360Y-53581D01*
X-43581Y-55360D01*
X-41258Y-56322D01*
X-38742Y-56322D01*
X-36419Y-55360D01*
X-35241Y-54182D01*
X-34839Y-53911D01*
X-34343Y-53810D01*
X-24060Y-53810D01*
X-23602Y-53895D01*
X-23176Y-54168D01*
X-22891Y-54585D01*
X-22790Y-55080D01*
X-22790Y-55802D01*
X-21302Y-57290D01*
X-20830Y-57290D01*
X-20372Y-57375D01*
X-19946Y-57648D01*
X-19661Y-58065D01*
X-19560Y-58560D01*
X-19560Y-101297D01*
X-19653Y-101774D01*
X-19932Y-102195D01*
X-20320Y-102583D01*
X-20320Y-144200D01*
X-20413Y-144676D01*
X-20692Y-145098D01*
X-32240Y-156646D01*
X-32240Y-183354D01*
X-19932Y-195662D01*
X-19661Y-196065D01*
X-19560Y-196560D01*
X-19560Y-211440D01*
X-19645Y-211898D01*
X-19918Y-212324D01*
X-20335Y-212609D01*
X-20830Y-212710D01*
X-21302Y-212710D01*
X-22790Y-214198D01*
X-22790Y-214920D01*
X-22875Y-215378D01*
X-23148Y-215804D01*
X-23565Y-216089D01*
X-24060Y-216190D01*
X-34343Y-216190D01*
X-34820Y-216097D01*
X-35241Y-215818D01*
X-36419Y-214640D01*
X-38742Y-213678D01*
X-41258Y-213678D01*
X-43581Y-214640D01*
X-45360Y-216419D01*
X-46322Y-218742D01*
X-46322Y-220408D01*
X-46415Y-220884D01*
X-46694Y-221306D01*
X-79014Y-253626D01*
X-79417Y-253897D01*
X-79912Y-253998D01*
X-86628Y-253998D01*
X-96002Y-263372D01*
X-96002Y-280825D01*
X-96095Y-281301D01*
X-96374Y-281723D01*
X-132251Y-317599D01*
X-132626Y-317859D01*
X-133118Y-317971D01*
X-133616Y-317882D01*
X-134040Y-317607D01*
X-134322Y-317187D01*
X-134640Y-316419D01*
X-136419Y-314640D01*
X-138742Y-313678D01*
X-141258Y-313678D01*
X-143581Y-314640D01*
X-144759Y-315818D01*
X-145161Y-316089D01*
X-145657Y-316190D01*
X-155940Y-316190D01*
X-156398Y-316105D01*
X-156824Y-315832D01*
X-157109Y-315415D01*
X-157210Y-314920D01*
X-157210Y-314198D01*
X-158698Y-312710D01*
X-159170Y-312710D01*
X-159628Y-312625D01*
X-160054Y-312352D01*
X-160339Y-311935D01*
X-160440Y-311440D01*
X-160440Y-296560D01*
X-160347Y-296084D01*
X-160068Y-295662D01*
X-147760Y-283354D01*
X-147760Y-256646D01*
X-160068Y-244338D01*
X-160339Y-243935D01*
X-160440Y-243440D01*
X-160440Y-225172D01*
X-166158Y-219454D01*
X-166425Y-219061D01*
X-166530Y-218566D01*
X-166433Y-218070D01*
X-164760Y-214031D01*
X-164760Y-207969D01*
X-167080Y-202367D01*
X-171367Y-198080D01*
X-176969Y-195760D01*
X-183031Y-195760D01*
X-188633Y-198080D01*
X-189772Y-199219D01*
X-190138Y-199474D01*
X-190630Y-199591D01*
X-191128Y-199506D01*
X-191554Y-199234D01*
X-191839Y-198817D01*
X-191940Y-198321D01*
X-191940Y-158560D01*
X-191855Y-158102D01*
X-191582Y-157676D01*
X-191165Y-157391D01*
X-190670Y-157290D01*
X-190198Y-157290D01*
X-188710Y-155802D01*
X-188710Y-144198D01*
X-190198Y-142710D01*
X-192280Y-142710D01*
X-192738Y-142625D01*
X-193164Y-142352D01*
X-193449Y-141935D01*
X-193550Y-141440D01*
X-193550Y-125738D01*
X-193400Y-125139D01*
X-193077Y-124749D01*
X-192628Y-124517D01*
X-192124Y-124478D01*
X-191645Y-124638D01*
X-190483Y-125309D01*
X-183576Y-127160D01*
X-176424Y-127160D01*
X-169659Y-125347D01*
X-169370Y-125305D01*
X-168872Y-125389D01*
X-168446Y-125662D01*
X-168161Y-126079D01*
X-168060Y-126574D01*
X-168060Y-141440D01*
X-168145Y-141898D01*
X-168418Y-142324D01*
X-168835Y-142609D01*
X-169330Y-142710D01*
X-169802Y-142710D01*
X-171290Y-144198D01*
X-171290Y-155802D01*
X-169802Y-157290D01*
X-158698Y-157290D01*
X-157210Y-155802D01*
X-157210Y-155080D01*
X-157125Y-154622D01*
X-156852Y-154196D01*
X-156435Y-153911D01*
X-155940Y-153810D01*
X-145657Y-153810D01*
X-145180Y-153903D01*
X-144759Y-154182D01*
X-143581Y-155360D01*
X-141258Y-156322D01*
X-138742Y-156322D01*
X-136419Y-155360D01*
X-134640Y-153581D01*
X-133678Y-151258D01*
X-133678Y-148742D01*
X-134640Y-146419D01*
X-136419Y-144640D01*
X-138742Y-143678D01*
X-141258Y-143678D01*
X-143581Y-144640D01*
X-144759Y-145818D01*
X-145161Y-146089D01*
X-145657Y-146190D01*
X-155940Y-146190D01*
X-156398Y-146105D01*
X-156824Y-145832D01*
X-157109Y-145415D01*
X-157210Y-144920D01*
X-157210Y-144198D01*
X-158698Y-142710D01*
X-159170Y-142710D01*
X-159628Y-142625D01*
X-160054Y-142352D01*
X-160339Y-141935D01*
X-160440Y-141440D01*
X-160440Y-126560D01*
X-160347Y-126084D01*
X-160068Y-125662D01*
X-147760Y-113354D01*
X-147760Y-86646D01*
X-160068Y-74338D01*
X-160339Y-73935D01*
X-160440Y-73440D01*
X-160440Y-55172D01*
X-166158Y-49454D01*
X-166425Y-49061D01*
X-166530Y-48566D01*
X-166433Y-48070D01*
X-164760Y-44031D01*
X-164760Y-37969D01*
X-167080Y-32367D01*
X-171367Y-28080D01*
X-176969Y-25760D01*
X-183031Y-25760D01*
X-188633Y-28080D01*
X-191382Y-30829D01*
X-191748Y-31084D01*
X-192240Y-31201D01*
X-192738Y-31116D01*
X-193164Y-30844D01*
X-193449Y-30427D01*
X-193550Y-29931D01*
X-193550Y14300D01*
X-193465Y14758D01*
X-193192Y15184D01*
X-192775Y15469D01*
X-192280Y15570D01*
X-191808Y15570D01*
X-190320Y17058D01*
X-190320Y28662D01*
X-191808Y30150D01*
X-202912Y30150D01*
X-204400Y28662D01*
X-204400Y27940D01*
X-204485Y27482D01*
X-204758Y27056D01*
X-205175Y26771D01*
X-205670Y26670D01*
X-215323Y26670D01*
X-215800Y26763D01*
X-216221Y27042D01*
X-217399Y28220D01*
X-219722Y29182D01*
X-222238Y29182D01*
X-224561Y28220D01*
X-226340Y26441D01*
X-227302Y24118D01*
X-227302Y21602D01*
X-226340Y19279D01*
X-224561Y17500D01*
X-222238Y16538D01*
X-219722Y16538D01*
X-217399Y17500D01*
X-216221Y18678D01*
X-215819Y18949D01*
X-215323Y19050D01*
X-205670Y19050D01*
X-205212Y18965D01*
X-204786Y18692D01*
X-204501Y18275D01*
X-204400Y17780D01*
X-204400Y17058D01*
X-202912Y15570D01*
X-202440Y15570D01*
X-201982Y15485D01*
X-201556Y15212D01*
X-201271Y14795D01*
X-201170Y14300D01*
X-201170Y-75050D01*
X-201263Y-75526D01*
X-201542Y-75948D01*
X-212240Y-86646D01*
X-212240Y-113354D01*
X-201542Y-124052D01*
X-201271Y-124455D01*
X-201170Y-124950D01*
X-201170Y-142052D01*
X-201263Y-142528D01*
X-201542Y-142950D01*
X-202790Y-144198D01*
X-202790Y-144920D01*
X-202875Y-145378D01*
X-203148Y-145804D01*
X-203565Y-146089D01*
X-204060Y-146190D01*
X-214343Y-146190D01*
X-214820Y-146097D01*
X-215241Y-145818D01*
X-216419Y-144640D01*
X-218742Y-143678D01*
X-221258Y-143678D01*
X-223581Y-144640D01*
X-225360Y-146419D01*
X-226322Y-148742D01*
X-226322Y-151258D01*
X-225360Y-153581D01*
X-223581Y-155360D01*
X-221258Y-156322D01*
X-218742Y-156322D01*
X-216419Y-155360D01*
X-215241Y-154182D01*
X-214839Y-153911D01*
X-214343Y-153810D01*
X-204060Y-153810D01*
X-203602Y-153895D01*
X-203176Y-154168D01*
X-202891Y-154585D01*
X-202790Y-155080D01*
X-202790Y-155802D01*
X-201302Y-157290D01*
X-200830Y-157290D01*
X-200372Y-157375D01*
X-199946Y-157648D01*
X-199661Y-158065D01*
X-199560Y-158560D01*
X-199560Y-201297D01*
X-199653Y-201774D01*
X-199932Y-202195D01*
X-200320Y-202583D01*
X-200320Y-244200D01*
X-200413Y-244676D01*
X-200692Y-245098D01*
X-212240Y-256646D01*
X-212240Y-283354D01*
X-199932Y-295662D01*
X-199661Y-296065D01*
X-199560Y-296560D01*
X-199560Y-311440D01*
X-199645Y-311898D01*
X-199918Y-312324D01*
X-200335Y-312609D01*
X-200830Y-312710D01*
X-201302Y-312710D01*
X-202790Y-314198D01*
X-202790Y-314920D01*
X-202875Y-315378D01*
X-203148Y-315804D01*
X-203565Y-316089D01*
X-204060Y-316190D01*
X-214343Y-316190D01*
X-214820Y-316097D01*
X-215241Y-315818D01*
X-216419Y-314640D01*
X-218742Y-313678D01*
X-221258Y-313678D01*
X-223581Y-314640D01*
X-225360Y-316419D01*
X-226322Y-318742D01*
X-226322Y-320408D01*
X-226415Y-320884D01*
X-226694Y-321306D01*
X-367710Y-462321D01*
X-367917Y-462489D01*
X-368387Y-462674D01*
X-375702Y-463964D01*
X-379328Y-464603D01*
X-380606Y-466428D01*
X-381440Y-467620D01*
X-386871Y-475376D01*
X-388983Y-478393D01*
X-386412Y-492979D01*
X-386392Y-493199D01*
X-386392Y-524263D01*
X-386485Y-524740D01*
X-386764Y-525161D01*
X-391935Y-530332D01*
X-391935Y-540112D01*
X-392010Y-540542D01*
X-392272Y-540974D01*
X-392682Y-541270D01*
X-393175Y-541382D01*
X-393673Y-541293D01*
X-394096Y-541017D01*
X-394379Y-540598D01*
X-394763Y-539671D01*
X-400293Y-534140D01*
X-407519Y-531147D01*
X-415341Y-531147D01*
X-422566Y-534140D01*
X-428097Y-539671D01*
X-431090Y-546897D01*
X-431090Y-554718D01*
X-428097Y-561944D01*
X-422566Y-567474D01*
X-415341Y-570467D01*
X-407519Y-570467D01*
X-400293Y-567474D01*
X-394763Y-561944D01*
X-391803Y-554797D01*
X-391555Y-554414D01*
X-391143Y-554122D01*
X-390650Y-554013D01*
X-390153Y-554106D01*
X-389731Y-554385D01*
X-369693Y-574424D01*
X-369421Y-574826D01*
X-369321Y-575322D01*
X-369321Y-584939D01*
X-369539Y-585650D01*
X-369900Y-586004D01*
X-370370Y-586189D01*
X-372244Y-586520D01*
X-372909Y-587468D01*
X-373454Y-587909D01*
X-373949Y-588010D01*
X-380423Y-588010D01*
X-380900Y-587917D01*
X-381103Y-587783D01*
X-383552Y-586768D01*
X-386068Y-586768D01*
X-388391Y-587730D01*
X-390170Y-589509D01*
X-391132Y-591832D01*
X-391132Y-594348D01*
X-390170Y-596671D01*
X-388391Y-598450D01*
X-386068Y-599412D01*
X-383552Y-599412D01*
X-381229Y-598450D01*
X-379450Y-596671D01*
X-379344Y-596414D01*
X-379083Y-596016D01*
X-378666Y-595731D01*
X-378171Y-595630D01*
X-373215Y-595630D01*
X-372503Y-595848D01*
X-372149Y-596209D01*
X-371964Y-596679D01*
X-371436Y-599671D01*
X-369713Y-600878D01*
X-358777Y-598950D01*
X-357570Y-597226D01*
X-359585Y-585798D01*
X-361159Y-584696D01*
X-361600Y-584151D01*
X-361701Y-583656D01*
X-361701Y-571639D01*
X-363066Y-570274D01*
X-363236Y-570063D01*
X-363420Y-569592D01*
X-363405Y-569087D01*
X-363194Y-568627D01*
X-362821Y-568286D01*
X-362344Y-568118D01*
X-361839Y-568149D01*
X-360841Y-568417D01*
X-353690Y-568417D01*
X-346782Y-566566D01*
X-340589Y-562990D01*
X-340467Y-562869D01*
X-340102Y-562614D01*
X-339610Y-562497D01*
X-339111Y-562582D01*
X-338686Y-562854D01*
X-338400Y-563271D01*
X-338299Y-563767D01*
X-338299Y-579469D01*
X-338517Y-580181D01*
X-338878Y-580534D01*
X-339349Y-580719D01*
X-341223Y-581050D01*
X-342430Y-582774D01*
X-340415Y-594202D01*
X-338691Y-595408D01*
X-327756Y-593480D01*
X-326451Y-591617D01*
X-325906Y-591176D01*
X-325410Y-591075D01*
X-320092Y-591075D01*
X-319615Y-591168D01*
X-319194Y-591447D01*
X-318541Y-592100D01*
X-316218Y-593062D01*
X-313702Y-593062D01*
X-311379Y-592100D01*
X-309600Y-590321D01*
X-308638Y-587998D01*
X-308638Y-585482D01*
X-309600Y-583159D01*
X-311379Y-581380D01*
X-313702Y-580418D01*
X-316218Y-580418D01*
X-318541Y-581380D01*
X-320244Y-583083D01*
X-320646Y-583354D01*
X-321142Y-583455D01*
X-326947Y-583455D01*
X-327659Y-583237D01*
X-328013Y-582876D01*
X-328198Y-582406D01*
X-328564Y-580329D01*
X-330138Y-579227D01*
X-330579Y-578682D01*
X-330679Y-578186D01*
X-330679Y-560791D01*
X-330586Y-560314D01*
X-330307Y-559893D01*
X-325025Y-554611D01*
X-325025Y-536535D01*
X-324951Y-536105D01*
X-324688Y-535673D01*
X-324279Y-535377D01*
X-323786Y-535265D01*
X-323288Y-535354D01*
X-322865Y-535629D01*
X-322582Y-536049D01*
X-319768Y-542843D01*
X-314237Y-548373D01*
X-307012Y-551366D01*
X-299190Y-551366D01*
X-291965Y-548373D01*
X-286434Y-542843D01*
X-283441Y-535617D01*
X-283441Y-527795D01*
X-286434Y-520570D01*
X-291965Y-515039D01*
X-299190Y-512046D01*
X-307012Y-512046D01*
X-314237Y-515039D01*
X-319768Y-520570D01*
X-322582Y-527363D01*
X-322815Y-527732D01*
X-323223Y-528030D01*
X-323715Y-528147D01*
X-324213Y-528062D01*
X-324639Y-527790D01*
X-324925Y-527373D01*
X-325025Y-526877D01*
X-325025Y-520250D01*
X-353668Y-491607D01*
X-353936Y-491214D01*
X-354040Y-490719D01*
X-353944Y-490223D01*
X-352271Y-486184D01*
X-352271Y-480122D01*
X-354591Y-474520D01*
X-358878Y-470233D01*
X-360970Y-469367D01*
X-361353Y-469119D01*
X-361645Y-468707D01*
X-361754Y-468213D01*
X-361701Y-467929D01*
X-361701Y-467637D01*
X-361673Y-467373D01*
X-361471Y-466909D01*
X-361419Y-466834D01*
X-361276Y-466664D01*
X-221306Y-326694D01*
X-220903Y-326423D01*
X-220408Y-326322D01*
X-218742Y-326322D01*
X-216419Y-325360D01*
X-215241Y-324182D01*
X-214839Y-323911D01*
X-214343Y-323810D01*
X-204060Y-323810D01*
X-203602Y-323895D01*
X-203176Y-324168D01*
X-202891Y-324585D01*
X-202790Y-325080D01*
X-202790Y-325802D01*
X-201302Y-327290D01*
X-190198Y-327290D01*
X-188710Y-325802D01*
X-188710Y-314198D01*
X-190198Y-312710D01*
X-190670Y-312710D01*
X-191128Y-312625D01*
X-191554Y-312352D01*
X-191839Y-311935D01*
X-191940Y-311440D01*
X-191940Y-296574D01*
X-191907Y-296284D01*
X-191696Y-295825D01*
X-191322Y-295484D01*
X-190846Y-295316D01*
X-190341Y-295347D01*
X-183576Y-297160D01*
X-176424Y-297160D01*
X-169659Y-295347D01*
X-169370Y-295305D01*
X-168872Y-295389D01*
X-168446Y-295662D01*
X-168161Y-296079D01*
X-168060Y-296574D01*
X-168060Y-311440D01*
X-168145Y-311898D01*
X-168418Y-312324D01*
X-168835Y-312609D01*
X-169330Y-312710D01*
X-169802Y-312710D01*
X-171290Y-314198D01*
X-171290Y-325802D01*
X-169802Y-327290D01*
X-158698Y-327290D01*
X-157210Y-325802D01*
X-157210Y-325080D01*
X-157125Y-324622D01*
X-156852Y-324196D01*
X-156435Y-323911D01*
X-155940Y-323810D01*
X-145657Y-323810D01*
X-145180Y-323903D01*
X-144759Y-324182D01*
X-143581Y-325360D01*
X-142813Y-325678D01*
X-142430Y-325925D01*
X-142137Y-326337D01*
X-142029Y-326831D01*
X-142122Y-327328D01*
X-142401Y-327749D01*
X-189321Y-374669D01*
X-189321Y-420384D01*
X-189414Y-420861D01*
X-189693Y-421282D01*
X-212240Y-443830D01*
X-212240Y-514722D01*
X-212315Y-515151D01*
X-212577Y-515584D01*
X-212987Y-515879D01*
X-213480Y-515992D01*
X-213977Y-515903D01*
X-214401Y-515627D01*
X-214683Y-515208D01*
X-217497Y-508414D01*
X-223028Y-502884D01*
X-230254Y-499891D01*
X-238075Y-499891D01*
X-245301Y-502884D01*
X-250831Y-508414D01*
X-253824Y-515640D01*
X-253824Y-523461D01*
X-250831Y-530687D01*
X-245301Y-536218D01*
X-238075Y-539211D01*
X-230254Y-539211D01*
X-223028Y-536218D01*
X-217497Y-530687D01*
X-214537Y-523540D01*
X-214290Y-523158D01*
X-213878Y-522865D01*
X-213384Y-522757D01*
X-212887Y-522849D01*
X-212466Y-523128D01*
X-189693Y-545902D01*
X-189421Y-546304D01*
X-189321Y-546800D01*
X-189321Y-554939D01*
X-189539Y-555650D01*
X-189900Y-556004D01*
X-190370Y-556189D01*
X-192244Y-556520D01*
X-193462Y-558258D01*
X-194007Y-558699D01*
X-194502Y-558800D01*
X-201353Y-558800D01*
X-201830Y-558707D01*
X-202251Y-558428D01*
X-203429Y-557250D01*
X-205752Y-556288D01*
X-208268Y-556288D01*
X-210591Y-557250D01*
X-212370Y-559029D01*
X-213332Y-561352D01*
X-213332Y-563868D01*
X-212370Y-566191D01*
X-210591Y-567970D01*
X-208268Y-568932D01*
X-205752Y-568932D01*
X-203429Y-567970D01*
X-202251Y-566792D01*
X-201849Y-566521D01*
X-201353Y-566420D01*
X-193075Y-566420D01*
X-192363Y-566638D01*
X-192010Y-566999D01*
X-191824Y-567469D01*
X-191436Y-569671D01*
X-189713Y-570878D01*
X-178777Y-568950D01*
X-177570Y-567226D01*
X-179585Y-555798D01*
X-181159Y-554696D01*
X-181600Y-554151D01*
X-181701Y-553656D01*
X-181701Y-543117D01*
X-185801Y-539017D01*
X-185971Y-538806D01*
X-186154Y-538335D01*
X-186139Y-537830D01*
X-185928Y-537370D01*
X-185555Y-537030D01*
X-185078Y-536861D01*
X-184574Y-536893D01*
X-183576Y-537160D01*
X-176424Y-537160D01*
X-169517Y-535309D01*
X-163323Y-531733D01*
X-160467Y-528877D01*
X-160102Y-528622D01*
X-159610Y-528506D01*
X-159111Y-528591D01*
X-158686Y-528863D01*
X-158400Y-529280D01*
X-158299Y-529775D01*
X-158299Y-549469D01*
X-158517Y-550181D01*
X-158878Y-550534D01*
X-159349Y-550719D01*
X-161223Y-551050D01*
X-162430Y-552774D01*
X-160415Y-564202D01*
X-158691Y-565408D01*
X-147756Y-563480D01*
X-146451Y-561617D01*
X-145906Y-561176D01*
X-145410Y-561075D01*
X-141812Y-561075D01*
X-141335Y-561168D01*
X-140914Y-561447D01*
X-139471Y-562890D01*
X-137148Y-563852D01*
X-134632Y-563852D01*
X-132309Y-562890D01*
X-130530Y-561111D01*
X-129568Y-558788D01*
X-129568Y-556272D01*
X-130530Y-553949D01*
X-132309Y-552170D01*
X-134632Y-551208D01*
X-137148Y-551208D01*
X-139471Y-552170D01*
X-140384Y-553083D01*
X-140786Y-553354D01*
X-141282Y-553455D01*
X-146947Y-553455D01*
X-147659Y-553237D01*
X-148013Y-552876D01*
X-148198Y-552406D01*
X-148564Y-550329D01*
X-150138Y-549227D01*
X-150579Y-548682D01*
X-150679Y-548186D01*
X-150679Y-526800D01*
X-150586Y-526323D01*
X-150307Y-525902D01*
X-147760Y-523354D01*
X-147760Y-505278D01*
X-147685Y-504849D01*
X-147423Y-504416D01*
X-147013Y-504121D01*
X-146520Y-504008D01*
X-146023Y-504097D01*
X-145599Y-504373D01*
X-145317Y-504792D01*
X-142503Y-511586D01*
X-136972Y-517116D01*
X-129746Y-520109D01*
X-121925Y-520109D01*
X-114699Y-517116D01*
X-109169Y-511586D01*
X-106176Y-504360D01*
X-106176Y-496539D01*
X-109169Y-489313D01*
X-114699Y-483782D01*
X-121925Y-480789D01*
X-129746Y-480789D01*
X-136972Y-483782D01*
X-142503Y-489313D01*
X-145317Y-496107D01*
X-145550Y-496475D01*
X-145958Y-496774D01*
X-146450Y-496890D01*
X-146948Y-496805D01*
X-147374Y-496533D01*
X-147659Y-496116D01*
X-147760Y-495621D01*
X-147760Y-488993D01*
X-176403Y-460351D01*
X-176670Y-459957D01*
X-176775Y-459463D01*
X-176678Y-458967D01*
X-175005Y-454928D01*
X-175005Y-448865D01*
X-177325Y-443264D01*
X-181613Y-438976D01*
X-187214Y-436656D01*
X-191224Y-436656D01*
X-191663Y-436578D01*
X-192093Y-436313D01*
X-192386Y-435900D01*
X-192494Y-435407D01*
X-192402Y-434910D01*
X-192122Y-434488D01*
X-181701Y-424067D01*
X-181701Y-378352D01*
X-181608Y-377875D01*
X-181329Y-377454D01*
X-93090Y-289215D01*
X-92724Y-288960D01*
X-92232Y-288844D01*
X-91734Y-288928D01*
X-91308Y-289201D01*
X-91023Y-289618D01*
X-90922Y-290113D01*
X-90922Y-528607D01*
X-90955Y-528893D01*
X-91131Y-529653D01*
X-90939Y-530800D01*
X-90922Y-531009D01*
X-90922Y-532173D01*
X-90624Y-532893D01*
X-90544Y-533170D01*
X-82742Y-579984D01*
X-82747Y-580427D01*
X-82937Y-580895D01*
X-83295Y-581252D01*
X-83764Y-581441D01*
G37*
%LPC*%
G36*
X8928Y115250D02*
X20032Y115250D01*
X21520Y116738D01*
X21520Y116840D01*
X21605Y117298D01*
X21878Y117724D01*
X22295Y118009D01*
X22790Y118110D01*
X31173Y118110D01*
X31650Y118017D01*
X32071Y117738D01*
X33249Y116560D01*
X35572Y115598D01*
X38088Y115598D01*
X40411Y116560D01*
X42190Y118339D01*
X43152Y120662D01*
X43152Y123178D01*
X42190Y125501D01*
X40411Y127280D01*
X38088Y128242D01*
X35572Y128242D01*
X33249Y127280D01*
X32071Y126102D01*
X31669Y125831D01*
X31173Y125730D01*
X22790Y125730D01*
X22332Y125815D01*
X21906Y126088D01*
X21621Y126505D01*
X21520Y127000D01*
X21520Y128342D01*
X20032Y129830D01*
X19560Y129830D01*
X19102Y129915D01*
X18676Y130188D01*
X18391Y130605D01*
X18290Y131100D01*
X18290Y142170D01*
X18383Y142646D01*
X18662Y143068D01*
X32240Y156646D01*
X32240Y183354D01*
X18662Y196932D01*
X18391Y197335D01*
X18290Y197830D01*
X18290Y216098D01*
X13842Y220546D01*
X13575Y220939D01*
X13470Y221434D01*
X13567Y221930D01*
X15240Y225969D01*
X15240Y232031D01*
X12920Y237633D01*
X8633Y241920D01*
X3031Y244240D01*
X-3031Y244240D01*
X-8633Y241920D01*
X-12920Y237633D01*
X-15240Y232031D01*
X-15240Y225969D01*
X-12920Y220367D01*
X-8633Y216080D01*
X-3031Y213760D01*
X3031Y213760D01*
X7070Y215433D01*
X7536Y215529D01*
X8033Y215437D01*
X8454Y215158D01*
X10298Y213314D01*
X10569Y212911D01*
X10670Y212416D01*
X10670Y196914D01*
X10637Y196625D01*
X10426Y196165D01*
X10052Y195825D01*
X9576Y195656D01*
X9071Y195687D01*
X3576Y197160D01*
X-3576Y197160D01*
X-10483Y195309D01*
X-16677Y191733D01*
X-21733Y186677D01*
X-25309Y180483D01*
X-27160Y173576D01*
X-27160Y166424D01*
X-25309Y159517D01*
X-21733Y153323D01*
X-16677Y148267D01*
X-10483Y144691D01*
X-3576Y142840D01*
X3576Y142840D01*
X9071Y144313D01*
X9360Y144355D01*
X9858Y144270D01*
X10284Y143998D01*
X10569Y143581D01*
X10670Y143086D01*
X10670Y131100D01*
X10585Y130642D01*
X10312Y130216D01*
X9895Y129931D01*
X9400Y129830D01*
X8928Y129830D01*
X7440Y128342D01*
X7440Y116738D01*
X8928Y115250D01*
G37*
G36*
X46969Y192760D02*
X53031Y192760D01*
X58633Y195080D01*
X62920Y199367D01*
X65240Y204969D01*
X65240Y211031D01*
X62920Y216633D01*
X58633Y220920D01*
X53031Y223240D01*
X46969Y223240D01*
X41367Y220920D01*
X37080Y216633D01*
X34760Y211031D01*
X34760Y204969D01*
X37080Y199367D01*
X41367Y195080D01*
X46969Y192760D01*
G37*
G36*
X-53031Y192760D02*
X-46969Y192760D01*
X-41367Y195080D01*
X-37080Y199367D01*
X-34760Y204969D01*
X-34760Y211031D01*
X-37080Y216633D01*
X-41367Y220920D01*
X-46969Y223240D01*
X-53031Y223240D01*
X-58633Y220920D01*
X-62920Y216633D01*
X-65240Y211031D01*
X-65240Y204969D01*
X-62920Y199367D01*
X-58633Y195080D01*
X-53031Y192760D01*
G37*
G36*
X188928Y65250D02*
X200032Y65250D01*
X201520Y66738D01*
X201520Y67460D01*
X201605Y67918D01*
X201878Y68344D01*
X202295Y68629D01*
X202790Y68730D01*
X207553Y68730D01*
X208030Y68637D01*
X208451Y68358D01*
X209779Y67030D01*
X212102Y66068D01*
X214618Y66068D01*
X216941Y67030D01*
X218720Y68809D01*
X219682Y71132D01*
X219682Y73648D01*
X218720Y75971D01*
X216941Y77750D01*
X214618Y78712D01*
X212102Y78712D01*
X209779Y77750D01*
X208751Y76722D01*
X208349Y76451D01*
X207853Y76350D01*
X202790Y76350D01*
X202332Y76435D01*
X201906Y76708D01*
X201621Y77125D01*
X201520Y77620D01*
X201520Y78342D01*
X200032Y79830D01*
X199560Y79830D01*
X199102Y79915D01*
X198676Y80188D01*
X198391Y80605D01*
X198290Y81100D01*
X198290Y92170D01*
X198383Y92646D01*
X198662Y93068D01*
X212240Y106646D01*
X212240Y133354D01*
X198662Y146932D01*
X198391Y147335D01*
X198290Y147830D01*
X198290Y166098D01*
X193842Y170546D01*
X193575Y170939D01*
X193470Y171434D01*
X193567Y171930D01*
X195240Y175969D01*
X195240Y182031D01*
X192920Y187633D01*
X188633Y191920D01*
X183031Y194240D01*
X176969Y194240D01*
X171367Y191920D01*
X167080Y187633D01*
X164760Y182031D01*
X164760Y175969D01*
X167080Y170367D01*
X171367Y166080D01*
X176969Y163760D01*
X183031Y163760D01*
X187070Y165433D01*
X187536Y165529D01*
X188033Y165437D01*
X188454Y165158D01*
X190298Y163314D01*
X190569Y162911D01*
X190670Y162416D01*
X190670Y146914D01*
X190637Y146625D01*
X190426Y146165D01*
X190052Y145825D01*
X189576Y145656D01*
X189071Y145687D01*
X183576Y147160D01*
X176424Y147160D01*
X169517Y145309D01*
X163323Y141733D01*
X158267Y136677D01*
X154691Y130483D01*
X152840Y123576D01*
X152840Y116424D01*
X154691Y109517D01*
X158267Y103323D01*
X163323Y98267D01*
X169517Y94691D01*
X176424Y92840D01*
X183576Y92840D01*
X189071Y94313D01*
X189360Y94355D01*
X189858Y94270D01*
X190284Y93998D01*
X190569Y93581D01*
X190670Y93086D01*
X190670Y81100D01*
X190585Y80642D01*
X190312Y80216D01*
X189895Y79931D01*
X189400Y79830D01*
X188928Y79830D01*
X187440Y78342D01*
X187440Y66738D01*
X188928Y65250D01*
G37*
G36*
X-58911Y150340D02*
X-51089Y150340D01*
X-43864Y153333D01*
X-38333Y158864D01*
X-35340Y166089D01*
X-35340Y173911D01*
X-38333Y181136D01*
X-43864Y186667D01*
X-51089Y189660D01*
X-58911Y189660D01*
X-66136Y186667D01*
X-71667Y181136D01*
X-74660Y173911D01*
X-74660Y166089D01*
X-71667Y158864D01*
X-66136Y153333D01*
X-58911Y150340D01*
G37*
G36*
X51089Y150340D02*
X58911Y150340D01*
X66136Y153333D01*
X71667Y158864D01*
X74660Y166089D01*
X74660Y173911D01*
X71667Y181136D01*
X66136Y186667D01*
X58911Y189660D01*
X51089Y189660D01*
X43864Y186667D01*
X38333Y181136D01*
X35340Y173911D01*
X35340Y166089D01*
X38333Y158864D01*
X43864Y153333D01*
X51089Y150340D01*
G37*
G36*
X226969Y142760D02*
X233031Y142760D01*
X238633Y145080D01*
X242920Y149367D01*
X245240Y154969D01*
X245240Y161031D01*
X242920Y166633D01*
X238633Y170920D01*
X233031Y173240D01*
X226969Y173240D01*
X221367Y170920D01*
X217080Y166633D01*
X214760Y161031D01*
X214760Y154969D01*
X217080Y149367D01*
X221367Y145080D01*
X226969Y142760D01*
G37*
G36*
X126969Y142760D02*
X133031Y142760D01*
X138633Y145080D01*
X142920Y149367D01*
X145240Y154969D01*
X145240Y161031D01*
X142920Y166633D01*
X138633Y170920D01*
X133031Y173240D01*
X126969Y173240D01*
X121367Y170920D01*
X117080Y166633D01*
X114760Y161031D01*
X114760Y154969D01*
X117080Y149367D01*
X121367Y145080D01*
X126969Y142760D01*
G37*
G36*
X-171412Y15570D02*
X-160308Y15570D01*
X-158820Y17058D01*
X-158820Y17780D01*
X-158735Y18238D01*
X-158462Y18664D01*
X-158045Y18949D01*
X-157550Y19050D01*
X-145357Y19050D01*
X-144880Y18957D01*
X-144459Y18678D01*
X-143281Y17500D01*
X-140958Y16538D01*
X-138442Y16538D01*
X-136119Y17500D01*
X-134340Y19279D01*
X-133378Y21602D01*
X-133378Y24118D01*
X-134340Y26441D01*
X-136119Y28220D01*
X-138442Y29182D01*
X-140958Y29182D01*
X-143281Y28220D01*
X-144459Y27042D01*
X-144861Y26771D01*
X-145357Y26670D01*
X-157550Y26670D01*
X-158008Y26755D01*
X-158434Y27028D01*
X-158719Y27445D01*
X-158820Y27940D01*
X-158820Y28662D01*
X-160308Y30150D01*
X-160780Y30150D01*
X-161238Y30235D01*
X-161664Y30508D01*
X-161949Y30925D01*
X-162050Y31420D01*
X-162050Y41830D01*
X-161957Y42306D01*
X-161678Y42728D01*
X-147760Y56646D01*
X-147760Y83354D01*
X-161678Y97272D01*
X-161949Y97675D01*
X-162050Y98170D01*
X-162050Y116438D01*
X-166158Y120546D01*
X-166425Y120939D01*
X-166530Y121434D01*
X-166433Y121930D01*
X-164760Y125969D01*
X-164760Y132031D01*
X-167080Y137633D01*
X-171367Y141920D01*
X-176969Y144240D01*
X-183031Y144240D01*
X-188633Y141920D01*
X-192920Y137633D01*
X-195240Y132031D01*
X-195240Y125969D01*
X-192920Y120367D01*
X-188633Y116080D01*
X-183031Y113760D01*
X-176969Y113760D01*
X-172930Y115433D01*
X-172464Y115529D01*
X-171967Y115437D01*
X-171546Y115158D01*
X-170042Y113654D01*
X-169771Y113251D01*
X-169670Y112756D01*
X-169670Y97005D01*
X-169703Y96716D01*
X-169914Y96256D01*
X-170288Y95916D01*
X-170764Y95748D01*
X-171269Y95779D01*
X-176424Y97160D01*
X-183576Y97160D01*
X-190483Y95309D01*
X-196677Y91733D01*
X-201733Y86677D01*
X-205309Y80483D01*
X-207160Y73576D01*
X-207160Y66424D01*
X-205309Y59517D01*
X-201733Y53323D01*
X-196677Y48267D01*
X-190483Y44691D01*
X-183576Y42840D01*
X-176424Y42840D01*
X-171269Y44221D01*
X-170980Y44264D01*
X-170482Y44179D01*
X-170056Y43907D01*
X-169771Y43490D01*
X-169670Y42995D01*
X-169670Y31420D01*
X-169755Y30962D01*
X-170028Y30536D01*
X-170445Y30251D01*
X-170940Y30150D01*
X-171412Y30150D01*
X-172900Y28662D01*
X-172900Y17058D01*
X-171412Y15570D01*
G37*
G36*
X-351752Y14300D02*
X-340648Y14300D01*
X-339160Y15788D01*
X-339160Y16510D01*
X-339075Y16968D01*
X-338802Y17394D01*
X-338385Y17679D01*
X-337890Y17780D01*
X-328237Y17780D01*
X-327760Y17687D01*
X-327339Y17408D01*
X-326161Y16230D01*
X-323838Y15268D01*
X-321322Y15268D01*
X-318999Y16230D01*
X-317220Y18009D01*
X-316258Y20332D01*
X-316258Y22848D01*
X-317220Y25171D01*
X-318999Y26950D01*
X-321322Y27912D01*
X-323838Y27912D01*
X-326161Y26950D01*
X-327339Y25772D01*
X-327741Y25501D01*
X-328237Y25400D01*
X-337890Y25400D01*
X-338348Y25485D01*
X-338774Y25758D01*
X-339059Y26175D01*
X-339160Y26670D01*
X-339160Y27392D01*
X-340648Y28880D01*
X-341120Y28880D01*
X-341578Y28965D01*
X-342004Y29238D01*
X-342289Y29655D01*
X-342390Y30150D01*
X-342390Y41490D01*
X-342297Y41966D01*
X-342018Y42388D01*
X-327760Y56646D01*
X-327760Y83354D01*
X-342018Y97612D01*
X-342289Y98015D01*
X-342390Y98510D01*
X-342390Y116778D01*
X-346158Y120546D01*
X-346425Y120939D01*
X-346530Y121434D01*
X-346433Y121930D01*
X-344760Y125969D01*
X-344760Y132031D01*
X-347080Y137633D01*
X-351367Y141920D01*
X-356969Y144240D01*
X-363031Y144240D01*
X-368633Y141920D01*
X-372920Y137633D01*
X-375240Y132031D01*
X-375240Y125969D01*
X-372920Y120367D01*
X-368633Y116080D01*
X-363031Y113760D01*
X-356969Y113760D01*
X-352930Y115433D01*
X-352464Y115529D01*
X-351967Y115437D01*
X-351546Y115158D01*
X-350382Y113994D01*
X-350111Y113591D01*
X-350010Y113096D01*
X-350010Y97096D01*
X-350043Y96807D01*
X-350254Y96348D01*
X-350628Y96007D01*
X-351104Y95839D01*
X-351609Y95870D01*
X-356424Y97160D01*
X-363576Y97160D01*
X-370483Y95309D01*
X-376677Y91733D01*
X-381733Y86677D01*
X-385309Y80483D01*
X-387160Y73576D01*
X-387160Y66424D01*
X-385309Y59517D01*
X-381733Y53323D01*
X-376677Y48267D01*
X-370483Y44691D01*
X-363576Y42840D01*
X-356424Y42840D01*
X-351609Y44130D01*
X-351320Y44173D01*
X-350822Y44088D01*
X-350396Y43816D01*
X-350111Y43399D01*
X-350010Y42904D01*
X-350010Y30150D01*
X-350095Y29692D01*
X-350368Y29266D01*
X-350785Y28981D01*
X-351280Y28880D01*
X-351752Y28880D01*
X-353240Y27392D01*
X-353240Y15788D01*
X-351752Y14300D01*
G37*
G36*
X121089Y100340D02*
X128911Y100340D01*
X136136Y103333D01*
X141667Y108864D01*
X144660Y116089D01*
X144660Y123911D01*
X141667Y131136D01*
X136136Y136667D01*
X128911Y139660D01*
X121089Y139660D01*
X113864Y136667D01*
X108333Y131136D01*
X105340Y123911D01*
X105340Y116089D01*
X108333Y108864D01*
X113864Y103333D01*
X121089Y100340D01*
G37*
G36*
X231089Y100340D02*
X238911Y100340D01*
X246136Y103333D01*
X251667Y108864D01*
X254660Y116089D01*
X254660Y123911D01*
X251667Y131136D01*
X246136Y136667D01*
X238911Y139660D01*
X231089Y139660D01*
X223864Y136667D01*
X218333Y131136D01*
X215340Y123911D01*
X215340Y116089D01*
X218333Y108864D01*
X223864Y103333D01*
X231089Y100340D01*
G37*
G36*
X-133031Y92760D02*
X-126969Y92760D01*
X-121367Y95080D01*
X-117080Y99367D01*
X-114760Y104969D01*
X-114760Y111031D01*
X-117080Y116633D01*
X-121367Y120920D01*
X-126969Y123240D01*
X-133031Y123240D01*
X-138633Y120920D01*
X-142920Y116633D01*
X-145240Y111031D01*
X-145240Y104969D01*
X-142920Y99367D01*
X-138633Y95080D01*
X-133031Y92760D01*
G37*
G36*
X-413031Y92760D02*
X-406969Y92760D01*
X-401367Y95080D01*
X-397080Y99367D01*
X-394760Y104969D01*
X-394760Y111031D01*
X-397080Y116633D01*
X-401367Y120920D01*
X-406969Y123240D01*
X-413031Y123240D01*
X-418633Y120920D01*
X-422920Y116633D01*
X-425240Y111031D01*
X-425240Y104969D01*
X-422920Y99367D01*
X-418633Y95080D01*
X-413031Y92760D01*
G37*
G36*
X-233031Y92760D02*
X-226969Y92760D01*
X-221367Y95080D01*
X-217080Y99367D01*
X-214760Y104969D01*
X-214760Y111031D01*
X-217080Y116633D01*
X-221367Y120920D01*
X-226969Y123240D01*
X-233031Y123240D01*
X-238633Y120920D01*
X-242920Y116633D01*
X-245240Y111031D01*
X-245240Y104969D01*
X-242920Y99367D01*
X-238633Y95080D01*
X-233031Y92760D01*
G37*
G36*
X-313031Y92760D02*
X-306969Y92760D01*
X-301367Y95080D01*
X-297080Y99367D01*
X-294760Y104969D01*
X-294760Y111031D01*
X-297080Y116633D01*
X-301367Y120920D01*
X-306969Y123240D01*
X-313031Y123240D01*
X-318633Y120920D01*
X-322920Y116633D01*
X-325240Y111031D01*
X-325240Y104969D01*
X-322920Y99367D01*
X-318633Y95080D01*
X-313031Y92760D01*
G37*
G36*
X-128911Y50340D02*
X-121089Y50340D01*
X-113864Y53333D01*
X-108333Y58864D01*
X-105340Y66089D01*
X-105340Y73911D01*
X-108333Y81136D01*
X-113864Y86667D01*
X-121089Y89660D01*
X-128911Y89660D01*
X-136136Y86667D01*
X-141667Y81136D01*
X-144660Y73911D01*
X-144660Y66089D01*
X-141667Y58864D01*
X-136136Y53333D01*
X-128911Y50340D01*
G37*
G36*
X-308911Y50340D02*
X-301089Y50340D01*
X-293864Y53333D01*
X-288333Y58864D01*
X-285340Y66089D01*
X-285340Y73911D01*
X-288333Y81136D01*
X-293864Y86667D01*
X-301089Y89660D01*
X-308911Y89660D01*
X-316136Y86667D01*
X-321667Y81136D01*
X-324660Y73911D01*
X-324660Y66089D01*
X-321667Y58864D01*
X-316136Y53333D01*
X-308911Y50340D01*
G37*
G36*
X-418911Y50340D02*
X-411089Y50340D01*
X-403864Y53333D01*
X-398333Y58864D01*
X-395340Y66089D01*
X-395340Y73911D01*
X-398333Y81136D01*
X-403864Y86667D01*
X-411089Y89660D01*
X-418911Y89660D01*
X-426136Y86667D01*
X-431667Y81136D01*
X-434660Y73911D01*
X-434660Y66089D01*
X-431667Y58864D01*
X-426136Y53333D01*
X-418911Y50340D01*
G37*
G36*
X-238911Y50340D02*
X-231089Y50340D01*
X-223864Y53333D01*
X-218333Y58864D01*
X-215340Y66089D01*
X-215340Y73911D01*
X-218333Y81136D01*
X-223864Y86667D01*
X-231089Y89660D01*
X-238911Y89660D01*
X-246136Y86667D01*
X-251667Y81136D01*
X-254660Y73911D01*
X-254660Y66089D01*
X-251667Y58864D01*
X-246136Y53333D01*
X-238911Y50340D01*
G37*
G36*
X369268Y-42690D02*
X380372Y-42690D01*
X381860Y-41202D01*
X381860Y-40480D01*
X381945Y-40022D01*
X382218Y-39596D01*
X382635Y-39311D01*
X383130Y-39210D01*
X387883Y-39210D01*
X388360Y-39303D01*
X388781Y-39582D01*
X390119Y-40920D01*
X392442Y-41882D01*
X394958Y-41882D01*
X397281Y-40920D01*
X399060Y-39141D01*
X400022Y-36818D01*
X400022Y-34302D01*
X399060Y-31979D01*
X397281Y-30200D01*
X394958Y-29238D01*
X392442Y-29238D01*
X390119Y-30200D01*
X389101Y-31218D01*
X388699Y-31489D01*
X388203Y-31590D01*
X383130Y-31590D01*
X382672Y-31505D01*
X382246Y-31232D01*
X381961Y-30815D01*
X381860Y-30320D01*
X381860Y-29598D01*
X380372Y-28110D01*
X379900Y-28110D01*
X379442Y-28025D01*
X379016Y-27752D01*
X378731Y-27335D01*
X378630Y-26840D01*
X378630Y-17490D01*
X378723Y-17014D01*
X379002Y-16592D01*
X392240Y-3354D01*
X392240Y23354D01*
X379002Y36592D01*
X378731Y36995D01*
X378630Y37490D01*
X378630Y55758D01*
X373842Y60546D01*
X373575Y60939D01*
X373470Y61434D01*
X373567Y61930D01*
X375240Y65969D01*
X375240Y72031D01*
X372920Y77633D01*
X368633Y81920D01*
X363031Y84240D01*
X356969Y84240D01*
X351367Y81920D01*
X347080Y77633D01*
X344760Y72031D01*
X344760Y65969D01*
X347080Y60367D01*
X351367Y56080D01*
X356969Y53760D01*
X363031Y53760D01*
X367070Y55433D01*
X367536Y55529D01*
X368033Y55437D01*
X368454Y55158D01*
X370638Y52974D01*
X370909Y52571D01*
X371010Y52076D01*
X371010Y36823D01*
X370977Y36534D01*
X370766Y36074D01*
X370392Y35733D01*
X369916Y35565D01*
X369411Y35596D01*
X363576Y37160D01*
X356424Y37160D01*
X349517Y35309D01*
X343323Y31733D01*
X338267Y26677D01*
X334691Y20483D01*
X332840Y13576D01*
X332840Y6424D01*
X334691Y-483D01*
X338267Y-6677D01*
X343323Y-11733D01*
X349517Y-15309D01*
X356424Y-17160D01*
X363576Y-17160D01*
X369411Y-15596D01*
X369700Y-15554D01*
X370198Y-15638D01*
X370624Y-15911D01*
X370909Y-16328D01*
X371010Y-16823D01*
X371010Y-26840D01*
X370925Y-27298D01*
X370652Y-27724D01*
X370235Y-28009D01*
X369740Y-28110D01*
X369268Y-28110D01*
X367780Y-29598D01*
X367780Y-41202D01*
X369268Y-42690D01*
G37*
G36*
X549456Y-43170D02*
X560560Y-43170D01*
X562100Y-41630D01*
X562133Y-41452D01*
X562406Y-41026D01*
X562823Y-40741D01*
X563318Y-40640D01*
X570923Y-40640D01*
X571400Y-40733D01*
X571821Y-41012D01*
X572999Y-42190D01*
X575322Y-43152D01*
X577838Y-43152D01*
X580161Y-42190D01*
X581940Y-40411D01*
X582902Y-38088D01*
X582902Y-35572D01*
X581940Y-33249D01*
X580161Y-31470D01*
X577838Y-30508D01*
X575322Y-30508D01*
X572999Y-31470D01*
X571821Y-32648D01*
X571419Y-32919D01*
X570923Y-33020D01*
X563318Y-33020D01*
X562860Y-32935D01*
X562434Y-32662D01*
X562149Y-32245D01*
X562048Y-31750D01*
X562048Y-30078D01*
X560287Y-28317D01*
X560154Y-28232D01*
X559869Y-27815D01*
X559768Y-27320D01*
X559768Y-16352D01*
X559861Y-15876D01*
X560140Y-15454D01*
X572240Y-3354D01*
X572240Y23354D01*
X560140Y35454D01*
X559869Y35857D01*
X559768Y36352D01*
X559768Y54620D01*
X553842Y60546D01*
X553575Y60939D01*
X553470Y61434D01*
X553567Y61930D01*
X555240Y65969D01*
X555240Y72031D01*
X552920Y77633D01*
X548633Y81920D01*
X543031Y84240D01*
X536969Y84240D01*
X531367Y81920D01*
X527080Y77633D01*
X524760Y72031D01*
X524760Y65969D01*
X527080Y60367D01*
X531367Y56080D01*
X536969Y53760D01*
X543031Y53760D01*
X547070Y55433D01*
X547536Y55529D01*
X548033Y55437D01*
X548454Y55158D01*
X551776Y51836D01*
X552047Y51433D01*
X552148Y50938D01*
X552148Y36518D01*
X552115Y36229D01*
X551904Y35769D01*
X551530Y35429D01*
X551054Y35260D01*
X550549Y35291D01*
X543576Y37160D01*
X536424Y37160D01*
X529517Y35309D01*
X523323Y31733D01*
X518267Y26677D01*
X514691Y20483D01*
X512840Y13576D01*
X512840Y6424D01*
X514691Y-483D01*
X518267Y-6677D01*
X523323Y-11733D01*
X529517Y-15309D01*
X536424Y-17160D01*
X543576Y-17160D01*
X550549Y-15291D01*
X550838Y-15249D01*
X551336Y-15334D01*
X551762Y-15606D01*
X552047Y-16023D01*
X552148Y-16518D01*
X552148Y-27320D01*
X552063Y-27778D01*
X551790Y-28204D01*
X551373Y-28489D01*
X550878Y-28590D01*
X549456Y-28590D01*
X547968Y-30078D01*
X547968Y-41682D01*
X549456Y-43170D01*
G37*
G36*
X158698Y-277290D02*
X169802Y-277290D01*
X171290Y-275802D01*
X171290Y-264198D01*
X169802Y-262710D01*
X169330Y-262710D01*
X168872Y-262625D01*
X168446Y-262352D01*
X168161Y-261935D01*
X168060Y-261440D01*
X168060Y-246574D01*
X168093Y-246284D01*
X168304Y-245825D01*
X168678Y-245484D01*
X169154Y-245316D01*
X169659Y-245347D01*
X176424Y-247160D01*
X183576Y-247160D01*
X190341Y-245347D01*
X190630Y-245305D01*
X191128Y-245389D01*
X191554Y-245662D01*
X191839Y-246079D01*
X191940Y-246574D01*
X191940Y-261440D01*
X191855Y-261898D01*
X191582Y-262324D01*
X191165Y-262609D01*
X190670Y-262710D01*
X190198Y-262710D01*
X188710Y-264198D01*
X188710Y-275802D01*
X190198Y-277290D01*
X201302Y-277290D01*
X202790Y-275802D01*
X202790Y-275080D01*
X202875Y-274622D01*
X203148Y-274196D01*
X203565Y-273911D01*
X204060Y-273810D01*
X214343Y-273810D01*
X214820Y-273903D01*
X215241Y-274182D01*
X216419Y-275360D01*
X218742Y-276322D01*
X221258Y-276322D01*
X223581Y-275360D01*
X225360Y-273581D01*
X226322Y-271258D01*
X226322Y-268742D01*
X225360Y-266419D01*
X223581Y-264640D01*
X221258Y-263678D01*
X218742Y-263678D01*
X216419Y-264640D01*
X215241Y-265818D01*
X214839Y-266089D01*
X214343Y-266190D01*
X204060Y-266190D01*
X203602Y-266105D01*
X203176Y-265832D01*
X202891Y-265415D01*
X202790Y-264920D01*
X202790Y-264198D01*
X201302Y-262710D01*
X200830Y-262710D01*
X200372Y-262625D01*
X199946Y-262352D01*
X199661Y-261935D01*
X199560Y-261440D01*
X199560Y-246560D01*
X199653Y-246084D01*
X199932Y-245662D01*
X212240Y-233354D01*
X212240Y-206646D01*
X199932Y-194338D01*
X199661Y-193935D01*
X199560Y-193440D01*
X199560Y-175172D01*
X193842Y-169454D01*
X193575Y-169061D01*
X193470Y-168566D01*
X193567Y-168070D01*
X195240Y-164031D01*
X195240Y-157969D01*
X192920Y-152367D01*
X188633Y-148080D01*
X183031Y-145760D01*
X176969Y-145760D01*
X171367Y-148080D01*
X170228Y-149219D01*
X169862Y-149474D01*
X169370Y-149591D01*
X168872Y-149506D01*
X168446Y-149234D01*
X168161Y-148817D01*
X168060Y-148321D01*
X168060Y-108560D01*
X168145Y-108102D01*
X168418Y-107676D01*
X168835Y-107391D01*
X169330Y-107290D01*
X169802Y-107290D01*
X171290Y-105802D01*
X171290Y-94198D01*
X169802Y-92710D01*
X169330Y-92710D01*
X168872Y-92625D01*
X168446Y-92352D01*
X168161Y-91935D01*
X168060Y-91440D01*
X168060Y-76574D01*
X168093Y-76284D01*
X168304Y-75825D01*
X168678Y-75484D01*
X169154Y-75316D01*
X169659Y-75347D01*
X176424Y-77160D01*
X183576Y-77160D01*
X190341Y-75347D01*
X190630Y-75305D01*
X191128Y-75389D01*
X191554Y-75662D01*
X191839Y-76079D01*
X191940Y-76574D01*
X191940Y-91440D01*
X191855Y-91898D01*
X191582Y-92324D01*
X191165Y-92609D01*
X190670Y-92710D01*
X190198Y-92710D01*
X188710Y-94198D01*
X188710Y-105802D01*
X190198Y-107290D01*
X201302Y-107290D01*
X202790Y-105802D01*
X202790Y-105080D01*
X202875Y-104622D01*
X203148Y-104196D01*
X203565Y-103911D01*
X204060Y-103810D01*
X214343Y-103810D01*
X214820Y-103903D01*
X215241Y-104182D01*
X216419Y-105360D01*
X218742Y-106322D01*
X221258Y-106322D01*
X223581Y-105360D01*
X225360Y-103581D01*
X226322Y-101258D01*
X226322Y-98742D01*
X225360Y-96419D01*
X223581Y-94640D01*
X221258Y-93678D01*
X218742Y-93678D01*
X216419Y-94640D01*
X215241Y-95818D01*
X214839Y-96089D01*
X214343Y-96190D01*
X204060Y-96190D01*
X203602Y-96105D01*
X203176Y-95832D01*
X202891Y-95415D01*
X202790Y-94920D01*
X202790Y-94198D01*
X201302Y-92710D01*
X200830Y-92710D01*
X200372Y-92625D01*
X199946Y-92352D01*
X199661Y-91935D01*
X199560Y-91440D01*
X199560Y-76560D01*
X199653Y-76084D01*
X199932Y-75662D01*
X212240Y-63354D01*
X212240Y-36646D01*
X199932Y-24338D01*
X199661Y-23935D01*
X199560Y-23440D01*
X199560Y-5172D01*
X193842Y546D01*
X193575Y939D01*
X193470Y1434D01*
X193567Y1930D01*
X195240Y5969D01*
X195240Y12031D01*
X192920Y17633D01*
X188633Y21920D01*
X183031Y24240D01*
X176969Y24240D01*
X171367Y21920D01*
X168958Y19511D01*
X168592Y19256D01*
X168100Y19139D01*
X167602Y19224D01*
X167176Y19496D01*
X166891Y19913D01*
X166790Y20409D01*
X166790Y63980D01*
X166875Y64438D01*
X167148Y64864D01*
X167565Y65149D01*
X168060Y65250D01*
X168532Y65250D01*
X170020Y66738D01*
X170020Y78342D01*
X168532Y79830D01*
X157428Y79830D01*
X155940Y78342D01*
X155940Y77620D01*
X155855Y77162D01*
X155582Y76736D01*
X155165Y76451D01*
X154670Y76350D01*
X150287Y76350D01*
X149810Y76443D01*
X149389Y76722D01*
X148361Y77750D01*
X146038Y78712D01*
X143522Y78712D01*
X141199Y77750D01*
X139420Y75971D01*
X138458Y73648D01*
X138458Y71132D01*
X139420Y68809D01*
X141199Y67030D01*
X143522Y66068D01*
X146038Y66068D01*
X148361Y67030D01*
X149689Y68358D01*
X150091Y68629D01*
X150587Y68730D01*
X154670Y68730D01*
X155128Y68645D01*
X155554Y68372D01*
X155839Y67955D01*
X155940Y67460D01*
X155940Y66738D01*
X157428Y65250D01*
X157900Y65250D01*
X158358Y65165D01*
X158784Y64892D01*
X159069Y64475D01*
X159170Y63980D01*
X159170Y-24710D01*
X159077Y-25186D01*
X158798Y-25608D01*
X147760Y-36646D01*
X147760Y-63354D01*
X160068Y-75662D01*
X160339Y-76065D01*
X160440Y-76560D01*
X160440Y-91440D01*
X160355Y-91898D01*
X160082Y-92324D01*
X159665Y-92609D01*
X159170Y-92710D01*
X158698Y-92710D01*
X157210Y-94198D01*
X157210Y-94920D01*
X157125Y-95378D01*
X156852Y-95804D01*
X156435Y-96089D01*
X155940Y-96190D01*
X145657Y-96190D01*
X145180Y-96097D01*
X144759Y-95818D01*
X143581Y-94640D01*
X141258Y-93678D01*
X138742Y-93678D01*
X136419Y-94640D01*
X134640Y-96419D01*
X133678Y-98742D01*
X133678Y-101258D01*
X134640Y-103581D01*
X136419Y-105360D01*
X138742Y-106322D01*
X141258Y-106322D01*
X143581Y-105360D01*
X144759Y-104182D01*
X145161Y-103911D01*
X145657Y-103810D01*
X155940Y-103810D01*
X156398Y-103895D01*
X156824Y-104168D01*
X157109Y-104585D01*
X157210Y-105080D01*
X157210Y-105802D01*
X158698Y-107290D01*
X159170Y-107290D01*
X159628Y-107375D01*
X160054Y-107648D01*
X160339Y-108065D01*
X160440Y-108560D01*
X160440Y-151297D01*
X160347Y-151774D01*
X160068Y-152195D01*
X159680Y-152583D01*
X159680Y-194200D01*
X159587Y-194676D01*
X159308Y-195098D01*
X147760Y-206646D01*
X147760Y-233354D01*
X160068Y-245662D01*
X160339Y-246065D01*
X160440Y-246560D01*
X160440Y-261440D01*
X160355Y-261898D01*
X160082Y-262324D01*
X159665Y-262609D01*
X159170Y-262710D01*
X158698Y-262710D01*
X157210Y-264198D01*
X157210Y-264920D01*
X157125Y-265378D01*
X156852Y-265804D01*
X156435Y-266089D01*
X155940Y-266190D01*
X145657Y-266190D01*
X145180Y-266097D01*
X144759Y-265818D01*
X143581Y-264640D01*
X141258Y-263678D01*
X138742Y-263678D01*
X136419Y-264640D01*
X134640Y-266419D01*
X133678Y-268742D01*
X133678Y-271258D01*
X134640Y-273581D01*
X136419Y-275360D01*
X138742Y-276322D01*
X141258Y-276322D01*
X143581Y-275360D01*
X144759Y-274182D01*
X145161Y-273911D01*
X145657Y-273810D01*
X155940Y-273810D01*
X156398Y-273895D01*
X156824Y-274168D01*
X157109Y-274585D01*
X157210Y-275080D01*
X157210Y-275802D01*
X158698Y-277290D01*
G37*
G36*
X586969Y32760D02*
X593031Y32760D01*
X598633Y35080D01*
X602920Y39367D01*
X605240Y44969D01*
X605240Y51031D01*
X602920Y56633D01*
X598633Y60920D01*
X593031Y63240D01*
X586969Y63240D01*
X581367Y60920D01*
X577080Y56633D01*
X574760Y51031D01*
X574760Y44969D01*
X577080Y39367D01*
X581367Y35080D01*
X586969Y32760D01*
G37*
G36*
X486969Y32760D02*
X493031Y32760D01*
X498633Y35080D01*
X502920Y39367D01*
X505240Y44969D01*
X505240Y51031D01*
X502920Y56633D01*
X498633Y60920D01*
X493031Y63240D01*
X486969Y63240D01*
X481367Y60920D01*
X477080Y56633D01*
X474760Y51031D01*
X474760Y44969D01*
X477080Y39367D01*
X481367Y35080D01*
X486969Y32760D01*
G37*
G36*
X306969Y32760D02*
X313031Y32760D01*
X318633Y35080D01*
X322920Y39367D01*
X325240Y44969D01*
X325240Y51031D01*
X322920Y56633D01*
X318633Y60920D01*
X313031Y63240D01*
X306969Y63240D01*
X301367Y60920D01*
X297080Y56633D01*
X294760Y51031D01*
X294760Y44969D01*
X297080Y39367D01*
X301367Y35080D01*
X306969Y32760D01*
G37*
G36*
X406969Y32760D02*
X413031Y32760D01*
X418633Y35080D01*
X422920Y39367D01*
X425240Y44969D01*
X425240Y51031D01*
X422920Y56633D01*
X418633Y60920D01*
X413031Y63240D01*
X406969Y63240D01*
X401367Y60920D01*
X397080Y56633D01*
X394760Y51031D01*
X394760Y44969D01*
X397080Y39367D01*
X401367Y35080D01*
X406969Y32760D01*
G37*
G36*
X-53031Y22760D02*
X-46969Y22760D01*
X-41367Y25080D01*
X-37080Y29367D01*
X-34760Y34969D01*
X-34760Y41031D01*
X-37080Y46633D01*
X-41367Y50920D01*
X-46969Y53240D01*
X-53031Y53240D01*
X-58633Y50920D01*
X-62920Y46633D01*
X-65240Y41031D01*
X-65240Y34969D01*
X-62920Y29367D01*
X-58633Y25080D01*
X-53031Y22760D01*
G37*
G36*
X46969Y22760D02*
X53031Y22760D01*
X58633Y25080D01*
X62920Y29367D01*
X65240Y34969D01*
X65240Y41031D01*
X62920Y46633D01*
X58633Y50920D01*
X53031Y53240D01*
X46969Y53240D01*
X41367Y50920D01*
X37080Y46633D01*
X34760Y41031D01*
X34760Y34969D01*
X37080Y29367D01*
X41367Y25080D01*
X46969Y22760D01*
G37*
G36*
X481089Y-9660D02*
X488911Y-9660D01*
X496136Y-6667D01*
X501667Y-1136D01*
X504660Y6089D01*
X504660Y13911D01*
X501667Y21136D01*
X496136Y26667D01*
X488911Y29660D01*
X481089Y29660D01*
X473864Y26667D01*
X468333Y21136D01*
X465340Y13911D01*
X465340Y6089D01*
X468333Y-1136D01*
X473864Y-6667D01*
X481089Y-9660D01*
G37*
G36*
X301089Y-9660D02*
X308911Y-9660D01*
X316136Y-6667D01*
X321667Y-1136D01*
X324660Y6089D01*
X324660Y13911D01*
X321667Y21136D01*
X316136Y26667D01*
X308911Y29660D01*
X301089Y29660D01*
X293864Y26667D01*
X288333Y21136D01*
X285340Y13911D01*
X285340Y6089D01*
X288333Y-1136D01*
X293864Y-6667D01*
X301089Y-9660D01*
G37*
G36*
X591089Y-9660D02*
X598911Y-9660D01*
X606136Y-6667D01*
X611667Y-1136D01*
X614660Y6089D01*
X614660Y13911D01*
X611667Y21136D01*
X606136Y26667D01*
X598911Y29660D01*
X591089Y29660D01*
X583864Y26667D01*
X578333Y21136D01*
X575340Y13911D01*
X575340Y6089D01*
X578333Y-1136D01*
X583864Y-6667D01*
X591089Y-9660D01*
G37*
G36*
X411089Y-9660D02*
X418911Y-9660D01*
X426136Y-6667D01*
X431667Y-1136D01*
X434660Y6089D01*
X434660Y13911D01*
X431667Y21136D01*
X426136Y26667D01*
X418911Y29660D01*
X411089Y29660D01*
X403864Y26667D01*
X398333Y21136D01*
X395340Y13911D01*
X395340Y6089D01*
X398333Y-1136D01*
X403864Y-6667D01*
X411089Y-9660D01*
G37*
G36*
X-551436Y-629671D02*
X-549713Y-630878D01*
X-538777Y-628950D01*
X-537570Y-627226D01*
X-539585Y-615798D01*
X-541159Y-614696D01*
X-541600Y-614151D01*
X-541701Y-613656D01*
X-541701Y-600365D01*
X-541667Y-600076D01*
X-541457Y-599617D01*
X-541083Y-599276D01*
X-540607Y-599108D01*
X-540102Y-599139D01*
X-538107Y-599673D01*
X-530955Y-599673D01*
X-524047Y-597822D01*
X-520204Y-595604D01*
X-519610Y-595434D01*
X-519111Y-595519D01*
X-518686Y-595791D01*
X-518400Y-596208D01*
X-518299Y-596703D01*
X-518299Y-609469D01*
X-518517Y-610181D01*
X-518878Y-610534D01*
X-519349Y-610719D01*
X-521223Y-611050D01*
X-522430Y-612774D01*
X-520415Y-624202D01*
X-518691Y-625408D01*
X-507756Y-623480D01*
X-506451Y-621617D01*
X-505906Y-621176D01*
X-505410Y-621075D01*
X-497246Y-621075D01*
X-496779Y-621164D01*
X-496355Y-621440D01*
X-496073Y-621859D01*
X-495360Y-623581D01*
X-493581Y-625360D01*
X-491258Y-626322D01*
X-488742Y-626322D01*
X-486419Y-625360D01*
X-484640Y-623581D01*
X-483678Y-621258D01*
X-483678Y-618742D01*
X-484640Y-616419D01*
X-486419Y-614640D01*
X-488742Y-613678D01*
X-490408Y-613678D01*
X-490884Y-613585D01*
X-491081Y-613455D01*
X-506947Y-613455D01*
X-507659Y-613237D01*
X-508013Y-612876D01*
X-508198Y-612406D01*
X-508564Y-610329D01*
X-510138Y-609227D01*
X-510579Y-608682D01*
X-510679Y-608186D01*
X-510679Y-594782D01*
X-510586Y-594306D01*
X-510307Y-593884D01*
X-502291Y-585868D01*
X-502291Y-567791D01*
X-502216Y-567362D01*
X-501954Y-566930D01*
X-501544Y-566634D01*
X-501051Y-566522D01*
X-500554Y-566610D01*
X-500130Y-566886D01*
X-499848Y-567305D01*
X-497033Y-574099D01*
X-491503Y-579630D01*
X-484277Y-582623D01*
X-476456Y-582623D01*
X-469230Y-579630D01*
X-463699Y-574099D01*
X-460706Y-566873D01*
X-460706Y-559052D01*
X-463699Y-551826D01*
X-469230Y-546296D01*
X-476456Y-543303D01*
X-484277Y-543303D01*
X-491503Y-546296D01*
X-497033Y-551826D01*
X-499848Y-558620D01*
X-500081Y-558988D01*
X-500488Y-559287D01*
X-500980Y-559404D01*
X-501479Y-559319D01*
X-501904Y-559046D01*
X-502190Y-558630D01*
X-502291Y-558134D01*
X-502291Y-551507D01*
X-530934Y-522864D01*
X-531201Y-522471D01*
X-531306Y-521976D01*
X-531209Y-521480D01*
X-529536Y-517441D01*
X-529536Y-511378D01*
X-531856Y-505777D01*
X-536143Y-501490D01*
X-541745Y-499170D01*
X-545755Y-499170D01*
X-546194Y-499091D01*
X-546624Y-498826D01*
X-546917Y-498414D01*
X-547025Y-497920D01*
X-546932Y-497423D01*
X-546653Y-497002D01*
X-541701Y-492049D01*
X-541701Y-467615D01*
X-541608Y-467138D01*
X-541329Y-466717D01*
X-401306Y-326694D01*
X-400903Y-326423D01*
X-400408Y-326322D01*
X-398742Y-326322D01*
X-396419Y-325360D01*
X-395241Y-324182D01*
X-394839Y-323911D01*
X-394343Y-323810D01*
X-384060Y-323810D01*
X-383602Y-323895D01*
X-383176Y-324168D01*
X-382891Y-324585D01*
X-382790Y-325080D01*
X-382790Y-325802D01*
X-381302Y-327290D01*
X-370198Y-327290D01*
X-368710Y-325802D01*
X-368710Y-314198D01*
X-370198Y-312710D01*
X-370670Y-312710D01*
X-371128Y-312625D01*
X-371554Y-312352D01*
X-371839Y-311935D01*
X-371940Y-311440D01*
X-371940Y-296574D01*
X-371907Y-296284D01*
X-371696Y-295825D01*
X-371322Y-295484D01*
X-370846Y-295316D01*
X-370341Y-295347D01*
X-363576Y-297160D01*
X-356424Y-297160D01*
X-349659Y-295347D01*
X-349370Y-295305D01*
X-348872Y-295389D01*
X-348446Y-295662D01*
X-348161Y-296079D01*
X-348060Y-296574D01*
X-348060Y-311440D01*
X-348145Y-311898D01*
X-348418Y-312324D01*
X-348835Y-312609D01*
X-349330Y-312710D01*
X-349802Y-312710D01*
X-351290Y-314198D01*
X-351290Y-325802D01*
X-349802Y-327290D01*
X-338698Y-327290D01*
X-337210Y-325802D01*
X-337210Y-325080D01*
X-337125Y-324622D01*
X-336852Y-324196D01*
X-336435Y-323911D01*
X-335940Y-323810D01*
X-325657Y-323810D01*
X-325180Y-323903D01*
X-324759Y-324182D01*
X-323581Y-325360D01*
X-321258Y-326322D01*
X-318742Y-326322D01*
X-316419Y-325360D01*
X-314640Y-323581D01*
X-313678Y-321258D01*
X-313678Y-318742D01*
X-314640Y-316419D01*
X-316419Y-314640D01*
X-318742Y-313678D01*
X-321258Y-313678D01*
X-323581Y-314640D01*
X-324759Y-315818D01*
X-325161Y-316089D01*
X-325657Y-316190D01*
X-335940Y-316190D01*
X-336398Y-316105D01*
X-336824Y-315832D01*
X-337109Y-315415D01*
X-337210Y-314920D01*
X-337210Y-314198D01*
X-338698Y-312710D01*
X-339170Y-312710D01*
X-339628Y-312625D01*
X-340054Y-312352D01*
X-340339Y-311935D01*
X-340440Y-311440D01*
X-340440Y-296560D01*
X-340347Y-296084D01*
X-340068Y-295662D01*
X-327760Y-283354D01*
X-327760Y-256646D01*
X-340068Y-244338D01*
X-340339Y-243935D01*
X-340440Y-243440D01*
X-340440Y-225172D01*
X-346158Y-219454D01*
X-346425Y-219061D01*
X-346530Y-218566D01*
X-346433Y-218070D01*
X-344760Y-214031D01*
X-344760Y-207969D01*
X-347080Y-202367D01*
X-351367Y-198080D01*
X-356969Y-195760D01*
X-363031Y-195760D01*
X-368633Y-198080D01*
X-369772Y-199219D01*
X-370138Y-199474D01*
X-370630Y-199591D01*
X-371128Y-199506D01*
X-371554Y-199234D01*
X-371839Y-198817D01*
X-371940Y-198321D01*
X-371940Y-158560D01*
X-371855Y-158102D01*
X-371582Y-157676D01*
X-371165Y-157391D01*
X-370670Y-157290D01*
X-370198Y-157290D01*
X-368710Y-155802D01*
X-368710Y-144198D01*
X-370198Y-142710D01*
X-370670Y-142710D01*
X-371128Y-142625D01*
X-371554Y-142352D01*
X-371839Y-141935D01*
X-371940Y-141440D01*
X-371940Y-126574D01*
X-371907Y-126284D01*
X-371696Y-125825D01*
X-371322Y-125484D01*
X-370846Y-125316D01*
X-370341Y-125347D01*
X-363576Y-127160D01*
X-356424Y-127160D01*
X-349659Y-125347D01*
X-349370Y-125305D01*
X-348872Y-125389D01*
X-348446Y-125662D01*
X-348161Y-126079D01*
X-348060Y-126574D01*
X-348060Y-141440D01*
X-348145Y-141898D01*
X-348418Y-142324D01*
X-348835Y-142609D01*
X-349330Y-142710D01*
X-349802Y-142710D01*
X-351290Y-144198D01*
X-351290Y-155802D01*
X-349802Y-157290D01*
X-338698Y-157290D01*
X-337210Y-155802D01*
X-337210Y-155080D01*
X-337125Y-154622D01*
X-336852Y-154196D01*
X-336435Y-153911D01*
X-335940Y-153810D01*
X-325657Y-153810D01*
X-325180Y-153903D01*
X-324759Y-154182D01*
X-323581Y-155360D01*
X-321258Y-156322D01*
X-318742Y-156322D01*
X-316419Y-155360D01*
X-314640Y-153581D01*
X-313678Y-151258D01*
X-313678Y-148742D01*
X-314640Y-146419D01*
X-316419Y-144640D01*
X-318742Y-143678D01*
X-321258Y-143678D01*
X-323581Y-144640D01*
X-324759Y-145818D01*
X-325161Y-146089D01*
X-325657Y-146190D01*
X-335940Y-146190D01*
X-336398Y-146105D01*
X-336824Y-145832D01*
X-337109Y-145415D01*
X-337210Y-144920D01*
X-337210Y-144198D01*
X-338698Y-142710D01*
X-339170Y-142710D01*
X-339628Y-142625D01*
X-340054Y-142352D01*
X-340339Y-141935D01*
X-340440Y-141440D01*
X-340440Y-126560D01*
X-340347Y-126084D01*
X-340068Y-125662D01*
X-327760Y-113354D01*
X-327760Y-86646D01*
X-340068Y-74338D01*
X-340339Y-73935D01*
X-340440Y-73440D01*
X-340440Y-55172D01*
X-346158Y-49454D01*
X-346425Y-49061D01*
X-346530Y-48566D01*
X-346433Y-48070D01*
X-344760Y-44031D01*
X-344760Y-37969D01*
X-347080Y-32367D01*
X-351367Y-28080D01*
X-356969Y-25760D01*
X-363031Y-25760D01*
X-368633Y-28080D01*
X-371722Y-31169D01*
X-372088Y-31424D01*
X-372580Y-31541D01*
X-373078Y-31456D01*
X-373504Y-31184D01*
X-373789Y-30767D01*
X-373890Y-30271D01*
X-373890Y13030D01*
X-373805Y13488D01*
X-373532Y13914D01*
X-373115Y14199D01*
X-372620Y14300D01*
X-372148Y14300D01*
X-370660Y15788D01*
X-370660Y27392D01*
X-372148Y28880D01*
X-383252Y28880D01*
X-384740Y27392D01*
X-384740Y26670D01*
X-384825Y26212D01*
X-385098Y25786D01*
X-385515Y25501D01*
X-386010Y25400D01*
X-391853Y25400D01*
X-392330Y25493D01*
X-392751Y25772D01*
X-393929Y26950D01*
X-396252Y27912D01*
X-398768Y27912D01*
X-401091Y26950D01*
X-402870Y25171D01*
X-403832Y22848D01*
X-403832Y20332D01*
X-402870Y18009D01*
X-401091Y16230D01*
X-398768Y15268D01*
X-396252Y15268D01*
X-393929Y16230D01*
X-392751Y17408D01*
X-392349Y17679D01*
X-391853Y17780D01*
X-386010Y17780D01*
X-385552Y17695D01*
X-385126Y17422D01*
X-384841Y17005D01*
X-384740Y16510D01*
X-384740Y15788D01*
X-383252Y14300D01*
X-382780Y14300D01*
X-382322Y14215D01*
X-381896Y13942D01*
X-381611Y13525D01*
X-381510Y13030D01*
X-381510Y-75390D01*
X-381603Y-75866D01*
X-381882Y-76288D01*
X-392240Y-86646D01*
X-392240Y-113354D01*
X-379932Y-125662D01*
X-379661Y-126065D01*
X-379560Y-126560D01*
X-379560Y-141440D01*
X-379645Y-141898D01*
X-379918Y-142324D01*
X-380335Y-142609D01*
X-380830Y-142710D01*
X-381302Y-142710D01*
X-382790Y-144198D01*
X-382790Y-144920D01*
X-382875Y-145378D01*
X-383148Y-145804D01*
X-383565Y-146089D01*
X-384060Y-146190D01*
X-394343Y-146190D01*
X-394820Y-146097D01*
X-395241Y-145818D01*
X-396419Y-144640D01*
X-398742Y-143678D01*
X-401258Y-143678D01*
X-403581Y-144640D01*
X-405360Y-146419D01*
X-406322Y-148742D01*
X-406322Y-151258D01*
X-405360Y-153581D01*
X-403581Y-155360D01*
X-401258Y-156322D01*
X-398742Y-156322D01*
X-396419Y-155360D01*
X-395241Y-154182D01*
X-394839Y-153911D01*
X-394343Y-153810D01*
X-384060Y-153810D01*
X-383602Y-153895D01*
X-383176Y-154168D01*
X-382891Y-154585D01*
X-382790Y-155080D01*
X-382790Y-155802D01*
X-381302Y-157290D01*
X-380830Y-157290D01*
X-380372Y-157375D01*
X-379946Y-157648D01*
X-379661Y-158065D01*
X-379560Y-158560D01*
X-379560Y-201297D01*
X-379653Y-201774D01*
X-379932Y-202195D01*
X-380320Y-202583D01*
X-380320Y-244200D01*
X-380413Y-244676D01*
X-380692Y-245098D01*
X-392240Y-256646D01*
X-392240Y-283354D01*
X-379932Y-295662D01*
X-379661Y-296065D01*
X-379560Y-296560D01*
X-379560Y-311440D01*
X-379645Y-311898D01*
X-379918Y-312324D01*
X-380335Y-312609D01*
X-380830Y-312710D01*
X-381302Y-312710D01*
X-382790Y-314198D01*
X-382790Y-314920D01*
X-382875Y-315378D01*
X-383148Y-315804D01*
X-383565Y-316089D01*
X-384060Y-316190D01*
X-394343Y-316190D01*
X-394820Y-316097D01*
X-395241Y-315818D01*
X-396419Y-314640D01*
X-398742Y-313678D01*
X-401258Y-313678D01*
X-403581Y-314640D01*
X-404759Y-315818D01*
X-405161Y-316089D01*
X-405657Y-316190D01*
X-560596Y-316190D01*
X-561072Y-316097D01*
X-561494Y-315818D01*
X-572874Y-304438D01*
X-573141Y-304045D01*
X-573246Y-303550D01*
X-573149Y-303054D01*
X-572370Y-301174D01*
X-572370Y-296626D01*
X-574110Y-292425D01*
X-577325Y-289210D01*
X-581760Y-287373D01*
X-582135Y-287133D01*
X-582431Y-286723D01*
X-582543Y-286230D01*
X-582455Y-285733D01*
X-582179Y-285309D01*
X-581760Y-285027D01*
X-579056Y-283907D01*
X-578570Y-283810D01*
X-515657Y-283810D01*
X-515180Y-283903D01*
X-514759Y-284182D01*
X-513581Y-285360D01*
X-511258Y-286322D01*
X-508742Y-286322D01*
X-506419Y-285360D01*
X-504640Y-283581D01*
X-503678Y-281258D01*
X-503678Y-278742D01*
X-504640Y-276419D01*
X-506419Y-274640D01*
X-508742Y-273678D01*
X-511258Y-273678D01*
X-513581Y-274640D01*
X-514759Y-275818D01*
X-515161Y-276089D01*
X-515657Y-276190D01*
X-571100Y-276190D01*
X-571558Y-276105D01*
X-571984Y-275832D01*
X-572269Y-275415D01*
X-572370Y-274920D01*
X-572370Y-271226D01*
X-574110Y-267025D01*
X-577325Y-263810D01*
X-581760Y-261973D01*
X-582135Y-261733D01*
X-582431Y-261323D01*
X-582543Y-260830D01*
X-582455Y-260333D01*
X-582179Y-259909D01*
X-581760Y-259627D01*
X-579646Y-258751D01*
X-579180Y-258655D01*
X-578683Y-258747D01*
X-578262Y-259026D01*
X-573478Y-263810D01*
X-475657Y-263810D01*
X-475180Y-263903D01*
X-474759Y-264182D01*
X-473581Y-265360D01*
X-471258Y-266322D01*
X-468742Y-266322D01*
X-466419Y-265360D01*
X-464640Y-263581D01*
X-463678Y-261258D01*
X-463678Y-258742D01*
X-464640Y-256419D01*
X-466419Y-254640D01*
X-468742Y-253678D01*
X-471258Y-253678D01*
X-473581Y-254640D01*
X-474759Y-255818D01*
X-475161Y-256089D01*
X-475657Y-256190D01*
X-569796Y-256190D01*
X-570272Y-256097D01*
X-570694Y-255818D01*
X-572874Y-253638D01*
X-573141Y-253245D01*
X-573246Y-252750D01*
X-573149Y-252254D01*
X-572370Y-250374D01*
X-572370Y-245826D01*
X-574110Y-241625D01*
X-577325Y-238410D01*
X-581760Y-236573D01*
X-582135Y-236333D01*
X-582431Y-235923D01*
X-582543Y-235430D01*
X-582455Y-234933D01*
X-582179Y-234509D01*
X-581760Y-234227D01*
X-577325Y-232390D01*
X-574110Y-229175D01*
X-573331Y-227294D01*
X-573070Y-226896D01*
X-572653Y-226611D01*
X-572158Y-226510D01*
X-501122Y-226510D01*
X-461306Y-186694D01*
X-460903Y-186423D01*
X-460408Y-186322D01*
X-458742Y-186322D01*
X-456419Y-185360D01*
X-454640Y-183581D01*
X-453678Y-181258D01*
X-453678Y-178742D01*
X-454640Y-176419D01*
X-456419Y-174640D01*
X-458742Y-173678D01*
X-461258Y-173678D01*
X-463581Y-174640D01*
X-465360Y-176419D01*
X-466322Y-178742D01*
X-466322Y-180408D01*
X-466415Y-180884D01*
X-466694Y-181306D01*
X-503906Y-218518D01*
X-504309Y-218789D01*
X-504804Y-218890D01*
X-572158Y-218890D01*
X-572625Y-218801D01*
X-573049Y-218525D01*
X-573331Y-218106D01*
X-574110Y-216225D01*
X-577325Y-213010D01*
X-581760Y-211173D01*
X-582135Y-210933D01*
X-582431Y-210523D01*
X-582543Y-210030D01*
X-582455Y-209533D01*
X-582179Y-209109D01*
X-581760Y-208827D01*
X-577325Y-206990D01*
X-574110Y-203775D01*
X-572370Y-199574D01*
X-572370Y-195026D01*
X-574174Y-190671D01*
X-574271Y-190205D01*
X-574178Y-189708D01*
X-573899Y-189287D01*
X-481306Y-96694D01*
X-480903Y-96423D01*
X-480408Y-96322D01*
X-478742Y-96322D01*
X-476419Y-95360D01*
X-474640Y-93581D01*
X-473678Y-91258D01*
X-473678Y-88742D01*
X-474640Y-86419D01*
X-476419Y-84640D01*
X-478742Y-83678D01*
X-481258Y-83678D01*
X-483581Y-84640D01*
X-485360Y-86419D01*
X-486322Y-88742D01*
X-486322Y-90408D01*
X-486415Y-90884D01*
X-486694Y-91306D01*
X-570202Y-174814D01*
X-570568Y-175069D01*
X-571060Y-175185D01*
X-571558Y-175100D01*
X-571984Y-174828D01*
X-572269Y-174411D01*
X-572370Y-173916D01*
X-572370Y-169626D01*
X-574110Y-165425D01*
X-575845Y-163690D01*
X-576109Y-163306D01*
X-576217Y-162812D01*
X-576125Y-162316D01*
X-575845Y-161894D01*
X-567290Y-153339D01*
X-567290Y-153204D01*
X-567197Y-152728D01*
X-566918Y-152306D01*
X-491306Y-76694D01*
X-490903Y-76423D01*
X-490408Y-76322D01*
X-488742Y-76322D01*
X-486419Y-75360D01*
X-484640Y-73581D01*
X-483678Y-71258D01*
X-483678Y-68742D01*
X-484640Y-66419D01*
X-486419Y-64640D01*
X-488742Y-63678D01*
X-491258Y-63678D01*
X-493581Y-64640D01*
X-495360Y-66419D01*
X-496322Y-68742D01*
X-496322Y-70408D01*
X-496415Y-70884D01*
X-496694Y-71306D01*
X-570219Y-144831D01*
X-570594Y-145090D01*
X-571087Y-145202D01*
X-571584Y-145114D01*
X-572008Y-144838D01*
X-572290Y-144419D01*
X-574110Y-140025D01*
X-577325Y-136810D01*
X-581760Y-134973D01*
X-582135Y-134733D01*
X-582431Y-134323D01*
X-582543Y-133830D01*
X-582455Y-133333D01*
X-582179Y-132909D01*
X-581760Y-132627D01*
X-577325Y-130790D01*
X-574110Y-127575D01*
X-572370Y-123374D01*
X-572370Y-121862D01*
X-595230Y-121862D01*
X-595230Y-123374D01*
X-593490Y-127575D01*
X-590275Y-130790D01*
X-585840Y-132627D01*
X-585465Y-132867D01*
X-585169Y-133277D01*
X-585057Y-133770D01*
X-585145Y-134267D01*
X-585421Y-134691D01*
X-585840Y-134973D01*
X-590275Y-136810D01*
X-593490Y-140025D01*
X-595230Y-144226D01*
X-595230Y-145738D01*
X-583038Y-145738D01*
X-583038Y-147262D01*
X-595230Y-147262D01*
X-595230Y-148774D01*
X-593490Y-152975D01*
X-590275Y-156190D01*
X-585840Y-158027D01*
X-585465Y-158267D01*
X-585169Y-158677D01*
X-585057Y-159170D01*
X-585145Y-159667D01*
X-585421Y-160091D01*
X-585840Y-160373D01*
X-590275Y-162210D01*
X-593490Y-165425D01*
X-595230Y-169626D01*
X-595230Y-174174D01*
X-593490Y-178375D01*
X-590275Y-181590D01*
X-585840Y-183427D01*
X-585465Y-183667D01*
X-585169Y-184077D01*
X-585057Y-184570D01*
X-585145Y-185067D01*
X-585421Y-185491D01*
X-585840Y-185773D01*
X-590275Y-187610D01*
X-593490Y-190825D01*
X-595230Y-195026D01*
X-595230Y-199574D01*
X-593490Y-203775D01*
X-590275Y-206990D01*
X-585840Y-208827D01*
X-585465Y-209067D01*
X-585169Y-209477D01*
X-585057Y-209970D01*
X-585145Y-210467D01*
X-585421Y-210891D01*
X-585840Y-211173D01*
X-590275Y-213010D01*
X-593490Y-216225D01*
X-595230Y-220426D01*
X-595230Y-224974D01*
X-593490Y-229175D01*
X-590275Y-232390D01*
X-585840Y-234227D01*
X-585465Y-234467D01*
X-585169Y-234877D01*
X-585057Y-235370D01*
X-585145Y-235867D01*
X-585421Y-236291D01*
X-585840Y-236573D01*
X-590275Y-238410D01*
X-593490Y-241625D01*
X-595230Y-245826D01*
X-595230Y-250374D01*
X-593490Y-254575D01*
X-590275Y-257790D01*
X-585840Y-259627D01*
X-585465Y-259867D01*
X-585169Y-260277D01*
X-585057Y-260770D01*
X-585145Y-261267D01*
X-585421Y-261691D01*
X-585840Y-261973D01*
X-590275Y-263810D01*
X-593490Y-267025D01*
X-595230Y-271226D01*
X-595230Y-275774D01*
X-593490Y-279975D01*
X-590275Y-283190D01*
X-585840Y-285027D01*
X-585465Y-285267D01*
X-585169Y-285677D01*
X-585057Y-286170D01*
X-585145Y-286667D01*
X-585421Y-287091D01*
X-585840Y-287373D01*
X-590275Y-289210D01*
X-593490Y-292425D01*
X-595230Y-296626D01*
X-595230Y-301174D01*
X-593490Y-305375D01*
X-590275Y-308590D01*
X-585840Y-310427D01*
X-585465Y-310667D01*
X-585169Y-311077D01*
X-585057Y-311570D01*
X-585145Y-312067D01*
X-585421Y-312491D01*
X-585840Y-312773D01*
X-590275Y-314610D01*
X-593490Y-317825D01*
X-595230Y-322026D01*
X-595230Y-326574D01*
X-593490Y-330775D01*
X-590275Y-333990D01*
X-585840Y-335827D01*
X-585465Y-336067D01*
X-585169Y-336477D01*
X-585057Y-336970D01*
X-585145Y-337467D01*
X-585421Y-337891D01*
X-585840Y-338173D01*
X-590275Y-340010D01*
X-593490Y-343225D01*
X-595230Y-347426D01*
X-595230Y-351974D01*
X-593490Y-356175D01*
X-590275Y-359390D01*
X-586074Y-361130D01*
X-581526Y-361130D01*
X-577325Y-359390D01*
X-574110Y-356175D01*
X-572370Y-351974D01*
X-572370Y-347426D01*
X-574110Y-343225D01*
X-577325Y-340010D01*
X-581760Y-338173D01*
X-582135Y-337933D01*
X-582431Y-337523D01*
X-582543Y-337030D01*
X-582455Y-336533D01*
X-582179Y-336109D01*
X-581760Y-335827D01*
X-577325Y-333990D01*
X-574110Y-330775D01*
X-572370Y-326574D01*
X-572370Y-322026D01*
X-574110Y-317825D01*
X-577325Y-314610D01*
X-581760Y-312773D01*
X-582135Y-312533D01*
X-582431Y-312123D01*
X-582543Y-311630D01*
X-582455Y-311133D01*
X-582179Y-310709D01*
X-581760Y-310427D01*
X-579646Y-309551D01*
X-579180Y-309455D01*
X-578683Y-309547D01*
X-578262Y-309826D01*
X-564278Y-323810D01*
X-412264Y-323810D01*
X-411825Y-323888D01*
X-411395Y-324154D01*
X-411103Y-324566D01*
X-410994Y-325060D01*
X-411087Y-325557D01*
X-411366Y-325978D01*
X-549321Y-463933D01*
X-549321Y-488367D01*
X-549414Y-488843D01*
X-549693Y-489265D01*
X-566033Y-505605D01*
X-566033Y-523214D01*
X-556185Y-533063D01*
X-555913Y-533465D01*
X-555813Y-533961D01*
X-555813Y-547675D01*
X-555906Y-548152D01*
X-556185Y-548573D01*
X-566771Y-559159D01*
X-566771Y-577235D01*
X-566846Y-577665D01*
X-567108Y-578097D01*
X-567518Y-578393D01*
X-568010Y-578505D01*
X-568508Y-578416D01*
X-568932Y-578141D01*
X-569214Y-577721D01*
X-572028Y-570928D01*
X-577559Y-565397D01*
X-584785Y-562404D01*
X-592606Y-562404D01*
X-599832Y-565397D01*
X-605362Y-570928D01*
X-608355Y-578153D01*
X-608355Y-585975D01*
X-605362Y-593200D01*
X-599832Y-598731D01*
X-592606Y-601724D01*
X-584785Y-601724D01*
X-577559Y-598731D01*
X-572028Y-593200D01*
X-569068Y-586054D01*
X-568821Y-585671D01*
X-568409Y-585378D01*
X-567915Y-585270D01*
X-567418Y-585363D01*
X-566997Y-585642D01*
X-549693Y-602946D01*
X-549421Y-603348D01*
X-549321Y-603844D01*
X-549321Y-614939D01*
X-549539Y-615650D01*
X-549900Y-616004D01*
X-550370Y-616189D01*
X-552244Y-616520D01*
X-553245Y-617948D01*
X-553790Y-618389D01*
X-554285Y-618490D01*
X-556953Y-618490D01*
X-557430Y-618397D01*
X-557851Y-618118D01*
X-559029Y-616940D01*
X-561352Y-615978D01*
X-563868Y-615978D01*
X-566191Y-616940D01*
X-567970Y-618719D01*
X-568932Y-621042D01*
X-568932Y-623558D01*
X-567970Y-625881D01*
X-566191Y-627660D01*
X-563868Y-628622D01*
X-561352Y-628622D01*
X-559029Y-627660D01*
X-557851Y-626482D01*
X-557449Y-626211D01*
X-556953Y-626110D01*
X-553130Y-626110D01*
X-552418Y-626328D01*
X-552064Y-626689D01*
X-551879Y-627159D01*
X-551436Y-629671D01*
G37*
G36*
X-58911Y-19660D02*
X-51089Y-19660D01*
X-43864Y-16667D01*
X-38333Y-11136D01*
X-35340Y-3911D01*
X-35340Y3911D01*
X-38333Y11136D01*
X-43864Y16667D01*
X-51089Y19660D01*
X-58911Y19660D01*
X-66136Y16667D01*
X-71667Y11136D01*
X-74660Y3911D01*
X-74660Y-3911D01*
X-71667Y-11136D01*
X-66136Y-16667D01*
X-58911Y-19660D01*
G37*
G36*
X51089Y-19660D02*
X58911Y-19660D01*
X66136Y-16667D01*
X71667Y-11136D01*
X74660Y-3911D01*
X74660Y3911D01*
X71667Y11136D01*
X66136Y16667D01*
X58911Y19660D01*
X51089Y19660D01*
X43864Y16667D01*
X38333Y11136D01*
X35340Y3911D01*
X35340Y-3911D01*
X38333Y-11136D01*
X43864Y-16667D01*
X51089Y-19660D01*
G37*
G36*
X226969Y-27240D02*
X233031Y-27240D01*
X238633Y-24920D01*
X242920Y-20633D01*
X245240Y-15031D01*
X245240Y-8969D01*
X242920Y-3367D01*
X238633Y920D01*
X233031Y3240D01*
X226969Y3240D01*
X221367Y920D01*
X217080Y-3367D01*
X214760Y-8969D01*
X214760Y-15031D01*
X217080Y-20633D01*
X221367Y-24920D01*
X226969Y-27240D01*
G37*
G36*
X126969Y-27240D02*
X133031Y-27240D01*
X138633Y-24920D01*
X142920Y-20633D01*
X145240Y-15031D01*
X145240Y-8969D01*
X142920Y-3367D01*
X138633Y920D01*
X133031Y3240D01*
X126969Y3240D01*
X121367Y920D01*
X117080Y-3367D01*
X114760Y-8969D01*
X114760Y-15031D01*
X117080Y-20633D01*
X121367Y-24920D01*
X126969Y-27240D01*
G37*
G36*
X338698Y-387290D02*
X349802Y-387290D01*
X351290Y-385802D01*
X351290Y-374198D01*
X349802Y-372710D01*
X349330Y-372710D01*
X348872Y-372625D01*
X348446Y-372352D01*
X348161Y-371935D01*
X348060Y-371440D01*
X348060Y-356574D01*
X348093Y-356284D01*
X348304Y-355825D01*
X348678Y-355484D01*
X349154Y-355316D01*
X349659Y-355347D01*
X356424Y-357160D01*
X363576Y-357160D01*
X370341Y-355347D01*
X370630Y-355305D01*
X371128Y-355389D01*
X371554Y-355662D01*
X371839Y-356079D01*
X371940Y-356574D01*
X371940Y-371440D01*
X371855Y-371898D01*
X371582Y-372324D01*
X371165Y-372609D01*
X370670Y-372710D01*
X370198Y-372710D01*
X368710Y-374198D01*
X368710Y-385802D01*
X370198Y-387290D01*
X381302Y-387290D01*
X382790Y-385802D01*
X382790Y-385080D01*
X382875Y-384622D01*
X383148Y-384196D01*
X383565Y-383911D01*
X384060Y-383810D01*
X394343Y-383810D01*
X394820Y-383903D01*
X395241Y-384182D01*
X396419Y-385360D01*
X398742Y-386322D01*
X401258Y-386322D01*
X403581Y-385360D01*
X405360Y-383581D01*
X406322Y-381258D01*
X406322Y-378742D01*
X405360Y-376419D01*
X403581Y-374640D01*
X401258Y-373678D01*
X398742Y-373678D01*
X396419Y-374640D01*
X395241Y-375818D01*
X394839Y-376089D01*
X394343Y-376190D01*
X384060Y-376190D01*
X383602Y-376105D01*
X383176Y-375832D01*
X382891Y-375415D01*
X382790Y-374920D01*
X382790Y-374198D01*
X381302Y-372710D01*
X380830Y-372710D01*
X380372Y-372625D01*
X379946Y-372352D01*
X379661Y-371935D01*
X379560Y-371440D01*
X379560Y-356560D01*
X379653Y-356084D01*
X379932Y-355662D01*
X392240Y-343354D01*
X392240Y-316646D01*
X379932Y-304338D01*
X379661Y-303935D01*
X379560Y-303440D01*
X379560Y-285172D01*
X373842Y-279454D01*
X373575Y-279061D01*
X373470Y-278566D01*
X373567Y-278070D01*
X375240Y-274031D01*
X375240Y-267969D01*
X372920Y-262367D01*
X368633Y-258080D01*
X363031Y-255760D01*
X356969Y-255760D01*
X351367Y-258080D01*
X350228Y-259219D01*
X349862Y-259474D01*
X349370Y-259591D01*
X348872Y-259506D01*
X348446Y-259234D01*
X348161Y-258817D01*
X348060Y-258321D01*
X348060Y-218560D01*
X348145Y-218102D01*
X348418Y-217676D01*
X348835Y-217391D01*
X349330Y-217290D01*
X349802Y-217290D01*
X351290Y-215802D01*
X351290Y-204198D01*
X349802Y-202710D01*
X349330Y-202710D01*
X348872Y-202625D01*
X348446Y-202352D01*
X348161Y-201935D01*
X348060Y-201440D01*
X348060Y-186574D01*
X348093Y-186284D01*
X348304Y-185825D01*
X348678Y-185484D01*
X349154Y-185316D01*
X349659Y-185347D01*
X356424Y-187160D01*
X363576Y-187160D01*
X370341Y-185347D01*
X370630Y-185305D01*
X371128Y-185389D01*
X371554Y-185662D01*
X371839Y-186079D01*
X371940Y-186574D01*
X371940Y-201440D01*
X371855Y-201898D01*
X371582Y-202324D01*
X371165Y-202609D01*
X370670Y-202710D01*
X370198Y-202710D01*
X368710Y-204198D01*
X368710Y-215802D01*
X370198Y-217290D01*
X381302Y-217290D01*
X382790Y-215802D01*
X382790Y-215080D01*
X382875Y-214622D01*
X383148Y-214196D01*
X383565Y-213911D01*
X384060Y-213810D01*
X394343Y-213810D01*
X394820Y-213903D01*
X395241Y-214182D01*
X396419Y-215360D01*
X398742Y-216322D01*
X401258Y-216322D01*
X403581Y-215360D01*
X405360Y-213581D01*
X406322Y-211258D01*
X406322Y-208742D01*
X405360Y-206419D01*
X403581Y-204640D01*
X401258Y-203678D01*
X398742Y-203678D01*
X396419Y-204640D01*
X395241Y-205818D01*
X394839Y-206089D01*
X394343Y-206190D01*
X384060Y-206190D01*
X383602Y-206105D01*
X383176Y-205832D01*
X382891Y-205415D01*
X382790Y-204920D01*
X382790Y-204198D01*
X381302Y-202710D01*
X380830Y-202710D01*
X380372Y-202625D01*
X379946Y-202352D01*
X379661Y-201935D01*
X379560Y-201440D01*
X379560Y-186560D01*
X379653Y-186084D01*
X379932Y-185662D01*
X392240Y-173354D01*
X392240Y-146646D01*
X379932Y-134338D01*
X379661Y-133935D01*
X379560Y-133440D01*
X379560Y-115172D01*
X373842Y-109454D01*
X373575Y-109061D01*
X373470Y-108566D01*
X373567Y-108070D01*
X375240Y-104031D01*
X375240Y-97969D01*
X372920Y-92367D01*
X368633Y-88080D01*
X363031Y-85760D01*
X356969Y-85760D01*
X351367Y-88080D01*
X349298Y-90149D01*
X348932Y-90404D01*
X348440Y-90521D01*
X347942Y-90436D01*
X347516Y-90164D01*
X347231Y-89747D01*
X347130Y-89251D01*
X347130Y-43960D01*
X347215Y-43502D01*
X347488Y-43076D01*
X347905Y-42791D01*
X348400Y-42690D01*
X348872Y-42690D01*
X350360Y-41202D01*
X350360Y-29598D01*
X348872Y-28110D01*
X337768Y-28110D01*
X336280Y-29598D01*
X336280Y-30320D01*
X336195Y-30778D01*
X335922Y-31204D01*
X335505Y-31489D01*
X335010Y-31590D01*
X325537Y-31590D01*
X325060Y-31497D01*
X324639Y-31218D01*
X323621Y-30200D01*
X321298Y-29238D01*
X318782Y-29238D01*
X316459Y-30200D01*
X314680Y-31979D01*
X313718Y-34302D01*
X313718Y-36818D01*
X314680Y-39141D01*
X316459Y-40920D01*
X318782Y-41882D01*
X321298Y-41882D01*
X323621Y-40920D01*
X324959Y-39582D01*
X325361Y-39311D01*
X325857Y-39210D01*
X335010Y-39210D01*
X335468Y-39295D01*
X335894Y-39568D01*
X336179Y-39985D01*
X336280Y-40480D01*
X336280Y-41202D01*
X337768Y-42690D01*
X338240Y-42690D01*
X338698Y-42775D01*
X339124Y-43048D01*
X339409Y-43465D01*
X339510Y-43960D01*
X339510Y-134370D01*
X339417Y-134846D01*
X339138Y-135268D01*
X327760Y-146646D01*
X327760Y-173354D01*
X340068Y-185662D01*
X340339Y-186065D01*
X340440Y-186560D01*
X340440Y-201440D01*
X340355Y-201898D01*
X340082Y-202324D01*
X339665Y-202609D01*
X339170Y-202710D01*
X338698Y-202710D01*
X337210Y-204198D01*
X337210Y-204920D01*
X337125Y-205378D01*
X336852Y-205804D01*
X336435Y-206089D01*
X335940Y-206190D01*
X325657Y-206190D01*
X325180Y-206097D01*
X324759Y-205818D01*
X323581Y-204640D01*
X321258Y-203678D01*
X318742Y-203678D01*
X316419Y-204640D01*
X314640Y-206419D01*
X313678Y-208742D01*
X313678Y-211258D01*
X314640Y-213581D01*
X316419Y-215360D01*
X318742Y-216322D01*
X321258Y-216322D01*
X323581Y-215360D01*
X324759Y-214182D01*
X325161Y-213911D01*
X325657Y-213810D01*
X335940Y-213810D01*
X336398Y-213895D01*
X336824Y-214168D01*
X337109Y-214585D01*
X337210Y-215080D01*
X337210Y-215802D01*
X338698Y-217290D01*
X339170Y-217290D01*
X339628Y-217375D01*
X340054Y-217648D01*
X340339Y-218065D01*
X340440Y-218560D01*
X340440Y-261297D01*
X340347Y-261774D01*
X340068Y-262195D01*
X339680Y-262583D01*
X339680Y-304200D01*
X339587Y-304676D01*
X339308Y-305098D01*
X327760Y-316646D01*
X327760Y-343354D01*
X340068Y-355662D01*
X340339Y-356065D01*
X340440Y-356560D01*
X340440Y-371440D01*
X340355Y-371898D01*
X340082Y-372324D01*
X339665Y-372609D01*
X339170Y-372710D01*
X338698Y-372710D01*
X337210Y-374198D01*
X337210Y-374920D01*
X337125Y-375378D01*
X336852Y-375804D01*
X336435Y-376089D01*
X335940Y-376190D01*
X325657Y-376190D01*
X325180Y-376097D01*
X324759Y-375818D01*
X323581Y-374640D01*
X321258Y-373678D01*
X318742Y-373678D01*
X316419Y-374640D01*
X314640Y-376419D01*
X313678Y-378742D01*
X313678Y-381258D01*
X314640Y-383581D01*
X316419Y-385360D01*
X318742Y-386322D01*
X321258Y-386322D01*
X323581Y-385360D01*
X324759Y-384182D01*
X325161Y-383911D01*
X325657Y-383810D01*
X335940Y-383810D01*
X336398Y-383895D01*
X336824Y-384168D01*
X337109Y-384585D01*
X337210Y-385080D01*
X337210Y-385802D01*
X338698Y-387290D01*
G37*
G36*
X518698Y-387290D02*
X529802Y-387290D01*
X531290Y-385802D01*
X531290Y-374198D01*
X529802Y-372710D01*
X529330Y-372710D01*
X528872Y-372625D01*
X528446Y-372352D01*
X528161Y-371935D01*
X528060Y-371440D01*
X528060Y-356574D01*
X528093Y-356284D01*
X528304Y-355825D01*
X528678Y-355484D01*
X529154Y-355316D01*
X529659Y-355347D01*
X536424Y-357160D01*
X543576Y-357160D01*
X550341Y-355347D01*
X550630Y-355305D01*
X551128Y-355389D01*
X551554Y-355662D01*
X551839Y-356079D01*
X551940Y-356574D01*
X551940Y-371440D01*
X551855Y-371898D01*
X551582Y-372324D01*
X551165Y-372609D01*
X550670Y-372710D01*
X550198Y-372710D01*
X548710Y-374198D01*
X548710Y-385802D01*
X550198Y-387290D01*
X561302Y-387290D01*
X562790Y-385802D01*
X562790Y-385080D01*
X562875Y-384622D01*
X563148Y-384196D01*
X563565Y-383911D01*
X564060Y-383810D01*
X574343Y-383810D01*
X574820Y-383903D01*
X575241Y-384182D01*
X576419Y-385360D01*
X578742Y-386322D01*
X581258Y-386322D01*
X583581Y-385360D01*
X585360Y-383581D01*
X586322Y-381258D01*
X586322Y-378742D01*
X585360Y-376419D01*
X583581Y-374640D01*
X581258Y-373678D01*
X578742Y-373678D01*
X576419Y-374640D01*
X575241Y-375818D01*
X574839Y-376089D01*
X574343Y-376190D01*
X564060Y-376190D01*
X563602Y-376105D01*
X563176Y-375832D01*
X562891Y-375415D01*
X562790Y-374920D01*
X562790Y-374198D01*
X561302Y-372710D01*
X560830Y-372710D01*
X560372Y-372625D01*
X559946Y-372352D01*
X559661Y-371935D01*
X559560Y-371440D01*
X559560Y-356560D01*
X559653Y-356084D01*
X559932Y-355662D01*
X572240Y-343354D01*
X572240Y-316646D01*
X559932Y-304338D01*
X559661Y-303935D01*
X559560Y-303440D01*
X559560Y-285172D01*
X553842Y-279454D01*
X553575Y-279061D01*
X553470Y-278566D01*
X553567Y-278070D01*
X555240Y-274031D01*
X555240Y-267969D01*
X552920Y-262367D01*
X548633Y-258080D01*
X543031Y-255760D01*
X536969Y-255760D01*
X531367Y-258080D01*
X530228Y-259219D01*
X529862Y-259474D01*
X529370Y-259591D01*
X528872Y-259506D01*
X528446Y-259234D01*
X528161Y-258817D01*
X528060Y-258321D01*
X528060Y-218560D01*
X528145Y-218102D01*
X528418Y-217676D01*
X528835Y-217391D01*
X529330Y-217290D01*
X529802Y-217290D01*
X531290Y-215802D01*
X531290Y-204198D01*
X529802Y-202710D01*
X528588Y-202710D01*
X528130Y-202625D01*
X527704Y-202352D01*
X527419Y-201935D01*
X527318Y-201440D01*
X527318Y-189320D01*
X510672Y-172674D01*
X510401Y-172272D01*
X510300Y-171776D01*
X510300Y-163743D01*
X510441Y-163161D01*
X510757Y-162767D01*
X511202Y-162527D01*
X511706Y-162480D01*
X512187Y-162633D01*
X512571Y-162962D01*
X512797Y-163414D01*
X514691Y-170483D01*
X518267Y-176677D01*
X523323Y-181733D01*
X529517Y-185309D01*
X536424Y-187160D01*
X543576Y-187160D01*
X550341Y-185347D01*
X550630Y-185305D01*
X551128Y-185389D01*
X551554Y-185662D01*
X551839Y-186079D01*
X551940Y-186574D01*
X551940Y-201440D01*
X551855Y-201898D01*
X551582Y-202324D01*
X551165Y-202609D01*
X550670Y-202710D01*
X550198Y-202710D01*
X548710Y-204198D01*
X548710Y-215802D01*
X550198Y-217290D01*
X561302Y-217290D01*
X562790Y-215802D01*
X562790Y-215080D01*
X562875Y-214622D01*
X563148Y-214196D01*
X563565Y-213911D01*
X564060Y-213810D01*
X574343Y-213810D01*
X574820Y-213903D01*
X575241Y-214182D01*
X576419Y-215360D01*
X578742Y-216322D01*
X581258Y-216322D01*
X583581Y-215360D01*
X585360Y-213581D01*
X586322Y-211258D01*
X586322Y-208742D01*
X585360Y-206419D01*
X583581Y-204640D01*
X581258Y-203678D01*
X578742Y-203678D01*
X576419Y-204640D01*
X575241Y-205818D01*
X574839Y-206089D01*
X574343Y-206190D01*
X564060Y-206190D01*
X563602Y-206105D01*
X563176Y-205832D01*
X562891Y-205415D01*
X562790Y-204920D01*
X562790Y-204198D01*
X561302Y-202710D01*
X560830Y-202710D01*
X560372Y-202625D01*
X559946Y-202352D01*
X559661Y-201935D01*
X559560Y-201440D01*
X559560Y-186560D01*
X559653Y-186084D01*
X559932Y-185662D01*
X572240Y-173354D01*
X572240Y-146646D01*
X559932Y-134338D01*
X559661Y-133935D01*
X559560Y-133440D01*
X559560Y-115172D01*
X553842Y-109454D01*
X553575Y-109061D01*
X553470Y-108566D01*
X553567Y-108070D01*
X555240Y-104031D01*
X555240Y-97969D01*
X552920Y-92367D01*
X548633Y-88080D01*
X543031Y-85760D01*
X536969Y-85760D01*
X531367Y-88080D01*
X529486Y-89961D01*
X529120Y-90216D01*
X528628Y-90333D01*
X528130Y-90248D01*
X527704Y-89976D01*
X527419Y-89559D01*
X527318Y-89063D01*
X527318Y-44440D01*
X527403Y-43982D01*
X527676Y-43556D01*
X528093Y-43271D01*
X528588Y-43170D01*
X529060Y-43170D01*
X530548Y-41682D01*
X530548Y-30078D01*
X529060Y-28590D01*
X517956Y-28590D01*
X516468Y-30078D01*
X516468Y-30800D01*
X516383Y-31258D01*
X516110Y-31684D01*
X515693Y-31969D01*
X515198Y-32070D01*
X507627Y-32070D01*
X507150Y-31977D01*
X506729Y-31698D01*
X505231Y-30200D01*
X502908Y-29238D01*
X500392Y-29238D01*
X498069Y-30200D01*
X496290Y-31979D01*
X495328Y-34302D01*
X495328Y-36818D01*
X496290Y-39141D01*
X498069Y-40920D01*
X500392Y-41882D01*
X502908Y-41882D01*
X505231Y-40920D01*
X506089Y-40062D01*
X506491Y-39791D01*
X506987Y-39690D01*
X515198Y-39690D01*
X515656Y-39775D01*
X516082Y-40048D01*
X516367Y-40465D01*
X516468Y-40960D01*
X516468Y-41682D01*
X517956Y-43170D01*
X518428Y-43170D01*
X518886Y-43255D01*
X519312Y-43528D01*
X519597Y-43945D01*
X519698Y-44440D01*
X519698Y-92039D01*
X519680Y-92132D01*
X519680Y-127015D01*
X519587Y-127492D01*
X519308Y-127913D01*
X502680Y-144541D01*
X502680Y-146811D01*
X502602Y-147249D01*
X502336Y-147679D01*
X501924Y-147972D01*
X501430Y-148080D01*
X500933Y-147988D01*
X500512Y-147709D01*
X496136Y-143333D01*
X488911Y-140340D01*
X481089Y-140340D01*
X473864Y-143333D01*
X468333Y-148864D01*
X465340Y-156089D01*
X465340Y-163911D01*
X468333Y-171136D01*
X473864Y-176667D01*
X481089Y-179660D01*
X488911Y-179660D01*
X496136Y-176667D01*
X500512Y-172291D01*
X500878Y-172036D01*
X501370Y-171920D01*
X501868Y-172005D01*
X502294Y-172277D01*
X502579Y-172694D01*
X502680Y-173190D01*
X502680Y-175459D01*
X519326Y-192105D01*
X519597Y-192507D01*
X519698Y-193003D01*
X519698Y-201440D01*
X519613Y-201898D01*
X519340Y-202324D01*
X518923Y-202609D01*
X518767Y-202641D01*
X517210Y-204198D01*
X517210Y-204920D01*
X517125Y-205378D01*
X516852Y-205804D01*
X516435Y-206089D01*
X515940Y-206190D01*
X505657Y-206190D01*
X505180Y-206097D01*
X504759Y-205818D01*
X503581Y-204640D01*
X501258Y-203678D01*
X498742Y-203678D01*
X496419Y-204640D01*
X494640Y-206419D01*
X493678Y-208742D01*
X493678Y-211258D01*
X494640Y-213581D01*
X496419Y-215360D01*
X498742Y-216322D01*
X501258Y-216322D01*
X503581Y-215360D01*
X504759Y-214182D01*
X505161Y-213911D01*
X505657Y-213810D01*
X515940Y-213810D01*
X516398Y-213895D01*
X516824Y-214168D01*
X517109Y-214585D01*
X517210Y-215080D01*
X517210Y-215802D01*
X518698Y-217290D01*
X519170Y-217290D01*
X519628Y-217375D01*
X520054Y-217648D01*
X520339Y-218065D01*
X520440Y-218560D01*
X520440Y-261297D01*
X520347Y-261774D01*
X520068Y-262195D01*
X519680Y-262583D01*
X519680Y-304200D01*
X519587Y-304676D01*
X519308Y-305098D01*
X507760Y-316646D01*
X507760Y-343354D01*
X520068Y-355662D01*
X520339Y-356065D01*
X520440Y-356560D01*
X520440Y-371440D01*
X520355Y-371898D01*
X520082Y-372324D01*
X519665Y-372609D01*
X519170Y-372710D01*
X518698Y-372710D01*
X517210Y-374198D01*
X517210Y-374920D01*
X517125Y-375378D01*
X516852Y-375804D01*
X516435Y-376089D01*
X515940Y-376190D01*
X505657Y-376190D01*
X505180Y-376097D01*
X504759Y-375818D01*
X503581Y-374640D01*
X501258Y-373678D01*
X498742Y-373678D01*
X496419Y-374640D01*
X494640Y-376419D01*
X493678Y-378742D01*
X493678Y-381258D01*
X494640Y-383581D01*
X496419Y-385360D01*
X498742Y-386322D01*
X501258Y-386322D01*
X503581Y-385360D01*
X504759Y-384182D01*
X505161Y-383911D01*
X505657Y-383810D01*
X515940Y-383810D01*
X516398Y-383895D01*
X516824Y-384168D01*
X517109Y-384585D01*
X517210Y-385080D01*
X517210Y-385802D01*
X518698Y-387290D01*
G37*
G36*
X231089Y-69660D02*
X238911Y-69660D01*
X246136Y-66667D01*
X251667Y-61136D01*
X254660Y-53911D01*
X254660Y-46089D01*
X251667Y-38864D01*
X246136Y-33333D01*
X238911Y-30340D01*
X231089Y-30340D01*
X223864Y-33333D01*
X218333Y-38864D01*
X215340Y-46089D01*
X215340Y-53911D01*
X218333Y-61136D01*
X223864Y-66667D01*
X231089Y-69660D01*
G37*
G36*
X121089Y-69660D02*
X128911Y-69660D01*
X136136Y-66667D01*
X141667Y-61136D01*
X144660Y-53911D01*
X144660Y-46089D01*
X141667Y-38864D01*
X136136Y-33333D01*
X128911Y-30340D01*
X121089Y-30340D01*
X113864Y-33333D01*
X108333Y-38864D01*
X105340Y-46089D01*
X105340Y-53911D01*
X108333Y-61136D01*
X113864Y-66667D01*
X121089Y-69660D01*
G37*
G36*
X-233031Y-77240D02*
X-226969Y-77240D01*
X-221367Y-74920D01*
X-217080Y-70633D01*
X-214760Y-65031D01*
X-214760Y-58969D01*
X-217080Y-53367D01*
X-221367Y-49080D01*
X-226969Y-46760D01*
X-233031Y-46760D01*
X-238633Y-49080D01*
X-242920Y-53367D01*
X-245240Y-58969D01*
X-245240Y-65031D01*
X-242920Y-70633D01*
X-238633Y-74920D01*
X-233031Y-77240D01*
G37*
G36*
X-413031Y-77240D02*
X-406969Y-77240D01*
X-401367Y-74920D01*
X-397080Y-70633D01*
X-394760Y-65031D01*
X-394760Y-58969D01*
X-397080Y-53367D01*
X-401367Y-49080D01*
X-406969Y-46760D01*
X-413031Y-46760D01*
X-418633Y-49080D01*
X-422920Y-53367D01*
X-425240Y-58969D01*
X-425240Y-65031D01*
X-422920Y-70633D01*
X-418633Y-74920D01*
X-413031Y-77240D01*
G37*
G36*
X-313031Y-77240D02*
X-306969Y-77240D01*
X-301367Y-74920D01*
X-297080Y-70633D01*
X-294760Y-65031D01*
X-294760Y-58969D01*
X-297080Y-53367D01*
X-301367Y-49080D01*
X-306969Y-46760D01*
X-313031Y-46760D01*
X-318633Y-49080D01*
X-322920Y-53367D01*
X-325240Y-58969D01*
X-325240Y-65031D01*
X-322920Y-70633D01*
X-318633Y-74920D01*
X-313031Y-77240D01*
G37*
G36*
X-133031Y-77240D02*
X-126969Y-77240D01*
X-121367Y-74920D01*
X-117080Y-70633D01*
X-114760Y-65031D01*
X-114760Y-58969D01*
X-117080Y-53367D01*
X-121367Y-49080D01*
X-126969Y-46760D01*
X-133031Y-46760D01*
X-138633Y-49080D01*
X-142920Y-53367D01*
X-145240Y-58969D01*
X-145240Y-65031D01*
X-142920Y-70633D01*
X-138633Y-74920D01*
X-133031Y-77240D01*
G37*
G36*
X-691258Y-476322D02*
X-688742Y-476322D01*
X-686419Y-475360D01*
X-684640Y-473581D01*
X-683678Y-471258D01*
X-683678Y-468742D01*
X-684640Y-466419D01*
X-686419Y-464640D01*
X-688742Y-463678D01*
X-690408Y-463678D01*
X-690884Y-463585D01*
X-691306Y-463306D01*
X-708668Y-445944D01*
X-708939Y-445541D01*
X-709040Y-445046D01*
X-709040Y-443687D01*
X-717903Y-434824D01*
X-718121Y-434606D01*
X-718385Y-434222D01*
X-718493Y-433728D01*
X-718401Y-433231D01*
X-718121Y-432810D01*
X-715667Y-430355D01*
X-714120Y-426621D01*
X-714120Y-422579D01*
X-715667Y-418845D01*
X-718525Y-415987D01*
X-722259Y-414440D01*
X-736146Y-414440D01*
X-736622Y-414347D01*
X-737044Y-414068D01*
X-739584Y-411528D01*
X-739839Y-411162D01*
X-739955Y-410670D01*
X-739870Y-410172D01*
X-739598Y-409746D01*
X-739181Y-409461D01*
X-738686Y-409360D01*
X-722259Y-409360D01*
X-718525Y-407813D01*
X-715667Y-404955D01*
X-714120Y-401221D01*
X-714120Y-397179D01*
X-715667Y-393445D01*
X-718525Y-390587D01*
X-722259Y-389040D01*
X-736146Y-389040D01*
X-736622Y-388947D01*
X-737044Y-388668D01*
X-749318Y-376394D01*
X-749589Y-375991D01*
X-749690Y-375496D01*
X-749690Y-353385D01*
X-749615Y-352956D01*
X-749353Y-352523D01*
X-748943Y-352228D01*
X-748450Y-352115D01*
X-747953Y-352204D01*
X-747529Y-352480D01*
X-747247Y-352899D01*
X-745890Y-356175D01*
X-742675Y-359390D01*
X-738474Y-361130D01*
X-733926Y-361130D01*
X-729725Y-359390D01*
X-729478Y-359142D01*
X-729112Y-358887D01*
X-728620Y-358771D01*
X-728122Y-358856D01*
X-727696Y-359128D01*
X-727411Y-359545D01*
X-727310Y-360041D01*
X-727310Y-374278D01*
X-705144Y-396444D01*
X-704877Y-396838D01*
X-704772Y-397332D01*
X-704869Y-397828D01*
X-705040Y-398242D01*
X-705040Y-401758D01*
X-703694Y-405007D01*
X-701207Y-407494D01*
X-697958Y-408840D01*
X-694442Y-408840D01*
X-691193Y-407494D01*
X-688706Y-405007D01*
X-688535Y-404594D01*
X-688273Y-404196D01*
X-687857Y-403911D01*
X-687361Y-403810D01*
X-665904Y-403810D01*
X-665428Y-403903D01*
X-665006Y-404182D01*
X-632744Y-436444D01*
X-632477Y-436838D01*
X-632372Y-437332D01*
X-632469Y-437828D01*
X-632640Y-438242D01*
X-632640Y-441758D01*
X-631294Y-445007D01*
X-628807Y-447494D01*
X-625558Y-448840D01*
X-622042Y-448840D01*
X-618793Y-447494D01*
X-616306Y-445007D01*
X-614960Y-441758D01*
X-614960Y-438242D01*
X-616306Y-434993D01*
X-618793Y-432506D01*
X-622042Y-431160D01*
X-625558Y-431160D01*
X-625972Y-431331D01*
X-626438Y-431428D01*
X-626934Y-431335D01*
X-627356Y-431056D01*
X-629922Y-428490D01*
X-630177Y-428124D01*
X-630293Y-427632D01*
X-630208Y-427134D01*
X-629936Y-426708D01*
X-629519Y-426423D01*
X-629024Y-426322D01*
X-628742Y-426322D01*
X-626419Y-425360D01*
X-624640Y-423581D01*
X-623678Y-421258D01*
X-623678Y-418742D01*
X-624640Y-416419D01*
X-626419Y-414640D01*
X-628742Y-413678D01*
X-630408Y-413678D01*
X-630884Y-413585D01*
X-631306Y-413306D01*
X-635818Y-408794D01*
X-636089Y-408391D01*
X-636190Y-407896D01*
X-636190Y-305657D01*
X-636097Y-305180D01*
X-635818Y-304759D01*
X-634640Y-303581D01*
X-633678Y-301258D01*
X-633678Y-298742D01*
X-634640Y-296419D01*
X-636419Y-294640D01*
X-638742Y-293678D01*
X-641258Y-293678D01*
X-643180Y-294474D01*
X-643801Y-294564D01*
X-644283Y-294411D01*
X-644667Y-294082D01*
X-644893Y-293630D01*
X-646863Y-286274D01*
X-651545Y-278166D01*
X-653733Y-275978D01*
X-653988Y-275612D01*
X-654104Y-275120D01*
X-654019Y-274622D01*
X-653747Y-274196D01*
X-653330Y-273911D01*
X-652835Y-273810D01*
X-645657Y-273810D01*
X-645180Y-273903D01*
X-644759Y-274182D01*
X-643581Y-275360D01*
X-641258Y-276322D01*
X-638742Y-276322D01*
X-636419Y-275360D01*
X-634640Y-273581D01*
X-633678Y-271258D01*
X-633678Y-268742D01*
X-634640Y-266419D01*
X-636419Y-264640D01*
X-638742Y-263678D01*
X-641258Y-263678D01*
X-643581Y-264640D01*
X-644759Y-265818D01*
X-645161Y-266089D01*
X-645657Y-266190D01*
X-655810Y-266190D01*
X-656287Y-266097D01*
X-656708Y-265818D01*
X-662857Y-259670D01*
X-663120Y-259286D01*
X-663228Y-258792D01*
X-663136Y-258295D01*
X-662857Y-257874D01*
X-661585Y-256602D01*
X-661585Y-241798D01*
X-663118Y-240265D01*
X-663389Y-239862D01*
X-663490Y-239367D01*
X-663490Y-231122D01*
X-673502Y-221110D01*
X-693682Y-221110D01*
X-698890Y-226318D01*
X-698890Y-239417D01*
X-698983Y-239893D01*
X-699262Y-240315D01*
X-712253Y-253306D01*
X-712656Y-253577D01*
X-712767Y-253600D01*
X-715279Y-254640D01*
X-717058Y-256419D01*
X-718020Y-258742D01*
X-718020Y-261258D01*
X-717058Y-263581D01*
X-716617Y-264022D01*
X-716362Y-264388D01*
X-716245Y-264880D01*
X-716330Y-265378D01*
X-716603Y-265804D01*
X-717019Y-266089D01*
X-717515Y-266190D01*
X-726820Y-266190D01*
X-727296Y-266097D01*
X-727718Y-265818D01*
X-729725Y-263810D01*
X-734160Y-261973D01*
X-734535Y-261733D01*
X-734831Y-261323D01*
X-734943Y-260830D01*
X-734855Y-260333D01*
X-734579Y-259909D01*
X-734160Y-259627D01*
X-729725Y-257790D01*
X-726510Y-254575D01*
X-724770Y-250374D01*
X-724770Y-245826D01*
X-726510Y-241625D01*
X-729725Y-238410D01*
X-734160Y-236573D01*
X-734535Y-236333D01*
X-734831Y-235923D01*
X-734943Y-235430D01*
X-734855Y-234933D01*
X-734579Y-234509D01*
X-734160Y-234227D01*
X-729725Y-232390D01*
X-726510Y-229175D01*
X-724770Y-224974D01*
X-724770Y-220426D01*
X-726510Y-216225D01*
X-729725Y-213010D01*
X-734160Y-211173D01*
X-734535Y-210933D01*
X-734831Y-210523D01*
X-734943Y-210030D01*
X-734855Y-209533D01*
X-734579Y-209109D01*
X-734160Y-208827D01*
X-729725Y-206990D01*
X-726510Y-203775D01*
X-724770Y-199574D01*
X-724770Y-195026D01*
X-726510Y-190825D01*
X-729725Y-187610D01*
X-734160Y-185773D01*
X-734535Y-185533D01*
X-734831Y-185123D01*
X-734943Y-184630D01*
X-734855Y-184133D01*
X-734579Y-183709D01*
X-734160Y-183427D01*
X-729725Y-181590D01*
X-726510Y-178375D01*
X-724770Y-174174D01*
X-724770Y-169626D01*
X-726510Y-165425D01*
X-729725Y-162210D01*
X-734160Y-160373D01*
X-734535Y-160133D01*
X-734831Y-159723D01*
X-734943Y-159230D01*
X-734855Y-158733D01*
X-734579Y-158309D01*
X-734160Y-158027D01*
X-729725Y-156190D01*
X-726510Y-152975D01*
X-724770Y-148774D01*
X-724770Y-144226D01*
X-726510Y-140025D01*
X-729725Y-136810D01*
X-734160Y-134973D01*
X-734535Y-134733D01*
X-734831Y-134323D01*
X-734943Y-133830D01*
X-734855Y-133333D01*
X-734579Y-132909D01*
X-734160Y-132627D01*
X-729725Y-130790D01*
X-726510Y-127575D01*
X-724770Y-123374D01*
X-724770Y-118826D01*
X-726510Y-114625D01*
X-729725Y-111410D01*
X-734160Y-109573D01*
X-734535Y-109333D01*
X-734831Y-108923D01*
X-734943Y-108430D01*
X-734855Y-107933D01*
X-734579Y-107509D01*
X-734160Y-107227D01*
X-729725Y-105390D01*
X-726510Y-102175D01*
X-724770Y-97974D01*
X-724770Y-96462D01*
X-747630Y-96462D01*
X-747630Y-97974D01*
X-745890Y-102175D01*
X-742675Y-105390D01*
X-738240Y-107227D01*
X-737865Y-107467D01*
X-737569Y-107877D01*
X-737457Y-108370D01*
X-737545Y-108867D01*
X-737821Y-109291D01*
X-738240Y-109573D01*
X-742675Y-111410D01*
X-745890Y-114625D01*
X-747247Y-117901D01*
X-747480Y-118269D01*
X-747888Y-118568D01*
X-748380Y-118684D01*
X-748878Y-118600D01*
X-749304Y-118327D01*
X-749589Y-117910D01*
X-749690Y-117415D01*
X-749690Y-114261D01*
X-752294Y-111657D01*
X-758245Y-105706D01*
X-758509Y-105322D01*
X-758617Y-104828D01*
X-758525Y-104331D01*
X-758245Y-103910D01*
X-756510Y-102175D01*
X-754770Y-97974D01*
X-754770Y-93426D01*
X-756510Y-89225D01*
X-759725Y-86010D01*
X-764160Y-84173D01*
X-764535Y-83933D01*
X-764831Y-83523D01*
X-764943Y-83030D01*
X-764855Y-82533D01*
X-764579Y-82109D01*
X-764160Y-81827D01*
X-759725Y-79990D01*
X-756510Y-76775D01*
X-754770Y-72574D01*
X-754770Y-68026D01*
X-756510Y-63825D01*
X-759725Y-60610D01*
X-763926Y-58870D01*
X-768474Y-58870D01*
X-772675Y-60610D01*
X-775890Y-63825D01*
X-777630Y-68026D01*
X-777630Y-72574D01*
X-775890Y-76775D01*
X-774155Y-78510D01*
X-773891Y-78894D01*
X-773783Y-79388D01*
X-773876Y-79885D01*
X-774155Y-80306D01*
X-783452Y-89603D01*
X-783827Y-89862D01*
X-784320Y-89975D01*
X-784817Y-89886D01*
X-785241Y-89610D01*
X-785523Y-89191D01*
X-785667Y-88845D01*
X-788525Y-85987D01*
X-792259Y-84440D01*
X-811541Y-84440D01*
X-815275Y-85987D01*
X-818133Y-88845D01*
X-819680Y-92579D01*
X-819680Y-96621D01*
X-818133Y-100355D01*
X-815275Y-103213D01*
X-811541Y-104760D01*
X-792259Y-104760D01*
X-788416Y-103168D01*
X-787970Y-103072D01*
X-787472Y-103157D01*
X-787046Y-103429D01*
X-786761Y-103846D01*
X-786660Y-104341D01*
X-786660Y-110259D01*
X-786742Y-110707D01*
X-787011Y-111135D01*
X-787425Y-111424D01*
X-787920Y-111529D01*
X-788416Y-111432D01*
X-792259Y-109840D01*
X-811541Y-109840D01*
X-815275Y-111387D01*
X-818133Y-114245D01*
X-819680Y-117979D01*
X-819680Y-122021D01*
X-818133Y-125755D01*
X-815275Y-128613D01*
X-811541Y-130160D01*
X-792259Y-130160D01*
X-788416Y-128568D01*
X-787970Y-128472D01*
X-787472Y-128557D01*
X-787046Y-128829D01*
X-786761Y-129246D01*
X-786660Y-129741D01*
X-786660Y-135659D01*
X-786742Y-136107D01*
X-787011Y-136535D01*
X-787425Y-136824D01*
X-787920Y-136929D01*
X-788416Y-136832D01*
X-792259Y-135240D01*
X-811541Y-135240D01*
X-815275Y-136787D01*
X-818133Y-139645D01*
X-819680Y-143379D01*
X-819680Y-147421D01*
X-818133Y-151155D01*
X-815275Y-154013D01*
X-811541Y-155560D01*
X-792259Y-155560D01*
X-788416Y-153968D01*
X-787970Y-153872D01*
X-787472Y-153957D01*
X-787046Y-154229D01*
X-786761Y-154646D01*
X-786660Y-155141D01*
X-786660Y-161059D01*
X-786742Y-161507D01*
X-787011Y-161935D01*
X-787425Y-162224D01*
X-787920Y-162329D01*
X-788416Y-162232D01*
X-792259Y-160640D01*
X-801138Y-160640D01*
X-801138Y-180960D01*
X-794474Y-180960D01*
X-794016Y-181045D01*
X-793590Y-181318D01*
X-793304Y-181735D01*
X-793204Y-182230D01*
X-793204Y-184376D01*
X-792241Y-186700D01*
X-790463Y-188478D01*
X-788139Y-189441D01*
X-785624Y-189441D01*
X-783300Y-188478D01*
X-781522Y-186700D01*
X-780560Y-184376D01*
X-780560Y-181861D01*
X-781180Y-180362D01*
X-781277Y-179896D01*
X-781184Y-179399D01*
X-780905Y-178978D01*
X-779031Y-177104D01*
X-778965Y-176725D01*
X-778703Y-176293D01*
X-778293Y-175997D01*
X-777800Y-175885D01*
X-777303Y-175973D01*
X-776879Y-176249D01*
X-776597Y-176668D01*
X-775890Y-178375D01*
X-772675Y-181590D01*
X-768240Y-183427D01*
X-767865Y-183667D01*
X-767569Y-184077D01*
X-767457Y-184570D01*
X-767545Y-185067D01*
X-767821Y-185491D01*
X-768240Y-185773D01*
X-772675Y-187610D01*
X-775890Y-190825D01*
X-777630Y-195026D01*
X-777630Y-199574D01*
X-775890Y-203775D01*
X-772675Y-206990D01*
X-768240Y-208827D01*
X-767865Y-209067D01*
X-767569Y-209477D01*
X-767457Y-209970D01*
X-767545Y-210467D01*
X-767821Y-210891D01*
X-768240Y-211173D01*
X-772675Y-213010D01*
X-775890Y-216225D01*
X-777630Y-220426D01*
X-777630Y-224974D01*
X-775890Y-229175D01*
X-772675Y-232390D01*
X-768240Y-234227D01*
X-767865Y-234467D01*
X-767569Y-234877D01*
X-767457Y-235370D01*
X-767545Y-235867D01*
X-767821Y-236291D01*
X-768240Y-236573D01*
X-772675Y-238410D01*
X-775890Y-241625D01*
X-777630Y-245826D01*
X-777630Y-250374D01*
X-775890Y-254575D01*
X-772675Y-257790D01*
X-768240Y-259627D01*
X-767865Y-259867D01*
X-767569Y-260277D01*
X-767457Y-260770D01*
X-767545Y-261267D01*
X-767821Y-261691D01*
X-768240Y-261973D01*
X-772675Y-263810D01*
X-775890Y-267025D01*
X-776669Y-268906D01*
X-776930Y-269304D01*
X-777347Y-269589D01*
X-777842Y-269690D01*
X-800858Y-269690D01*
X-817880Y-286712D01*
X-817880Y-351192D01*
X-755132Y-413940D01*
X-754861Y-414343D01*
X-754760Y-414838D01*
X-754760Y-430913D01*
X-752156Y-433516D01*
X-745679Y-439994D01*
X-745415Y-440378D01*
X-745307Y-440872D01*
X-745399Y-441369D01*
X-745679Y-441790D01*
X-748133Y-444245D01*
X-749680Y-447979D01*
X-749680Y-452021D01*
X-748133Y-455755D01*
X-745275Y-458613D01*
X-741541Y-460160D01*
X-722259Y-460160D01*
X-718525Y-458613D01*
X-715667Y-455755D01*
X-714627Y-453245D01*
X-714380Y-452862D01*
X-713968Y-452569D01*
X-713474Y-452461D01*
X-712977Y-452554D01*
X-712556Y-452833D01*
X-696694Y-468694D01*
X-696423Y-469097D01*
X-696322Y-469592D01*
X-696322Y-471258D01*
X-695360Y-473581D01*
X-693581Y-475360D01*
X-691258Y-476322D01*
G37*
G36*
X-595230Y-120338D02*
X-572370Y-120338D01*
X-572370Y-118826D01*
X-574110Y-114625D01*
X-577325Y-111410D01*
X-581760Y-109573D01*
X-582135Y-109333D01*
X-582431Y-108923D01*
X-582543Y-108430D01*
X-582455Y-107933D01*
X-582179Y-107509D01*
X-581760Y-107227D01*
X-577325Y-105390D01*
X-574110Y-102175D01*
X-572370Y-97974D01*
X-572370Y-93426D01*
X-574110Y-89225D01*
X-577325Y-86010D01*
X-581760Y-84173D01*
X-582135Y-83933D01*
X-582431Y-83523D01*
X-582543Y-83030D01*
X-582455Y-82533D01*
X-582179Y-82109D01*
X-581760Y-81827D01*
X-577325Y-79990D01*
X-574110Y-76775D01*
X-572370Y-72574D01*
X-572370Y-68026D01*
X-574110Y-63825D01*
X-577325Y-60610D01*
X-581526Y-58870D01*
X-586074Y-58870D01*
X-590275Y-60610D01*
X-593490Y-63825D01*
X-595230Y-68026D01*
X-595230Y-72574D01*
X-593490Y-76775D01*
X-590275Y-79990D01*
X-585840Y-81827D01*
X-585465Y-82067D01*
X-585169Y-82477D01*
X-585057Y-82970D01*
X-585145Y-83467D01*
X-585421Y-83891D01*
X-585840Y-84173D01*
X-590275Y-86010D01*
X-593490Y-89225D01*
X-595230Y-93426D01*
X-595230Y-97974D01*
X-593490Y-102175D01*
X-590275Y-105390D01*
X-585840Y-107227D01*
X-585465Y-107467D01*
X-585169Y-107877D01*
X-585057Y-108370D01*
X-585145Y-108867D01*
X-585421Y-109291D01*
X-585840Y-109573D01*
X-590275Y-111410D01*
X-593490Y-114625D01*
X-595230Y-118826D01*
X-595230Y-120338D01*
G37*
G36*
X-625230Y-94938D02*
X-602370Y-94938D01*
X-602370Y-93426D01*
X-604110Y-89225D01*
X-607325Y-86010D01*
X-611760Y-84173D01*
X-612135Y-83933D01*
X-612431Y-83523D01*
X-612543Y-83030D01*
X-612455Y-82533D01*
X-612179Y-82109D01*
X-611760Y-81827D01*
X-607325Y-79990D01*
X-604110Y-76775D01*
X-602370Y-72574D01*
X-602370Y-68026D01*
X-604110Y-63825D01*
X-607325Y-60610D01*
X-611526Y-58870D01*
X-616074Y-58870D01*
X-620275Y-60610D01*
X-623490Y-63825D01*
X-625230Y-68026D01*
X-625230Y-72574D01*
X-623490Y-76775D01*
X-620275Y-79990D01*
X-615840Y-81827D01*
X-615465Y-82067D01*
X-615169Y-82477D01*
X-615057Y-82970D01*
X-615145Y-83467D01*
X-615421Y-83891D01*
X-615840Y-84173D01*
X-620275Y-86010D01*
X-623490Y-89225D01*
X-625230Y-93426D01*
X-625230Y-94938D01*
G37*
G36*
X-747630Y-94938D02*
X-724770Y-94938D01*
X-724770Y-93426D01*
X-726510Y-89225D01*
X-729725Y-86010D01*
X-734160Y-84173D01*
X-734535Y-83933D01*
X-734831Y-83523D01*
X-734943Y-83030D01*
X-734855Y-82533D01*
X-734579Y-82109D01*
X-734160Y-81827D01*
X-729725Y-79990D01*
X-726510Y-76775D01*
X-724770Y-72574D01*
X-724770Y-68026D01*
X-726510Y-63825D01*
X-729725Y-60610D01*
X-733926Y-58870D01*
X-738474Y-58870D01*
X-742675Y-60610D01*
X-745890Y-63825D01*
X-747630Y-68026D01*
X-747630Y-72574D01*
X-745890Y-76775D01*
X-742675Y-79990D01*
X-738240Y-81827D01*
X-737865Y-82067D01*
X-737569Y-82477D01*
X-737457Y-82970D01*
X-737545Y-83467D01*
X-737821Y-83891D01*
X-738240Y-84173D01*
X-742675Y-86010D01*
X-745890Y-89225D01*
X-747630Y-93426D01*
X-747630Y-94938D01*
G37*
G36*
X-819680Y-68438D02*
X-802662Y-68438D01*
X-802662Y-59040D01*
X-811541Y-59040D01*
X-815275Y-60587D01*
X-818133Y-63445D01*
X-819680Y-67179D01*
X-819680Y-68438D01*
G37*
G36*
X-801138Y-68438D02*
X-784120Y-68438D01*
X-784120Y-67179D01*
X-785667Y-63445D01*
X-788525Y-60587D01*
X-792259Y-59040D01*
X-801138Y-59040D01*
X-801138Y-68438D01*
G37*
G36*
X-801138Y-79360D02*
X-792259Y-79360D01*
X-788525Y-77813D01*
X-785667Y-74955D01*
X-784120Y-71221D01*
X-784120Y-69962D01*
X-801138Y-69962D01*
X-801138Y-79360D01*
G37*
G36*
X-811541Y-79360D02*
X-802662Y-79360D01*
X-802662Y-69962D01*
X-819680Y-69962D01*
X-819680Y-71221D01*
X-818133Y-74955D01*
X-815275Y-77813D01*
X-811541Y-79360D01*
G37*
G36*
X-418911Y-119660D02*
X-411089Y-119660D01*
X-403864Y-116667D01*
X-398333Y-111136D01*
X-395340Y-103911D01*
X-395340Y-96089D01*
X-398333Y-88864D01*
X-403864Y-83333D01*
X-411089Y-80340D01*
X-418911Y-80340D01*
X-426136Y-83333D01*
X-431667Y-88864D01*
X-434660Y-96089D01*
X-434660Y-103911D01*
X-431667Y-111136D01*
X-426136Y-116667D01*
X-418911Y-119660D01*
G37*
G36*
X-308911Y-119660D02*
X-301089Y-119660D01*
X-293864Y-116667D01*
X-288333Y-111136D01*
X-285340Y-103911D01*
X-285340Y-96089D01*
X-288333Y-88864D01*
X-293864Y-83333D01*
X-301089Y-80340D01*
X-308911Y-80340D01*
X-316136Y-83333D01*
X-321667Y-88864D01*
X-324660Y-96089D01*
X-324660Y-103911D01*
X-321667Y-111136D01*
X-316136Y-116667D01*
X-308911Y-119660D01*
G37*
G36*
X-128911Y-119660D02*
X-121089Y-119660D01*
X-113864Y-116667D01*
X-108333Y-111136D01*
X-105340Y-103911D01*
X-105340Y-96089D01*
X-108333Y-88864D01*
X-113864Y-83333D01*
X-121089Y-80340D01*
X-128911Y-80340D01*
X-136136Y-83333D01*
X-141667Y-88864D01*
X-144660Y-96089D01*
X-144660Y-103911D01*
X-141667Y-111136D01*
X-136136Y-116667D01*
X-128911Y-119660D01*
G37*
G36*
X-238911Y-119660D02*
X-231089Y-119660D01*
X-223864Y-116667D01*
X-218333Y-111136D01*
X-215340Y-103911D01*
X-215340Y-96089D01*
X-218333Y-88864D01*
X-223864Y-83333D01*
X-231089Y-80340D01*
X-238911Y-80340D01*
X-246136Y-83333D01*
X-251667Y-88864D01*
X-254660Y-96089D01*
X-254660Y-103911D01*
X-251667Y-111136D01*
X-246136Y-116667D01*
X-238911Y-119660D01*
G37*
G36*
X-625558Y-408840D02*
X-622042Y-408840D01*
X-618793Y-407494D01*
X-616306Y-405007D01*
X-614960Y-401758D01*
X-614960Y-398242D01*
X-616306Y-394993D01*
X-618793Y-392506D01*
X-619206Y-392335D01*
X-619604Y-392073D01*
X-619889Y-391657D01*
X-619990Y-391161D01*
X-619990Y-361408D01*
X-619908Y-360960D01*
X-619639Y-360532D01*
X-619225Y-360243D01*
X-618730Y-360138D01*
X-618234Y-360235D01*
X-616074Y-361130D01*
X-611526Y-361130D01*
X-607325Y-359390D01*
X-604110Y-356175D01*
X-602370Y-351974D01*
X-602370Y-347426D01*
X-604110Y-343225D01*
X-607325Y-340010D01*
X-611760Y-338173D01*
X-612135Y-337933D01*
X-612431Y-337523D01*
X-612543Y-337030D01*
X-612455Y-336533D01*
X-612179Y-336109D01*
X-611760Y-335827D01*
X-607325Y-333990D01*
X-604110Y-330775D01*
X-602370Y-326574D01*
X-602370Y-322026D01*
X-604110Y-317825D01*
X-607325Y-314610D01*
X-611760Y-312773D01*
X-612135Y-312533D01*
X-612431Y-312123D01*
X-612543Y-311630D01*
X-612455Y-311133D01*
X-612179Y-310709D01*
X-611760Y-310427D01*
X-607325Y-308590D01*
X-604110Y-305375D01*
X-602370Y-301174D01*
X-602370Y-296626D01*
X-604110Y-292425D01*
X-607325Y-289210D01*
X-611760Y-287373D01*
X-612135Y-287133D01*
X-612431Y-286723D01*
X-612543Y-286230D01*
X-612455Y-285733D01*
X-612179Y-285309D01*
X-611760Y-285027D01*
X-607325Y-283190D01*
X-604110Y-279975D01*
X-602370Y-275774D01*
X-602370Y-271226D01*
X-604110Y-267025D01*
X-607325Y-263810D01*
X-611760Y-261973D01*
X-612135Y-261733D01*
X-612431Y-261323D01*
X-612543Y-260830D01*
X-612455Y-260333D01*
X-612179Y-259909D01*
X-611760Y-259627D01*
X-607325Y-257790D01*
X-604110Y-254575D01*
X-602370Y-250374D01*
X-602370Y-245826D01*
X-604110Y-241625D01*
X-607325Y-238410D01*
X-611760Y-236573D01*
X-612135Y-236333D01*
X-612431Y-235923D01*
X-612543Y-235430D01*
X-612455Y-234933D01*
X-612179Y-234509D01*
X-611760Y-234227D01*
X-607325Y-232390D01*
X-604110Y-229175D01*
X-602370Y-224974D01*
X-602370Y-220426D01*
X-604110Y-216225D01*
X-607325Y-213010D01*
X-611760Y-211173D01*
X-612135Y-210933D01*
X-612431Y-210523D01*
X-612543Y-210030D01*
X-612455Y-209533D01*
X-612179Y-209109D01*
X-611760Y-208827D01*
X-607325Y-206990D01*
X-604110Y-203775D01*
X-602370Y-199574D01*
X-602370Y-195026D01*
X-604110Y-190825D01*
X-607325Y-187610D01*
X-611760Y-185773D01*
X-612135Y-185533D01*
X-612431Y-185123D01*
X-612543Y-184630D01*
X-612455Y-184133D01*
X-612179Y-183709D01*
X-611760Y-183427D01*
X-607325Y-181590D01*
X-604110Y-178375D01*
X-602370Y-174174D01*
X-602370Y-169626D01*
X-604110Y-165425D01*
X-607325Y-162210D01*
X-611760Y-160373D01*
X-612135Y-160133D01*
X-612431Y-159723D01*
X-612543Y-159230D01*
X-612455Y-158733D01*
X-612179Y-158309D01*
X-611760Y-158027D01*
X-607325Y-156190D01*
X-604110Y-152975D01*
X-602370Y-148774D01*
X-602370Y-144226D01*
X-604110Y-140025D01*
X-607325Y-136810D01*
X-611760Y-134973D01*
X-612135Y-134733D01*
X-612431Y-134323D01*
X-612543Y-133830D01*
X-612455Y-133333D01*
X-612179Y-132909D01*
X-611760Y-132627D01*
X-607325Y-130790D01*
X-604110Y-127575D01*
X-602370Y-123374D01*
X-602370Y-118826D01*
X-604110Y-114625D01*
X-607325Y-111410D01*
X-611760Y-109573D01*
X-612135Y-109333D01*
X-612431Y-108923D01*
X-612543Y-108430D01*
X-612455Y-107933D01*
X-612179Y-107509D01*
X-611760Y-107227D01*
X-607325Y-105390D01*
X-604110Y-102175D01*
X-602370Y-97974D01*
X-602370Y-96462D01*
X-625230Y-96462D01*
X-625230Y-97974D01*
X-623490Y-102175D01*
X-620275Y-105390D01*
X-615840Y-107227D01*
X-615465Y-107467D01*
X-615169Y-107877D01*
X-615057Y-108370D01*
X-615145Y-108867D01*
X-615421Y-109291D01*
X-615840Y-109573D01*
X-620275Y-111410D01*
X-623490Y-114625D01*
X-625230Y-118826D01*
X-625230Y-123374D01*
X-623490Y-127575D01*
X-620275Y-130790D01*
X-615840Y-132627D01*
X-615465Y-132867D01*
X-615169Y-133277D01*
X-615057Y-133770D01*
X-615145Y-134267D01*
X-615421Y-134691D01*
X-615840Y-134973D01*
X-620275Y-136810D01*
X-623490Y-140025D01*
X-625230Y-144226D01*
X-625230Y-148774D01*
X-624451Y-150654D01*
X-624355Y-151120D01*
X-624447Y-151617D01*
X-624726Y-152038D01*
X-630310Y-157622D01*
X-630310Y-356539D01*
X-627982Y-358867D01*
X-627711Y-359269D01*
X-627610Y-359765D01*
X-627610Y-391161D01*
X-627699Y-391628D01*
X-627975Y-392052D01*
X-628394Y-392335D01*
X-628807Y-392506D01*
X-631294Y-394993D01*
X-632640Y-398242D01*
X-632640Y-401758D01*
X-631294Y-405007D01*
X-628807Y-407494D01*
X-625558Y-408840D01*
G37*
G36*
X586969Y-137240D02*
X593031Y-137240D01*
X598633Y-134920D01*
X602920Y-130633D01*
X605240Y-125031D01*
X605240Y-118969D01*
X602920Y-113367D01*
X598633Y-109080D01*
X593031Y-106760D01*
X586969Y-106760D01*
X581367Y-109080D01*
X577080Y-113367D01*
X574760Y-118969D01*
X574760Y-125031D01*
X577080Y-130633D01*
X581367Y-134920D01*
X586969Y-137240D01*
G37*
G36*
X306969Y-137240D02*
X313031Y-137240D01*
X318633Y-134920D01*
X322920Y-130633D01*
X325240Y-125031D01*
X325240Y-118969D01*
X322920Y-113367D01*
X318633Y-109080D01*
X313031Y-106760D01*
X306969Y-106760D01*
X301367Y-109080D01*
X297080Y-113367D01*
X294760Y-118969D01*
X294760Y-125031D01*
X297080Y-130633D01*
X301367Y-134920D01*
X306969Y-137240D01*
G37*
G36*
X486969Y-137240D02*
X493031Y-137240D01*
X498633Y-134920D01*
X502920Y-130633D01*
X505240Y-125031D01*
X505240Y-118969D01*
X502920Y-113367D01*
X498633Y-109080D01*
X493031Y-106760D01*
X486969Y-106760D01*
X481367Y-109080D01*
X477080Y-113367D01*
X474760Y-118969D01*
X474760Y-125031D01*
X477080Y-130633D01*
X481367Y-134920D01*
X486969Y-137240D01*
G37*
G36*
X406969Y-137240D02*
X413031Y-137240D01*
X418633Y-134920D01*
X422920Y-130633D01*
X425240Y-125031D01*
X425240Y-118969D01*
X422920Y-113367D01*
X418633Y-109080D01*
X413031Y-106760D01*
X406969Y-106760D01*
X401367Y-109080D01*
X397080Y-113367D01*
X394760Y-118969D01*
X394760Y-125031D01*
X397080Y-130633D01*
X401367Y-134920D01*
X406969Y-137240D01*
G37*
G36*
X46969Y-147240D02*
X53031Y-147240D01*
X58633Y-144920D01*
X62920Y-140633D01*
X65240Y-135031D01*
X65240Y-128969D01*
X62920Y-123367D01*
X58633Y-119080D01*
X53031Y-116760D01*
X46969Y-116760D01*
X41367Y-119080D01*
X37080Y-123367D01*
X34760Y-128969D01*
X34760Y-135031D01*
X37080Y-140633D01*
X41367Y-144920D01*
X46969Y-147240D01*
G37*
G36*
X-53031Y-147240D02*
X-46969Y-147240D01*
X-41367Y-144920D01*
X-37080Y-140633D01*
X-34760Y-135031D01*
X-34760Y-128969D01*
X-37080Y-123367D01*
X-41367Y-119080D01*
X-46969Y-116760D01*
X-53031Y-116760D01*
X-58633Y-119080D01*
X-62920Y-123367D01*
X-65240Y-128969D01*
X-65240Y-135031D01*
X-62920Y-140633D01*
X-58633Y-144920D01*
X-53031Y-147240D01*
G37*
G36*
X411089Y-179660D02*
X418911Y-179660D01*
X426136Y-176667D01*
X431667Y-171136D01*
X434660Y-163911D01*
X434660Y-156089D01*
X431667Y-148864D01*
X426136Y-143333D01*
X418911Y-140340D01*
X411089Y-140340D01*
X403864Y-143333D01*
X398333Y-148864D01*
X395340Y-156089D01*
X395340Y-163911D01*
X398333Y-171136D01*
X403864Y-176667D01*
X411089Y-179660D01*
G37*
G36*
X301089Y-179660D02*
X308911Y-179660D01*
X316136Y-176667D01*
X321667Y-171136D01*
X324660Y-163911D01*
X324660Y-156089D01*
X321667Y-148864D01*
X316136Y-143333D01*
X308911Y-140340D01*
X301089Y-140340D01*
X293864Y-143333D01*
X288333Y-148864D01*
X285340Y-156089D01*
X285340Y-163911D01*
X288333Y-171136D01*
X293864Y-176667D01*
X301089Y-179660D01*
G37*
G36*
X591089Y-179660D02*
X598911Y-179660D01*
X606136Y-176667D01*
X611667Y-171136D01*
X614660Y-163911D01*
X614660Y-156089D01*
X611667Y-148864D01*
X606136Y-143333D01*
X598911Y-140340D01*
X591089Y-140340D01*
X583864Y-143333D01*
X578333Y-148864D01*
X575340Y-156089D01*
X575340Y-163911D01*
X578333Y-171136D01*
X583864Y-176667D01*
X591089Y-179660D01*
G37*
G36*
X-58911Y-189660D02*
X-51089Y-189660D01*
X-43864Y-186667D01*
X-38333Y-181136D01*
X-35340Y-173911D01*
X-35340Y-166089D01*
X-38333Y-158864D01*
X-43864Y-153333D01*
X-51089Y-150340D01*
X-58911Y-150340D01*
X-66136Y-153333D01*
X-71667Y-158864D01*
X-74660Y-166089D01*
X-74660Y-173911D01*
X-71667Y-181136D01*
X-66136Y-186667D01*
X-58911Y-189660D01*
G37*
G36*
X51089Y-189660D02*
X58911Y-189660D01*
X66136Y-186667D01*
X71667Y-181136D01*
X74660Y-173911D01*
X74660Y-166089D01*
X71667Y-158864D01*
X66136Y-153333D01*
X58911Y-150340D01*
X51089Y-150340D01*
X43864Y-153333D01*
X38333Y-158864D01*
X35340Y-166089D01*
X35340Y-173911D01*
X38333Y-181136D01*
X43864Y-186667D01*
X51089Y-189660D01*
G37*
G36*
X-819680Y-170038D02*
X-802662Y-170038D01*
X-802662Y-160640D01*
X-811541Y-160640D01*
X-815275Y-162187D01*
X-818133Y-165045D01*
X-819680Y-168779D01*
X-819680Y-170038D01*
G37*
G36*
X226969Y-197240D02*
X233031Y-197240D01*
X238633Y-194920D01*
X242920Y-190633D01*
X245240Y-185031D01*
X245240Y-178969D01*
X242920Y-173367D01*
X238633Y-169080D01*
X233031Y-166760D01*
X226969Y-166760D01*
X221367Y-169080D01*
X217080Y-173367D01*
X214760Y-178969D01*
X214760Y-185031D01*
X217080Y-190633D01*
X221367Y-194920D01*
X226969Y-197240D01*
G37*
G36*
X126969Y-197240D02*
X133031Y-197240D01*
X138633Y-194920D01*
X142920Y-190633D01*
X145240Y-185031D01*
X145240Y-178969D01*
X142920Y-173367D01*
X138633Y-169080D01*
X133031Y-166760D01*
X126969Y-166760D01*
X121367Y-169080D01*
X117080Y-173367D01*
X114760Y-178969D01*
X114760Y-185031D01*
X117080Y-190633D01*
X121367Y-194920D01*
X126969Y-197240D01*
G37*
G36*
X-811541Y-180960D02*
X-802662Y-180960D01*
X-802662Y-171562D01*
X-819680Y-171562D01*
X-819680Y-172821D01*
X-818133Y-176555D01*
X-815275Y-179413D01*
X-811541Y-180960D01*
G37*
G36*
X231089Y-239660D02*
X238911Y-239660D01*
X246136Y-236667D01*
X251667Y-231136D01*
X254660Y-223911D01*
X254660Y-216089D01*
X251667Y-208864D01*
X246136Y-203333D01*
X238911Y-200340D01*
X231089Y-200340D01*
X223864Y-203333D01*
X218333Y-208864D01*
X215340Y-216089D01*
X215340Y-223911D01*
X218333Y-231136D01*
X223864Y-236667D01*
X231089Y-239660D01*
G37*
G36*
X121089Y-239660D02*
X128911Y-239660D01*
X136136Y-236667D01*
X141667Y-231136D01*
X144660Y-223911D01*
X144660Y-216089D01*
X141667Y-208864D01*
X136136Y-203333D01*
X128911Y-200340D01*
X121089Y-200340D01*
X113864Y-203333D01*
X108333Y-208864D01*
X105340Y-216089D01*
X105340Y-223911D01*
X108333Y-231136D01*
X113864Y-236667D01*
X121089Y-239660D01*
G37*
G36*
X-313031Y-247240D02*
X-306969Y-247240D01*
X-301367Y-244920D01*
X-297080Y-240633D01*
X-294760Y-235031D01*
X-294760Y-228969D01*
X-297080Y-223367D01*
X-301367Y-219080D01*
X-306969Y-216760D01*
X-313031Y-216760D01*
X-318633Y-219080D01*
X-322920Y-223367D01*
X-325240Y-228969D01*
X-325240Y-235031D01*
X-322920Y-240633D01*
X-318633Y-244920D01*
X-313031Y-247240D01*
G37*
G36*
X-413031Y-247240D02*
X-406969Y-247240D01*
X-401367Y-244920D01*
X-397080Y-240633D01*
X-394760Y-235031D01*
X-394760Y-228969D01*
X-397080Y-223367D01*
X-401367Y-219080D01*
X-406969Y-216760D01*
X-413031Y-216760D01*
X-418633Y-219080D01*
X-422920Y-223367D01*
X-425240Y-228969D01*
X-425240Y-235031D01*
X-422920Y-240633D01*
X-418633Y-244920D01*
X-413031Y-247240D01*
G37*
G36*
X-133031Y-247240D02*
X-126969Y-247240D01*
X-121367Y-244920D01*
X-117080Y-240633D01*
X-114760Y-235031D01*
X-114760Y-228969D01*
X-117080Y-223367D01*
X-121367Y-219080D01*
X-126969Y-216760D01*
X-133031Y-216760D01*
X-138633Y-219080D01*
X-142920Y-223367D01*
X-145240Y-228969D01*
X-145240Y-235031D01*
X-142920Y-240633D01*
X-138633Y-244920D01*
X-133031Y-247240D01*
G37*
G36*
X-233031Y-247240D02*
X-226969Y-247240D01*
X-221367Y-244920D01*
X-217080Y-240633D01*
X-214760Y-235031D01*
X-214760Y-228969D01*
X-217080Y-223367D01*
X-221367Y-219080D01*
X-226969Y-216760D01*
X-233031Y-216760D01*
X-238633Y-219080D01*
X-242920Y-223367D01*
X-245240Y-228969D01*
X-245240Y-235031D01*
X-242920Y-240633D01*
X-238633Y-244920D01*
X-233031Y-247240D01*
G37*
G36*
X-128911Y-289660D02*
X-121089Y-289660D01*
X-113864Y-286667D01*
X-108333Y-281136D01*
X-105340Y-273911D01*
X-105340Y-266089D01*
X-108333Y-258864D01*
X-113864Y-253333D01*
X-121089Y-250340D01*
X-128911Y-250340D01*
X-136136Y-253333D01*
X-141667Y-258864D01*
X-144660Y-266089D01*
X-144660Y-273911D01*
X-141667Y-281136D01*
X-136136Y-286667D01*
X-128911Y-289660D01*
G37*
G36*
X-418911Y-289660D02*
X-411089Y-289660D01*
X-403864Y-286667D01*
X-398333Y-281136D01*
X-395340Y-273911D01*
X-395340Y-266089D01*
X-398333Y-258864D01*
X-403864Y-253333D01*
X-411089Y-250340D01*
X-418911Y-250340D01*
X-426136Y-253333D01*
X-431667Y-258864D01*
X-434660Y-266089D01*
X-434660Y-273911D01*
X-431667Y-281136D01*
X-426136Y-286667D01*
X-418911Y-289660D01*
G37*
G36*
X-308911Y-289660D02*
X-301089Y-289660D01*
X-293864Y-286667D01*
X-288333Y-281136D01*
X-285340Y-273911D01*
X-285340Y-266089D01*
X-288333Y-258864D01*
X-293864Y-253333D01*
X-301089Y-250340D01*
X-308911Y-250340D01*
X-316136Y-253333D01*
X-321667Y-258864D01*
X-324660Y-266089D01*
X-324660Y-273911D01*
X-321667Y-281136D01*
X-316136Y-286667D01*
X-308911Y-289660D01*
G37*
G36*
X-238911Y-289660D02*
X-231089Y-289660D01*
X-223864Y-286667D01*
X-218333Y-281136D01*
X-215340Y-273911D01*
X-215340Y-266089D01*
X-218333Y-258864D01*
X-223864Y-253333D01*
X-231089Y-250340D01*
X-238911Y-250340D01*
X-246136Y-253333D01*
X-251667Y-258864D01*
X-254660Y-266089D01*
X-254660Y-273911D01*
X-251667Y-281136D01*
X-246136Y-286667D01*
X-238911Y-289660D01*
G37*
G36*
X406969Y-307240D02*
X413031Y-307240D01*
X418633Y-304920D01*
X422920Y-300633D01*
X425240Y-295031D01*
X425240Y-288969D01*
X422920Y-283367D01*
X418633Y-279080D01*
X413031Y-276760D01*
X406969Y-276760D01*
X401367Y-279080D01*
X397080Y-283367D01*
X394760Y-288969D01*
X394760Y-295031D01*
X397080Y-300633D01*
X401367Y-304920D01*
X406969Y-307240D01*
G37*
G36*
X306969Y-307240D02*
X313031Y-307240D01*
X318633Y-304920D01*
X322920Y-300633D01*
X325240Y-295031D01*
X325240Y-288969D01*
X322920Y-283367D01*
X318633Y-279080D01*
X313031Y-276760D01*
X306969Y-276760D01*
X301367Y-279080D01*
X297080Y-283367D01*
X294760Y-288969D01*
X294760Y-295031D01*
X297080Y-300633D01*
X301367Y-304920D01*
X306969Y-307240D01*
G37*
G36*
X586969Y-307240D02*
X593031Y-307240D01*
X598633Y-304920D01*
X602920Y-300633D01*
X605240Y-295031D01*
X605240Y-288969D01*
X602920Y-283367D01*
X598633Y-279080D01*
X593031Y-276760D01*
X586969Y-276760D01*
X581367Y-279080D01*
X577080Y-283367D01*
X574760Y-288969D01*
X574760Y-295031D01*
X577080Y-300633D01*
X581367Y-304920D01*
X586969Y-307240D01*
G37*
G36*
X486969Y-307240D02*
X493031Y-307240D01*
X498633Y-304920D01*
X502920Y-300633D01*
X505240Y-295031D01*
X505240Y-288969D01*
X502920Y-283367D01*
X498633Y-279080D01*
X493031Y-276760D01*
X486969Y-276760D01*
X481367Y-279080D01*
X477080Y-283367D01*
X474760Y-288969D01*
X474760Y-295031D01*
X477080Y-300633D01*
X481367Y-304920D01*
X486969Y-307240D01*
G37*
G36*
X411089Y-349660D02*
X418911Y-349660D01*
X426136Y-346667D01*
X431667Y-341136D01*
X434660Y-333911D01*
X434660Y-326089D01*
X431667Y-318864D01*
X426136Y-313333D01*
X418911Y-310340D01*
X411089Y-310340D01*
X403864Y-313333D01*
X398333Y-318864D01*
X395340Y-326089D01*
X395340Y-333911D01*
X398333Y-341136D01*
X403864Y-346667D01*
X411089Y-349660D01*
G37*
G36*
X481089Y-349660D02*
X488911Y-349660D01*
X496136Y-346667D01*
X501667Y-341136D01*
X504660Y-333911D01*
X504660Y-326089D01*
X501667Y-318864D01*
X496136Y-313333D01*
X488911Y-310340D01*
X481089Y-310340D01*
X473864Y-313333D01*
X468333Y-318864D01*
X465340Y-326089D01*
X465340Y-333911D01*
X468333Y-341136D01*
X473864Y-346667D01*
X481089Y-349660D01*
G37*
G36*
X591089Y-349660D02*
X598911Y-349660D01*
X606136Y-346667D01*
X611667Y-341136D01*
X614660Y-333911D01*
X614660Y-326089D01*
X611667Y-318864D01*
X606136Y-313333D01*
X598911Y-310340D01*
X591089Y-310340D01*
X583864Y-313333D01*
X578333Y-318864D01*
X575340Y-326089D01*
X575340Y-333911D01*
X578333Y-341136D01*
X583864Y-346667D01*
X591089Y-349660D01*
G37*
G36*
X301089Y-349660D02*
X308911Y-349660D01*
X316136Y-346667D01*
X321667Y-341136D01*
X324660Y-333911D01*
X324660Y-326089D01*
X321667Y-318864D01*
X316136Y-313333D01*
X308911Y-310340D01*
X301089Y-310340D01*
X293864Y-313333D01*
X288333Y-318864D01*
X285340Y-326089D01*
X285340Y-333911D01*
X288333Y-341136D01*
X293864Y-346667D01*
X301089Y-349660D01*
G37*
G36*
X-705040Y-439238D02*
X-696962Y-439238D01*
X-696962Y-431160D01*
X-697958Y-431160D01*
X-701207Y-432506D01*
X-703694Y-434993D01*
X-705040Y-438242D01*
X-705040Y-439238D01*
G37*
G36*
X-695438Y-439238D02*
X-687360Y-439238D01*
X-687360Y-438242D01*
X-688706Y-434993D01*
X-691193Y-432506D01*
X-694442Y-431160D01*
X-695438Y-431160D01*
X-695438Y-439238D01*
G37*
G36*
X-695438Y-448840D02*
X-694442Y-448840D01*
X-691193Y-447494D01*
X-688706Y-445007D01*
X-687360Y-441758D01*
X-687360Y-440762D01*
X-695438Y-440762D01*
X-695438Y-448840D01*
G37*
G36*
X-697958Y-448840D02*
X-696962Y-448840D01*
X-696962Y-440762D01*
X-705040Y-440762D01*
X-705040Y-441758D01*
X-703694Y-445007D01*
X-701207Y-447494D01*
X-697958Y-448840D01*
G37*
G36*
X-140390Y-479135D02*
X-134327Y-479135D01*
X-128726Y-476815D01*
X-124438Y-472528D01*
X-122118Y-466926D01*
X-122118Y-460863D01*
X-124438Y-455262D01*
X-128726Y-450975D01*
X-134327Y-448655D01*
X-140390Y-448655D01*
X-145991Y-450975D01*
X-150278Y-455262D01*
X-152598Y-460863D01*
X-152598Y-466926D01*
X-150278Y-472528D01*
X-145991Y-476815D01*
X-140390Y-479135D01*
G37*
G36*
X-741541Y-485560D02*
X-722259Y-485560D01*
X-718525Y-484013D01*
X-715667Y-481155D01*
X-714120Y-477421D01*
X-714120Y-473379D01*
X-715667Y-469645D01*
X-718525Y-466787D01*
X-722259Y-465240D01*
X-741541Y-465240D01*
X-745275Y-466787D01*
X-748133Y-469645D01*
X-749680Y-473379D01*
X-749680Y-477421D01*
X-748133Y-481155D01*
X-745275Y-484013D01*
X-741541Y-485560D01*
G37*
G36*
X-238870Y-496500D02*
X-232808Y-496500D01*
X-227206Y-494180D01*
X-222919Y-489892D01*
X-220599Y-484291D01*
X-220599Y-478228D01*
X-222919Y-472627D01*
X-227206Y-468340D01*
X-232808Y-466020D01*
X-238870Y-466020D01*
X-244472Y-468340D01*
X-248759Y-472627D01*
X-251079Y-478228D01*
X-251079Y-484291D01*
X-248759Y-489892D01*
X-244472Y-494180D01*
X-238870Y-496500D01*
G37*
G36*
X-317655Y-510392D02*
X-311592Y-510392D01*
X-305991Y-508071D01*
X-301704Y-503784D01*
X-299384Y-498183D01*
X-299384Y-492120D01*
X-301704Y-486519D01*
X-305991Y-482232D01*
X-311592Y-479912D01*
X-317655Y-479912D01*
X-323256Y-482232D01*
X-327544Y-486519D01*
X-329864Y-492120D01*
X-329864Y-498183D01*
X-327544Y-503784D01*
X-323256Y-508071D01*
X-317655Y-510392D01*
G37*
G36*
X-731138Y-500038D02*
X-714120Y-500038D01*
X-714120Y-498779D01*
X-715667Y-495045D01*
X-718525Y-492187D01*
X-722259Y-490640D01*
X-731138Y-490640D01*
X-731138Y-500038D01*
G37*
G36*
X-749680Y-500038D02*
X-732662Y-500038D01*
X-732662Y-490640D01*
X-741541Y-490640D01*
X-745275Y-492187D01*
X-748133Y-495045D01*
X-749680Y-498779D01*
X-749680Y-500038D01*
G37*
G36*
X-416136Y-527756D02*
X-410073Y-527756D01*
X-404472Y-525436D01*
X-400185Y-521149D01*
X-397864Y-515548D01*
X-397864Y-509485D01*
X-400185Y-503884D01*
X-404472Y-499597D01*
X-410073Y-497276D01*
X-416136Y-497276D01*
X-421737Y-499597D01*
X-426024Y-503884D01*
X-428344Y-509485D01*
X-428344Y-515548D01*
X-426024Y-521149D01*
X-421737Y-525436D01*
X-416136Y-527756D01*
G37*
G36*
X-741541Y-510960D02*
X-732662Y-510960D01*
X-732662Y-501562D01*
X-749680Y-501562D01*
X-749680Y-502821D01*
X-748133Y-506555D01*
X-745275Y-509413D01*
X-741541Y-510960D01*
G37*
G36*
X-731138Y-510960D02*
X-722259Y-510960D01*
X-718525Y-509413D01*
X-715667Y-506555D01*
X-714120Y-502821D01*
X-714120Y-501562D01*
X-731138Y-501562D01*
X-731138Y-510960D01*
G37*
G36*
X-494921Y-541648D02*
X-488858Y-541648D01*
X-483256Y-539328D01*
X-478969Y-535041D01*
X-476649Y-529440D01*
X-476649Y-523377D01*
X-478969Y-517776D01*
X-483256Y-513488D01*
X-488858Y-511168D01*
X-494921Y-511168D01*
X-500522Y-513488D01*
X-504809Y-517776D01*
X-507129Y-523377D01*
X-507129Y-529440D01*
X-504809Y-535041D01*
X-500522Y-539328D01*
X-494921Y-541648D01*
G37*
G36*
X-593401Y-559013D02*
X-587338Y-559013D01*
X-581737Y-556693D01*
X-577450Y-552406D01*
X-575130Y-546805D01*
X-575130Y-540742D01*
X-577450Y-535140D01*
X-581737Y-530853D01*
X-587338Y-528533D01*
X-593401Y-528533D01*
X-599003Y-530853D01*
X-603290Y-535140D01*
X-605610Y-540742D01*
X-605610Y-546805D01*
X-603290Y-552406D01*
X-599003Y-556693D01*
X-593401Y-559013D01*
G37*
%LPD*%
D10*
X540000Y-101000D03*
X590000Y-122000D03*
X490000Y-122000D03*
X540000Y-271000D03*
X590000Y-292000D03*
X490000Y-292000D03*
X360000Y-101000D03*
X410000Y-122000D03*
X310000Y-122000D03*
X360000Y-271000D03*
X410000Y-292000D03*
X310000Y-292000D03*
X180000Y9000D03*
X230000Y-12000D03*
X130000Y-12000D03*
X180000Y-161000D03*
X230000Y-182000D03*
X130000Y-182000D03*
X0Y59000D03*
X50000Y38000D03*
X-50000Y38000D03*
X0Y-111000D03*
X50000Y-132000D03*
X-50000Y-132000D03*
X-180000Y-41000D03*
X-130000Y-62000D03*
X-230000Y-62000D03*
X-180000Y-211000D03*
X-130000Y-232000D03*
X-230000Y-232000D03*
X-360000Y-41000D03*
X-310000Y-62000D03*
X-410000Y-62000D03*
X-360000Y-211000D03*
X-310000Y-232000D03*
X-410000Y-232000D03*
X-190245Y-451896D03*
X-137358Y-463895D03*
X-235839Y-481260D03*
X-367511Y-483153D03*
X-314624Y-495152D03*
X-413104Y-512516D03*
X-544776Y-514410D03*
X-491889Y-526408D03*
X-590370Y-543773D03*
D11*
X-766200Y-70300D03*
X-766200Y-95700D03*
X-766200Y-121100D03*
X-766200Y-146500D03*
X-766200Y-171900D03*
X-766200Y-197300D03*
X-766200Y-222700D03*
X-766200Y-248100D03*
X-766200Y-273500D03*
X-766200Y-298900D03*
X-766200Y-324300D03*
X-766200Y-349700D03*
X-613800Y-70300D03*
X-613800Y-95700D03*
X-613800Y-121100D03*
X-613800Y-146500D03*
X-613800Y-171900D03*
X-613800Y-197300D03*
X-613800Y-222700D03*
X-613800Y-248100D03*
X-613800Y-273500D03*
X-613800Y-298900D03*
X-613800Y-324300D03*
X-613800Y-349700D03*
X-583800Y-70300D03*
X-583800Y-95700D03*
X-583800Y-121100D03*
X-583800Y-146500D03*
X-583800Y-171900D03*
X-583800Y-197300D03*
X-583800Y-222700D03*
X-583800Y-248100D03*
X-583800Y-273500D03*
X-583800Y-298900D03*
X-583800Y-324300D03*
X-583800Y-349700D03*
X-736200Y-70300D03*
X-736200Y-95700D03*
X-736200Y-121100D03*
X-736200Y-146500D03*
X-736200Y-171900D03*
X-736200Y-197300D03*
X-736200Y-222700D03*
X-736200Y-248100D03*
X-736200Y-273500D03*
X-736200Y-298900D03*
X-736200Y-324300D03*
X-736200Y-349700D03*
D12*
X-794280Y-170800D02*
X-809520Y-170800D01*
X-809520Y-145400D02*
X-794280Y-145400D01*
X-794280Y-120000D02*
X-809520Y-120000D01*
X-809520Y-94600D02*
X-794280Y-94600D01*
X-794280Y-69200D02*
X-809520Y-69200D01*
X-739520Y-500800D02*
X-724280Y-500800D01*
X-724280Y-475400D02*
X-739520Y-475400D01*
X-739520Y-450000D02*
X-724280Y-450000D01*
X-724280Y-424600D02*
X-739520Y-424600D01*
X-739520Y-399200D02*
X-724280Y-399200D01*
D13*
X-680000Y-249200D03*
X-667300Y-249200D03*
D14*
X-696200Y-400000D03*
X-623800Y-400000D03*
X-696200Y-440000D03*
X-623800Y-440000D03*
D15*
X555750Y-210000D03*
X524250Y-210000D03*
X555750Y-380000D03*
X524250Y-380000D03*
X375750Y-210000D03*
X344250Y-210000D03*
X375750Y-380000D03*
X344250Y-380000D03*
X195750Y-100000D03*
X164250Y-100000D03*
X195750Y-270000D03*
X164250Y-270000D03*
X15750Y-50000D03*
X-15750Y-50000D03*
X15750Y-220000D03*
X-15750Y-220000D03*
X-164250Y-150000D03*
X-195750Y-150000D03*
X-164250Y-320000D03*
X-195750Y-320000D03*
X-344250Y-150000D03*
X-375750Y-150000D03*
X-344250Y-320000D03*
X-375750Y-320000D03*
G36*
X-149233Y-561161D02*
X-158095Y-562724D01*
X-159745Y-553369D01*
X-150883Y-551806D01*
X-149233Y-561161D01*
G37*
G36*
X-180255Y-566631D02*
X-189117Y-568194D01*
X-190767Y-558839D01*
X-181905Y-557276D01*
X-180255Y-566631D01*
G37*
G36*
X-329233Y-591161D02*
X-338095Y-592724D01*
X-339745Y-583369D01*
X-330883Y-581806D01*
X-329233Y-591161D01*
G37*
G36*
X-360255Y-596631D02*
X-369117Y-598194D01*
X-370767Y-588839D01*
X-361905Y-587276D01*
X-360255Y-596631D01*
G37*
G36*
X-509233Y-621161D02*
X-518095Y-622724D01*
X-519745Y-613369D01*
X-510883Y-611806D01*
X-509233Y-621161D01*
G37*
G36*
X-540255Y-626631D02*
X-549117Y-628194D01*
X-550767Y-618839D01*
X-541905Y-617276D01*
X-540255Y-626631D01*
G37*
D10*
X540000Y69000D03*
X590000Y48000D03*
X490000Y48000D03*
D15*
X555008Y-35880D03*
X523508Y-35880D03*
D10*
X360000Y69000D03*
X410000Y48000D03*
X310000Y48000D03*
D15*
X374820Y-35400D03*
X343320Y-35400D03*
D10*
X180000Y179000D03*
X230000Y158000D03*
X130000Y158000D03*
D15*
X194480Y72540D03*
X162980Y72540D03*
D10*
X0Y229000D03*
X50000Y208000D03*
X-50000Y208000D03*
D15*
X14480Y122540D03*
X-17020Y122540D03*
D10*
X-180000Y129000D03*
X-130000Y108000D03*
X-230000Y108000D03*
D15*
X-165860Y22860D03*
X-197360Y22860D03*
D10*
X-360000Y129000D03*
X-310000Y108000D03*
X-410000Y108000D03*
D15*
X-346200Y21590D03*
X-377700Y21590D03*
D16*
X580000Y-210000D03*
D17*
X555750Y-210000D01*
X555750Y-116750D02*
X540000Y-101000D01*
X555750Y-116750D02*
X555750Y-135544D01*
X568430Y-148224D01*
X568430Y-171776D01*
X555750Y-184456D01*
X555750Y-210000D01*
X-195750Y-294456D02*
X-195750Y-320000D01*
X-195750Y-294456D02*
X-208430Y-281776D01*
X-208430Y-258224D01*
X-196510Y-204161D02*
X-195750Y-203401D01*
X-195750Y-150000D01*
X-196510Y-246304D02*
X-208430Y-258224D01*
X-196510Y-246304D02*
X-196510Y-204161D01*
X-195750Y-150000D02*
X-197360Y-148390D01*
X-197360Y-122846D01*
X-208430Y-111776D01*
X-208430Y-88224D01*
X-197360Y-77154D01*
X-197360Y22860D01*
X-220980Y22860D01*
D16*
X-220980Y22860D03*
D17*
X-220000Y-150000D02*
X-195750Y-150000D01*
D16*
X-220000Y-150000D03*
X-220000Y-320000D03*
D17*
X-195750Y-320000D01*
X-220000Y-320000D02*
X-365511Y-465511D01*
X-365511Y-466036D01*
X-377112Y-468081D01*
X-384957Y-479285D01*
X-382582Y-492755D01*
X-388125Y-531911D02*
X-388125Y-550603D01*
X-365511Y-573217D02*
X-365511Y-591820D01*
X-365511Y-592735D01*
X-365511Y-573217D02*
X-388125Y-550603D01*
X-382582Y-526367D02*
X-382582Y-492755D01*
X-382582Y-526367D02*
X-388125Y-531911D01*
D16*
X-510000Y-280000D03*
D17*
X-577300Y-280000D01*
X-583800Y-273500D01*
D16*
X-384810Y-593090D03*
D17*
X-383540Y-591820D01*
X-365511Y-591820D01*
D16*
X-690000Y-470000D03*
D17*
X-712850Y-447150D01*
X-712850Y-445266D01*
X-744255Y-436030D02*
X-750950Y-429335D01*
X-750950Y-412734D01*
X-722086Y-436030D02*
X-712850Y-445266D01*
X-722086Y-436030D02*
X-744255Y-436030D01*
X-750950Y-412734D02*
X-814070Y-349614D01*
X-814070Y-288290D01*
X-799280Y-273500D01*
X-766200Y-273500D01*
X540000Y-271000D02*
X555750Y-286750D01*
X555750Y-305544D01*
X568430Y-318224D01*
X568430Y-341776D01*
X555750Y-354456D01*
X555750Y-380000D01*
D16*
X580000Y-380000D03*
D17*
X555750Y-380000D01*
X375750Y-116750D02*
X360000Y-101000D01*
X375750Y-116750D02*
X375750Y-135544D01*
X388430Y-148224D01*
X388430Y-171776D01*
X375750Y-184456D01*
X375750Y-210000D01*
D16*
X400000Y-210000D03*
D17*
X375750Y-210000D01*
X-15750Y-220000D02*
X-15750Y-194456D01*
X-28430Y-181776D01*
X-28430Y-158224D01*
X-16510Y-104161D02*
X-15750Y-103401D01*
X-15750Y-50000D01*
X-16510Y-146304D02*
X-28430Y-158224D01*
X-16510Y-146304D02*
X-16510Y-104161D01*
X-15750Y-50000D02*
X-15750Y-24456D01*
X-28430Y-11776D01*
X-28430Y11776D01*
X-17020Y23186D01*
X-17020Y122540D01*
X-15750Y-220000D02*
X-40000Y-220000D01*
D16*
X-40000Y-220000D03*
X-40000Y-50000D03*
D17*
X-15750Y-50000D01*
X-17020Y122540D02*
X-38750Y122540D01*
X-39370Y121920D01*
D16*
X-39370Y121920D03*
D17*
X-85050Y-257808D02*
X-92192Y-264950D01*
X-85050Y-257808D02*
X-77808Y-257808D01*
X-40000Y-220000D01*
X-185511Y-544695D02*
X-185511Y-562735D01*
X-185511Y-544695D02*
X-208430Y-521776D01*
X-208430Y-445408D01*
X-185511Y-422488D01*
X-185511Y-376248D01*
X-92192Y-282929D01*
X-92192Y-264950D01*
D16*
X-470000Y-260000D03*
D17*
X-571900Y-260000D01*
X-583800Y-248100D01*
D16*
X-207010Y-562610D03*
D17*
X-185636Y-562610D01*
X-185511Y-562735D01*
X360000Y-271000D02*
X375750Y-286750D01*
X375750Y-305544D01*
X388430Y-318224D01*
X388430Y-341776D01*
X375750Y-354456D01*
X375750Y-380000D01*
X400000Y-380000D01*
D16*
X400000Y-380000D03*
D17*
X195750Y-6750D02*
X180000Y9000D01*
X195750Y-6750D02*
X195750Y-25544D01*
X208430Y-38224D01*
X208430Y-61776D01*
X195750Y-74456D01*
X195750Y-100000D01*
D16*
X220000Y-100000D03*
D17*
X195750Y-100000D01*
X180000Y-161000D02*
X195750Y-176750D01*
X195750Y-195544D01*
X208430Y-208224D01*
X208430Y-231776D01*
X195750Y-244456D01*
X195750Y-270000D01*
D16*
X220000Y-270000D03*
D17*
X195750Y-270000D01*
X15750Y43250D02*
X0Y59000D01*
X15750Y43250D02*
X15750Y24456D01*
X28430Y11776D01*
X28430Y-11776D01*
X15750Y-24456D01*
X15750Y-50000D01*
X40000Y-50000D01*
D16*
X40000Y-50000D03*
D17*
X164250Y-244456D02*
X164250Y-270000D01*
X164250Y-244456D02*
X151570Y-231776D01*
X151570Y-208224D01*
X163490Y-154161D02*
X164250Y-153401D01*
X164250Y-100000D01*
X163490Y-196304D02*
X151570Y-208224D01*
X163490Y-196304D02*
X163490Y-154161D01*
X164250Y-100000D02*
X164250Y-74456D01*
X151570Y-61776D01*
X151570Y-38224D01*
X162980Y-26814D01*
X162980Y72540D01*
X144930Y72540D01*
X144780Y72390D01*
D16*
X144780Y72390D03*
D17*
X140000Y-100000D02*
X164250Y-100000D01*
D16*
X140000Y-100000D03*
D17*
X140000Y-270000D02*
X164250Y-270000D01*
D16*
X140000Y-270000D03*
X-460000Y-180000D03*
D17*
X-502700Y-222700D01*
X-583800Y-222700D01*
X0Y-111000D02*
X15750Y-126750D01*
X15750Y-145544D01*
X28430Y-158224D01*
X28430Y-181776D01*
X15750Y-194456D01*
X15750Y-220000D01*
D16*
X40000Y-220000D03*
D17*
X15750Y-220000D01*
X-164250Y-56750D02*
X-180000Y-41000D01*
X-164250Y-56750D02*
X-164250Y-75544D01*
X-151570Y-88224D01*
X-151570Y-111776D01*
X-164250Y-124456D01*
X-164250Y-150000D01*
D16*
X-140000Y-150000D03*
D17*
X-164250Y-150000D01*
X-180000Y-211000D02*
X-164250Y-226750D01*
X-164250Y-245544D01*
X-151570Y-258224D01*
X-151570Y-281776D01*
X-164250Y-294456D01*
X-164250Y-320000D01*
X-140000Y-320000D01*
D16*
X-140000Y-320000D03*
D17*
X344250Y-354456D02*
X344250Y-380000D01*
X344250Y-354456D02*
X331570Y-341776D01*
X331570Y-318224D01*
X343490Y-264161D02*
X344250Y-263401D01*
X344250Y-210000D01*
X343490Y-306304D02*
X331570Y-318224D01*
X343490Y-306304D02*
X343490Y-264161D01*
X344250Y-210000D02*
X344250Y-184456D01*
X331570Y-171776D01*
X331570Y-148224D01*
X343320Y-136474D01*
X343320Y-35400D01*
D16*
X320040Y-35560D03*
D17*
X320200Y-35400D01*
X343320Y-35400D01*
X344250Y-210000D02*
X320000Y-210000D01*
D16*
X320000Y-210000D03*
X320000Y-380000D03*
D17*
X344250Y-380000D01*
D16*
X-480000Y-90000D03*
D17*
X-583800Y-193800D01*
X-583800Y-197300D01*
X-360000Y-211000D02*
X-344250Y-226750D01*
X-344250Y-245544D01*
X-331570Y-258224D01*
X-331570Y-281776D01*
X-344250Y-294456D01*
X-344250Y-320000D01*
X-320000Y-320000D01*
D16*
X-320000Y-320000D03*
D17*
X-151570Y-521776D02*
X-154489Y-524695D01*
X-154489Y-557265D01*
X-151570Y-490572D02*
X-190245Y-451896D01*
X-151570Y-490572D02*
X-151570Y-521776D01*
X-154489Y-557265D02*
X-136155Y-557265D01*
X-135890Y-557530D01*
D16*
X-135890Y-557530D03*
D17*
X524250Y-380000D02*
X524250Y-354456D01*
X511570Y-341776D01*
X511570Y-318224D01*
X523490Y-264161D02*
X524250Y-263401D01*
X524250Y-210000D01*
X523490Y-306304D02*
X511570Y-318224D01*
X523490Y-306304D02*
X523490Y-264161D01*
X524250Y-210000D02*
X523508Y-209258D01*
X523508Y-94143D02*
X523508Y-35880D01*
X523508Y-94143D02*
X523490Y-94161D01*
X523490Y-129120D01*
X506490Y-146120D01*
X506490Y-173880D01*
X523508Y-190898D01*
X523508Y-209258D01*
X523508Y-35880D02*
X501970Y-35880D01*
X501650Y-35560D01*
D16*
X501650Y-35560D03*
D17*
X500000Y-210000D02*
X524250Y-210000D01*
D16*
X500000Y-210000D03*
D17*
X500000Y-380000D02*
X524250Y-380000D01*
D16*
X500000Y-380000D03*
X-490000Y-70000D03*
D17*
X-571100Y-151100D01*
X-571100Y-151761D01*
X-583800Y-164461D02*
X-583800Y-171900D01*
X-583800Y-164461D02*
X-571100Y-151761D01*
X-328835Y-553033D02*
X-334489Y-558687D01*
X-334489Y-587265D01*
X-328835Y-521828D02*
X-367511Y-483153D01*
X-328835Y-521828D02*
X-328835Y-553033D01*
X-334489Y-587265D02*
X-315485Y-587265D01*
X-314960Y-586740D01*
D16*
X-314960Y-586740D03*
D17*
X-506101Y-584290D02*
X-514489Y-592678D01*
X-514489Y-617265D01*
X-506101Y-553085D02*
X-544776Y-514410D01*
X-506101Y-553085D02*
X-506101Y-584290D01*
X-514489Y-617265D02*
X-492735Y-617265D01*
X-490000Y-620000D01*
D16*
X-490000Y-620000D03*
X-270000Y-150000D03*
X-710000Y-120000D03*
D17*
X-711900Y-120000D01*
X-736200Y-95700D01*
X-623800Y-357661D02*
X-623800Y-400000D01*
X-623800Y-357661D02*
X-626500Y-354961D01*
X-626500Y-159200D01*
X-613800Y-146500D01*
D16*
X-630000Y-420000D03*
D17*
X-640000Y-410000D01*
X-640000Y-300000D01*
D16*
X-640000Y-300000D03*
X-701594Y-258772D03*
D17*
X-698042Y-258772D01*
X-697360Y-258090D01*
X-688890Y-258090D01*
X-680000Y-249200D01*
X-667300Y-249200D02*
X-667300Y-232700D01*
X-692104Y-224920D02*
X-695080Y-227896D01*
X-692104Y-224920D02*
X-675080Y-224920D01*
X-667300Y-232700D01*
D16*
X-719342Y-287061D03*
X-700000Y-370000D03*
D17*
X-718420Y-351580D01*
X-719342Y-290613D02*
X-719342Y-287061D01*
X-719342Y-290613D02*
X-718420Y-291535D01*
X-718420Y-351580D01*
D16*
X-711698Y-260000D03*
D17*
X-709186Y-257488D01*
X-709186Y-255627D01*
X-695080Y-241521D02*
X-695080Y-227896D01*
X-695080Y-241521D02*
X-709186Y-255627D01*
D16*
X-786882Y-183119D03*
D17*
X-766200Y-77739D02*
X-766200Y-70300D01*
X-782850Y-175535D02*
X-786882Y-179566D01*
X-786882Y-183119D01*
X-782850Y-94389D02*
X-766200Y-77739D01*
X-782850Y-94389D02*
X-782850Y-175535D01*
D16*
X-786130Y-312420D03*
D17*
X-786130Y-370370D01*
X-731900Y-424600D01*
X-766200Y-103139D02*
X-766200Y-95700D01*
X-766200Y-103139D02*
X-753500Y-115839D01*
X-753500Y-377600D02*
X-731900Y-399200D01*
X-753500Y-377600D02*
X-753500Y-115839D01*
X-663800Y-400000D02*
X-623800Y-440000D01*
X-663800Y-400000D02*
X-696200Y-400000D01*
X-723500Y-372700D01*
X-736200Y-280939D02*
X-736200Y-273500D01*
X-736200Y-280939D02*
X-723500Y-293639D01*
X-723500Y-372700D01*
D16*
X-640000Y-270000D03*
D17*
X-732700Y-270000D02*
X-736200Y-273500D01*
X-657915Y-270000D02*
X-640000Y-270000D01*
X-657915Y-270000D02*
X-664745Y-263170D01*
X-702086Y-270000D02*
X-732700Y-270000D01*
X-695256Y-263170D02*
X-664745Y-263170D01*
X-695256Y-263170D02*
X-702086Y-270000D01*
X-360000Y-41000D02*
X-344250Y-56750D01*
X-344250Y-75544D01*
X-331570Y-88224D01*
X-331570Y-111776D01*
X-344250Y-124456D01*
X-344250Y-150000D01*
X-320000Y-150000D01*
D16*
X-320000Y-150000D03*
X576580Y-36830D03*
D17*
X555958Y-36830D01*
X555008Y-35880D01*
X555958Y53042D02*
X540000Y69000D01*
X555958Y53042D02*
X555958Y34248D01*
X568430Y21776D01*
X568430Y-1776D01*
X555958Y-14248D01*
X555958Y-36830D01*
X374820Y54180D02*
X360000Y69000D01*
X374820Y54180D02*
X374820Y35386D01*
X388430Y21776D01*
X388430Y-1776D01*
X374820Y-15386D01*
X374820Y-35400D01*
X393540Y-35400D01*
X393700Y-35560D01*
D16*
X393700Y-35560D03*
D17*
X194480Y164520D02*
X180000Y179000D01*
X194480Y164520D02*
X194480Y145726D01*
X208430Y131776D01*
X208430Y108224D01*
X194480Y94274D01*
X194480Y72540D01*
X213210Y72540D01*
X213360Y72390D01*
D16*
X213360Y72390D03*
D17*
X14480Y214520D02*
X0Y229000D01*
X14480Y214520D02*
X14480Y195726D01*
X28430Y181776D01*
X28430Y158224D01*
X14480Y144274D01*
X14480Y123190D01*
X14480Y122540D01*
D16*
X36830Y121920D03*
D17*
X15750Y121920D01*
X14480Y123190D01*
X-165860Y114860D02*
X-180000Y129000D01*
X-165860Y114860D02*
X-165860Y96066D01*
X-151570Y81776D01*
X-151570Y58224D01*
X-165860Y43934D01*
X-165860Y22860D01*
D16*
X-139700Y22860D03*
D17*
X-165860Y22860D01*
X-346200Y115200D02*
X-360000Y129000D01*
X-346200Y115200D02*
X-346200Y96406D01*
X-331570Y81776D01*
X-331570Y58224D01*
X-346200Y43594D01*
X-346200Y21590D01*
D16*
X-322580Y21590D03*
D17*
X-346200Y21590D01*
X-375750Y-294456D02*
X-375750Y-320000D01*
X-375750Y-294456D02*
X-388430Y-281776D01*
X-388430Y-258224D01*
X-376510Y-204161D02*
X-375750Y-203401D01*
X-375750Y-150000D01*
X-376510Y-246304D02*
X-388430Y-258224D01*
X-376510Y-246304D02*
X-376510Y-204161D01*
X-375750Y-150000D02*
X-375750Y-124456D01*
X-388430Y-111776D01*
X-388430Y-88224D01*
X-377700Y-77494D01*
X-377700Y21590D01*
X-397510Y21590D01*
D16*
X-397510Y21590D03*
X-400000Y-320000D03*
D17*
X-375750Y-320000D01*
X-400000Y-320000D02*
X-545511Y-465511D01*
X-562961Y-560737D02*
X-562961Y-584290D01*
X-545511Y-490471D02*
X-545511Y-465511D01*
X-545511Y-490471D02*
X-562223Y-507183D01*
X-562223Y-521636D01*
X-552003Y-531856D01*
X-545511Y-601740D02*
X-545511Y-622735D01*
X-545511Y-601740D02*
X-562961Y-584290D01*
X-562961Y-560737D02*
X-552003Y-549779D01*
X-552003Y-531856D01*
D16*
X-710828Y-324810D03*
D17*
X-655638Y-380000D01*
D16*
X-647592Y-380000D03*
D17*
X-655638Y-380000D01*
X-562700Y-320000D02*
X-400000Y-320000D01*
X-562700Y-320000D02*
X-583800Y-298900D01*
D16*
X-562610Y-622300D03*
D17*
X-545946Y-622300D01*
X-545511Y-622735D01*
X-400000Y-150000D02*
X-375750Y-150000D01*
D16*
X-400000Y-150000D03*
M02*
