G04 EAGLE Gerber RS-274X export*
G75*
%MOMM*%
%FSLAX34Y34*%
%LPD*%
%INSilkscreen Bottom*%
%IPPOS*%
%AMOC8*
5,1,8,0,0,1.08239X$1,22.5*%
G01*
G04 Define Apertures*
%ADD10C,0.152400*%
G36*
X-554280Y-430000D02*
X-556979Y-430000D01*
X-554161Y-425723D01*
X-552072Y-422553D01*
X-552552Y-422452D01*
X-553006Y-422321D01*
X-553433Y-422159D01*
X-553834Y-421968D01*
X-554052Y-421838D01*
X-554208Y-421745D01*
X-554555Y-421493D01*
X-554876Y-421210D01*
X-555169Y-420897D01*
X-555433Y-420559D01*
X-555661Y-420202D01*
X-555854Y-419826D01*
X-556011Y-419431D01*
X-556134Y-419017D01*
X-556222Y-418583D01*
X-556274Y-418130D01*
X-556292Y-417658D01*
X-556286Y-417371D01*
X-556267Y-417092D01*
X-556236Y-416820D01*
X-556193Y-416557D01*
X-556069Y-416054D01*
X-555895Y-415584D01*
X-555671Y-415145D01*
X-555398Y-414738D01*
X-555076Y-414364D01*
X-554703Y-414021D01*
X-554285Y-413715D01*
X-553826Y-413449D01*
X-553325Y-413225D01*
X-552782Y-413041D01*
X-552197Y-412898D01*
X-551571Y-412796D01*
X-550904Y-412735D01*
X-550195Y-412714D01*
X-542061Y-412714D01*
X-542061Y-430000D01*
X-544404Y-430000D01*
X-544404Y-422823D01*
X-549790Y-422823D01*
X-554280Y-430000D01*
G37*
%LPC*%
G36*
X-544404Y-420971D02*
X-544404Y-414591D01*
X-549962Y-414591D01*
X-550429Y-414604D01*
X-550868Y-414641D01*
X-551279Y-414703D01*
X-551662Y-414789D01*
X-552017Y-414900D01*
X-552344Y-415036D01*
X-552642Y-415197D01*
X-552912Y-415383D01*
X-553152Y-415592D01*
X-553360Y-415823D01*
X-553536Y-416077D01*
X-553680Y-416353D01*
X-553792Y-416652D01*
X-553872Y-416973D01*
X-553921Y-417317D01*
X-553937Y-417683D01*
X-553921Y-418062D01*
X-553873Y-418419D01*
X-553794Y-418754D01*
X-553683Y-419068D01*
X-553541Y-419360D01*
X-553367Y-419630D01*
X-553162Y-419879D01*
X-552924Y-420106D01*
X-552658Y-420309D01*
X-552366Y-420484D01*
X-552047Y-420633D01*
X-551702Y-420755D01*
X-551331Y-420849D01*
X-550934Y-420917D01*
X-550510Y-420957D01*
X-550060Y-420971D01*
X-544404Y-420971D01*
G37*
%LPD*%
G36*
X-542061Y-403330D02*
X-544404Y-403330D01*
X-544404Y-396595D01*
X-549483Y-396595D01*
X-550152Y-396572D01*
X-550786Y-396504D01*
X-551383Y-396391D01*
X-551944Y-396233D01*
X-552470Y-396029D01*
X-552960Y-395781D01*
X-553414Y-395487D01*
X-553832Y-395147D01*
X-554207Y-394770D01*
X-554533Y-394361D01*
X-554808Y-393920D01*
X-555033Y-393448D01*
X-555208Y-392945D01*
X-555333Y-392410D01*
X-555377Y-392131D01*
X-555408Y-391844D01*
X-555427Y-391549D01*
X-555433Y-391246D01*
X-555427Y-390941D01*
X-555408Y-390644D01*
X-555377Y-390356D01*
X-555334Y-390077D01*
X-555277Y-389806D01*
X-555209Y-389544D01*
X-555035Y-389047D01*
X-554810Y-388584D01*
X-554536Y-388157D01*
X-554212Y-387764D01*
X-553838Y-387406D01*
X-553419Y-387087D01*
X-552959Y-386810D01*
X-552458Y-386576D01*
X-551915Y-386385D01*
X-551332Y-386236D01*
X-550708Y-386129D01*
X-550042Y-386066D01*
X-549336Y-386044D01*
X-542061Y-386044D01*
X-542061Y-403330D01*
G37*
%LPC*%
G36*
X-544404Y-394742D02*
X-544404Y-387921D01*
X-549054Y-387921D01*
X-549541Y-387934D01*
X-549997Y-387974D01*
X-550421Y-388039D01*
X-550814Y-388131D01*
X-551176Y-388248D01*
X-551506Y-388392D01*
X-551805Y-388562D01*
X-552072Y-388759D01*
X-552308Y-388981D01*
X-552512Y-389230D01*
X-552685Y-389504D01*
X-552826Y-389805D01*
X-552936Y-390132D01*
X-553015Y-390486D01*
X-553062Y-390865D01*
X-553078Y-391271D01*
X-553062Y-391691D01*
X-553016Y-392084D01*
X-552940Y-392450D01*
X-552832Y-392789D01*
X-552694Y-393101D01*
X-552526Y-393386D01*
X-552326Y-393644D01*
X-552096Y-393874D01*
X-551836Y-394078D01*
X-551544Y-394254D01*
X-551222Y-394403D01*
X-550870Y-394525D01*
X-550486Y-394620D01*
X-550072Y-394688D01*
X-549627Y-394729D01*
X-549152Y-394742D01*
X-544404Y-394742D01*
G37*
%LPD*%
G36*
X-612942Y-430000D02*
X-615334Y-430000D01*
X-608390Y-412714D01*
X-605728Y-412714D01*
X-598674Y-430000D01*
X-601103Y-430000D01*
X-603091Y-424946D01*
X-610967Y-424946D01*
X-612942Y-430000D01*
G37*
%LPC*%
G36*
X-603802Y-423118D02*
X-606010Y-417438D01*
X-606538Y-415987D01*
X-606918Y-414824D01*
X-607029Y-414481D01*
X-607360Y-415499D01*
X-607703Y-416511D01*
X-608047Y-417413D01*
X-610267Y-423118D01*
X-603802Y-423118D01*
G37*
%LPD*%
G36*
X-560186Y-430000D02*
X-573804Y-430000D01*
X-573804Y-428086D01*
X-562529Y-428086D01*
X-562529Y-422063D01*
X-572565Y-422063D01*
X-572565Y-420173D01*
X-562529Y-420173D01*
X-562529Y-414628D01*
X-573301Y-414628D01*
X-573301Y-412714D01*
X-560186Y-412714D01*
X-560186Y-430000D01*
G37*
G36*
X-582040Y-430000D02*
X-584469Y-430000D01*
X-591523Y-412714D01*
X-589057Y-412714D01*
X-584297Y-424884D01*
X-583266Y-427939D01*
X-582236Y-424884D01*
X-577451Y-412714D01*
X-574985Y-412714D01*
X-582040Y-430000D01*
G37*
G36*
X-558014Y-403330D02*
X-569460Y-403330D01*
X-569460Y-401453D01*
X-560443Y-401453D01*
X-560656Y-401019D01*
X-560927Y-400577D01*
X-561257Y-400127D01*
X-561645Y-399668D01*
X-562098Y-399191D01*
X-562623Y-398685D01*
X-563221Y-398151D01*
X-563890Y-397589D01*
X-565069Y-396614D01*
X-566040Y-395776D01*
X-566804Y-395074D01*
X-567362Y-394509D01*
X-567788Y-394012D01*
X-568158Y-393516D01*
X-568472Y-393019D01*
X-568730Y-392522D01*
X-568931Y-392024D01*
X-569075Y-391525D01*
X-569125Y-391275D01*
X-569161Y-391024D01*
X-569183Y-390773D01*
X-569190Y-390522D01*
X-569168Y-389971D01*
X-569102Y-389452D01*
X-568992Y-388966D01*
X-568839Y-388512D01*
X-568641Y-388090D01*
X-568400Y-387701D01*
X-568114Y-387344D01*
X-567785Y-387020D01*
X-567415Y-386731D01*
X-567007Y-386480D01*
X-566562Y-386268D01*
X-566078Y-386095D01*
X-565557Y-385960D01*
X-564998Y-385864D01*
X-564402Y-385806D01*
X-563767Y-385787D01*
X-563186Y-385806D01*
X-562631Y-385863D01*
X-562104Y-385959D01*
X-561604Y-386093D01*
X-561130Y-386266D01*
X-560684Y-386477D01*
X-560265Y-386726D01*
X-559872Y-387014D01*
X-559513Y-387333D01*
X-559194Y-387680D01*
X-558914Y-388053D01*
X-558675Y-388452D01*
X-558474Y-388878D01*
X-558314Y-389330D01*
X-558193Y-389809D01*
X-558112Y-390314D01*
X-560369Y-390522D01*
X-560421Y-390185D01*
X-560496Y-389868D01*
X-560595Y-389570D01*
X-560717Y-389291D01*
X-560863Y-389031D01*
X-561033Y-388791D01*
X-561226Y-388570D01*
X-561443Y-388369D01*
X-561679Y-388189D01*
X-561931Y-388034D01*
X-562198Y-387902D01*
X-562481Y-387794D01*
X-562779Y-387710D01*
X-563093Y-387650D01*
X-563422Y-387614D01*
X-563767Y-387602D01*
X-564128Y-387615D01*
X-564469Y-387651D01*
X-564789Y-387713D01*
X-565089Y-387799D01*
X-565369Y-387909D01*
X-565628Y-388044D01*
X-565867Y-388204D01*
X-566086Y-388388D01*
X-566282Y-388594D01*
X-566451Y-388820D01*
X-566594Y-389066D01*
X-566712Y-389332D01*
X-566803Y-389618D01*
X-566868Y-389924D01*
X-566907Y-390250D01*
X-566920Y-390596D01*
X-566913Y-390856D01*
X-566890Y-391110D01*
X-566852Y-391356D01*
X-566799Y-391596D01*
X-566731Y-391828D01*
X-566648Y-392054D01*
X-566549Y-392273D01*
X-566436Y-392485D01*
X-566175Y-392898D01*
X-565876Y-393301D01*
X-565540Y-393695D01*
X-565166Y-394080D01*
X-564333Y-394841D01*
X-563405Y-395601D01*
X-562426Y-396394D01*
X-561436Y-397251D01*
X-560945Y-397709D01*
X-560466Y-398193D01*
X-559998Y-398703D01*
X-559541Y-399239D01*
X-559107Y-399809D01*
X-558708Y-400421D01*
X-558344Y-401075D01*
X-558014Y-401772D01*
X-558014Y-403330D01*
G37*
G36*
X-591366Y-424308D02*
X-597500Y-424308D01*
X-597500Y-422345D01*
X-591366Y-422345D01*
X-591366Y-424308D01*
G37*
G36*
X-668946Y-121100D02*
X-678668Y-121100D01*
X-678668Y-119734D01*
X-670619Y-119734D01*
X-670619Y-115433D01*
X-677784Y-115433D01*
X-677784Y-114084D01*
X-670619Y-114084D01*
X-670619Y-110126D01*
X-678309Y-110126D01*
X-678309Y-108759D01*
X-668946Y-108759D01*
X-668946Y-121100D01*
G37*
G36*
X-641002Y-121275D02*
X-641390Y-121266D01*
X-641765Y-121239D01*
X-642126Y-121194D01*
X-642475Y-121132D01*
X-642811Y-121051D01*
X-643133Y-120953D01*
X-643443Y-120836D01*
X-643740Y-120702D01*
X-644021Y-120550D01*
X-644287Y-120383D01*
X-644536Y-120199D01*
X-644769Y-120000D01*
X-644985Y-119784D01*
X-645185Y-119553D01*
X-645368Y-119305D01*
X-645535Y-119042D01*
X-645684Y-118764D01*
X-645813Y-118473D01*
X-645922Y-118169D01*
X-646011Y-117853D01*
X-646081Y-117523D01*
X-646130Y-117181D01*
X-646160Y-116826D01*
X-646170Y-116458D01*
X-646170Y-108759D01*
X-644506Y-108759D01*
X-644506Y-116362D01*
X-644491Y-116784D01*
X-644448Y-117181D01*
X-644376Y-117551D01*
X-644275Y-117895D01*
X-644145Y-118214D01*
X-643986Y-118506D01*
X-643798Y-118771D01*
X-643582Y-119011D01*
X-643339Y-119224D01*
X-643074Y-119408D01*
X-642785Y-119564D01*
X-642473Y-119691D01*
X-642138Y-119790D01*
X-641780Y-119861D01*
X-641398Y-119903D01*
X-640994Y-119918D01*
X-640601Y-119904D01*
X-640231Y-119863D01*
X-639886Y-119794D01*
X-639564Y-119699D01*
X-639266Y-119575D01*
X-638992Y-119425D01*
X-638742Y-119247D01*
X-638515Y-119042D01*
X-638314Y-118810D01*
X-638140Y-118553D01*
X-637992Y-118270D01*
X-637871Y-117962D01*
X-637777Y-117629D01*
X-637710Y-117270D01*
X-637670Y-116885D01*
X-637657Y-116476D01*
X-637657Y-108759D01*
X-635984Y-108759D01*
X-635984Y-116616D01*
X-635994Y-116973D01*
X-636023Y-117317D01*
X-636071Y-117649D01*
X-636139Y-117969D01*
X-636227Y-118276D01*
X-636334Y-118570D01*
X-636460Y-118852D01*
X-636606Y-119121D01*
X-636769Y-119376D01*
X-636948Y-119615D01*
X-637144Y-119839D01*
X-637355Y-120047D01*
X-637581Y-120239D01*
X-637824Y-120416D01*
X-638083Y-120578D01*
X-638357Y-120723D01*
X-638646Y-120853D01*
X-638946Y-120965D01*
X-639259Y-121060D01*
X-639584Y-121137D01*
X-639920Y-121198D01*
X-640269Y-121241D01*
X-640630Y-121267D01*
X-641002Y-121275D01*
G37*
G36*
X-680915Y-121100D02*
X-682588Y-121100D01*
X-682588Y-116099D01*
X-689472Y-116099D01*
X-689472Y-114715D01*
X-682588Y-114715D01*
X-682588Y-110126D01*
X-689682Y-110126D01*
X-689682Y-108759D01*
X-680915Y-108759D01*
X-680915Y-121100D01*
G37*
G36*
X-648440Y-121100D02*
X-656611Y-121100D01*
X-656611Y-119760D01*
X-650174Y-119760D01*
X-650326Y-119450D01*
X-650520Y-119135D01*
X-650755Y-118813D01*
X-651032Y-118486D01*
X-651356Y-118145D01*
X-651731Y-117784D01*
X-652157Y-117403D01*
X-652635Y-117001D01*
X-653476Y-116305D01*
X-654170Y-115707D01*
X-654716Y-115206D01*
X-655114Y-114803D01*
X-655418Y-114448D01*
X-655682Y-114093D01*
X-655906Y-113738D01*
X-656090Y-113384D01*
X-656234Y-113028D01*
X-656337Y-112672D01*
X-656398Y-112315D01*
X-656419Y-111956D01*
X-656403Y-111563D01*
X-656356Y-111192D01*
X-656278Y-110845D01*
X-656168Y-110521D01*
X-656027Y-110220D01*
X-655855Y-109942D01*
X-655651Y-109687D01*
X-655416Y-109456D01*
X-655152Y-109249D01*
X-654860Y-109070D01*
X-654542Y-108919D01*
X-654197Y-108795D01*
X-653825Y-108699D01*
X-653426Y-108630D01*
X-653000Y-108589D01*
X-652547Y-108575D01*
X-652132Y-108589D01*
X-651736Y-108630D01*
X-651360Y-108698D01*
X-651003Y-108794D01*
X-650665Y-108917D01*
X-650346Y-109068D01*
X-650047Y-109246D01*
X-649767Y-109451D01*
X-649510Y-109680D01*
X-649282Y-109927D01*
X-649083Y-110193D01*
X-648911Y-110478D01*
X-648769Y-110782D01*
X-648654Y-111105D01*
X-648568Y-111447D01*
X-648510Y-111807D01*
X-650121Y-111956D01*
X-650158Y-111716D01*
X-650212Y-111489D01*
X-650282Y-111276D01*
X-650370Y-111077D01*
X-650474Y-110892D01*
X-650595Y-110720D01*
X-650733Y-110563D01*
X-650888Y-110419D01*
X-651056Y-110291D01*
X-651236Y-110179D01*
X-651427Y-110085D01*
X-651629Y-110008D01*
X-651842Y-109949D01*
X-652066Y-109906D01*
X-652301Y-109880D01*
X-652547Y-109872D01*
X-652805Y-109880D01*
X-653048Y-109907D01*
X-653277Y-109950D01*
X-653491Y-110012D01*
X-653691Y-110091D01*
X-653876Y-110187D01*
X-654047Y-110301D01*
X-654203Y-110432D01*
X-654342Y-110579D01*
X-654463Y-110741D01*
X-654566Y-110917D01*
X-654649Y-111107D01*
X-654715Y-111311D01*
X-654761Y-111529D01*
X-654789Y-111762D01*
X-654798Y-112009D01*
X-654777Y-112375D01*
X-654712Y-112722D01*
X-654604Y-113050D01*
X-654452Y-113357D01*
X-654266Y-113652D01*
X-654053Y-113940D01*
X-653813Y-114221D01*
X-653546Y-114496D01*
X-652951Y-115039D01*
X-652289Y-115582D01*
X-651589Y-116148D01*
X-650883Y-116760D01*
X-650533Y-117087D01*
X-650190Y-117432D01*
X-649856Y-117796D01*
X-649530Y-118179D01*
X-649221Y-118586D01*
X-648936Y-119023D01*
X-648675Y-119490D01*
X-648440Y-119988D01*
X-648440Y-121100D01*
G37*
G36*
X-695055Y-121100D02*
X-696719Y-121100D01*
X-696719Y-110126D01*
X-700958Y-110126D01*
X-700958Y-108759D01*
X-690815Y-108759D01*
X-690815Y-110126D01*
X-695055Y-110126D01*
X-695055Y-121100D01*
G37*
G36*
X-658978Y-121100D02*
X-666887Y-121100D01*
X-666887Y-119734D01*
X-660651Y-119734D01*
X-660651Y-108759D01*
X-658978Y-108759D01*
X-658978Y-121100D01*
G37*
G36*
X-663691Y-237770D02*
X-668307Y-237770D01*
X-668747Y-237758D01*
X-669174Y-237722D01*
X-669588Y-237663D01*
X-669989Y-237580D01*
X-670376Y-237472D01*
X-670751Y-237341D01*
X-671112Y-237187D01*
X-671460Y-237008D01*
X-671792Y-236807D01*
X-672105Y-236585D01*
X-672398Y-236342D01*
X-672671Y-236079D01*
X-672925Y-235794D01*
X-673160Y-235488D01*
X-673375Y-235162D01*
X-673571Y-234814D01*
X-673746Y-234449D01*
X-673897Y-234068D01*
X-674025Y-233673D01*
X-674129Y-233263D01*
X-674211Y-232838D01*
X-674269Y-232397D01*
X-674304Y-231943D01*
X-674316Y-231473D01*
X-674309Y-231115D01*
X-674289Y-230769D01*
X-674256Y-230432D01*
X-674209Y-230106D01*
X-674149Y-229790D01*
X-674076Y-229485D01*
X-673989Y-229190D01*
X-673890Y-228905D01*
X-673777Y-228631D01*
X-673650Y-228367D01*
X-673510Y-228114D01*
X-673357Y-227870D01*
X-673191Y-227638D01*
X-673011Y-227415D01*
X-672818Y-227203D01*
X-672612Y-227001D01*
X-672393Y-226811D01*
X-672164Y-226633D01*
X-671923Y-226467D01*
X-671671Y-226314D01*
X-671407Y-226172D01*
X-671133Y-226043D01*
X-670847Y-225927D01*
X-670550Y-225822D01*
X-670242Y-225730D01*
X-669923Y-225650D01*
X-669593Y-225583D01*
X-669251Y-225528D01*
X-668898Y-225485D01*
X-668534Y-225454D01*
X-668159Y-225435D01*
X-667773Y-225429D01*
X-663691Y-225429D01*
X-663691Y-237770D01*
G37*
%LPC*%
G36*
X-665364Y-236430D02*
X-665364Y-226769D01*
X-667738Y-226769D01*
X-668316Y-226788D01*
X-668859Y-226845D01*
X-669366Y-226939D01*
X-669839Y-227070D01*
X-670276Y-227240D01*
X-670678Y-227447D01*
X-671045Y-227691D01*
X-671377Y-227974D01*
X-671672Y-228292D01*
X-671927Y-228644D01*
X-672143Y-229030D01*
X-672320Y-229451D01*
X-672457Y-229905D01*
X-672555Y-230393D01*
X-672614Y-230916D01*
X-672634Y-231473D01*
X-672625Y-231847D01*
X-672599Y-232209D01*
X-672556Y-232559D01*
X-672496Y-232896D01*
X-672418Y-233220D01*
X-672324Y-233532D01*
X-672211Y-233831D01*
X-672082Y-234118D01*
X-671937Y-234390D01*
X-671776Y-234645D01*
X-671601Y-234885D01*
X-671411Y-235107D01*
X-671206Y-235314D01*
X-670986Y-235504D01*
X-670751Y-235677D01*
X-670501Y-235834D01*
X-670239Y-235974D01*
X-669966Y-236095D01*
X-669683Y-236197D01*
X-669390Y-236281D01*
X-669086Y-236346D01*
X-668773Y-236393D01*
X-668449Y-236421D01*
X-668115Y-236430D01*
X-665364Y-236430D01*
G37*
%LPD*%
G36*
X-680578Y-237945D02*
X-681027Y-237932D01*
X-681461Y-237893D01*
X-681882Y-237828D01*
X-682289Y-237737D01*
X-682682Y-237620D01*
X-683062Y-237477D01*
X-683427Y-237308D01*
X-683779Y-237113D01*
X-684114Y-236893D01*
X-684430Y-236649D01*
X-684727Y-236382D01*
X-685004Y-236091D01*
X-685262Y-235775D01*
X-685501Y-235436D01*
X-685721Y-235074D01*
X-685921Y-234687D01*
X-684554Y-234004D01*
X-684386Y-234315D01*
X-684208Y-234605D01*
X-684020Y-234876D01*
X-683821Y-235127D01*
X-683613Y-235357D01*
X-683395Y-235568D01*
X-683166Y-235758D01*
X-682927Y-235929D01*
X-682679Y-236079D01*
X-682420Y-236209D01*
X-682151Y-236319D01*
X-681873Y-236410D01*
X-681584Y-236480D01*
X-681285Y-236530D01*
X-680976Y-236560D01*
X-680657Y-236570D01*
X-680164Y-236549D01*
X-679698Y-236484D01*
X-679257Y-236376D01*
X-678843Y-236225D01*
X-678455Y-236031D01*
X-678092Y-235794D01*
X-677757Y-235514D01*
X-677447Y-235191D01*
X-677169Y-234832D01*
X-676928Y-234445D01*
X-676724Y-234031D01*
X-676557Y-233589D01*
X-676427Y-233119D01*
X-676334Y-232621D01*
X-676279Y-232096D01*
X-676260Y-231543D01*
X-676278Y-230984D01*
X-676331Y-230456D01*
X-676420Y-229959D01*
X-676545Y-229492D01*
X-676705Y-229056D01*
X-676901Y-228650D01*
X-677132Y-228275D01*
X-677399Y-227930D01*
X-677698Y-227621D01*
X-678025Y-227353D01*
X-678381Y-227127D01*
X-678765Y-226941D01*
X-679178Y-226797D01*
X-679619Y-226694D01*
X-680089Y-226632D01*
X-680587Y-226612D01*
X-680907Y-226621D01*
X-681217Y-226647D01*
X-681516Y-226692D01*
X-681803Y-226754D01*
X-682079Y-226834D01*
X-682345Y-226932D01*
X-682599Y-227048D01*
X-682842Y-227181D01*
X-683072Y-227331D01*
X-683285Y-227497D01*
X-683482Y-227679D01*
X-683662Y-227877D01*
X-683826Y-228091D01*
X-683974Y-228321D01*
X-684106Y-228566D01*
X-684222Y-228828D01*
X-685807Y-228302D01*
X-685640Y-227935D01*
X-685452Y-227591D01*
X-685242Y-227270D01*
X-685010Y-226973D01*
X-684756Y-226699D01*
X-684480Y-226448D01*
X-684182Y-226220D01*
X-683862Y-226016D01*
X-683522Y-225835D01*
X-683161Y-225679D01*
X-682779Y-225546D01*
X-682378Y-225438D01*
X-681956Y-225354D01*
X-681514Y-225293D01*
X-681052Y-225257D01*
X-680569Y-225245D01*
X-680222Y-225252D01*
X-679883Y-225271D01*
X-679555Y-225304D01*
X-679236Y-225350D01*
X-678926Y-225409D01*
X-678626Y-225481D01*
X-678336Y-225566D01*
X-678056Y-225664D01*
X-677784Y-225775D01*
X-677523Y-225899D01*
X-677271Y-226036D01*
X-677029Y-226186D01*
X-676573Y-226526D01*
X-676155Y-226918D01*
X-675781Y-227356D01*
X-675458Y-227835D01*
X-675184Y-228353D01*
X-675065Y-228627D01*
X-674959Y-228911D01*
X-674866Y-229205D01*
X-674785Y-229509D01*
X-674717Y-229823D01*
X-674661Y-230147D01*
X-674617Y-230481D01*
X-674586Y-230825D01*
X-674567Y-231179D01*
X-674561Y-231543D01*
X-674572Y-232027D01*
X-674606Y-232495D01*
X-674661Y-232946D01*
X-674739Y-233381D01*
X-674840Y-233799D01*
X-674962Y-234201D01*
X-675107Y-234586D01*
X-675275Y-234954D01*
X-675463Y-235304D01*
X-675672Y-235633D01*
X-675901Y-235941D01*
X-676151Y-236229D01*
X-676420Y-236495D01*
X-676710Y-236741D01*
X-677020Y-236966D01*
X-677350Y-237170D01*
X-677699Y-237352D01*
X-678063Y-237509D01*
X-678443Y-237642D01*
X-678838Y-237751D01*
X-679250Y-237836D01*
X-679677Y-237897D01*
X-680119Y-237933D01*
X-680578Y-237945D01*
G37*
G36*
X559422Y-233100D02*
X554806Y-233100D01*
X554366Y-233088D01*
X553939Y-233052D01*
X553525Y-232993D01*
X553124Y-232910D01*
X552737Y-232802D01*
X552362Y-232671D01*
X552001Y-232517D01*
X551653Y-232338D01*
X551321Y-232137D01*
X551009Y-231915D01*
X550716Y-231672D01*
X550442Y-231409D01*
X550188Y-231124D01*
X549953Y-230818D01*
X549738Y-230492D01*
X549542Y-230144D01*
X549368Y-229779D01*
X549216Y-229398D01*
X549088Y-229003D01*
X548984Y-228593D01*
X548902Y-228168D01*
X548844Y-227727D01*
X548809Y-227273D01*
X548798Y-226803D01*
X548804Y-226445D01*
X548824Y-226099D01*
X548857Y-225762D01*
X548904Y-225436D01*
X548964Y-225120D01*
X549037Y-224815D01*
X549124Y-224520D01*
X549223Y-224235D01*
X549337Y-223961D01*
X549463Y-223697D01*
X549603Y-223444D01*
X549756Y-223200D01*
X549922Y-222968D01*
X550102Y-222745D01*
X550295Y-222533D01*
X550501Y-222331D01*
X550720Y-222141D01*
X550949Y-221963D01*
X551190Y-221797D01*
X551442Y-221644D01*
X551706Y-221502D01*
X551980Y-221373D01*
X552266Y-221257D01*
X552563Y-221152D01*
X552871Y-221060D01*
X553190Y-220980D01*
X553520Y-220913D01*
X553862Y-220858D01*
X554215Y-220815D01*
X554579Y-220784D01*
X554954Y-220765D01*
X555340Y-220759D01*
X559422Y-220759D01*
X559422Y-233100D01*
G37*
%LPC*%
G36*
X557749Y-231760D02*
X557749Y-222099D01*
X555375Y-222099D01*
X554797Y-222118D01*
X554254Y-222175D01*
X553747Y-222269D01*
X553274Y-222400D01*
X552837Y-222570D01*
X552435Y-222777D01*
X552068Y-223021D01*
X551736Y-223304D01*
X551441Y-223622D01*
X551186Y-223974D01*
X550970Y-224360D01*
X550793Y-224781D01*
X550656Y-225235D01*
X550558Y-225723D01*
X550499Y-226246D01*
X550479Y-226803D01*
X550488Y-227177D01*
X550514Y-227539D01*
X550557Y-227889D01*
X550617Y-228226D01*
X550695Y-228550D01*
X550790Y-228862D01*
X550902Y-229161D01*
X551031Y-229448D01*
X551176Y-229720D01*
X551337Y-229975D01*
X551512Y-230215D01*
X551702Y-230437D01*
X551907Y-230644D01*
X552127Y-230834D01*
X552362Y-231007D01*
X552612Y-231164D01*
X552874Y-231304D01*
X553147Y-231425D01*
X553430Y-231527D01*
X553723Y-231611D01*
X554027Y-231676D01*
X554340Y-231723D01*
X554664Y-231751D01*
X554999Y-231760D01*
X557749Y-231760D01*
G37*
%LPD*%
G36*
X536515Y-233100D02*
X531506Y-233100D01*
X530986Y-233086D01*
X530496Y-233043D01*
X530034Y-232971D01*
X529603Y-232871D01*
X529200Y-232743D01*
X528827Y-232585D01*
X528483Y-232399D01*
X528169Y-232185D01*
X527887Y-231945D01*
X527644Y-231681D01*
X527437Y-231395D01*
X527269Y-231087D01*
X527137Y-230755D01*
X527044Y-230400D01*
X526987Y-230023D01*
X526969Y-229623D01*
X526981Y-229321D01*
X527018Y-229032D01*
X527081Y-228756D01*
X527168Y-228494D01*
X527280Y-228245D01*
X527417Y-228009D01*
X527579Y-227787D01*
X527766Y-227578D01*
X527879Y-227474D01*
X527975Y-227385D01*
X528206Y-227212D01*
X528458Y-227059D01*
X528731Y-226926D01*
X529025Y-226813D01*
X529341Y-226720D01*
X529677Y-226646D01*
X530034Y-226592D01*
X529762Y-226521D01*
X529505Y-226435D01*
X529265Y-226333D01*
X529040Y-226216D01*
X528831Y-226083D01*
X528638Y-225936D01*
X528560Y-225864D01*
X528461Y-225772D01*
X528300Y-225594D01*
X528156Y-225402D01*
X528032Y-225200D01*
X527926Y-224986D01*
X527840Y-224762D01*
X527773Y-224527D01*
X527725Y-224280D01*
X527696Y-224023D01*
X527687Y-223755D01*
X527704Y-223392D01*
X527755Y-223053D01*
X527840Y-222737D01*
X527958Y-222444D01*
X528111Y-222175D01*
X528298Y-221929D01*
X528518Y-221707D01*
X528773Y-221508D01*
X529061Y-221333D01*
X529384Y-221180D01*
X529740Y-221052D01*
X530130Y-220946D01*
X530555Y-220865D01*
X531013Y-220806D01*
X531505Y-220771D01*
X532031Y-220759D01*
X536515Y-220759D01*
X536515Y-233100D01*
G37*
%LPC*%
G36*
X534843Y-231760D02*
X534843Y-227311D01*
X531724Y-227311D01*
X531353Y-227319D01*
X531006Y-227345D01*
X530683Y-227387D01*
X530383Y-227447D01*
X530108Y-227524D01*
X529856Y-227617D01*
X529629Y-227728D01*
X529425Y-227856D01*
X529246Y-228001D01*
X529090Y-228163D01*
X528958Y-228341D01*
X528851Y-228537D01*
X528767Y-228750D01*
X528707Y-228980D01*
X528671Y-229227D01*
X528659Y-229492D01*
X528670Y-229765D01*
X528703Y-230021D01*
X528758Y-230260D01*
X528834Y-230481D01*
X528933Y-230685D01*
X529053Y-230871D01*
X529195Y-231040D01*
X529360Y-231191D01*
X529548Y-231324D01*
X529762Y-231440D01*
X530002Y-231538D01*
X530268Y-231618D01*
X530561Y-231680D01*
X530879Y-231724D01*
X531223Y-231751D01*
X531593Y-231760D01*
X534843Y-231760D01*
G37*
G36*
X534843Y-226006D02*
X534843Y-222099D01*
X532031Y-222099D01*
X531717Y-222106D01*
X531421Y-222126D01*
X531145Y-222160D01*
X530888Y-222207D01*
X530650Y-222267D01*
X530432Y-222341D01*
X530232Y-222428D01*
X530052Y-222528D01*
X529891Y-222645D01*
X529753Y-222779D01*
X529635Y-222930D01*
X529539Y-223100D01*
X529465Y-223287D01*
X529411Y-223492D01*
X529379Y-223715D01*
X529368Y-223956D01*
X529379Y-224208D01*
X529410Y-224444D01*
X529461Y-224662D01*
X529534Y-224864D01*
X529627Y-225049D01*
X529740Y-225217D01*
X529875Y-225368D01*
X530030Y-225502D01*
X530206Y-225620D01*
X530403Y-225722D01*
X530621Y-225809D01*
X530861Y-225880D01*
X531121Y-225935D01*
X531403Y-225974D01*
X531707Y-225998D01*
X532031Y-226006D01*
X534843Y-226006D01*
G37*
%LPD*%
G36*
X544759Y-233100D02*
X543112Y-233100D01*
X543106Y-232675D01*
X543088Y-232253D01*
X543015Y-231421D01*
X542893Y-230602D01*
X542722Y-229798D01*
X542503Y-228998D01*
X542235Y-228193D01*
X541918Y-227382D01*
X541553Y-226566D01*
X541094Y-225669D01*
X540496Y-224615D01*
X539758Y-223405D01*
X538882Y-222038D01*
X538882Y-220759D01*
X547036Y-220759D01*
X547036Y-222099D01*
X540406Y-222099D01*
X540972Y-222939D01*
X541495Y-223753D01*
X541977Y-224543D01*
X542417Y-225308D01*
X542815Y-226049D01*
X543170Y-226764D01*
X543484Y-227455D01*
X543756Y-228121D01*
X543991Y-228771D01*
X544195Y-229412D01*
X544367Y-230047D01*
X544508Y-230673D01*
X544618Y-231291D01*
X544696Y-231902D01*
X544743Y-232505D01*
X544759Y-233100D01*
G37*
G36*
X569397Y-403100D02*
X564781Y-403100D01*
X564341Y-403088D01*
X563914Y-403052D01*
X563501Y-402993D01*
X563100Y-402910D01*
X562712Y-402802D01*
X562338Y-402671D01*
X561977Y-402517D01*
X561628Y-402338D01*
X561297Y-402137D01*
X560984Y-401915D01*
X560691Y-401672D01*
X560418Y-401409D01*
X560163Y-401124D01*
X559929Y-400818D01*
X559713Y-400492D01*
X559518Y-400144D01*
X559343Y-399779D01*
X559192Y-399398D01*
X559064Y-399003D01*
X558959Y-398593D01*
X558878Y-398168D01*
X558820Y-397727D01*
X558785Y-397273D01*
X558773Y-396803D01*
X558780Y-396445D01*
X558800Y-396099D01*
X558833Y-395762D01*
X558880Y-395436D01*
X558939Y-395120D01*
X559013Y-394815D01*
X559099Y-394520D01*
X559199Y-394235D01*
X559312Y-393961D01*
X559439Y-393697D01*
X559578Y-393444D01*
X559731Y-393200D01*
X559898Y-392968D01*
X560077Y-392745D01*
X560270Y-392533D01*
X560477Y-392331D01*
X560695Y-392141D01*
X560925Y-391963D01*
X561166Y-391797D01*
X561418Y-391644D01*
X561681Y-391502D01*
X561956Y-391373D01*
X562241Y-391257D01*
X562538Y-391152D01*
X562846Y-391060D01*
X563165Y-390980D01*
X563496Y-390913D01*
X563837Y-390858D01*
X564190Y-390815D01*
X564554Y-390784D01*
X564929Y-390765D01*
X565316Y-390759D01*
X569397Y-390759D01*
X569397Y-403100D01*
G37*
%LPC*%
G36*
X567724Y-401760D02*
X567724Y-392099D01*
X565351Y-392099D01*
X564773Y-392118D01*
X564230Y-392175D01*
X563722Y-392269D01*
X563250Y-392400D01*
X562813Y-392570D01*
X562410Y-392777D01*
X562043Y-393021D01*
X561712Y-393304D01*
X561417Y-393622D01*
X561162Y-393974D01*
X560946Y-394360D01*
X560769Y-394781D01*
X560631Y-395235D01*
X560533Y-395723D01*
X560474Y-396246D01*
X560455Y-396803D01*
X560463Y-397177D01*
X560489Y-397539D01*
X560532Y-397889D01*
X560593Y-398226D01*
X560670Y-398550D01*
X560765Y-398862D01*
X560877Y-399161D01*
X561007Y-399448D01*
X561152Y-399720D01*
X561312Y-399975D01*
X561488Y-400215D01*
X561678Y-400437D01*
X561883Y-400644D01*
X562103Y-400834D01*
X562338Y-401007D01*
X562587Y-401164D01*
X562850Y-401304D01*
X563123Y-401425D01*
X563405Y-401527D01*
X563699Y-401611D01*
X564002Y-401676D01*
X564316Y-401723D01*
X564640Y-401751D01*
X564974Y-401760D01*
X567724Y-401760D01*
G37*
%LPD*%
G36*
X536522Y-403100D02*
X531512Y-403100D01*
X530993Y-403086D01*
X530502Y-403043D01*
X530041Y-402971D01*
X529610Y-402871D01*
X529207Y-402743D01*
X528834Y-402585D01*
X528490Y-402399D01*
X528175Y-402185D01*
X527894Y-401945D01*
X527650Y-401681D01*
X527444Y-401395D01*
X527275Y-401087D01*
X527144Y-400755D01*
X527050Y-400400D01*
X526994Y-400023D01*
X526975Y-399623D01*
X526988Y-399321D01*
X527025Y-399032D01*
X527087Y-398756D01*
X527175Y-398494D01*
X527287Y-398245D01*
X527424Y-398009D01*
X527586Y-397787D01*
X527772Y-397578D01*
X527885Y-397474D01*
X527982Y-397385D01*
X528213Y-397212D01*
X528465Y-397059D01*
X528738Y-396926D01*
X529032Y-396813D01*
X529347Y-396720D01*
X529684Y-396646D01*
X530041Y-396592D01*
X529769Y-396521D01*
X529512Y-396435D01*
X529272Y-396333D01*
X529047Y-396216D01*
X528838Y-396083D01*
X528645Y-395936D01*
X528567Y-395864D01*
X528468Y-395772D01*
X528307Y-395594D01*
X528163Y-395402D01*
X528038Y-395200D01*
X527933Y-394986D01*
X527847Y-394762D01*
X527780Y-394527D01*
X527732Y-394280D01*
X527703Y-394023D01*
X527694Y-393755D01*
X527711Y-393392D01*
X527761Y-393053D01*
X527846Y-392737D01*
X527965Y-392444D01*
X528118Y-392175D01*
X528305Y-391929D01*
X528525Y-391707D01*
X528780Y-391508D01*
X529068Y-391333D01*
X529391Y-391180D01*
X529747Y-391052D01*
X530137Y-390946D01*
X530561Y-390865D01*
X531020Y-390806D01*
X531512Y-390771D01*
X532038Y-390759D01*
X536522Y-390759D01*
X536522Y-403100D01*
G37*
%LPC*%
G36*
X534849Y-401760D02*
X534849Y-397311D01*
X531731Y-397311D01*
X531360Y-397319D01*
X531013Y-397345D01*
X530690Y-397387D01*
X530390Y-397447D01*
X530115Y-397524D01*
X529863Y-397617D01*
X529636Y-397728D01*
X529432Y-397856D01*
X529253Y-398001D01*
X529097Y-398163D01*
X528965Y-398341D01*
X528857Y-398537D01*
X528774Y-398750D01*
X528714Y-398980D01*
X528678Y-399227D01*
X528666Y-399492D01*
X528677Y-399765D01*
X528710Y-400021D01*
X528764Y-400260D01*
X528841Y-400481D01*
X528940Y-400685D01*
X529060Y-400871D01*
X529202Y-401040D01*
X529366Y-401191D01*
X529555Y-401324D01*
X529769Y-401440D01*
X530009Y-401538D01*
X530275Y-401618D01*
X530567Y-401680D01*
X530886Y-401724D01*
X531230Y-401751D01*
X531600Y-401760D01*
X534849Y-401760D01*
G37*
G36*
X534849Y-396006D02*
X534849Y-392099D01*
X532038Y-392099D01*
X531723Y-392106D01*
X531428Y-392126D01*
X531152Y-392160D01*
X530895Y-392207D01*
X530657Y-392267D01*
X530438Y-392341D01*
X530239Y-392428D01*
X530058Y-392528D01*
X529898Y-392645D01*
X529760Y-392779D01*
X529642Y-392930D01*
X529546Y-393100D01*
X529471Y-393287D01*
X529418Y-393492D01*
X529386Y-393715D01*
X529375Y-393956D01*
X529386Y-394208D01*
X529417Y-394444D01*
X529468Y-394662D01*
X529541Y-394864D01*
X529634Y-395049D01*
X529747Y-395217D01*
X529882Y-395368D01*
X530037Y-395502D01*
X530212Y-395620D01*
X530410Y-395722D01*
X530628Y-395809D01*
X530867Y-395880D01*
X531128Y-395935D01*
X531410Y-395974D01*
X531713Y-395998D01*
X532038Y-396006D01*
X534849Y-396006D01*
G37*
%LPD*%
G36*
X542961Y-403275D02*
X542472Y-403261D01*
X542012Y-403217D01*
X541581Y-403143D01*
X541179Y-403041D01*
X540806Y-402909D01*
X540462Y-402748D01*
X540147Y-402558D01*
X539861Y-402338D01*
X539606Y-402092D01*
X539386Y-401821D01*
X539199Y-401527D01*
X539046Y-401208D01*
X538927Y-400866D01*
X538843Y-400499D01*
X538792Y-400108D01*
X538775Y-399693D01*
X538787Y-399404D01*
X538823Y-399127D01*
X538883Y-398863D01*
X538967Y-398611D01*
X539076Y-398372D01*
X539208Y-398146D01*
X539365Y-397932D01*
X539545Y-397731D01*
X539748Y-397546D01*
X539969Y-397381D01*
X540210Y-397235D01*
X540469Y-397109D01*
X540748Y-397003D01*
X541046Y-396916D01*
X541364Y-396850D01*
X541700Y-396803D01*
X541700Y-396768D01*
X541394Y-396694D01*
X541107Y-396606D01*
X540838Y-396503D01*
X540589Y-396386D01*
X540358Y-396253D01*
X540146Y-396105D01*
X539952Y-395942D01*
X539778Y-395765D01*
X539623Y-395573D01*
X539488Y-395367D01*
X539375Y-395147D01*
X539282Y-394914D01*
X539209Y-394667D01*
X539158Y-394406D01*
X539127Y-394131D01*
X539116Y-393842D01*
X539132Y-393467D01*
X539181Y-393114D01*
X539261Y-392782D01*
X539374Y-392470D01*
X539518Y-392181D01*
X539695Y-391912D01*
X539904Y-391664D01*
X540145Y-391438D01*
X540416Y-391236D01*
X540712Y-391061D01*
X541034Y-390912D01*
X541381Y-390791D01*
X541755Y-390697D01*
X542155Y-390629D01*
X542580Y-390589D01*
X543031Y-390575D01*
X543446Y-390589D01*
X543842Y-390628D01*
X544219Y-390695D01*
X544576Y-390788D01*
X544914Y-390907D01*
X545233Y-391053D01*
X545532Y-391226D01*
X545812Y-391425D01*
X546068Y-391648D01*
X546296Y-391891D01*
X546496Y-392156D01*
X546667Y-392441D01*
X546810Y-392747D01*
X546925Y-393074D01*
X547011Y-393421D01*
X547069Y-393790D01*
X545484Y-393912D01*
X545449Y-393676D01*
X545398Y-393454D01*
X545329Y-393245D01*
X545244Y-393050D01*
X545142Y-392868D01*
X545023Y-392700D01*
X544887Y-392546D01*
X544735Y-392406D01*
X544568Y-392281D01*
X544388Y-392172D01*
X544196Y-392080D01*
X543992Y-392005D01*
X543775Y-391947D01*
X543545Y-391905D01*
X543303Y-391880D01*
X543049Y-391872D01*
X542771Y-391881D01*
X542510Y-391907D01*
X542268Y-391952D01*
X542043Y-392015D01*
X541835Y-392096D01*
X541646Y-392194D01*
X541473Y-392311D01*
X541319Y-392445D01*
X541183Y-392595D01*
X541064Y-392758D01*
X540964Y-392934D01*
X540882Y-393123D01*
X540819Y-393325D01*
X540773Y-393540D01*
X540746Y-393768D01*
X540737Y-394009D01*
X540748Y-394252D01*
X540781Y-394481D01*
X540837Y-394697D01*
X540915Y-394899D01*
X541015Y-395087D01*
X541138Y-395263D01*
X541283Y-395424D01*
X541450Y-395572D01*
X541638Y-395704D01*
X541844Y-395819D01*
X542068Y-395916D01*
X542310Y-395996D01*
X542570Y-396058D01*
X542849Y-396102D01*
X543146Y-396128D01*
X543461Y-396137D01*
X544319Y-396137D01*
X544319Y-397503D01*
X543425Y-397503D01*
X543071Y-397512D01*
X542737Y-397539D01*
X542425Y-397583D01*
X542135Y-397645D01*
X541866Y-397724D01*
X541618Y-397821D01*
X541392Y-397936D01*
X541188Y-398068D01*
X541006Y-398216D01*
X540849Y-398378D01*
X540715Y-398554D01*
X540606Y-398744D01*
X540522Y-398947D01*
X540461Y-399164D01*
X540425Y-399396D01*
X540413Y-399640D01*
X540423Y-399921D01*
X540455Y-400183D01*
X540508Y-400427D01*
X540582Y-400654D01*
X540678Y-400863D01*
X540794Y-401054D01*
X540932Y-401228D01*
X541091Y-401383D01*
X541269Y-401521D01*
X541463Y-401640D01*
X541672Y-401741D01*
X541898Y-401823D01*
X542140Y-401888D01*
X542398Y-401934D01*
X542671Y-401961D01*
X542961Y-401970D01*
X543250Y-401962D01*
X543523Y-401936D01*
X543779Y-401893D01*
X544019Y-401833D01*
X544244Y-401756D01*
X544452Y-401662D01*
X544644Y-401551D01*
X544820Y-401423D01*
X544980Y-401277D01*
X545124Y-401115D01*
X545252Y-400935D01*
X545364Y-400739D01*
X545460Y-400525D01*
X545539Y-400294D01*
X545603Y-400046D01*
X545650Y-399781D01*
X547279Y-399929D01*
X547213Y-400331D01*
X547117Y-400706D01*
X546994Y-401057D01*
X546842Y-401382D01*
X546662Y-401682D01*
X546454Y-401957D01*
X546217Y-402206D01*
X545952Y-402430D01*
X545661Y-402628D01*
X545347Y-402800D01*
X545008Y-402945D01*
X544646Y-403064D01*
X544260Y-403156D01*
X543851Y-403222D01*
X543418Y-403262D01*
X542961Y-403275D01*
G37*
G36*
X556565Y-403100D02*
X548831Y-403100D01*
X548831Y-401760D01*
X551835Y-401760D01*
X551835Y-390759D01*
X553289Y-390759D01*
X556206Y-392765D01*
X556206Y-394254D01*
X553421Y-392266D01*
X553421Y-401760D01*
X556565Y-401760D01*
X556565Y-403100D01*
G37*
G36*
X379422Y-233100D02*
X374806Y-233100D01*
X374366Y-233088D01*
X373939Y-233052D01*
X373525Y-232993D01*
X373124Y-232910D01*
X372737Y-232802D01*
X372362Y-232671D01*
X372001Y-232517D01*
X371653Y-232338D01*
X371321Y-232137D01*
X371009Y-231915D01*
X370716Y-231672D01*
X370442Y-231409D01*
X370188Y-231124D01*
X369953Y-230818D01*
X369738Y-230492D01*
X369542Y-230144D01*
X369368Y-229779D01*
X369216Y-229398D01*
X369088Y-229003D01*
X368984Y-228593D01*
X368902Y-228168D01*
X368844Y-227727D01*
X368809Y-227273D01*
X368798Y-226803D01*
X368804Y-226445D01*
X368824Y-226099D01*
X368857Y-225762D01*
X368904Y-225436D01*
X368964Y-225120D01*
X369037Y-224815D01*
X369124Y-224520D01*
X369223Y-224235D01*
X369337Y-223961D01*
X369463Y-223697D01*
X369603Y-223444D01*
X369756Y-223200D01*
X369922Y-222968D01*
X370102Y-222745D01*
X370295Y-222533D01*
X370501Y-222331D01*
X370720Y-222141D01*
X370949Y-221963D01*
X371190Y-221797D01*
X371442Y-221644D01*
X371706Y-221502D01*
X371980Y-221373D01*
X372266Y-221257D01*
X372563Y-221152D01*
X372871Y-221060D01*
X373190Y-220980D01*
X373520Y-220913D01*
X373862Y-220858D01*
X374215Y-220815D01*
X374579Y-220784D01*
X374954Y-220765D01*
X375340Y-220759D01*
X379422Y-220759D01*
X379422Y-233100D01*
G37*
%LPC*%
G36*
X377749Y-231760D02*
X377749Y-222099D01*
X375375Y-222099D01*
X374797Y-222118D01*
X374254Y-222175D01*
X373747Y-222269D01*
X373274Y-222400D01*
X372837Y-222570D01*
X372435Y-222777D01*
X372068Y-223021D01*
X371736Y-223304D01*
X371441Y-223622D01*
X371186Y-223974D01*
X370970Y-224360D01*
X370793Y-224781D01*
X370656Y-225235D01*
X370558Y-225723D01*
X370499Y-226246D01*
X370479Y-226803D01*
X370488Y-227177D01*
X370514Y-227539D01*
X370557Y-227889D01*
X370617Y-228226D01*
X370695Y-228550D01*
X370790Y-228862D01*
X370902Y-229161D01*
X371031Y-229448D01*
X371176Y-229720D01*
X371337Y-229975D01*
X371512Y-230215D01*
X371702Y-230437D01*
X371907Y-230644D01*
X372127Y-230834D01*
X372362Y-231007D01*
X372612Y-231164D01*
X372874Y-231304D01*
X373147Y-231425D01*
X373430Y-231527D01*
X373723Y-231611D01*
X374027Y-231676D01*
X374340Y-231723D01*
X374664Y-231751D01*
X374999Y-231760D01*
X377749Y-231760D01*
G37*
%LPD*%
G36*
X356515Y-233100D02*
X351506Y-233100D01*
X350986Y-233086D01*
X350496Y-233043D01*
X350034Y-232971D01*
X349603Y-232871D01*
X349200Y-232743D01*
X348827Y-232585D01*
X348483Y-232399D01*
X348169Y-232185D01*
X347887Y-231945D01*
X347644Y-231681D01*
X347437Y-231395D01*
X347269Y-231087D01*
X347137Y-230755D01*
X347044Y-230400D01*
X346987Y-230023D01*
X346969Y-229623D01*
X346981Y-229321D01*
X347018Y-229032D01*
X347081Y-228756D01*
X347168Y-228494D01*
X347280Y-228245D01*
X347417Y-228009D01*
X347579Y-227787D01*
X347766Y-227578D01*
X347879Y-227474D01*
X347975Y-227385D01*
X348206Y-227212D01*
X348458Y-227059D01*
X348731Y-226926D01*
X349025Y-226813D01*
X349341Y-226720D01*
X349677Y-226646D01*
X350034Y-226592D01*
X349762Y-226521D01*
X349505Y-226435D01*
X349265Y-226333D01*
X349040Y-226216D01*
X348831Y-226083D01*
X348638Y-225936D01*
X348560Y-225864D01*
X348461Y-225772D01*
X348300Y-225594D01*
X348156Y-225402D01*
X348032Y-225200D01*
X347926Y-224986D01*
X347840Y-224762D01*
X347773Y-224527D01*
X347725Y-224280D01*
X347696Y-224023D01*
X347687Y-223755D01*
X347704Y-223392D01*
X347755Y-223053D01*
X347840Y-222737D01*
X347958Y-222444D01*
X348111Y-222175D01*
X348298Y-221929D01*
X348518Y-221707D01*
X348773Y-221508D01*
X349061Y-221333D01*
X349384Y-221180D01*
X349740Y-221052D01*
X350130Y-220946D01*
X350555Y-220865D01*
X351013Y-220806D01*
X351505Y-220771D01*
X352031Y-220759D01*
X356515Y-220759D01*
X356515Y-233100D01*
G37*
%LPC*%
G36*
X354843Y-231760D02*
X354843Y-227311D01*
X351724Y-227311D01*
X351353Y-227319D01*
X351006Y-227345D01*
X350683Y-227387D01*
X350383Y-227447D01*
X350108Y-227524D01*
X349856Y-227617D01*
X349629Y-227728D01*
X349425Y-227856D01*
X349246Y-228001D01*
X349090Y-228163D01*
X348958Y-228341D01*
X348851Y-228537D01*
X348767Y-228750D01*
X348707Y-228980D01*
X348671Y-229227D01*
X348659Y-229492D01*
X348670Y-229765D01*
X348703Y-230021D01*
X348758Y-230260D01*
X348834Y-230481D01*
X348933Y-230685D01*
X349053Y-230871D01*
X349195Y-231040D01*
X349360Y-231191D01*
X349548Y-231324D01*
X349762Y-231440D01*
X350002Y-231538D01*
X350268Y-231618D01*
X350561Y-231680D01*
X350879Y-231724D01*
X351223Y-231751D01*
X351593Y-231760D01*
X354843Y-231760D01*
G37*
G36*
X354843Y-226006D02*
X354843Y-222099D01*
X352031Y-222099D01*
X351717Y-222106D01*
X351421Y-222126D01*
X351145Y-222160D01*
X350888Y-222207D01*
X350650Y-222267D01*
X350432Y-222341D01*
X350232Y-222428D01*
X350052Y-222528D01*
X349891Y-222645D01*
X349753Y-222779D01*
X349635Y-222930D01*
X349539Y-223100D01*
X349465Y-223287D01*
X349411Y-223492D01*
X349379Y-223715D01*
X349368Y-223956D01*
X349379Y-224208D01*
X349410Y-224444D01*
X349461Y-224662D01*
X349534Y-224864D01*
X349627Y-225049D01*
X349740Y-225217D01*
X349875Y-225368D01*
X350030Y-225502D01*
X350206Y-225620D01*
X350403Y-225722D01*
X350621Y-225809D01*
X350861Y-225880D01*
X351121Y-225935D01*
X351403Y-225974D01*
X351707Y-225998D01*
X352031Y-226006D01*
X354843Y-226006D01*
G37*
%LPD*%
G36*
X362963Y-233275D02*
X362470Y-233260D01*
X362006Y-233216D01*
X361572Y-233141D01*
X361168Y-233037D01*
X360793Y-232902D01*
X360447Y-232738D01*
X360131Y-232544D01*
X359845Y-232321D01*
X359591Y-232070D01*
X359370Y-231796D01*
X359183Y-231499D01*
X359031Y-231178D01*
X358912Y-230833D01*
X358827Y-230465D01*
X358776Y-230073D01*
X358759Y-229658D01*
X358769Y-229360D01*
X358800Y-229075D01*
X358851Y-228802D01*
X358923Y-228542D01*
X359016Y-228295D01*
X359129Y-228061D01*
X359262Y-227839D01*
X359416Y-227630D01*
X359450Y-227593D01*
X359588Y-227437D01*
X359777Y-227264D01*
X359983Y-227110D01*
X360204Y-226975D01*
X360442Y-226859D01*
X360697Y-226762D01*
X360968Y-226685D01*
X361255Y-226627D01*
X361255Y-226592D01*
X361008Y-226533D01*
X360774Y-226455D01*
X360554Y-226359D01*
X360347Y-226244D01*
X360153Y-226111D01*
X359990Y-225975D01*
X359973Y-225960D01*
X359806Y-225791D01*
X359652Y-225603D01*
X359515Y-225401D01*
X359396Y-225192D01*
X359295Y-224973D01*
X359212Y-224747D01*
X359148Y-224511D01*
X359102Y-224268D01*
X359075Y-224015D01*
X359066Y-223755D01*
X359082Y-223398D01*
X359132Y-223061D01*
X359214Y-222743D01*
X359330Y-222443D01*
X359478Y-222162D01*
X359659Y-221901D01*
X359874Y-221658D01*
X360121Y-221434D01*
X360397Y-221232D01*
X360697Y-221058D01*
X361020Y-220911D01*
X361368Y-220790D01*
X361740Y-220696D01*
X362135Y-220629D01*
X362555Y-220589D01*
X362998Y-220575D01*
X363431Y-220589D01*
X363842Y-220630D01*
X364230Y-220698D01*
X364596Y-220794D01*
X364938Y-220917D01*
X365259Y-221068D01*
X365557Y-221246D01*
X365832Y-221451D01*
X366079Y-221678D01*
X366293Y-221922D01*
X366475Y-222183D01*
X366623Y-222461D01*
X366739Y-222755D01*
X366821Y-223065D01*
X366871Y-223393D01*
X366887Y-223737D01*
X366878Y-223998D01*
X366851Y-224250D01*
X366805Y-224494D01*
X366741Y-224729D01*
X366660Y-224956D01*
X366559Y-225174D01*
X366441Y-225384D01*
X366305Y-225585D01*
X366152Y-225774D01*
X365987Y-225945D01*
X365808Y-226099D01*
X365616Y-226236D01*
X365411Y-226355D01*
X365192Y-226457D01*
X364960Y-226542D01*
X364715Y-226610D01*
X364715Y-226645D01*
X364978Y-226699D01*
X365229Y-226773D01*
X365469Y-226868D01*
X365696Y-226982D01*
X365911Y-227117D01*
X366114Y-227272D01*
X366305Y-227448D01*
X366484Y-227643D01*
X366646Y-227855D01*
X366787Y-228079D01*
X366906Y-228315D01*
X367003Y-228563D01*
X367079Y-228823D01*
X367133Y-229095D01*
X367165Y-229379D01*
X367176Y-229675D01*
X367159Y-230094D01*
X367106Y-230489D01*
X367019Y-230859D01*
X366897Y-231204D01*
X366740Y-231524D01*
X366548Y-231820D01*
X366321Y-232091D01*
X366059Y-232338D01*
X365767Y-232558D01*
X365447Y-232748D01*
X365101Y-232909D01*
X364727Y-233041D01*
X364326Y-233143D01*
X363899Y-233217D01*
X363445Y-233261D01*
X362963Y-233275D01*
G37*
%LPC*%
G36*
X362946Y-232093D02*
X363261Y-232083D01*
X363555Y-232053D01*
X363830Y-232003D01*
X364084Y-231934D01*
X364317Y-231844D01*
X364531Y-231734D01*
X364724Y-231605D01*
X364897Y-231456D01*
X365049Y-231286D01*
X365181Y-231097D01*
X365293Y-230888D01*
X365384Y-230659D01*
X365456Y-230410D01*
X365506Y-230141D01*
X365537Y-229853D01*
X365547Y-229544D01*
X365536Y-229278D01*
X365505Y-229026D01*
X365452Y-228789D01*
X365378Y-228566D01*
X365284Y-228359D01*
X365168Y-228165D01*
X365031Y-227987D01*
X364873Y-227823D01*
X364696Y-227676D01*
X364503Y-227549D01*
X364293Y-227441D01*
X364067Y-227353D01*
X363824Y-227285D01*
X363565Y-227236D01*
X363290Y-227207D01*
X362998Y-227197D01*
X362698Y-227206D01*
X362415Y-227233D01*
X362150Y-227279D01*
X361901Y-227342D01*
X361670Y-227424D01*
X361456Y-227524D01*
X361260Y-227643D01*
X361080Y-227779D01*
X360920Y-227934D01*
X360781Y-228106D01*
X360664Y-228295D01*
X360568Y-228503D01*
X360493Y-228728D01*
X360440Y-228971D01*
X360408Y-229231D01*
X360397Y-229509D01*
X360407Y-229835D01*
X360436Y-230138D01*
X360486Y-230418D01*
X360555Y-230675D01*
X360643Y-230909D01*
X360752Y-231121D01*
X360880Y-231310D01*
X361028Y-231475D01*
X361196Y-231620D01*
X361384Y-231745D01*
X361593Y-231852D01*
X361822Y-231938D01*
X362072Y-232006D01*
X362343Y-232054D01*
X362634Y-232083D01*
X362946Y-232093D01*
G37*
G36*
X362981Y-226014D02*
X363247Y-226006D01*
X363497Y-225980D01*
X363732Y-225936D01*
X363952Y-225875D01*
X364156Y-225797D01*
X364345Y-225702D01*
X364518Y-225589D01*
X364676Y-225458D01*
X364816Y-225311D01*
X364938Y-225149D01*
X365041Y-224970D01*
X365125Y-224776D01*
X365191Y-224566D01*
X365238Y-224341D01*
X365266Y-224099D01*
X365275Y-223842D01*
X365266Y-223590D01*
X365239Y-223353D01*
X365194Y-223133D01*
X365130Y-222929D01*
X365048Y-222741D01*
X364948Y-222570D01*
X364830Y-222414D01*
X364693Y-222274D01*
X364539Y-222151D01*
X364369Y-222045D01*
X364182Y-221954D01*
X363978Y-221880D01*
X363758Y-221823D01*
X363521Y-221782D01*
X363268Y-221757D01*
X362998Y-221749D01*
X362720Y-221757D01*
X362460Y-221782D01*
X362218Y-221823D01*
X361994Y-221880D01*
X361788Y-221953D01*
X361600Y-222043D01*
X361430Y-222150D01*
X361277Y-222272D01*
X361143Y-222411D01*
X361026Y-222567D01*
X360928Y-222738D01*
X360847Y-222926D01*
X360784Y-223131D01*
X360739Y-223352D01*
X360712Y-223589D01*
X360704Y-223842D01*
X360713Y-224119D01*
X360740Y-224376D01*
X360785Y-224613D01*
X360849Y-224831D01*
X360931Y-225028D01*
X361031Y-225206D01*
X361149Y-225364D01*
X361286Y-225502D01*
X361440Y-225622D01*
X361610Y-225726D01*
X361797Y-225814D01*
X362001Y-225886D01*
X362221Y-225942D01*
X362458Y-225982D01*
X362711Y-226006D01*
X362981Y-226014D01*
G37*
%LPD*%
G36*
X389397Y-403100D02*
X384781Y-403100D01*
X384341Y-403088D01*
X383914Y-403052D01*
X383501Y-402993D01*
X383100Y-402910D01*
X382712Y-402802D01*
X382338Y-402671D01*
X381977Y-402517D01*
X381628Y-402338D01*
X381297Y-402137D01*
X380984Y-401915D01*
X380691Y-401672D01*
X380418Y-401409D01*
X380163Y-401124D01*
X379929Y-400818D01*
X379713Y-400492D01*
X379518Y-400144D01*
X379343Y-399779D01*
X379192Y-399398D01*
X379064Y-399003D01*
X378959Y-398593D01*
X378878Y-398168D01*
X378820Y-397727D01*
X378785Y-397273D01*
X378773Y-396803D01*
X378780Y-396445D01*
X378800Y-396099D01*
X378833Y-395762D01*
X378880Y-395436D01*
X378939Y-395120D01*
X379013Y-394815D01*
X379099Y-394520D01*
X379199Y-394235D01*
X379312Y-393961D01*
X379439Y-393697D01*
X379578Y-393444D01*
X379731Y-393200D01*
X379898Y-392968D01*
X380077Y-392745D01*
X380270Y-392533D01*
X380477Y-392331D01*
X380695Y-392141D01*
X380925Y-391963D01*
X381166Y-391797D01*
X381418Y-391644D01*
X381681Y-391502D01*
X381956Y-391373D01*
X382241Y-391257D01*
X382538Y-391152D01*
X382846Y-391060D01*
X383165Y-390980D01*
X383496Y-390913D01*
X383837Y-390858D01*
X384190Y-390815D01*
X384554Y-390784D01*
X384929Y-390765D01*
X385316Y-390759D01*
X389397Y-390759D01*
X389397Y-403100D01*
G37*
%LPC*%
G36*
X387724Y-401760D02*
X387724Y-392099D01*
X385351Y-392099D01*
X384773Y-392118D01*
X384230Y-392175D01*
X383722Y-392269D01*
X383250Y-392400D01*
X382813Y-392570D01*
X382410Y-392777D01*
X382043Y-393021D01*
X381712Y-393304D01*
X381417Y-393622D01*
X381162Y-393974D01*
X380946Y-394360D01*
X380769Y-394781D01*
X380631Y-395235D01*
X380533Y-395723D01*
X380474Y-396246D01*
X380455Y-396803D01*
X380463Y-397177D01*
X380489Y-397539D01*
X380532Y-397889D01*
X380593Y-398226D01*
X380670Y-398550D01*
X380765Y-398862D01*
X380877Y-399161D01*
X381007Y-399448D01*
X381152Y-399720D01*
X381312Y-399975D01*
X381488Y-400215D01*
X381678Y-400437D01*
X381883Y-400644D01*
X382103Y-400834D01*
X382338Y-401007D01*
X382587Y-401164D01*
X382850Y-401304D01*
X383123Y-401425D01*
X383405Y-401527D01*
X383699Y-401611D01*
X384002Y-401676D01*
X384316Y-401723D01*
X384640Y-401751D01*
X384974Y-401760D01*
X387724Y-401760D01*
G37*
%LPD*%
G36*
X356522Y-403100D02*
X351512Y-403100D01*
X350993Y-403086D01*
X350502Y-403043D01*
X350041Y-402971D01*
X349610Y-402871D01*
X349207Y-402743D01*
X348834Y-402585D01*
X348490Y-402399D01*
X348175Y-402185D01*
X347894Y-401945D01*
X347650Y-401681D01*
X347444Y-401395D01*
X347275Y-401087D01*
X347144Y-400755D01*
X347050Y-400400D01*
X346994Y-400023D01*
X346975Y-399623D01*
X346988Y-399321D01*
X347025Y-399032D01*
X347087Y-398756D01*
X347175Y-398494D01*
X347287Y-398245D01*
X347424Y-398009D01*
X347586Y-397787D01*
X347772Y-397578D01*
X347885Y-397474D01*
X347982Y-397385D01*
X348213Y-397212D01*
X348465Y-397059D01*
X348738Y-396926D01*
X349032Y-396813D01*
X349347Y-396720D01*
X349684Y-396646D01*
X350041Y-396592D01*
X349769Y-396521D01*
X349512Y-396435D01*
X349272Y-396333D01*
X349047Y-396216D01*
X348838Y-396083D01*
X348645Y-395936D01*
X348567Y-395864D01*
X348468Y-395772D01*
X348307Y-395594D01*
X348163Y-395402D01*
X348038Y-395200D01*
X347933Y-394986D01*
X347847Y-394762D01*
X347780Y-394527D01*
X347732Y-394280D01*
X347703Y-394023D01*
X347694Y-393755D01*
X347711Y-393392D01*
X347761Y-393053D01*
X347846Y-392737D01*
X347965Y-392444D01*
X348118Y-392175D01*
X348305Y-391929D01*
X348525Y-391707D01*
X348780Y-391508D01*
X349068Y-391333D01*
X349391Y-391180D01*
X349747Y-391052D01*
X350137Y-390946D01*
X350561Y-390865D01*
X351020Y-390806D01*
X351512Y-390771D01*
X352038Y-390759D01*
X356522Y-390759D01*
X356522Y-403100D01*
G37*
%LPC*%
G36*
X354849Y-401760D02*
X354849Y-397311D01*
X351731Y-397311D01*
X351360Y-397319D01*
X351013Y-397345D01*
X350690Y-397387D01*
X350390Y-397447D01*
X350115Y-397524D01*
X349863Y-397617D01*
X349636Y-397728D01*
X349432Y-397856D01*
X349253Y-398001D01*
X349097Y-398163D01*
X348965Y-398341D01*
X348857Y-398537D01*
X348774Y-398750D01*
X348714Y-398980D01*
X348678Y-399227D01*
X348666Y-399492D01*
X348677Y-399765D01*
X348710Y-400021D01*
X348764Y-400260D01*
X348841Y-400481D01*
X348940Y-400685D01*
X349060Y-400871D01*
X349202Y-401040D01*
X349366Y-401191D01*
X349555Y-401324D01*
X349769Y-401440D01*
X350009Y-401538D01*
X350275Y-401618D01*
X350567Y-401680D01*
X350886Y-401724D01*
X351230Y-401751D01*
X351600Y-401760D01*
X354849Y-401760D01*
G37*
G36*
X354849Y-396006D02*
X354849Y-392099D01*
X352038Y-392099D01*
X351723Y-392106D01*
X351428Y-392126D01*
X351152Y-392160D01*
X350895Y-392207D01*
X350657Y-392267D01*
X350438Y-392341D01*
X350239Y-392428D01*
X350058Y-392528D01*
X349898Y-392645D01*
X349760Y-392779D01*
X349642Y-392930D01*
X349546Y-393100D01*
X349471Y-393287D01*
X349418Y-393492D01*
X349386Y-393715D01*
X349375Y-393956D01*
X349386Y-394208D01*
X349417Y-394444D01*
X349468Y-394662D01*
X349541Y-394864D01*
X349634Y-395049D01*
X349747Y-395217D01*
X349882Y-395368D01*
X350037Y-395502D01*
X350212Y-395620D01*
X350410Y-395722D01*
X350628Y-395809D01*
X350867Y-395880D01*
X351128Y-395935D01*
X351410Y-395974D01*
X351713Y-395998D01*
X352038Y-396006D01*
X354849Y-396006D01*
G37*
%LPD*%
G36*
X361735Y-403100D02*
X360246Y-403100D01*
X360246Y-400306D01*
X358512Y-400306D01*
X358512Y-399062D01*
X360246Y-399062D01*
X360246Y-390759D01*
X361901Y-390759D01*
X367551Y-399080D01*
X367551Y-400306D01*
X361735Y-400306D01*
X361735Y-403100D01*
G37*
%LPC*%
G36*
X366097Y-399062D02*
X365957Y-398887D01*
X365484Y-398239D01*
X362322Y-393579D01*
X361980Y-393001D01*
X361735Y-392537D01*
X361735Y-399062D01*
X366097Y-399062D01*
G37*
%LPD*%
G36*
X376565Y-403100D02*
X368831Y-403100D01*
X368831Y-401760D01*
X371835Y-401760D01*
X371835Y-390759D01*
X373289Y-390759D01*
X376206Y-392765D01*
X376206Y-394254D01*
X373421Y-392266D01*
X373421Y-401760D01*
X376565Y-401760D01*
X376565Y-403100D01*
G37*
G36*
X199422Y-123100D02*
X194806Y-123100D01*
X194366Y-123088D01*
X193939Y-123052D01*
X193525Y-122993D01*
X193124Y-122910D01*
X192737Y-122802D01*
X192362Y-122671D01*
X192001Y-122517D01*
X191653Y-122338D01*
X191321Y-122137D01*
X191009Y-121915D01*
X190716Y-121672D01*
X190442Y-121409D01*
X190188Y-121124D01*
X189953Y-120818D01*
X189738Y-120492D01*
X189542Y-120144D01*
X189368Y-119779D01*
X189216Y-119398D01*
X189088Y-119003D01*
X188984Y-118593D01*
X188902Y-118168D01*
X188844Y-117727D01*
X188809Y-117273D01*
X188798Y-116803D01*
X188804Y-116445D01*
X188824Y-116099D01*
X188857Y-115762D01*
X188904Y-115436D01*
X188964Y-115120D01*
X189037Y-114815D01*
X189124Y-114520D01*
X189223Y-114235D01*
X189337Y-113961D01*
X189463Y-113697D01*
X189603Y-113444D01*
X189756Y-113200D01*
X189922Y-112968D01*
X190102Y-112745D01*
X190295Y-112533D01*
X190501Y-112331D01*
X190720Y-112141D01*
X190949Y-111963D01*
X191190Y-111797D01*
X191442Y-111644D01*
X191706Y-111502D01*
X191980Y-111373D01*
X192266Y-111257D01*
X192563Y-111152D01*
X192871Y-111060D01*
X193190Y-110980D01*
X193520Y-110913D01*
X193862Y-110858D01*
X194215Y-110815D01*
X194579Y-110784D01*
X194954Y-110765D01*
X195340Y-110759D01*
X199422Y-110759D01*
X199422Y-123100D01*
G37*
%LPC*%
G36*
X197749Y-121760D02*
X197749Y-112099D01*
X195375Y-112099D01*
X194797Y-112118D01*
X194254Y-112175D01*
X193747Y-112269D01*
X193274Y-112400D01*
X192837Y-112570D01*
X192435Y-112777D01*
X192068Y-113021D01*
X191736Y-113304D01*
X191441Y-113622D01*
X191186Y-113974D01*
X190970Y-114360D01*
X190793Y-114781D01*
X190656Y-115235D01*
X190558Y-115723D01*
X190499Y-116246D01*
X190479Y-116803D01*
X190488Y-117177D01*
X190514Y-117539D01*
X190557Y-117889D01*
X190617Y-118226D01*
X190695Y-118550D01*
X190790Y-118862D01*
X190902Y-119161D01*
X191031Y-119448D01*
X191176Y-119720D01*
X191337Y-119975D01*
X191512Y-120215D01*
X191702Y-120437D01*
X191907Y-120644D01*
X192127Y-120834D01*
X192362Y-121007D01*
X192612Y-121164D01*
X192874Y-121304D01*
X193147Y-121425D01*
X193430Y-121527D01*
X193723Y-121611D01*
X194027Y-121676D01*
X194340Y-121723D01*
X194664Y-121751D01*
X194999Y-121760D01*
X197749Y-121760D01*
G37*
%LPD*%
G36*
X176515Y-123100D02*
X171506Y-123100D01*
X170986Y-123086D01*
X170496Y-123043D01*
X170034Y-122971D01*
X169603Y-122871D01*
X169200Y-122743D01*
X168827Y-122585D01*
X168483Y-122399D01*
X168169Y-122185D01*
X167887Y-121945D01*
X167644Y-121681D01*
X167437Y-121395D01*
X167269Y-121087D01*
X167137Y-120755D01*
X167044Y-120400D01*
X166987Y-120023D01*
X166969Y-119623D01*
X166981Y-119321D01*
X167018Y-119032D01*
X167081Y-118756D01*
X167168Y-118494D01*
X167280Y-118245D01*
X167417Y-118009D01*
X167579Y-117787D01*
X167766Y-117578D01*
X167879Y-117474D01*
X167975Y-117385D01*
X168206Y-117212D01*
X168458Y-117059D01*
X168731Y-116926D01*
X169025Y-116813D01*
X169341Y-116720D01*
X169677Y-116646D01*
X170034Y-116592D01*
X169762Y-116521D01*
X169505Y-116435D01*
X169265Y-116333D01*
X169040Y-116216D01*
X168831Y-116083D01*
X168638Y-115936D01*
X168560Y-115864D01*
X168461Y-115772D01*
X168300Y-115594D01*
X168156Y-115402D01*
X168032Y-115200D01*
X167926Y-114986D01*
X167840Y-114762D01*
X167773Y-114527D01*
X167725Y-114280D01*
X167696Y-114023D01*
X167687Y-113755D01*
X167704Y-113392D01*
X167755Y-113053D01*
X167840Y-112737D01*
X167958Y-112444D01*
X168111Y-112175D01*
X168298Y-111929D01*
X168518Y-111707D01*
X168773Y-111508D01*
X169061Y-111333D01*
X169384Y-111180D01*
X169740Y-111052D01*
X170130Y-110946D01*
X170555Y-110865D01*
X171013Y-110806D01*
X171505Y-110771D01*
X172031Y-110759D01*
X176515Y-110759D01*
X176515Y-123100D01*
G37*
%LPC*%
G36*
X174843Y-121760D02*
X174843Y-117311D01*
X171724Y-117311D01*
X171353Y-117319D01*
X171006Y-117345D01*
X170683Y-117387D01*
X170383Y-117447D01*
X170108Y-117524D01*
X169856Y-117617D01*
X169629Y-117728D01*
X169425Y-117856D01*
X169246Y-118001D01*
X169090Y-118163D01*
X168958Y-118341D01*
X168851Y-118537D01*
X168767Y-118750D01*
X168707Y-118980D01*
X168671Y-119227D01*
X168659Y-119492D01*
X168670Y-119765D01*
X168703Y-120021D01*
X168758Y-120260D01*
X168834Y-120481D01*
X168933Y-120685D01*
X169053Y-120871D01*
X169195Y-121040D01*
X169360Y-121191D01*
X169548Y-121324D01*
X169762Y-121440D01*
X170002Y-121538D01*
X170268Y-121618D01*
X170561Y-121680D01*
X170879Y-121724D01*
X171223Y-121751D01*
X171593Y-121760D01*
X174843Y-121760D01*
G37*
G36*
X174843Y-116006D02*
X174843Y-112099D01*
X172031Y-112099D01*
X171717Y-112106D01*
X171421Y-112126D01*
X171145Y-112160D01*
X170888Y-112207D01*
X170650Y-112267D01*
X170432Y-112341D01*
X170232Y-112428D01*
X170052Y-112528D01*
X169891Y-112645D01*
X169753Y-112779D01*
X169635Y-112930D01*
X169539Y-113100D01*
X169465Y-113287D01*
X169411Y-113492D01*
X169379Y-113715D01*
X169368Y-113956D01*
X169379Y-114208D01*
X169410Y-114444D01*
X169461Y-114662D01*
X169534Y-114864D01*
X169627Y-115049D01*
X169740Y-115217D01*
X169875Y-115368D01*
X170030Y-115502D01*
X170206Y-115620D01*
X170403Y-115722D01*
X170621Y-115809D01*
X170861Y-115880D01*
X171121Y-115935D01*
X171403Y-115974D01*
X171707Y-115998D01*
X172031Y-116006D01*
X174843Y-116006D01*
G37*
%LPD*%
G36*
X183296Y-123275D02*
X183032Y-123268D01*
X182775Y-123248D01*
X182526Y-123215D01*
X182285Y-123168D01*
X182051Y-123108D01*
X181825Y-123035D01*
X181397Y-122848D01*
X180999Y-122608D01*
X180632Y-122314D01*
X180295Y-121968D01*
X179990Y-121567D01*
X179718Y-121117D01*
X179482Y-120621D01*
X179283Y-120079D01*
X179119Y-119492D01*
X178992Y-118858D01*
X178902Y-118178D01*
X178847Y-117452D01*
X178829Y-116680D01*
X178846Y-115940D01*
X178895Y-115247D01*
X178978Y-114603D01*
X179094Y-114006D01*
X179243Y-113458D01*
X179425Y-112957D01*
X179641Y-112504D01*
X179889Y-112099D01*
X180170Y-111742D01*
X180481Y-111433D01*
X180824Y-111171D01*
X181198Y-110956D01*
X181604Y-110790D01*
X182040Y-110671D01*
X182508Y-110599D01*
X182754Y-110581D01*
X183007Y-110575D01*
X183478Y-110593D01*
X183922Y-110645D01*
X184339Y-110731D01*
X184730Y-110852D01*
X185095Y-111008D01*
X185433Y-111199D01*
X185744Y-111424D01*
X186029Y-111683D01*
X186283Y-111973D01*
X186504Y-112289D01*
X186691Y-112631D01*
X186843Y-112998D01*
X186962Y-113392D01*
X187047Y-113811D01*
X187098Y-114256D01*
X187115Y-114727D01*
X187099Y-115186D01*
X187052Y-115622D01*
X186974Y-116034D01*
X186865Y-116424D01*
X186725Y-116790D01*
X186553Y-117133D01*
X186350Y-117452D01*
X186116Y-117749D01*
X185856Y-118015D01*
X185575Y-118247D01*
X185274Y-118442D01*
X184951Y-118603D01*
X184608Y-118727D01*
X184244Y-118816D01*
X183859Y-118869D01*
X183454Y-118887D01*
X183202Y-118880D01*
X182956Y-118857D01*
X182715Y-118820D01*
X182479Y-118768D01*
X182249Y-118701D01*
X182023Y-118619D01*
X181803Y-118522D01*
X181588Y-118410D01*
X181384Y-118286D01*
X181195Y-118152D01*
X181021Y-118008D01*
X180863Y-117855D01*
X180721Y-117692D01*
X180595Y-117519D01*
X180484Y-117336D01*
X180388Y-117144D01*
X180408Y-117712D01*
X180450Y-118246D01*
X180514Y-118747D01*
X180601Y-119213D01*
X180709Y-119647D01*
X180840Y-120046D01*
X180993Y-120412D01*
X181168Y-120744D01*
X181363Y-121040D01*
X181578Y-121296D01*
X181812Y-121513D01*
X182065Y-121690D01*
X182338Y-121828D01*
X182629Y-121926D01*
X182940Y-121986D01*
X183270Y-122005D01*
X183467Y-121999D01*
X183655Y-121981D01*
X184004Y-121909D01*
X184318Y-121788D01*
X184597Y-121620D01*
X184839Y-121403D01*
X185047Y-121138D01*
X185218Y-120825D01*
X185354Y-120464D01*
X186861Y-120700D01*
X186759Y-121028D01*
X186642Y-121332D01*
X186509Y-121613D01*
X186360Y-121871D01*
X186197Y-122105D01*
X186017Y-122315D01*
X185823Y-122503D01*
X185613Y-122666D01*
X185386Y-122809D01*
X185141Y-122933D01*
X184878Y-123037D01*
X184598Y-123123D01*
X184299Y-123190D01*
X183983Y-123237D01*
X183648Y-123266D01*
X183296Y-123275D01*
G37*
%LPC*%
G36*
X183077Y-117643D02*
X183350Y-117631D01*
X183609Y-117594D01*
X183853Y-117533D01*
X184082Y-117447D01*
X184297Y-117337D01*
X184498Y-117203D01*
X184684Y-117043D01*
X184855Y-116860D01*
X185009Y-116655D01*
X185142Y-116432D01*
X185255Y-116192D01*
X185348Y-115934D01*
X185420Y-115659D01*
X185471Y-115366D01*
X185502Y-115055D01*
X185512Y-114727D01*
X185502Y-114405D01*
X185471Y-114100D01*
X185420Y-113812D01*
X185348Y-113541D01*
X185255Y-113288D01*
X185142Y-113051D01*
X185009Y-112832D01*
X184855Y-112629D01*
X184683Y-112448D01*
X184497Y-112290D01*
X184295Y-112157D01*
X184078Y-112048D01*
X183846Y-111963D01*
X183599Y-111903D01*
X183337Y-111866D01*
X183060Y-111854D01*
X182780Y-111868D01*
X182515Y-111911D01*
X182264Y-111982D01*
X182028Y-112081D01*
X181807Y-112208D01*
X181600Y-112364D01*
X181407Y-112548D01*
X181229Y-112761D01*
X181069Y-112996D01*
X180930Y-113250D01*
X180813Y-113522D01*
X180717Y-113813D01*
X180642Y-114121D01*
X180589Y-114448D01*
X180557Y-114793D01*
X180546Y-115156D01*
X180567Y-115510D01*
X180630Y-115844D01*
X180736Y-116158D01*
X180883Y-116452D01*
X181067Y-116721D01*
X181283Y-116957D01*
X181529Y-117161D01*
X181807Y-117333D01*
X182107Y-117469D01*
X182418Y-117566D01*
X182742Y-117624D01*
X183077Y-117643D01*
G37*
%LPD*%
G36*
X209397Y-293100D02*
X204781Y-293100D01*
X204341Y-293088D01*
X203914Y-293052D01*
X203501Y-292993D01*
X203100Y-292910D01*
X202712Y-292802D01*
X202338Y-292671D01*
X201977Y-292517D01*
X201628Y-292338D01*
X201297Y-292137D01*
X200984Y-291915D01*
X200691Y-291672D01*
X200418Y-291409D01*
X200163Y-291124D01*
X199929Y-290818D01*
X199713Y-290492D01*
X199518Y-290144D01*
X199343Y-289779D01*
X199192Y-289398D01*
X199064Y-289003D01*
X198959Y-288593D01*
X198878Y-288168D01*
X198820Y-287727D01*
X198785Y-287273D01*
X198773Y-286803D01*
X198780Y-286445D01*
X198800Y-286099D01*
X198833Y-285762D01*
X198880Y-285436D01*
X198939Y-285120D01*
X199013Y-284815D01*
X199099Y-284520D01*
X199199Y-284235D01*
X199312Y-283961D01*
X199439Y-283697D01*
X199578Y-283444D01*
X199731Y-283200D01*
X199898Y-282968D01*
X200077Y-282745D01*
X200270Y-282533D01*
X200477Y-282331D01*
X200695Y-282141D01*
X200925Y-281963D01*
X201166Y-281797D01*
X201418Y-281644D01*
X201681Y-281502D01*
X201956Y-281373D01*
X202241Y-281257D01*
X202538Y-281152D01*
X202846Y-281060D01*
X203165Y-280980D01*
X203496Y-280913D01*
X203837Y-280858D01*
X204190Y-280815D01*
X204554Y-280784D01*
X204929Y-280765D01*
X205316Y-280759D01*
X209397Y-280759D01*
X209397Y-293100D01*
G37*
%LPC*%
G36*
X207724Y-291760D02*
X207724Y-282099D01*
X205351Y-282099D01*
X204773Y-282118D01*
X204230Y-282175D01*
X203722Y-282269D01*
X203250Y-282400D01*
X202813Y-282570D01*
X202410Y-282777D01*
X202043Y-283021D01*
X201712Y-283304D01*
X201417Y-283622D01*
X201162Y-283974D01*
X200946Y-284360D01*
X200769Y-284781D01*
X200631Y-285235D01*
X200533Y-285723D01*
X200474Y-286246D01*
X200455Y-286803D01*
X200463Y-287177D01*
X200489Y-287539D01*
X200532Y-287889D01*
X200593Y-288226D01*
X200670Y-288550D01*
X200765Y-288862D01*
X200877Y-289161D01*
X201007Y-289448D01*
X201152Y-289720D01*
X201312Y-289975D01*
X201488Y-290215D01*
X201678Y-290437D01*
X201883Y-290644D01*
X202103Y-290834D01*
X202338Y-291007D01*
X202587Y-291164D01*
X202850Y-291304D01*
X203123Y-291425D01*
X203405Y-291527D01*
X203699Y-291611D01*
X204002Y-291676D01*
X204316Y-291723D01*
X204640Y-291751D01*
X204974Y-291760D01*
X207724Y-291760D01*
G37*
%LPD*%
G36*
X176522Y-293100D02*
X171512Y-293100D01*
X170993Y-293086D01*
X170502Y-293043D01*
X170041Y-292971D01*
X169610Y-292871D01*
X169207Y-292743D01*
X168834Y-292585D01*
X168490Y-292399D01*
X168175Y-292185D01*
X167894Y-291945D01*
X167650Y-291681D01*
X167444Y-291395D01*
X167275Y-291087D01*
X167144Y-290755D01*
X167050Y-290400D01*
X166994Y-290023D01*
X166975Y-289623D01*
X166988Y-289321D01*
X167025Y-289032D01*
X167087Y-288756D01*
X167175Y-288494D01*
X167287Y-288245D01*
X167424Y-288009D01*
X167586Y-287787D01*
X167772Y-287578D01*
X167885Y-287474D01*
X167982Y-287385D01*
X168213Y-287212D01*
X168465Y-287059D01*
X168738Y-286926D01*
X169032Y-286813D01*
X169347Y-286720D01*
X169684Y-286646D01*
X170041Y-286592D01*
X169769Y-286521D01*
X169512Y-286435D01*
X169272Y-286333D01*
X169047Y-286216D01*
X168838Y-286083D01*
X168645Y-285936D01*
X168567Y-285864D01*
X168468Y-285772D01*
X168307Y-285594D01*
X168163Y-285402D01*
X168038Y-285200D01*
X167933Y-284986D01*
X167847Y-284762D01*
X167780Y-284527D01*
X167732Y-284280D01*
X167703Y-284023D01*
X167694Y-283755D01*
X167711Y-283392D01*
X167761Y-283053D01*
X167846Y-282737D01*
X167965Y-282444D01*
X168118Y-282175D01*
X168305Y-281929D01*
X168525Y-281707D01*
X168780Y-281508D01*
X169068Y-281333D01*
X169391Y-281180D01*
X169747Y-281052D01*
X170137Y-280946D01*
X170561Y-280865D01*
X171020Y-280806D01*
X171512Y-280771D01*
X172038Y-280759D01*
X176522Y-280759D01*
X176522Y-293100D01*
G37*
%LPC*%
G36*
X174849Y-291760D02*
X174849Y-287311D01*
X171731Y-287311D01*
X171360Y-287319D01*
X171013Y-287345D01*
X170690Y-287387D01*
X170390Y-287447D01*
X170115Y-287524D01*
X169863Y-287617D01*
X169636Y-287728D01*
X169432Y-287856D01*
X169253Y-288001D01*
X169097Y-288163D01*
X168965Y-288341D01*
X168857Y-288537D01*
X168774Y-288750D01*
X168714Y-288980D01*
X168678Y-289227D01*
X168666Y-289492D01*
X168677Y-289765D01*
X168710Y-290021D01*
X168764Y-290260D01*
X168841Y-290481D01*
X168940Y-290685D01*
X169060Y-290871D01*
X169202Y-291040D01*
X169366Y-291191D01*
X169555Y-291324D01*
X169769Y-291440D01*
X170009Y-291538D01*
X170275Y-291618D01*
X170567Y-291680D01*
X170886Y-291724D01*
X171230Y-291751D01*
X171600Y-291760D01*
X174849Y-291760D01*
G37*
G36*
X174849Y-286006D02*
X174849Y-282099D01*
X172038Y-282099D01*
X171723Y-282106D01*
X171428Y-282126D01*
X171152Y-282160D01*
X170895Y-282207D01*
X170657Y-282267D01*
X170438Y-282341D01*
X170239Y-282428D01*
X170058Y-282528D01*
X169898Y-282645D01*
X169760Y-282779D01*
X169642Y-282930D01*
X169546Y-283100D01*
X169471Y-283287D01*
X169418Y-283492D01*
X169386Y-283715D01*
X169375Y-283956D01*
X169386Y-284208D01*
X169417Y-284444D01*
X169468Y-284662D01*
X169541Y-284864D01*
X169634Y-285049D01*
X169747Y-285217D01*
X169882Y-285368D01*
X170037Y-285502D01*
X170212Y-285620D01*
X170410Y-285722D01*
X170628Y-285809D01*
X170867Y-285880D01*
X171128Y-285935D01*
X171410Y-285974D01*
X171713Y-285998D01*
X172038Y-286006D01*
X174849Y-286006D01*
G37*
%LPD*%
G36*
X183119Y-293275D02*
X182618Y-293258D01*
X182146Y-293205D01*
X181701Y-293118D01*
X181285Y-292995D01*
X180897Y-292837D01*
X180537Y-292645D01*
X180204Y-292417D01*
X179900Y-292154D01*
X179628Y-291861D01*
X179392Y-291542D01*
X179193Y-291196D01*
X179030Y-290825D01*
X178903Y-290428D01*
X178812Y-290004D01*
X178758Y-289555D01*
X178740Y-289080D01*
X178757Y-288661D01*
X178807Y-288262D01*
X178892Y-287883D01*
X179010Y-287525D01*
X179162Y-287187D01*
X179348Y-286869D01*
X179568Y-286572D01*
X179821Y-286295D01*
X180103Y-286044D01*
X180408Y-285827D01*
X180737Y-285643D01*
X181088Y-285493D01*
X181463Y-285376D01*
X181860Y-285293D01*
X182281Y-285243D01*
X182725Y-285226D01*
X183098Y-285238D01*
X183456Y-285275D01*
X183798Y-285337D01*
X184124Y-285423D01*
X184435Y-285534D01*
X184730Y-285670D01*
X185010Y-285830D01*
X185274Y-286014D01*
X185037Y-282099D01*
X179458Y-282099D01*
X179458Y-280759D01*
X186473Y-280759D01*
X186885Y-287398D01*
X185344Y-287398D01*
X185068Y-287175D01*
X184792Y-286987D01*
X184516Y-286833D01*
X184240Y-286715D01*
X183959Y-286627D01*
X183666Y-286564D01*
X183363Y-286526D01*
X183049Y-286514D01*
X182750Y-286525D01*
X182467Y-286558D01*
X182200Y-286615D01*
X181949Y-286693D01*
X181713Y-286794D01*
X181493Y-286918D01*
X181289Y-287063D01*
X181100Y-287232D01*
X180931Y-287418D01*
X180784Y-287619D01*
X180660Y-287833D01*
X180558Y-288062D01*
X180479Y-288304D01*
X180423Y-288560D01*
X180389Y-288831D01*
X180378Y-289115D01*
X180389Y-289441D01*
X180422Y-289749D01*
X180479Y-290039D01*
X180557Y-290312D01*
X180658Y-290566D01*
X180781Y-290802D01*
X180927Y-291021D01*
X181096Y-291221D01*
X181284Y-291401D01*
X181489Y-291557D01*
X181712Y-291688D01*
X181952Y-291796D01*
X182209Y-291880D01*
X182483Y-291940D01*
X182775Y-291976D01*
X183084Y-291988D01*
X183336Y-291981D01*
X183576Y-291959D01*
X183804Y-291923D01*
X184019Y-291873D01*
X184223Y-291809D01*
X184414Y-291730D01*
X184592Y-291637D01*
X184759Y-291530D01*
X184913Y-291409D01*
X185055Y-291273D01*
X185185Y-291122D01*
X185303Y-290958D01*
X185408Y-290779D01*
X185501Y-290586D01*
X185582Y-290379D01*
X185650Y-290157D01*
X187244Y-290341D01*
X187162Y-290687D01*
X187055Y-291013D01*
X186924Y-291317D01*
X186769Y-291600D01*
X186589Y-291862D01*
X186385Y-292103D01*
X186157Y-292323D01*
X185904Y-292522D01*
X185629Y-292699D01*
X185333Y-292852D01*
X185016Y-292981D01*
X184678Y-293087D01*
X184319Y-293169D01*
X183940Y-293228D01*
X183540Y-293263D01*
X183119Y-293275D01*
G37*
G36*
X196565Y-293100D02*
X188831Y-293100D01*
X188831Y-291760D01*
X191835Y-291760D01*
X191835Y-280759D01*
X193289Y-280759D01*
X196206Y-282765D01*
X196206Y-284254D01*
X193421Y-282266D01*
X193421Y-291760D01*
X196565Y-291760D01*
X196565Y-293100D01*
G37*
G36*
X29397Y-73100D02*
X24781Y-73100D01*
X24341Y-73088D01*
X23914Y-73052D01*
X23501Y-72993D01*
X23100Y-72910D01*
X22712Y-72802D01*
X22338Y-72671D01*
X21977Y-72517D01*
X21628Y-72338D01*
X21297Y-72137D01*
X20984Y-71915D01*
X20691Y-71672D01*
X20418Y-71409D01*
X20163Y-71124D01*
X19929Y-70818D01*
X19713Y-70492D01*
X19518Y-70144D01*
X19343Y-69779D01*
X19192Y-69398D01*
X19064Y-69003D01*
X18959Y-68593D01*
X18878Y-68168D01*
X18820Y-67727D01*
X18785Y-67273D01*
X18773Y-66803D01*
X18780Y-66445D01*
X18800Y-66099D01*
X18833Y-65762D01*
X18880Y-65436D01*
X18939Y-65120D01*
X19013Y-64815D01*
X19099Y-64520D01*
X19199Y-64235D01*
X19312Y-63961D01*
X19439Y-63697D01*
X19578Y-63444D01*
X19731Y-63200D01*
X19898Y-62968D01*
X20077Y-62745D01*
X20270Y-62533D01*
X20477Y-62331D01*
X20695Y-62141D01*
X20925Y-61963D01*
X21166Y-61797D01*
X21418Y-61644D01*
X21681Y-61502D01*
X21956Y-61373D01*
X22241Y-61257D01*
X22538Y-61152D01*
X22846Y-61060D01*
X23165Y-60980D01*
X23496Y-60913D01*
X23837Y-60858D01*
X24190Y-60815D01*
X24554Y-60784D01*
X24929Y-60765D01*
X25316Y-60759D01*
X29397Y-60759D01*
X29397Y-73100D01*
G37*
%LPC*%
G36*
X27724Y-71760D02*
X27724Y-62099D01*
X25351Y-62099D01*
X24773Y-62118D01*
X24230Y-62175D01*
X23722Y-62269D01*
X23250Y-62400D01*
X22813Y-62570D01*
X22410Y-62777D01*
X22043Y-63021D01*
X21712Y-63304D01*
X21417Y-63622D01*
X21162Y-63974D01*
X20946Y-64360D01*
X20769Y-64781D01*
X20631Y-65235D01*
X20533Y-65723D01*
X20474Y-66246D01*
X20455Y-66803D01*
X20463Y-67177D01*
X20489Y-67539D01*
X20532Y-67889D01*
X20593Y-68226D01*
X20670Y-68550D01*
X20765Y-68862D01*
X20877Y-69161D01*
X21007Y-69448D01*
X21152Y-69720D01*
X21312Y-69975D01*
X21488Y-70215D01*
X21678Y-70437D01*
X21883Y-70644D01*
X22103Y-70834D01*
X22338Y-71007D01*
X22587Y-71164D01*
X22850Y-71304D01*
X23123Y-71425D01*
X23405Y-71527D01*
X23699Y-71611D01*
X24002Y-71676D01*
X24316Y-71723D01*
X24640Y-71751D01*
X24974Y-71760D01*
X27724Y-71760D01*
G37*
%LPD*%
G36*
X-3478Y-73100D02*
X-8488Y-73100D01*
X-9007Y-73086D01*
X-9498Y-73043D01*
X-9959Y-72971D01*
X-10390Y-72871D01*
X-10793Y-72743D01*
X-11166Y-72585D01*
X-11510Y-72399D01*
X-11825Y-72185D01*
X-12106Y-71945D01*
X-12350Y-71681D01*
X-12556Y-71395D01*
X-12725Y-71087D01*
X-12856Y-70755D01*
X-12950Y-70400D01*
X-13006Y-70023D01*
X-13025Y-69623D01*
X-13012Y-69321D01*
X-12975Y-69032D01*
X-12913Y-68756D01*
X-12825Y-68494D01*
X-12713Y-68245D01*
X-12576Y-68009D01*
X-12414Y-67787D01*
X-12228Y-67578D01*
X-12115Y-67474D01*
X-12018Y-67385D01*
X-11787Y-67212D01*
X-11535Y-67059D01*
X-11262Y-66926D01*
X-10968Y-66813D01*
X-10653Y-66720D01*
X-10316Y-66646D01*
X-9959Y-66592D01*
X-10231Y-66521D01*
X-10488Y-66435D01*
X-10729Y-66333D01*
X-10953Y-66216D01*
X-11162Y-66083D01*
X-11355Y-65936D01*
X-11433Y-65864D01*
X-11532Y-65772D01*
X-11693Y-65594D01*
X-11837Y-65402D01*
X-11962Y-65200D01*
X-12067Y-64986D01*
X-12153Y-64762D01*
X-12220Y-64527D01*
X-12268Y-64280D01*
X-12297Y-64023D01*
X-12306Y-63755D01*
X-12289Y-63392D01*
X-12239Y-63053D01*
X-12154Y-62737D01*
X-12035Y-62444D01*
X-11882Y-62175D01*
X-11696Y-61929D01*
X-11475Y-61707D01*
X-11220Y-61508D01*
X-10932Y-61333D01*
X-10609Y-61180D01*
X-10253Y-61052D01*
X-9863Y-60946D01*
X-9439Y-60865D01*
X-8980Y-60806D01*
X-8488Y-60771D01*
X-7962Y-60759D01*
X-3478Y-60759D01*
X-3478Y-73100D01*
G37*
%LPC*%
G36*
X-5151Y-71760D02*
X-5151Y-67311D01*
X-8269Y-67311D01*
X-8640Y-67319D01*
X-8987Y-67345D01*
X-9311Y-67387D01*
X-9610Y-67447D01*
X-9885Y-67524D01*
X-10137Y-67617D01*
X-10364Y-67728D01*
X-10568Y-67856D01*
X-10747Y-68001D01*
X-10903Y-68163D01*
X-11035Y-68341D01*
X-11143Y-68537D01*
X-11226Y-68750D01*
X-11286Y-68980D01*
X-11322Y-69227D01*
X-11334Y-69492D01*
X-11323Y-69765D01*
X-11290Y-70021D01*
X-11236Y-70260D01*
X-11159Y-70481D01*
X-11061Y-70685D01*
X-10940Y-70871D01*
X-10798Y-71040D01*
X-10634Y-71191D01*
X-10445Y-71324D01*
X-10231Y-71440D01*
X-9991Y-71538D01*
X-9725Y-71618D01*
X-9433Y-71680D01*
X-9114Y-71724D01*
X-8770Y-71751D01*
X-8400Y-71760D01*
X-5151Y-71760D01*
G37*
G36*
X-5151Y-66006D02*
X-5151Y-62099D01*
X-7962Y-62099D01*
X-8277Y-62106D01*
X-8572Y-62126D01*
X-8848Y-62160D01*
X-9105Y-62207D01*
X-9343Y-62267D01*
X-9562Y-62341D01*
X-9761Y-62428D01*
X-9942Y-62528D01*
X-10102Y-62645D01*
X-10241Y-62779D01*
X-10358Y-62930D01*
X-10454Y-63100D01*
X-10529Y-63287D01*
X-10582Y-63492D01*
X-10614Y-63715D01*
X-10625Y-63956D01*
X-10614Y-64208D01*
X-10583Y-64444D01*
X-10532Y-64662D01*
X-10459Y-64864D01*
X-10366Y-65049D01*
X-10253Y-65217D01*
X-10118Y-65368D01*
X-9964Y-65502D01*
X-9788Y-65620D01*
X-9590Y-65722D01*
X-9372Y-65809D01*
X-9133Y-65880D01*
X-8872Y-65935D01*
X-8590Y-65974D01*
X-8287Y-65998D01*
X-7962Y-66006D01*
X-5151Y-66006D01*
G37*
%LPD*%
G36*
X2996Y-73275D02*
X2734Y-73269D01*
X2480Y-73250D01*
X2235Y-73218D01*
X1997Y-73173D01*
X1546Y-73046D01*
X1127Y-72868D01*
X741Y-72639D01*
X388Y-72359D01*
X66Y-72028D01*
X-222Y-71646D01*
X-478Y-71216D01*
X-700Y-70740D01*
X-887Y-70219D01*
X-1040Y-69651D01*
X-1160Y-69038D01*
X-1245Y-68380D01*
X-1296Y-67675D01*
X-1313Y-66925D01*
X-1297Y-66163D01*
X-1248Y-65449D01*
X-1167Y-64784D01*
X-1053Y-64166D01*
X-907Y-63597D01*
X-729Y-63076D01*
X-518Y-62603D01*
X-275Y-62178D01*
X2Y-61802D01*
X315Y-61477D01*
X664Y-61201D01*
X1049Y-60976D01*
X1469Y-60801D01*
X1692Y-60732D01*
X1925Y-60675D01*
X2166Y-60632D01*
X2416Y-60600D01*
X2676Y-60582D01*
X2944Y-60575D01*
X3219Y-60582D01*
X3485Y-60600D01*
X3742Y-60631D01*
X3990Y-60674D01*
X4228Y-60730D01*
X4456Y-60798D01*
X4885Y-60972D01*
X5276Y-61195D01*
X5630Y-61467D01*
X5946Y-61789D01*
X6224Y-62161D01*
X6467Y-62582D01*
X6678Y-63053D01*
X6856Y-63574D01*
X7002Y-64144D01*
X7116Y-64765D01*
X7197Y-65435D01*
X7246Y-66155D01*
X7262Y-66925D01*
X7245Y-67679D01*
X7195Y-68387D01*
X7111Y-69048D01*
X6995Y-69662D01*
X6844Y-70230D01*
X6661Y-70752D01*
X6444Y-71227D01*
X6193Y-71655D01*
X5909Y-72035D01*
X5593Y-72364D01*
X5243Y-72642D01*
X4860Y-72870D01*
X4444Y-73047D01*
X3994Y-73174D01*
X3757Y-73218D01*
X3512Y-73250D01*
X3258Y-73269D01*
X2996Y-73275D01*
G37*
%LPC*%
G36*
X2979Y-71988D02*
X3317Y-71969D01*
X3632Y-71912D01*
X3923Y-71816D01*
X4191Y-71683D01*
X4435Y-71512D01*
X4655Y-71303D01*
X4851Y-71056D01*
X5024Y-70770D01*
X5175Y-70444D01*
X5306Y-70073D01*
X5416Y-69659D01*
X5507Y-69200D01*
X5577Y-68698D01*
X5627Y-68151D01*
X5658Y-67560D01*
X5668Y-66925D01*
X5658Y-66272D01*
X5628Y-65667D01*
X5578Y-65110D01*
X5509Y-64600D01*
X5420Y-64138D01*
X5310Y-63723D01*
X5181Y-63356D01*
X5033Y-63036D01*
X4861Y-62759D01*
X4664Y-62519D01*
X4441Y-62316D01*
X4193Y-62150D01*
X3919Y-62020D01*
X3620Y-61928D01*
X3294Y-61873D01*
X2944Y-61854D01*
X2602Y-61873D01*
X2284Y-61929D01*
X1992Y-62023D01*
X1725Y-62154D01*
X1483Y-62323D01*
X1266Y-62529D01*
X1074Y-62773D01*
X907Y-63054D01*
X763Y-63377D01*
X637Y-63746D01*
X531Y-64161D01*
X444Y-64622D01*
X377Y-65129D01*
X329Y-65682D01*
X300Y-66280D01*
X290Y-66925D01*
X300Y-67548D01*
X330Y-68130D01*
X381Y-68669D01*
X452Y-69167D01*
X543Y-69624D01*
X654Y-70039D01*
X786Y-70412D01*
X938Y-70744D01*
X1112Y-71035D01*
X1309Y-71288D01*
X1529Y-71502D01*
X1772Y-71677D01*
X2039Y-71813D01*
X2329Y-71910D01*
X2642Y-71968D01*
X2979Y-71988D01*
G37*
%LPD*%
G36*
X16565Y-73100D02*
X8831Y-73100D01*
X8831Y-71760D01*
X11835Y-71760D01*
X11835Y-60759D01*
X13289Y-60759D01*
X16206Y-62765D01*
X16206Y-64254D01*
X13421Y-62266D01*
X13421Y-71760D01*
X16565Y-71760D01*
X16565Y-73100D01*
G37*
G36*
X29397Y-243100D02*
X24781Y-243100D01*
X24341Y-243088D01*
X23914Y-243052D01*
X23501Y-242993D01*
X23100Y-242910D01*
X22712Y-242802D01*
X22338Y-242671D01*
X21977Y-242517D01*
X21628Y-242338D01*
X21297Y-242137D01*
X20984Y-241915D01*
X20691Y-241672D01*
X20418Y-241409D01*
X20163Y-241124D01*
X19929Y-240818D01*
X19713Y-240492D01*
X19518Y-240144D01*
X19343Y-239779D01*
X19192Y-239398D01*
X19064Y-239003D01*
X18959Y-238593D01*
X18878Y-238168D01*
X18820Y-237727D01*
X18785Y-237273D01*
X18773Y-236803D01*
X18780Y-236445D01*
X18800Y-236099D01*
X18833Y-235762D01*
X18880Y-235436D01*
X18939Y-235120D01*
X19013Y-234815D01*
X19099Y-234520D01*
X19199Y-234235D01*
X19312Y-233961D01*
X19439Y-233697D01*
X19578Y-233444D01*
X19731Y-233200D01*
X19898Y-232968D01*
X20077Y-232745D01*
X20270Y-232533D01*
X20477Y-232331D01*
X20695Y-232141D01*
X20925Y-231963D01*
X21166Y-231797D01*
X21418Y-231644D01*
X21681Y-231502D01*
X21956Y-231373D01*
X22241Y-231257D01*
X22538Y-231152D01*
X22846Y-231060D01*
X23165Y-230980D01*
X23496Y-230913D01*
X23837Y-230858D01*
X24190Y-230815D01*
X24554Y-230784D01*
X24929Y-230765D01*
X25316Y-230759D01*
X29397Y-230759D01*
X29397Y-243100D01*
G37*
%LPC*%
G36*
X27724Y-241760D02*
X27724Y-232099D01*
X25351Y-232099D01*
X24773Y-232118D01*
X24230Y-232175D01*
X23722Y-232269D01*
X23250Y-232400D01*
X22813Y-232570D01*
X22410Y-232777D01*
X22043Y-233021D01*
X21712Y-233304D01*
X21417Y-233622D01*
X21162Y-233974D01*
X20946Y-234360D01*
X20769Y-234781D01*
X20631Y-235235D01*
X20533Y-235723D01*
X20474Y-236246D01*
X20455Y-236803D01*
X20463Y-237177D01*
X20489Y-237539D01*
X20532Y-237889D01*
X20593Y-238226D01*
X20670Y-238550D01*
X20765Y-238862D01*
X20877Y-239161D01*
X21007Y-239448D01*
X21152Y-239720D01*
X21312Y-239975D01*
X21488Y-240215D01*
X21678Y-240437D01*
X21883Y-240644D01*
X22103Y-240834D01*
X22338Y-241007D01*
X22587Y-241164D01*
X22850Y-241304D01*
X23123Y-241425D01*
X23405Y-241527D01*
X23699Y-241611D01*
X24002Y-241676D01*
X24316Y-241723D01*
X24640Y-241751D01*
X24974Y-241760D01*
X27724Y-241760D01*
G37*
%LPD*%
G36*
X-3478Y-243100D02*
X-8488Y-243100D01*
X-9007Y-243086D01*
X-9498Y-243043D01*
X-9959Y-242971D01*
X-10390Y-242871D01*
X-10793Y-242743D01*
X-11166Y-242585D01*
X-11510Y-242399D01*
X-11825Y-242185D01*
X-12106Y-241945D01*
X-12350Y-241681D01*
X-12556Y-241395D01*
X-12725Y-241087D01*
X-12856Y-240755D01*
X-12950Y-240400D01*
X-13006Y-240023D01*
X-13025Y-239623D01*
X-13012Y-239321D01*
X-12975Y-239032D01*
X-12913Y-238756D01*
X-12825Y-238494D01*
X-12713Y-238245D01*
X-12576Y-238009D01*
X-12414Y-237787D01*
X-12228Y-237578D01*
X-12115Y-237474D01*
X-12018Y-237385D01*
X-11787Y-237212D01*
X-11535Y-237059D01*
X-11262Y-236926D01*
X-10968Y-236813D01*
X-10653Y-236720D01*
X-10316Y-236646D01*
X-9959Y-236592D01*
X-10231Y-236521D01*
X-10488Y-236435D01*
X-10729Y-236333D01*
X-10953Y-236216D01*
X-11162Y-236083D01*
X-11355Y-235936D01*
X-11433Y-235864D01*
X-11532Y-235772D01*
X-11693Y-235594D01*
X-11837Y-235402D01*
X-11962Y-235200D01*
X-12067Y-234986D01*
X-12153Y-234762D01*
X-12220Y-234527D01*
X-12268Y-234280D01*
X-12297Y-234023D01*
X-12306Y-233755D01*
X-12289Y-233392D01*
X-12239Y-233053D01*
X-12154Y-232737D01*
X-12035Y-232444D01*
X-11882Y-232175D01*
X-11696Y-231929D01*
X-11475Y-231707D01*
X-11220Y-231508D01*
X-10932Y-231333D01*
X-10609Y-231180D01*
X-10253Y-231052D01*
X-9863Y-230946D01*
X-9439Y-230865D01*
X-8980Y-230806D01*
X-8488Y-230771D01*
X-7962Y-230759D01*
X-3478Y-230759D01*
X-3478Y-243100D01*
G37*
%LPC*%
G36*
X-5151Y-241760D02*
X-5151Y-237311D01*
X-8269Y-237311D01*
X-8640Y-237319D01*
X-8987Y-237345D01*
X-9311Y-237387D01*
X-9610Y-237447D01*
X-9885Y-237524D01*
X-10137Y-237617D01*
X-10364Y-237728D01*
X-10568Y-237856D01*
X-10747Y-238001D01*
X-10903Y-238163D01*
X-11035Y-238341D01*
X-11143Y-238537D01*
X-11226Y-238750D01*
X-11286Y-238980D01*
X-11322Y-239227D01*
X-11334Y-239492D01*
X-11323Y-239765D01*
X-11290Y-240021D01*
X-11236Y-240260D01*
X-11159Y-240481D01*
X-11061Y-240685D01*
X-10940Y-240871D01*
X-10798Y-241040D01*
X-10634Y-241191D01*
X-10445Y-241324D01*
X-10231Y-241440D01*
X-9991Y-241538D01*
X-9725Y-241618D01*
X-9433Y-241680D01*
X-9114Y-241724D01*
X-8770Y-241751D01*
X-8400Y-241760D01*
X-5151Y-241760D01*
G37*
G36*
X-5151Y-236006D02*
X-5151Y-232099D01*
X-7962Y-232099D01*
X-8277Y-232106D01*
X-8572Y-232126D01*
X-8848Y-232160D01*
X-9105Y-232207D01*
X-9343Y-232267D01*
X-9562Y-232341D01*
X-9761Y-232428D01*
X-9942Y-232528D01*
X-10102Y-232645D01*
X-10241Y-232779D01*
X-10358Y-232930D01*
X-10454Y-233100D01*
X-10529Y-233287D01*
X-10582Y-233492D01*
X-10614Y-233715D01*
X-10625Y-233956D01*
X-10614Y-234208D01*
X-10583Y-234444D01*
X-10532Y-234662D01*
X-10459Y-234864D01*
X-10366Y-235049D01*
X-10253Y-235217D01*
X-10118Y-235368D01*
X-9964Y-235502D01*
X-9788Y-235620D01*
X-9590Y-235722D01*
X-9372Y-235809D01*
X-9133Y-235880D01*
X-8872Y-235935D01*
X-8590Y-235974D01*
X-8287Y-235998D01*
X-7962Y-236006D01*
X-5151Y-236006D01*
G37*
%LPD*%
G36*
X2760Y-243275D02*
X2306Y-243258D01*
X1877Y-243205D01*
X1474Y-243116D01*
X1096Y-242993D01*
X743Y-242834D01*
X415Y-242640D01*
X112Y-242410D01*
X-166Y-242145D01*
X-414Y-241850D01*
X-629Y-241529D01*
X-811Y-241182D01*
X-960Y-240810D01*
X-1076Y-240411D01*
X-1159Y-239987D01*
X-1209Y-239538D01*
X-1225Y-239062D01*
X-1210Y-238623D01*
X-1163Y-238206D01*
X-1084Y-237813D01*
X-975Y-237442D01*
X-834Y-237094D01*
X-661Y-236770D01*
X-458Y-236468D01*
X-222Y-236190D01*
X39Y-235939D01*
X323Y-235722D01*
X629Y-235538D01*
X957Y-235388D01*
X1307Y-235271D01*
X1678Y-235188D01*
X2072Y-235138D01*
X2488Y-235121D01*
X2737Y-235127D01*
X2978Y-235147D01*
X3212Y-235180D01*
X3439Y-235225D01*
X3871Y-235355D01*
X4275Y-235537D01*
X4643Y-235769D01*
X4967Y-236048D01*
X5247Y-236375D01*
X5484Y-236750D01*
X5472Y-236172D01*
X5437Y-235629D01*
X5380Y-235122D01*
X5299Y-234649D01*
X5195Y-234212D01*
X5067Y-233810D01*
X4917Y-233443D01*
X4744Y-233111D01*
X4549Y-232816D01*
X4336Y-232561D01*
X4103Y-232345D01*
X3851Y-232168D01*
X3581Y-232031D01*
X3291Y-231933D01*
X2982Y-231874D01*
X2655Y-231854D01*
X2280Y-231878D01*
X1940Y-231948D01*
X1634Y-232066D01*
X1363Y-232231D01*
X1126Y-232443D01*
X924Y-232701D01*
X756Y-233007D01*
X623Y-233361D01*
X-884Y-233089D01*
X-785Y-232785D01*
X-670Y-232500D01*
X-538Y-232235D01*
X-391Y-231989D01*
X-228Y-231763D01*
X-48Y-231557D01*
X148Y-231371D01*
X360Y-231204D01*
X588Y-231056D01*
X832Y-230929D01*
X1093Y-230821D01*
X1369Y-230732D01*
X1662Y-230664D01*
X1971Y-230615D01*
X2296Y-230585D01*
X2637Y-230575D01*
X2898Y-230582D01*
X3152Y-230602D01*
X3398Y-230636D01*
X3636Y-230683D01*
X3867Y-230743D01*
X4090Y-230817D01*
X4514Y-231004D01*
X4907Y-231246D01*
X5270Y-231541D01*
X5602Y-231890D01*
X5904Y-232292D01*
X6173Y-232744D01*
X6406Y-233243D01*
X6603Y-233789D01*
X6765Y-234381D01*
X6890Y-235019D01*
X6980Y-235705D01*
X7034Y-236436D01*
X7052Y-237214D01*
X7034Y-237932D01*
X6983Y-238606D01*
X6896Y-239236D01*
X6776Y-239822D01*
X6620Y-240364D01*
X6431Y-240862D01*
X6207Y-241315D01*
X5948Y-241725D01*
X5657Y-242088D01*
X5335Y-242403D01*
X4982Y-242670D01*
X4599Y-242888D01*
X4185Y-243057D01*
X3741Y-243178D01*
X3266Y-243251D01*
X3017Y-243269D01*
X2760Y-243275D01*
G37*
%LPC*%
G36*
X2812Y-242005D02*
X3082Y-241991D01*
X3339Y-241948D01*
X3584Y-241877D01*
X3816Y-241777D01*
X4036Y-241649D01*
X4244Y-241493D01*
X4439Y-241308D01*
X4621Y-241094D01*
X4786Y-240859D01*
X4929Y-240607D01*
X5051Y-240338D01*
X5150Y-240054D01*
X5227Y-239754D01*
X5282Y-239437D01*
X5315Y-239105D01*
X5326Y-238756D01*
X5315Y-238481D01*
X5284Y-238221D01*
X5231Y-237977D01*
X5156Y-237747D01*
X5061Y-237533D01*
X4944Y-237334D01*
X4806Y-237151D01*
X4647Y-236982D01*
X4471Y-236831D01*
X4281Y-236701D01*
X4078Y-236590D01*
X3862Y-236499D01*
X3633Y-236429D01*
X3390Y-236379D01*
X3134Y-236348D01*
X2865Y-236338D01*
X2580Y-236350D01*
X2310Y-236384D01*
X2057Y-236441D01*
X1820Y-236520D01*
X1600Y-236622D01*
X1395Y-236747D01*
X1207Y-236895D01*
X1034Y-237065D01*
X880Y-237257D01*
X747Y-237467D01*
X634Y-237697D01*
X542Y-237946D01*
X470Y-238214D01*
X419Y-238501D01*
X388Y-238807D01*
X378Y-239132D01*
X388Y-239458D01*
X418Y-239767D01*
X469Y-240057D01*
X540Y-240329D01*
X631Y-240583D01*
X742Y-240820D01*
X874Y-241038D01*
X1026Y-241239D01*
X1195Y-241418D01*
X1380Y-241574D01*
X1581Y-241706D01*
X1796Y-241814D01*
X2027Y-241897D01*
X2274Y-241957D01*
X2535Y-241993D01*
X2812Y-242005D01*
G37*
%LPD*%
G36*
X16565Y-243100D02*
X8831Y-243100D01*
X8831Y-241760D01*
X11835Y-241760D01*
X11835Y-230759D01*
X13289Y-230759D01*
X16206Y-232765D01*
X16206Y-234254D01*
X13421Y-232266D01*
X13421Y-241760D01*
X16565Y-241760D01*
X16565Y-243100D01*
G37*
G36*
X-151934Y-173100D02*
X-156550Y-173100D01*
X-156990Y-173088D01*
X-157417Y-173052D01*
X-157831Y-172993D01*
X-158231Y-172910D01*
X-158619Y-172802D01*
X-158993Y-172671D01*
X-159355Y-172517D01*
X-159703Y-172338D01*
X-160035Y-172137D01*
X-160347Y-171915D01*
X-160640Y-171672D01*
X-160914Y-171409D01*
X-161168Y-171124D01*
X-161402Y-170818D01*
X-161618Y-170492D01*
X-161813Y-170144D01*
X-161988Y-169779D01*
X-162139Y-169398D01*
X-162267Y-169003D01*
X-162372Y-168593D01*
X-162453Y-168168D01*
X-162511Y-167727D01*
X-162546Y-167273D01*
X-162558Y-166803D01*
X-162551Y-166445D01*
X-162531Y-166099D01*
X-162498Y-165762D01*
X-162451Y-165436D01*
X-162392Y-165120D01*
X-162318Y-164815D01*
X-162232Y-164520D01*
X-162132Y-164235D01*
X-162019Y-163961D01*
X-161893Y-163697D01*
X-161753Y-163444D01*
X-161600Y-163200D01*
X-161433Y-162968D01*
X-161254Y-162745D01*
X-161061Y-162533D01*
X-160854Y-162331D01*
X-160636Y-162141D01*
X-160406Y-161963D01*
X-160165Y-161797D01*
X-159913Y-161644D01*
X-159650Y-161502D01*
X-159375Y-161373D01*
X-159090Y-161257D01*
X-158793Y-161152D01*
X-158485Y-161060D01*
X-158166Y-160980D01*
X-157835Y-160913D01*
X-157494Y-160858D01*
X-157141Y-160815D01*
X-156777Y-160784D01*
X-156402Y-160765D01*
X-156015Y-160759D01*
X-151934Y-160759D01*
X-151934Y-173100D01*
G37*
%LPC*%
G36*
X-153607Y-171760D02*
X-153607Y-162099D01*
X-155980Y-162099D01*
X-156558Y-162118D01*
X-157101Y-162175D01*
X-157609Y-162269D01*
X-158081Y-162400D01*
X-158519Y-162570D01*
X-158921Y-162777D01*
X-159288Y-163021D01*
X-159619Y-163304D01*
X-159914Y-163622D01*
X-160169Y-163974D01*
X-160385Y-164360D01*
X-160562Y-164781D01*
X-160700Y-165235D01*
X-160798Y-165723D01*
X-160857Y-166246D01*
X-160876Y-166803D01*
X-160868Y-167177D01*
X-160842Y-167539D01*
X-160799Y-167889D01*
X-160738Y-168226D01*
X-160661Y-168550D01*
X-160566Y-168862D01*
X-160454Y-169161D01*
X-160325Y-169448D01*
X-160179Y-169720D01*
X-160019Y-169975D01*
X-159844Y-170215D01*
X-159653Y-170437D01*
X-159448Y-170644D01*
X-159228Y-170834D01*
X-158993Y-171007D01*
X-158744Y-171164D01*
X-158481Y-171304D01*
X-158209Y-171425D01*
X-157926Y-171527D01*
X-157632Y-171611D01*
X-157329Y-171676D01*
X-157015Y-171723D01*
X-156691Y-171751D01*
X-156357Y-171760D01*
X-153607Y-171760D01*
G37*
%LPD*%
G36*
X-183496Y-173100D02*
X-188506Y-173100D01*
X-189026Y-173086D01*
X-189516Y-173043D01*
X-189977Y-172971D01*
X-190409Y-172871D01*
X-190812Y-172743D01*
X-191185Y-172585D01*
X-191529Y-172399D01*
X-191843Y-172185D01*
X-192124Y-171945D01*
X-192368Y-171681D01*
X-192574Y-171395D01*
X-192743Y-171087D01*
X-192874Y-170755D01*
X-192968Y-170400D01*
X-193024Y-170023D01*
X-193043Y-169623D01*
X-193031Y-169321D01*
X-192993Y-169032D01*
X-192931Y-168756D01*
X-192844Y-168494D01*
X-192732Y-168245D01*
X-192595Y-168009D01*
X-192433Y-167787D01*
X-192246Y-167578D01*
X-192133Y-167474D01*
X-192036Y-167385D01*
X-191805Y-167212D01*
X-191554Y-167059D01*
X-191280Y-166926D01*
X-190986Y-166813D01*
X-190671Y-166720D01*
X-190335Y-166646D01*
X-189978Y-166592D01*
X-190250Y-166521D01*
X-190506Y-166435D01*
X-190747Y-166333D01*
X-190972Y-166216D01*
X-191181Y-166083D01*
X-191374Y-165936D01*
X-191451Y-165864D01*
X-191551Y-165772D01*
X-191712Y-165594D01*
X-191856Y-165402D01*
X-191980Y-165200D01*
X-192085Y-164986D01*
X-192172Y-164762D01*
X-192239Y-164527D01*
X-192287Y-164280D01*
X-192315Y-164023D01*
X-192325Y-163755D01*
X-192308Y-163392D01*
X-192257Y-163053D01*
X-192172Y-162737D01*
X-192053Y-162444D01*
X-191901Y-162175D01*
X-191714Y-161929D01*
X-191493Y-161707D01*
X-191239Y-161508D01*
X-190950Y-161333D01*
X-190628Y-161180D01*
X-190272Y-161052D01*
X-189881Y-160946D01*
X-189457Y-160865D01*
X-188999Y-160806D01*
X-188507Y-160771D01*
X-187981Y-160759D01*
X-183496Y-160759D01*
X-183496Y-173100D01*
G37*
%LPC*%
G36*
X-185169Y-171760D02*
X-185169Y-167311D01*
X-188287Y-167311D01*
X-188658Y-167319D01*
X-189006Y-167345D01*
X-189329Y-167387D01*
X-189628Y-167447D01*
X-189904Y-167524D01*
X-190155Y-167617D01*
X-190383Y-167728D01*
X-190586Y-167856D01*
X-190766Y-168001D01*
X-190922Y-168163D01*
X-191053Y-168341D01*
X-191161Y-168537D01*
X-191245Y-168750D01*
X-191305Y-168980D01*
X-191341Y-169227D01*
X-191353Y-169492D01*
X-191342Y-169765D01*
X-191309Y-170021D01*
X-191254Y-170260D01*
X-191178Y-170481D01*
X-191079Y-170685D01*
X-190959Y-170871D01*
X-190816Y-171040D01*
X-190652Y-171191D01*
X-190464Y-171324D01*
X-190250Y-171440D01*
X-190010Y-171538D01*
X-189743Y-171618D01*
X-189451Y-171680D01*
X-189133Y-171724D01*
X-188789Y-171751D01*
X-188419Y-171760D01*
X-185169Y-171760D01*
G37*
G36*
X-185169Y-166006D02*
X-185169Y-162099D01*
X-187981Y-162099D01*
X-188295Y-162106D01*
X-188591Y-162126D01*
X-188867Y-162160D01*
X-189124Y-162207D01*
X-189362Y-162267D01*
X-189580Y-162341D01*
X-189780Y-162428D01*
X-189960Y-162528D01*
X-190120Y-162645D01*
X-190259Y-162779D01*
X-190376Y-162930D01*
X-190473Y-163100D01*
X-190547Y-163287D01*
X-190601Y-163492D01*
X-190633Y-163715D01*
X-190643Y-163956D01*
X-190633Y-164208D01*
X-190602Y-164444D01*
X-190550Y-164662D01*
X-190478Y-164864D01*
X-190385Y-165049D01*
X-190271Y-165217D01*
X-190137Y-165368D01*
X-189982Y-165502D01*
X-189806Y-165620D01*
X-189609Y-165722D01*
X-189391Y-165809D01*
X-189151Y-165880D01*
X-188890Y-165935D01*
X-188608Y-165974D01*
X-188305Y-165998D01*
X-187981Y-166006D01*
X-185169Y-166006D01*
G37*
%LPD*%
G36*
X-173422Y-173100D02*
X-181156Y-173100D01*
X-181156Y-171760D01*
X-178152Y-171760D01*
X-178152Y-160759D01*
X-176698Y-160759D01*
X-173782Y-162765D01*
X-173782Y-164254D01*
X-176567Y-162266D01*
X-176567Y-171760D01*
X-173422Y-171760D01*
X-173422Y-173100D01*
G37*
G36*
X-164766Y-173100D02*
X-172500Y-173100D01*
X-172500Y-171760D01*
X-169496Y-171760D01*
X-169496Y-160759D01*
X-168042Y-160759D01*
X-165125Y-162765D01*
X-165125Y-164254D01*
X-167911Y-162266D01*
X-167911Y-171760D01*
X-164766Y-171760D01*
X-164766Y-173100D01*
G37*
G36*
X-150603Y-343100D02*
X-155219Y-343100D01*
X-155659Y-343088D01*
X-156086Y-343052D01*
X-156500Y-342993D01*
X-156900Y-342910D01*
X-157288Y-342802D01*
X-157662Y-342671D01*
X-158023Y-342517D01*
X-158372Y-342338D01*
X-158704Y-342137D01*
X-159016Y-341915D01*
X-159309Y-341672D01*
X-159583Y-341409D01*
X-159837Y-341124D01*
X-160071Y-340818D01*
X-160287Y-340492D01*
X-160482Y-340144D01*
X-160657Y-339779D01*
X-160808Y-339398D01*
X-160936Y-339003D01*
X-161041Y-338593D01*
X-161122Y-338168D01*
X-161180Y-337727D01*
X-161215Y-337273D01*
X-161227Y-336803D01*
X-161220Y-336445D01*
X-161200Y-336099D01*
X-161167Y-335762D01*
X-161120Y-335436D01*
X-161061Y-335120D01*
X-160987Y-334815D01*
X-160901Y-334520D01*
X-160801Y-334235D01*
X-160688Y-333961D01*
X-160561Y-333697D01*
X-160422Y-333444D01*
X-160269Y-333200D01*
X-160102Y-332968D01*
X-159923Y-332745D01*
X-159730Y-332533D01*
X-159523Y-332331D01*
X-159305Y-332141D01*
X-159075Y-331963D01*
X-158834Y-331797D01*
X-158582Y-331644D01*
X-158319Y-331502D01*
X-158044Y-331373D01*
X-157759Y-331257D01*
X-157462Y-331152D01*
X-157154Y-331060D01*
X-156835Y-330980D01*
X-156504Y-330913D01*
X-156163Y-330858D01*
X-155810Y-330815D01*
X-155446Y-330784D01*
X-155071Y-330765D01*
X-154684Y-330759D01*
X-150603Y-330759D01*
X-150603Y-343100D01*
G37*
%LPC*%
G36*
X-152276Y-341760D02*
X-152276Y-332099D01*
X-154649Y-332099D01*
X-155227Y-332118D01*
X-155770Y-332175D01*
X-156278Y-332269D01*
X-156750Y-332400D01*
X-157188Y-332570D01*
X-157590Y-332777D01*
X-157957Y-333021D01*
X-158288Y-333304D01*
X-158583Y-333622D01*
X-158838Y-333974D01*
X-159054Y-334360D01*
X-159231Y-334781D01*
X-159369Y-335235D01*
X-159467Y-335723D01*
X-159526Y-336246D01*
X-159545Y-336803D01*
X-159537Y-337177D01*
X-159511Y-337539D01*
X-159468Y-337889D01*
X-159407Y-338226D01*
X-159330Y-338550D01*
X-159235Y-338862D01*
X-159123Y-339161D01*
X-158993Y-339448D01*
X-158848Y-339720D01*
X-158688Y-339975D01*
X-158513Y-340215D01*
X-158322Y-340437D01*
X-158117Y-340644D01*
X-157897Y-340834D01*
X-157662Y-341007D01*
X-157413Y-341164D01*
X-157150Y-341304D01*
X-156877Y-341425D01*
X-156595Y-341527D01*
X-156301Y-341611D01*
X-155998Y-341676D01*
X-155684Y-341723D01*
X-155360Y-341751D01*
X-155026Y-341760D01*
X-152276Y-341760D01*
G37*
%LPD*%
G36*
X-183478Y-343100D02*
X-188488Y-343100D01*
X-189007Y-343086D01*
X-189498Y-343043D01*
X-189959Y-342971D01*
X-190390Y-342871D01*
X-190793Y-342743D01*
X-191166Y-342585D01*
X-191510Y-342399D01*
X-191825Y-342185D01*
X-192106Y-341945D01*
X-192350Y-341681D01*
X-192556Y-341395D01*
X-192725Y-341087D01*
X-192856Y-340755D01*
X-192950Y-340400D01*
X-193006Y-340023D01*
X-193025Y-339623D01*
X-193012Y-339321D01*
X-192975Y-339032D01*
X-192913Y-338756D01*
X-192825Y-338494D01*
X-192713Y-338245D01*
X-192576Y-338009D01*
X-192414Y-337787D01*
X-192228Y-337578D01*
X-192115Y-337474D01*
X-192018Y-337385D01*
X-191787Y-337212D01*
X-191535Y-337059D01*
X-191262Y-336926D01*
X-190968Y-336813D01*
X-190653Y-336720D01*
X-190316Y-336646D01*
X-189959Y-336592D01*
X-190231Y-336521D01*
X-190488Y-336435D01*
X-190729Y-336333D01*
X-190953Y-336216D01*
X-191162Y-336083D01*
X-191355Y-335936D01*
X-191433Y-335864D01*
X-191532Y-335772D01*
X-191693Y-335594D01*
X-191837Y-335402D01*
X-191962Y-335200D01*
X-192067Y-334986D01*
X-192153Y-334762D01*
X-192220Y-334527D01*
X-192268Y-334280D01*
X-192297Y-334023D01*
X-192306Y-333755D01*
X-192289Y-333392D01*
X-192239Y-333053D01*
X-192154Y-332737D01*
X-192035Y-332444D01*
X-191882Y-332175D01*
X-191696Y-331929D01*
X-191475Y-331707D01*
X-191220Y-331508D01*
X-190932Y-331333D01*
X-190609Y-331180D01*
X-190253Y-331052D01*
X-189863Y-330946D01*
X-189439Y-330865D01*
X-188980Y-330806D01*
X-188488Y-330771D01*
X-187962Y-330759D01*
X-183478Y-330759D01*
X-183478Y-343100D01*
G37*
%LPC*%
G36*
X-185151Y-341760D02*
X-185151Y-337311D01*
X-188269Y-337311D01*
X-188640Y-337319D01*
X-188987Y-337345D01*
X-189311Y-337387D01*
X-189610Y-337447D01*
X-189885Y-337524D01*
X-190137Y-337617D01*
X-190364Y-337728D01*
X-190568Y-337856D01*
X-190747Y-338001D01*
X-190903Y-338163D01*
X-191035Y-338341D01*
X-191143Y-338537D01*
X-191226Y-338750D01*
X-191286Y-338980D01*
X-191322Y-339227D01*
X-191334Y-339492D01*
X-191323Y-339765D01*
X-191290Y-340021D01*
X-191236Y-340260D01*
X-191159Y-340481D01*
X-191061Y-340685D01*
X-190940Y-340871D01*
X-190798Y-341040D01*
X-190634Y-341191D01*
X-190445Y-341324D01*
X-190231Y-341440D01*
X-189991Y-341538D01*
X-189725Y-341618D01*
X-189433Y-341680D01*
X-189114Y-341724D01*
X-188770Y-341751D01*
X-188400Y-341760D01*
X-185151Y-341760D01*
G37*
G36*
X-185151Y-336006D02*
X-185151Y-332099D01*
X-187962Y-332099D01*
X-188277Y-332106D01*
X-188572Y-332126D01*
X-188848Y-332160D01*
X-189105Y-332207D01*
X-189343Y-332267D01*
X-189562Y-332341D01*
X-189761Y-332428D01*
X-189942Y-332528D01*
X-190102Y-332645D01*
X-190241Y-332779D01*
X-190358Y-332930D01*
X-190454Y-333100D01*
X-190529Y-333287D01*
X-190582Y-333492D01*
X-190614Y-333715D01*
X-190625Y-333956D01*
X-190614Y-334208D01*
X-190583Y-334444D01*
X-190532Y-334662D01*
X-190459Y-334864D01*
X-190366Y-335049D01*
X-190253Y-335217D01*
X-190118Y-335368D01*
X-189964Y-335502D01*
X-189788Y-335620D01*
X-189590Y-335722D01*
X-189372Y-335809D01*
X-189133Y-335880D01*
X-188872Y-335935D01*
X-188590Y-335974D01*
X-188287Y-335998D01*
X-187962Y-336006D01*
X-185151Y-336006D01*
G37*
%LPD*%
G36*
X-163435Y-343100D02*
X-171169Y-343100D01*
X-171169Y-341760D01*
X-168165Y-341760D01*
X-168165Y-330759D01*
X-166711Y-330759D01*
X-163794Y-332765D01*
X-163794Y-334254D01*
X-166580Y-332266D01*
X-166580Y-341760D01*
X-163435Y-341760D01*
X-163435Y-343100D01*
G37*
G36*
X-175234Y-343100D02*
X-176881Y-343100D01*
X-176887Y-342675D01*
X-176905Y-342253D01*
X-176979Y-341421D01*
X-177100Y-340602D01*
X-177271Y-339798D01*
X-177490Y-338998D01*
X-177758Y-338193D01*
X-178075Y-337382D01*
X-178440Y-336566D01*
X-178899Y-335669D01*
X-179498Y-334615D01*
X-180235Y-333405D01*
X-181111Y-332038D01*
X-181111Y-330759D01*
X-172957Y-330759D01*
X-172957Y-332099D01*
X-179587Y-332099D01*
X-179022Y-332939D01*
X-178498Y-333753D01*
X-178016Y-334543D01*
X-177576Y-335308D01*
X-177179Y-336049D01*
X-176823Y-336764D01*
X-176509Y-337455D01*
X-176237Y-338121D01*
X-176002Y-338771D01*
X-175799Y-339412D01*
X-175626Y-340047D01*
X-175485Y-340673D01*
X-175376Y-341291D01*
X-175297Y-341902D01*
X-175250Y-342505D01*
X-175234Y-343100D01*
G37*
G36*
X-330603Y-173100D02*
X-335219Y-173100D01*
X-335659Y-173088D01*
X-336086Y-173052D01*
X-336500Y-172993D01*
X-336900Y-172910D01*
X-337288Y-172802D01*
X-337662Y-172671D01*
X-338023Y-172517D01*
X-338372Y-172338D01*
X-338704Y-172137D01*
X-339016Y-171915D01*
X-339309Y-171672D01*
X-339583Y-171409D01*
X-339837Y-171124D01*
X-340071Y-170818D01*
X-340287Y-170492D01*
X-340482Y-170144D01*
X-340657Y-169779D01*
X-340808Y-169398D01*
X-340936Y-169003D01*
X-341041Y-168593D01*
X-341122Y-168168D01*
X-341180Y-167727D01*
X-341215Y-167273D01*
X-341227Y-166803D01*
X-341220Y-166445D01*
X-341200Y-166099D01*
X-341167Y-165762D01*
X-341120Y-165436D01*
X-341061Y-165120D01*
X-340987Y-164815D01*
X-340901Y-164520D01*
X-340801Y-164235D01*
X-340688Y-163961D01*
X-340561Y-163697D01*
X-340422Y-163444D01*
X-340269Y-163200D01*
X-340102Y-162968D01*
X-339923Y-162745D01*
X-339730Y-162533D01*
X-339523Y-162331D01*
X-339305Y-162141D01*
X-339075Y-161963D01*
X-338834Y-161797D01*
X-338582Y-161644D01*
X-338319Y-161502D01*
X-338044Y-161373D01*
X-337759Y-161257D01*
X-337462Y-161152D01*
X-337154Y-161060D01*
X-336835Y-160980D01*
X-336504Y-160913D01*
X-336163Y-160858D01*
X-335810Y-160815D01*
X-335446Y-160784D01*
X-335071Y-160765D01*
X-334684Y-160759D01*
X-330603Y-160759D01*
X-330603Y-173100D01*
G37*
%LPC*%
G36*
X-332276Y-171760D02*
X-332276Y-162099D01*
X-334649Y-162099D01*
X-335227Y-162118D01*
X-335770Y-162175D01*
X-336278Y-162269D01*
X-336750Y-162400D01*
X-337188Y-162570D01*
X-337590Y-162777D01*
X-337957Y-163021D01*
X-338288Y-163304D01*
X-338583Y-163622D01*
X-338838Y-163974D01*
X-339054Y-164360D01*
X-339231Y-164781D01*
X-339369Y-165235D01*
X-339467Y-165723D01*
X-339526Y-166246D01*
X-339545Y-166803D01*
X-339537Y-167177D01*
X-339511Y-167539D01*
X-339468Y-167889D01*
X-339407Y-168226D01*
X-339330Y-168550D01*
X-339235Y-168862D01*
X-339123Y-169161D01*
X-338993Y-169448D01*
X-338848Y-169720D01*
X-338688Y-169975D01*
X-338513Y-170215D01*
X-338322Y-170437D01*
X-338117Y-170644D01*
X-337897Y-170834D01*
X-337662Y-171007D01*
X-337413Y-171164D01*
X-337150Y-171304D01*
X-336877Y-171425D01*
X-336595Y-171527D01*
X-336301Y-171611D01*
X-335998Y-171676D01*
X-335684Y-171723D01*
X-335360Y-171751D01*
X-335026Y-171760D01*
X-332276Y-171760D01*
G37*
%LPD*%
G36*
X-363478Y-173100D02*
X-368488Y-173100D01*
X-369007Y-173086D01*
X-369498Y-173043D01*
X-369959Y-172971D01*
X-370390Y-172871D01*
X-370793Y-172743D01*
X-371166Y-172585D01*
X-371510Y-172399D01*
X-371825Y-172185D01*
X-372106Y-171945D01*
X-372350Y-171681D01*
X-372556Y-171395D01*
X-372725Y-171087D01*
X-372856Y-170755D01*
X-372950Y-170400D01*
X-373006Y-170023D01*
X-373025Y-169623D01*
X-373012Y-169321D01*
X-372975Y-169032D01*
X-372913Y-168756D01*
X-372825Y-168494D01*
X-372713Y-168245D01*
X-372576Y-168009D01*
X-372414Y-167787D01*
X-372228Y-167578D01*
X-372115Y-167474D01*
X-372018Y-167385D01*
X-371787Y-167212D01*
X-371535Y-167059D01*
X-371262Y-166926D01*
X-370968Y-166813D01*
X-370653Y-166720D01*
X-370316Y-166646D01*
X-369959Y-166592D01*
X-370231Y-166521D01*
X-370488Y-166435D01*
X-370729Y-166333D01*
X-370953Y-166216D01*
X-371162Y-166083D01*
X-371355Y-165936D01*
X-371433Y-165864D01*
X-371532Y-165772D01*
X-371693Y-165594D01*
X-371837Y-165402D01*
X-371962Y-165200D01*
X-372067Y-164986D01*
X-372153Y-164762D01*
X-372220Y-164527D01*
X-372268Y-164280D01*
X-372297Y-164023D01*
X-372306Y-163755D01*
X-372289Y-163392D01*
X-372239Y-163053D01*
X-372154Y-162737D01*
X-372035Y-162444D01*
X-371882Y-162175D01*
X-371696Y-161929D01*
X-371475Y-161707D01*
X-371220Y-161508D01*
X-370932Y-161333D01*
X-370609Y-161180D01*
X-370253Y-161052D01*
X-369863Y-160946D01*
X-369439Y-160865D01*
X-368980Y-160806D01*
X-368488Y-160771D01*
X-367962Y-160759D01*
X-363478Y-160759D01*
X-363478Y-173100D01*
G37*
%LPC*%
G36*
X-365151Y-171760D02*
X-365151Y-167311D01*
X-368269Y-167311D01*
X-368640Y-167319D01*
X-368987Y-167345D01*
X-369311Y-167387D01*
X-369610Y-167447D01*
X-369885Y-167524D01*
X-370137Y-167617D01*
X-370364Y-167728D01*
X-370568Y-167856D01*
X-370747Y-168001D01*
X-370903Y-168163D01*
X-371035Y-168341D01*
X-371143Y-168537D01*
X-371226Y-168750D01*
X-371286Y-168980D01*
X-371322Y-169227D01*
X-371334Y-169492D01*
X-371323Y-169765D01*
X-371290Y-170021D01*
X-371236Y-170260D01*
X-371159Y-170481D01*
X-371061Y-170685D01*
X-370940Y-170871D01*
X-370798Y-171040D01*
X-370634Y-171191D01*
X-370445Y-171324D01*
X-370231Y-171440D01*
X-369991Y-171538D01*
X-369725Y-171618D01*
X-369433Y-171680D01*
X-369114Y-171724D01*
X-368770Y-171751D01*
X-368400Y-171760D01*
X-365151Y-171760D01*
G37*
G36*
X-365151Y-166006D02*
X-365151Y-162099D01*
X-367962Y-162099D01*
X-368277Y-162106D01*
X-368572Y-162126D01*
X-368848Y-162160D01*
X-369105Y-162207D01*
X-369343Y-162267D01*
X-369562Y-162341D01*
X-369761Y-162428D01*
X-369942Y-162528D01*
X-370102Y-162645D01*
X-370241Y-162779D01*
X-370358Y-162930D01*
X-370454Y-163100D01*
X-370529Y-163287D01*
X-370582Y-163492D01*
X-370614Y-163715D01*
X-370625Y-163956D01*
X-370614Y-164208D01*
X-370583Y-164444D01*
X-370532Y-164662D01*
X-370459Y-164864D01*
X-370366Y-165049D01*
X-370253Y-165217D01*
X-370118Y-165368D01*
X-369964Y-165502D01*
X-369788Y-165620D01*
X-369590Y-165722D01*
X-369372Y-165809D01*
X-369133Y-165880D01*
X-368872Y-165935D01*
X-368590Y-165974D01*
X-368287Y-165998D01*
X-367962Y-166006D01*
X-365151Y-166006D01*
G37*
%LPD*%
G36*
X-352940Y-173100D02*
X-361111Y-173100D01*
X-361111Y-171760D01*
X-354674Y-171760D01*
X-354826Y-171450D01*
X-355020Y-171135D01*
X-355255Y-170813D01*
X-355532Y-170486D01*
X-355856Y-170145D01*
X-356231Y-169784D01*
X-356657Y-169403D01*
X-357135Y-169001D01*
X-357976Y-168305D01*
X-358670Y-167707D01*
X-359216Y-167206D01*
X-359614Y-166803D01*
X-359918Y-166448D01*
X-360182Y-166093D01*
X-360406Y-165738D01*
X-360590Y-165384D01*
X-360734Y-165028D01*
X-360837Y-164672D01*
X-360898Y-164315D01*
X-360919Y-163956D01*
X-360903Y-163563D01*
X-360856Y-163192D01*
X-360778Y-162845D01*
X-360668Y-162521D01*
X-360527Y-162220D01*
X-360355Y-161942D01*
X-360151Y-161687D01*
X-359916Y-161456D01*
X-359652Y-161249D01*
X-359361Y-161070D01*
X-359042Y-160919D01*
X-358697Y-160795D01*
X-358325Y-160699D01*
X-357926Y-160630D01*
X-357500Y-160589D01*
X-357048Y-160575D01*
X-356632Y-160589D01*
X-356237Y-160630D01*
X-355860Y-160698D01*
X-355503Y-160794D01*
X-355165Y-160917D01*
X-354846Y-161068D01*
X-354547Y-161246D01*
X-354267Y-161451D01*
X-354010Y-161680D01*
X-353782Y-161927D01*
X-353583Y-162193D01*
X-353412Y-162478D01*
X-353269Y-162782D01*
X-353154Y-163105D01*
X-353068Y-163447D01*
X-353010Y-163807D01*
X-354621Y-163956D01*
X-354658Y-163716D01*
X-354712Y-163489D01*
X-354783Y-163276D01*
X-354870Y-163077D01*
X-354974Y-162892D01*
X-355095Y-162720D01*
X-355233Y-162563D01*
X-355388Y-162419D01*
X-355556Y-162291D01*
X-355736Y-162179D01*
X-355927Y-162085D01*
X-356129Y-162008D01*
X-356342Y-161949D01*
X-356566Y-161906D01*
X-356801Y-161880D01*
X-357048Y-161872D01*
X-357305Y-161880D01*
X-357548Y-161907D01*
X-357777Y-161950D01*
X-357991Y-162012D01*
X-358191Y-162091D01*
X-358376Y-162187D01*
X-358547Y-162301D01*
X-358703Y-162432D01*
X-358842Y-162579D01*
X-358963Y-162741D01*
X-359066Y-162917D01*
X-359150Y-163107D01*
X-359215Y-163311D01*
X-359261Y-163529D01*
X-359289Y-163762D01*
X-359298Y-164009D01*
X-359277Y-164375D01*
X-359212Y-164722D01*
X-359104Y-165050D01*
X-358952Y-165357D01*
X-358766Y-165652D01*
X-358553Y-165940D01*
X-358313Y-166221D01*
X-358046Y-166496D01*
X-357452Y-167039D01*
X-356789Y-167582D01*
X-356090Y-168148D01*
X-355383Y-168760D01*
X-355033Y-169087D01*
X-354690Y-169432D01*
X-354356Y-169796D01*
X-354030Y-170179D01*
X-353721Y-170586D01*
X-353436Y-171023D01*
X-353175Y-171490D01*
X-352940Y-171988D01*
X-352940Y-173100D01*
G37*
G36*
X-343435Y-173100D02*
X-351169Y-173100D01*
X-351169Y-171760D01*
X-348165Y-171760D01*
X-348165Y-160759D01*
X-346711Y-160759D01*
X-343794Y-162765D01*
X-343794Y-164254D01*
X-346580Y-162266D01*
X-346580Y-171760D01*
X-343435Y-171760D01*
X-343435Y-173100D01*
G37*
G36*
X-330603Y-343100D02*
X-335219Y-343100D01*
X-335659Y-343088D01*
X-336086Y-343052D01*
X-336500Y-342993D01*
X-336900Y-342910D01*
X-337288Y-342802D01*
X-337662Y-342671D01*
X-338023Y-342517D01*
X-338372Y-342338D01*
X-338704Y-342137D01*
X-339016Y-341915D01*
X-339309Y-341672D01*
X-339583Y-341409D01*
X-339837Y-341124D01*
X-340071Y-340818D01*
X-340287Y-340492D01*
X-340482Y-340144D01*
X-340657Y-339779D01*
X-340808Y-339398D01*
X-340936Y-339003D01*
X-341041Y-338593D01*
X-341122Y-338168D01*
X-341180Y-337727D01*
X-341215Y-337273D01*
X-341227Y-336803D01*
X-341220Y-336445D01*
X-341200Y-336099D01*
X-341167Y-335762D01*
X-341120Y-335436D01*
X-341061Y-335120D01*
X-340987Y-334815D01*
X-340901Y-334520D01*
X-340801Y-334235D01*
X-340688Y-333961D01*
X-340561Y-333697D01*
X-340422Y-333444D01*
X-340269Y-333200D01*
X-340102Y-332968D01*
X-339923Y-332745D01*
X-339730Y-332533D01*
X-339523Y-332331D01*
X-339305Y-332141D01*
X-339075Y-331963D01*
X-338834Y-331797D01*
X-338582Y-331644D01*
X-338319Y-331502D01*
X-338044Y-331373D01*
X-337759Y-331257D01*
X-337462Y-331152D01*
X-337154Y-331060D01*
X-336835Y-330980D01*
X-336504Y-330913D01*
X-336163Y-330858D01*
X-335810Y-330815D01*
X-335446Y-330784D01*
X-335071Y-330765D01*
X-334684Y-330759D01*
X-330603Y-330759D01*
X-330603Y-343100D01*
G37*
%LPC*%
G36*
X-332276Y-341760D02*
X-332276Y-332099D01*
X-334649Y-332099D01*
X-335227Y-332118D01*
X-335770Y-332175D01*
X-336278Y-332269D01*
X-336750Y-332400D01*
X-337188Y-332570D01*
X-337590Y-332777D01*
X-337957Y-333021D01*
X-338288Y-333304D01*
X-338583Y-333622D01*
X-338838Y-333974D01*
X-339054Y-334360D01*
X-339231Y-334781D01*
X-339369Y-335235D01*
X-339467Y-335723D01*
X-339526Y-336246D01*
X-339545Y-336803D01*
X-339537Y-337177D01*
X-339511Y-337539D01*
X-339468Y-337889D01*
X-339407Y-338226D01*
X-339330Y-338550D01*
X-339235Y-338862D01*
X-339123Y-339161D01*
X-338993Y-339448D01*
X-338848Y-339720D01*
X-338688Y-339975D01*
X-338513Y-340215D01*
X-338322Y-340437D01*
X-338117Y-340644D01*
X-337897Y-340834D01*
X-337662Y-341007D01*
X-337413Y-341164D01*
X-337150Y-341304D01*
X-336877Y-341425D01*
X-336595Y-341527D01*
X-336301Y-341611D01*
X-335998Y-341676D01*
X-335684Y-341723D01*
X-335360Y-341751D01*
X-335026Y-341760D01*
X-332276Y-341760D01*
G37*
%LPD*%
G36*
X-363478Y-343100D02*
X-368488Y-343100D01*
X-369007Y-343086D01*
X-369498Y-343043D01*
X-369959Y-342971D01*
X-370390Y-342871D01*
X-370793Y-342743D01*
X-371166Y-342585D01*
X-371510Y-342399D01*
X-371825Y-342185D01*
X-372106Y-341945D01*
X-372350Y-341681D01*
X-372556Y-341395D01*
X-372725Y-341087D01*
X-372856Y-340755D01*
X-372950Y-340400D01*
X-373006Y-340023D01*
X-373025Y-339623D01*
X-373012Y-339321D01*
X-372975Y-339032D01*
X-372913Y-338756D01*
X-372825Y-338494D01*
X-372713Y-338245D01*
X-372576Y-338009D01*
X-372414Y-337787D01*
X-372228Y-337578D01*
X-372115Y-337474D01*
X-372018Y-337385D01*
X-371787Y-337212D01*
X-371535Y-337059D01*
X-371262Y-336926D01*
X-370968Y-336813D01*
X-370653Y-336720D01*
X-370316Y-336646D01*
X-369959Y-336592D01*
X-370231Y-336521D01*
X-370488Y-336435D01*
X-370729Y-336333D01*
X-370953Y-336216D01*
X-371162Y-336083D01*
X-371355Y-335936D01*
X-371433Y-335864D01*
X-371532Y-335772D01*
X-371693Y-335594D01*
X-371837Y-335402D01*
X-371962Y-335200D01*
X-372067Y-334986D01*
X-372153Y-334762D01*
X-372220Y-334527D01*
X-372268Y-334280D01*
X-372297Y-334023D01*
X-372306Y-333755D01*
X-372289Y-333392D01*
X-372239Y-333053D01*
X-372154Y-332737D01*
X-372035Y-332444D01*
X-371882Y-332175D01*
X-371696Y-331929D01*
X-371475Y-331707D01*
X-371220Y-331508D01*
X-370932Y-331333D01*
X-370609Y-331180D01*
X-370253Y-331052D01*
X-369863Y-330946D01*
X-369439Y-330865D01*
X-368980Y-330806D01*
X-368488Y-330771D01*
X-367962Y-330759D01*
X-363478Y-330759D01*
X-363478Y-343100D01*
G37*
%LPC*%
G36*
X-365151Y-341760D02*
X-365151Y-337311D01*
X-368269Y-337311D01*
X-368640Y-337319D01*
X-368987Y-337345D01*
X-369311Y-337387D01*
X-369610Y-337447D01*
X-369885Y-337524D01*
X-370137Y-337617D01*
X-370364Y-337728D01*
X-370568Y-337856D01*
X-370747Y-338001D01*
X-370903Y-338163D01*
X-371035Y-338341D01*
X-371143Y-338537D01*
X-371226Y-338750D01*
X-371286Y-338980D01*
X-371322Y-339227D01*
X-371334Y-339492D01*
X-371323Y-339765D01*
X-371290Y-340021D01*
X-371236Y-340260D01*
X-371159Y-340481D01*
X-371061Y-340685D01*
X-370940Y-340871D01*
X-370798Y-341040D01*
X-370634Y-341191D01*
X-370445Y-341324D01*
X-370231Y-341440D01*
X-369991Y-341538D01*
X-369725Y-341618D01*
X-369433Y-341680D01*
X-369114Y-341724D01*
X-368770Y-341751D01*
X-368400Y-341760D01*
X-365151Y-341760D01*
G37*
G36*
X-365151Y-336006D02*
X-365151Y-332099D01*
X-367962Y-332099D01*
X-368277Y-332106D01*
X-368572Y-332126D01*
X-368848Y-332160D01*
X-369105Y-332207D01*
X-369343Y-332267D01*
X-369562Y-332341D01*
X-369761Y-332428D01*
X-369942Y-332528D01*
X-370102Y-332645D01*
X-370241Y-332779D01*
X-370358Y-332930D01*
X-370454Y-333100D01*
X-370529Y-333287D01*
X-370582Y-333492D01*
X-370614Y-333715D01*
X-370625Y-333956D01*
X-370614Y-334208D01*
X-370583Y-334444D01*
X-370532Y-334662D01*
X-370459Y-334864D01*
X-370366Y-335049D01*
X-370253Y-335217D01*
X-370118Y-335368D01*
X-369964Y-335502D01*
X-369788Y-335620D01*
X-369590Y-335722D01*
X-369372Y-335809D01*
X-369133Y-335880D01*
X-368872Y-335935D01*
X-368590Y-335974D01*
X-368287Y-335998D01*
X-367962Y-336006D01*
X-365151Y-336006D01*
G37*
%LPD*%
G36*
X-357030Y-343275D02*
X-357523Y-343260D01*
X-357987Y-343216D01*
X-358421Y-343141D01*
X-358825Y-343037D01*
X-359200Y-342902D01*
X-359546Y-342738D01*
X-359862Y-342544D01*
X-360148Y-342321D01*
X-360403Y-342070D01*
X-360623Y-341796D01*
X-360810Y-341499D01*
X-360963Y-341178D01*
X-361081Y-340833D01*
X-361166Y-340465D01*
X-361217Y-340073D01*
X-361234Y-339658D01*
X-361224Y-339360D01*
X-361193Y-339075D01*
X-361142Y-338802D01*
X-361070Y-338542D01*
X-360977Y-338295D01*
X-360865Y-338061D01*
X-360731Y-337839D01*
X-360577Y-337630D01*
X-360544Y-337593D01*
X-360405Y-337437D01*
X-360216Y-337264D01*
X-360011Y-337110D01*
X-359789Y-336975D01*
X-359551Y-336859D01*
X-359296Y-336762D01*
X-359025Y-336685D01*
X-358738Y-336627D01*
X-358738Y-336592D01*
X-358985Y-336533D01*
X-359219Y-336455D01*
X-359440Y-336359D01*
X-359647Y-336244D01*
X-359840Y-336111D01*
X-360003Y-335975D01*
X-360020Y-335960D01*
X-360187Y-335791D01*
X-360341Y-335603D01*
X-360478Y-335401D01*
X-360597Y-335192D01*
X-360698Y-334973D01*
X-360781Y-334747D01*
X-360845Y-334511D01*
X-360891Y-334268D01*
X-360918Y-334015D01*
X-360928Y-333755D01*
X-360911Y-333398D01*
X-360862Y-333061D01*
X-360779Y-332743D01*
X-360664Y-332443D01*
X-360515Y-332162D01*
X-360334Y-331901D01*
X-360120Y-331658D01*
X-359872Y-331434D01*
X-359596Y-331232D01*
X-359297Y-331058D01*
X-358973Y-330911D01*
X-358625Y-330790D01*
X-358254Y-330696D01*
X-357858Y-330629D01*
X-357438Y-330589D01*
X-356995Y-330575D01*
X-356562Y-330589D01*
X-356151Y-330630D01*
X-355763Y-330698D01*
X-355398Y-330794D01*
X-355055Y-330917D01*
X-354734Y-331068D01*
X-354437Y-331246D01*
X-354162Y-331451D01*
X-353914Y-331678D01*
X-353700Y-331922D01*
X-353518Y-332183D01*
X-353370Y-332461D01*
X-353255Y-332755D01*
X-353172Y-333065D01*
X-353123Y-333393D01*
X-353106Y-333737D01*
X-353115Y-333998D01*
X-353143Y-334250D01*
X-353188Y-334494D01*
X-353252Y-334729D01*
X-353334Y-334956D01*
X-353434Y-335174D01*
X-353552Y-335384D01*
X-353689Y-335585D01*
X-353841Y-335774D01*
X-354006Y-335945D01*
X-354185Y-336099D01*
X-354377Y-336236D01*
X-354583Y-336355D01*
X-354801Y-336457D01*
X-355033Y-336542D01*
X-355278Y-336610D01*
X-355278Y-336645D01*
X-355015Y-336699D01*
X-354764Y-336773D01*
X-354525Y-336868D01*
X-354297Y-336982D01*
X-354082Y-337117D01*
X-353879Y-337272D01*
X-353688Y-337448D01*
X-353509Y-337643D01*
X-353347Y-337855D01*
X-353206Y-338079D01*
X-353087Y-338315D01*
X-352990Y-338563D01*
X-352914Y-338823D01*
X-352860Y-339095D01*
X-352828Y-339379D01*
X-352817Y-339675D01*
X-352835Y-340094D01*
X-352887Y-340489D01*
X-352974Y-340859D01*
X-353096Y-341204D01*
X-353253Y-341524D01*
X-353445Y-341820D01*
X-353672Y-342091D01*
X-353934Y-342338D01*
X-354227Y-342558D01*
X-354546Y-342748D01*
X-354893Y-342909D01*
X-355266Y-343041D01*
X-355667Y-343143D01*
X-356094Y-343217D01*
X-356549Y-343261D01*
X-357030Y-343275D01*
G37*
%LPC*%
G36*
X-357048Y-342093D02*
X-356733Y-342083D01*
X-356438Y-342053D01*
X-356163Y-342003D01*
X-355909Y-341934D01*
X-355676Y-341844D01*
X-355462Y-341734D01*
X-355269Y-341605D01*
X-355097Y-341456D01*
X-354944Y-341286D01*
X-354812Y-341097D01*
X-354700Y-340888D01*
X-354609Y-340659D01*
X-354538Y-340410D01*
X-354487Y-340141D01*
X-354456Y-339853D01*
X-354446Y-339544D01*
X-354457Y-339278D01*
X-354488Y-339026D01*
X-354541Y-338789D01*
X-354615Y-338566D01*
X-354710Y-338359D01*
X-354826Y-338165D01*
X-354963Y-337987D01*
X-355121Y-337823D01*
X-355297Y-337676D01*
X-355491Y-337549D01*
X-355700Y-337441D01*
X-355926Y-337353D01*
X-356169Y-337285D01*
X-356428Y-337236D01*
X-356703Y-337207D01*
X-356995Y-337197D01*
X-357295Y-337206D01*
X-357578Y-337233D01*
X-357844Y-337279D01*
X-358092Y-337342D01*
X-358323Y-337424D01*
X-358537Y-337524D01*
X-358734Y-337643D01*
X-358913Y-337779D01*
X-359073Y-337934D01*
X-359212Y-338106D01*
X-359329Y-338295D01*
X-359425Y-338503D01*
X-359500Y-338728D01*
X-359554Y-338971D01*
X-359586Y-339231D01*
X-359596Y-339509D01*
X-359586Y-339835D01*
X-359557Y-340138D01*
X-359508Y-340418D01*
X-359439Y-340675D01*
X-359350Y-340909D01*
X-359242Y-341121D01*
X-359113Y-341310D01*
X-358966Y-341475D01*
X-358798Y-341620D01*
X-358609Y-341745D01*
X-358400Y-341852D01*
X-358171Y-341938D01*
X-357921Y-342006D01*
X-357650Y-342054D01*
X-357359Y-342083D01*
X-357048Y-342093D01*
G37*
G36*
X-357012Y-336014D02*
X-356747Y-336006D01*
X-356496Y-335980D01*
X-356261Y-335936D01*
X-356041Y-335875D01*
X-355837Y-335797D01*
X-355649Y-335702D01*
X-355475Y-335589D01*
X-355318Y-335458D01*
X-355177Y-335311D01*
X-355055Y-335149D01*
X-354952Y-334970D01*
X-354868Y-334776D01*
X-354802Y-334566D01*
X-354755Y-334341D01*
X-354727Y-334099D01*
X-354718Y-333842D01*
X-354727Y-333590D01*
X-354754Y-333353D01*
X-354800Y-333133D01*
X-354863Y-332929D01*
X-354945Y-332741D01*
X-355045Y-332570D01*
X-355164Y-332414D01*
X-355300Y-332274D01*
X-355454Y-332151D01*
X-355625Y-332045D01*
X-355812Y-331954D01*
X-356015Y-331880D01*
X-356235Y-331823D01*
X-356472Y-331782D01*
X-356725Y-331757D01*
X-356995Y-331749D01*
X-357273Y-331757D01*
X-357533Y-331782D01*
X-357775Y-331823D01*
X-357999Y-331880D01*
X-358205Y-331953D01*
X-358393Y-332043D01*
X-358564Y-332150D01*
X-358716Y-332272D01*
X-358850Y-332411D01*
X-358967Y-332567D01*
X-359066Y-332738D01*
X-359146Y-332926D01*
X-359209Y-333131D01*
X-359254Y-333352D01*
X-359281Y-333589D01*
X-359290Y-333842D01*
X-359281Y-334119D01*
X-359253Y-334376D01*
X-359208Y-334613D01*
X-359144Y-334831D01*
X-359062Y-335028D01*
X-358962Y-335206D01*
X-358844Y-335364D01*
X-358707Y-335502D01*
X-358553Y-335622D01*
X-358383Y-335726D01*
X-358196Y-335814D01*
X-357992Y-335886D01*
X-357772Y-335942D01*
X-357536Y-335982D01*
X-357282Y-336006D01*
X-357012Y-336014D01*
G37*
%LPD*%
G36*
X-343435Y-343100D02*
X-351169Y-343100D01*
X-351169Y-341760D01*
X-348165Y-341760D01*
X-348165Y-330759D01*
X-346711Y-330759D01*
X-343794Y-332765D01*
X-343794Y-334254D01*
X-346580Y-332266D01*
X-346580Y-341760D01*
X-343435Y-341760D01*
X-343435Y-343100D01*
G37*
G36*
X-142864Y-578563D02*
X-143273Y-578550D01*
X-143673Y-578512D01*
X-144065Y-578448D01*
X-144447Y-578358D01*
X-144821Y-578243D01*
X-145183Y-578103D01*
X-145529Y-577938D01*
X-145860Y-577750D01*
X-146175Y-577538D01*
X-146475Y-577302D01*
X-146759Y-577041D01*
X-147028Y-576757D01*
X-147281Y-576449D01*
X-147516Y-576119D01*
X-147731Y-575771D01*
X-147926Y-575404D01*
X-148100Y-575018D01*
X-148254Y-574613D01*
X-148388Y-574190D01*
X-148501Y-573748D01*
X-148594Y-573287D01*
X-148650Y-572934D01*
X-148690Y-572589D01*
X-148716Y-572252D01*
X-148727Y-571923D01*
X-148723Y-571602D01*
X-148704Y-571288D01*
X-148670Y-570983D01*
X-148621Y-570685D01*
X-148557Y-570395D01*
X-148478Y-570114D01*
X-148385Y-569840D01*
X-148276Y-569574D01*
X-148153Y-569315D01*
X-148015Y-569065D01*
X-147861Y-568823D01*
X-147693Y-568588D01*
X-147511Y-568363D01*
X-147316Y-568148D01*
X-147107Y-567942D01*
X-146886Y-567747D01*
X-146651Y-567563D01*
X-146403Y-567388D01*
X-146142Y-567223D01*
X-145868Y-567069D01*
X-145580Y-566925D01*
X-145280Y-566791D01*
X-144966Y-566667D01*
X-144639Y-566553D01*
X-144299Y-566450D01*
X-143946Y-566356D01*
X-143580Y-566273D01*
X-143201Y-566200D01*
X-139181Y-565491D01*
X-137038Y-577644D01*
X-141584Y-578446D01*
X-142019Y-578511D01*
X-142446Y-578549D01*
X-142864Y-578563D01*
G37*
%LPC*%
G36*
X-142598Y-577179D02*
X-142281Y-577170D01*
X-141958Y-577142D01*
X-141627Y-577093D01*
X-138918Y-576615D01*
X-140596Y-567101D01*
X-142933Y-567513D01*
X-143499Y-567632D01*
X-144024Y-567782D01*
X-144508Y-567963D01*
X-144950Y-568175D01*
X-145351Y-568417D01*
X-145712Y-568691D01*
X-146030Y-568996D01*
X-146308Y-569331D01*
X-146543Y-569696D01*
X-146733Y-570087D01*
X-146879Y-570505D01*
X-146980Y-570949D01*
X-147036Y-571421D01*
X-147048Y-571919D01*
X-147016Y-572444D01*
X-146938Y-572995D01*
X-146865Y-573363D01*
X-146776Y-573715D01*
X-146673Y-574052D01*
X-146555Y-574373D01*
X-146423Y-574679D01*
X-146275Y-574970D01*
X-146113Y-575245D01*
X-145936Y-575504D01*
X-145745Y-575747D01*
X-145543Y-575971D01*
X-145329Y-576176D01*
X-145103Y-576363D01*
X-144865Y-576530D01*
X-144615Y-576679D01*
X-144354Y-576809D01*
X-144081Y-576921D01*
X-143798Y-577012D01*
X-143508Y-577084D01*
X-143212Y-577136D01*
X-142909Y-577167D01*
X-142598Y-577179D01*
G37*
%LPD*%
G36*
X-175819Y-584352D02*
X-176261Y-584328D01*
X-176680Y-584271D01*
X-177075Y-584181D01*
X-177446Y-584058D01*
X-177793Y-583901D01*
X-178111Y-583713D01*
X-178397Y-583496D01*
X-178650Y-583251D01*
X-178870Y-582976D01*
X-179057Y-582672D01*
X-179210Y-582339D01*
X-179331Y-581977D01*
X-179419Y-581586D01*
X-179459Y-581287D01*
X-179473Y-580996D01*
X-179459Y-580714D01*
X-179419Y-580440D01*
X-179352Y-580176D01*
X-179258Y-579920D01*
X-179137Y-579672D01*
X-178990Y-579434D01*
X-178896Y-579312D01*
X-178816Y-579208D01*
X-178619Y-578998D01*
X-178397Y-578803D01*
X-178152Y-578625D01*
X-177882Y-578462D01*
X-177588Y-578315D01*
X-177269Y-578185D01*
X-176927Y-578070D01*
X-177207Y-578047D01*
X-177475Y-578006D01*
X-177729Y-577948D01*
X-177971Y-577871D01*
X-178200Y-577777D01*
X-178415Y-577665D01*
X-178504Y-577608D01*
X-178618Y-577535D01*
X-178808Y-577388D01*
X-178983Y-577224D01*
X-179140Y-577046D01*
X-179281Y-576854D01*
X-179405Y-576648D01*
X-179512Y-576428D01*
X-179602Y-576194D01*
X-179675Y-575945D01*
X-179731Y-575683D01*
X-179777Y-575322D01*
X-179786Y-574979D01*
X-179757Y-574654D01*
X-179691Y-574345D01*
X-179588Y-574053D01*
X-179446Y-573779D01*
X-179268Y-573522D01*
X-179052Y-573282D01*
X-178798Y-573059D01*
X-178507Y-572853D01*
X-178178Y-572664D01*
X-177812Y-572493D01*
X-177409Y-572338D01*
X-176968Y-572201D01*
X-176489Y-572081D01*
X-175973Y-571978D01*
X-171557Y-571200D01*
X-169414Y-583353D01*
X-174348Y-584223D01*
X-174862Y-584299D01*
X-175352Y-584342D01*
X-175819Y-584352D01*
G37*
%LPC*%
G36*
X-175525Y-582988D02*
X-175204Y-582977D01*
X-174860Y-582944D01*
X-174494Y-582888D01*
X-171294Y-582324D01*
X-172067Y-577942D01*
X-175137Y-578483D01*
X-175501Y-578556D01*
X-175839Y-578642D01*
X-176150Y-578740D01*
X-176434Y-578851D01*
X-176692Y-578974D01*
X-176924Y-579110D01*
X-177128Y-579258D01*
X-177307Y-579420D01*
X-177458Y-579593D01*
X-177584Y-579780D01*
X-177682Y-579979D01*
X-177754Y-580191D01*
X-177800Y-580415D01*
X-177819Y-580652D01*
X-177811Y-580901D01*
X-177777Y-581164D01*
X-177719Y-581431D01*
X-177642Y-581678D01*
X-177547Y-581903D01*
X-177433Y-582108D01*
X-177301Y-582291D01*
X-177150Y-582454D01*
X-176980Y-582595D01*
X-176792Y-582715D01*
X-176584Y-582814D01*
X-176353Y-582891D01*
X-176099Y-582945D01*
X-175823Y-582978D01*
X-175525Y-582988D01*
G37*
G36*
X-175970Y-577233D02*
X-175685Y-577223D01*
X-175383Y-577194D01*
X-175062Y-577145D01*
X-172293Y-576657D01*
X-172971Y-572810D01*
X-175740Y-573298D01*
X-176049Y-573359D01*
X-176336Y-573430D01*
X-176602Y-573511D01*
X-176847Y-573602D01*
X-177071Y-573703D01*
X-177274Y-573814D01*
X-177455Y-573934D01*
X-177615Y-574064D01*
X-177753Y-574207D01*
X-177866Y-574363D01*
X-177955Y-574533D01*
X-178020Y-574716D01*
X-178061Y-574914D01*
X-178078Y-575125D01*
X-178071Y-575350D01*
X-178040Y-575589D01*
X-177986Y-575836D01*
X-177915Y-576062D01*
X-177826Y-576268D01*
X-177720Y-576454D01*
X-177596Y-576620D01*
X-177455Y-576766D01*
X-177296Y-576891D01*
X-177120Y-576997D01*
X-176927Y-577082D01*
X-176715Y-577149D01*
X-176485Y-577196D01*
X-176236Y-577224D01*
X-175970Y-577233D01*
G37*
%LPD*%
G36*
X-157266Y-581211D02*
X-157499Y-579891D01*
X-151159Y-578773D01*
X-151363Y-578495D01*
X-151608Y-578218D01*
X-151896Y-577942D01*
X-152226Y-577667D01*
X-152603Y-577388D01*
X-153035Y-577098D01*
X-153521Y-576796D01*
X-154062Y-576484D01*
X-155011Y-575945D01*
X-155798Y-575476D01*
X-156423Y-575077D01*
X-156885Y-574749D01*
X-157246Y-574453D01*
X-157567Y-574149D01*
X-157850Y-573839D01*
X-158093Y-573521D01*
X-158296Y-573197D01*
X-158459Y-572863D01*
X-158582Y-572522D01*
X-158664Y-572173D01*
X-158717Y-571782D01*
X-158735Y-571409D01*
X-158718Y-571054D01*
X-158666Y-570716D01*
X-158580Y-570395D01*
X-158458Y-570091D01*
X-158302Y-569805D01*
X-158111Y-569536D01*
X-157886Y-569287D01*
X-157631Y-569060D01*
X-157344Y-568856D01*
X-157025Y-568674D01*
X-156676Y-568515D01*
X-156295Y-568378D01*
X-155882Y-568263D01*
X-155439Y-568171D01*
X-155027Y-568112D01*
X-154631Y-568084D01*
X-154248Y-568086D01*
X-153879Y-568118D01*
X-153525Y-568181D01*
X-153185Y-568274D01*
X-152859Y-568397D01*
X-152548Y-568551D01*
X-152256Y-568731D01*
X-151989Y-568935D01*
X-151746Y-569162D01*
X-151528Y-569413D01*
X-151334Y-569688D01*
X-151165Y-569986D01*
X-151021Y-570307D01*
X-150901Y-570653D01*
X-152462Y-571079D01*
X-152540Y-570849D01*
X-152633Y-570635D01*
X-152739Y-570437D01*
X-152860Y-570256D01*
X-152995Y-570092D01*
X-153144Y-569944D01*
X-153307Y-569813D01*
X-153484Y-569698D01*
X-153672Y-569601D01*
X-153869Y-569523D01*
X-154073Y-569463D01*
X-154285Y-569423D01*
X-154505Y-569401D01*
X-154734Y-569398D01*
X-154970Y-569413D01*
X-155214Y-569447D01*
X-155466Y-569501D01*
X-155701Y-569569D01*
X-155918Y-569652D01*
X-156119Y-569749D01*
X-156302Y-569862D01*
X-156467Y-569989D01*
X-156616Y-570130D01*
X-156747Y-570287D01*
X-156858Y-570456D01*
X-156949Y-570636D01*
X-157020Y-570827D01*
X-157069Y-571029D01*
X-157098Y-571241D01*
X-157106Y-571464D01*
X-157093Y-571698D01*
X-157059Y-571943D01*
X-156974Y-572300D01*
X-156850Y-572631D01*
X-156687Y-572934D01*
X-156484Y-573211D01*
X-156250Y-573469D01*
X-155990Y-573715D01*
X-155704Y-573951D01*
X-155394Y-574175D01*
X-154714Y-574607D01*
X-153968Y-575026D01*
X-153180Y-575462D01*
X-152379Y-575942D01*
X-151977Y-576203D01*
X-151579Y-576484D01*
X-151187Y-576785D01*
X-150800Y-577105D01*
X-150424Y-577452D01*
X-150068Y-577833D01*
X-149730Y-578248D01*
X-149412Y-578697D01*
X-149218Y-579792D01*
X-157266Y-581211D01*
G37*
G36*
X-167109Y-582947D02*
X-167342Y-581627D01*
X-164383Y-581105D01*
X-166294Y-570272D01*
X-164862Y-570019D01*
X-161641Y-571488D01*
X-161383Y-572954D01*
X-164471Y-571480D01*
X-162822Y-580830D01*
X-159726Y-580284D01*
X-159493Y-581604D01*
X-167109Y-582947D01*
G37*
G36*
X-322864Y-608563D02*
X-323273Y-608550D01*
X-323673Y-608512D01*
X-324065Y-608448D01*
X-324447Y-608358D01*
X-324821Y-608243D01*
X-325183Y-608103D01*
X-325529Y-607938D01*
X-325860Y-607750D01*
X-326175Y-607538D01*
X-326475Y-607302D01*
X-326759Y-607041D01*
X-327028Y-606757D01*
X-327281Y-606449D01*
X-327516Y-606119D01*
X-327731Y-605771D01*
X-327926Y-605404D01*
X-328100Y-605018D01*
X-328254Y-604613D01*
X-328388Y-604190D01*
X-328501Y-603748D01*
X-328594Y-603287D01*
X-328650Y-602935D01*
X-328690Y-602590D01*
X-328716Y-602252D01*
X-328727Y-601923D01*
X-328723Y-601602D01*
X-328704Y-601288D01*
X-328670Y-600983D01*
X-328621Y-600685D01*
X-328557Y-600395D01*
X-328478Y-600114D01*
X-328385Y-599840D01*
X-328276Y-599574D01*
X-328153Y-599315D01*
X-328014Y-599065D01*
X-327861Y-598823D01*
X-327693Y-598588D01*
X-327511Y-598363D01*
X-327316Y-598148D01*
X-327107Y-597942D01*
X-326886Y-597748D01*
X-326651Y-597563D01*
X-326403Y-597388D01*
X-326142Y-597223D01*
X-325868Y-597069D01*
X-325580Y-596925D01*
X-325280Y-596791D01*
X-324966Y-596667D01*
X-324639Y-596553D01*
X-324299Y-596450D01*
X-323946Y-596356D01*
X-323580Y-596273D01*
X-323201Y-596200D01*
X-319181Y-595491D01*
X-317038Y-607644D01*
X-321584Y-608446D01*
X-322019Y-608511D01*
X-322446Y-608550D01*
X-322864Y-608563D01*
G37*
%LPC*%
G36*
X-322598Y-607179D02*
X-322281Y-607170D01*
X-321958Y-607142D01*
X-321627Y-607093D01*
X-318918Y-606615D01*
X-320596Y-597101D01*
X-322933Y-597513D01*
X-323499Y-597632D01*
X-324024Y-597782D01*
X-324508Y-597963D01*
X-324950Y-598175D01*
X-325351Y-598417D01*
X-325711Y-598691D01*
X-326030Y-598996D01*
X-326308Y-599331D01*
X-326543Y-599696D01*
X-326733Y-600087D01*
X-326879Y-600505D01*
X-326980Y-600949D01*
X-327036Y-601421D01*
X-327048Y-601919D01*
X-327016Y-602444D01*
X-326938Y-602995D01*
X-326865Y-603363D01*
X-326776Y-603715D01*
X-326673Y-604052D01*
X-326555Y-604373D01*
X-326423Y-604679D01*
X-326275Y-604970D01*
X-326113Y-605245D01*
X-325936Y-605505D01*
X-325745Y-605747D01*
X-325543Y-605971D01*
X-325329Y-606176D01*
X-325103Y-606363D01*
X-324865Y-606530D01*
X-324615Y-606679D01*
X-324354Y-606809D01*
X-324081Y-606921D01*
X-323798Y-607012D01*
X-323508Y-607084D01*
X-323212Y-607136D01*
X-322909Y-607168D01*
X-322598Y-607179D01*
G37*
%LPD*%
G36*
X-355819Y-614352D02*
X-356261Y-614328D01*
X-356680Y-614271D01*
X-357075Y-614181D01*
X-357446Y-614058D01*
X-357793Y-613901D01*
X-358111Y-613713D01*
X-358397Y-613497D01*
X-358650Y-613251D01*
X-358870Y-612976D01*
X-359057Y-612672D01*
X-359210Y-612339D01*
X-359331Y-611977D01*
X-359419Y-611586D01*
X-359459Y-611287D01*
X-359473Y-610996D01*
X-359459Y-610714D01*
X-359419Y-610440D01*
X-359352Y-610176D01*
X-359258Y-609920D01*
X-359137Y-609672D01*
X-358989Y-609434D01*
X-358896Y-609312D01*
X-358816Y-609208D01*
X-358619Y-608998D01*
X-358397Y-608803D01*
X-358152Y-608625D01*
X-357882Y-608462D01*
X-357588Y-608316D01*
X-357269Y-608185D01*
X-356927Y-608070D01*
X-357207Y-608047D01*
X-357475Y-608006D01*
X-357729Y-607948D01*
X-357971Y-607871D01*
X-358200Y-607777D01*
X-358415Y-607665D01*
X-358504Y-607608D01*
X-358618Y-607535D01*
X-358808Y-607388D01*
X-358983Y-607224D01*
X-359140Y-607046D01*
X-359281Y-606854D01*
X-359405Y-606648D01*
X-359512Y-606428D01*
X-359602Y-606194D01*
X-359675Y-605945D01*
X-359731Y-605683D01*
X-359777Y-605323D01*
X-359786Y-604980D01*
X-359757Y-604654D01*
X-359691Y-604345D01*
X-359587Y-604053D01*
X-359446Y-603779D01*
X-359268Y-603522D01*
X-359052Y-603282D01*
X-358798Y-603059D01*
X-358507Y-602853D01*
X-358178Y-602664D01*
X-357812Y-602493D01*
X-357409Y-602338D01*
X-356967Y-602201D01*
X-356489Y-602081D01*
X-355973Y-601978D01*
X-351557Y-601200D01*
X-349414Y-613353D01*
X-354347Y-614223D01*
X-354862Y-614299D01*
X-355352Y-614342D01*
X-355819Y-614352D01*
G37*
%LPC*%
G36*
X-355525Y-612989D02*
X-355204Y-612977D01*
X-354860Y-612944D01*
X-354494Y-612888D01*
X-351294Y-612324D01*
X-352066Y-607942D01*
X-355137Y-608484D01*
X-355501Y-608556D01*
X-355839Y-608642D01*
X-356150Y-608740D01*
X-356434Y-608851D01*
X-356692Y-608974D01*
X-356924Y-609110D01*
X-357128Y-609258D01*
X-357307Y-609420D01*
X-357458Y-609593D01*
X-357584Y-609780D01*
X-357682Y-609979D01*
X-357754Y-610191D01*
X-357800Y-610415D01*
X-357819Y-610652D01*
X-357811Y-610901D01*
X-357777Y-611164D01*
X-357719Y-611431D01*
X-357642Y-611678D01*
X-357547Y-611903D01*
X-357433Y-612108D01*
X-357301Y-612291D01*
X-357150Y-612454D01*
X-356980Y-612595D01*
X-356792Y-612715D01*
X-356584Y-612814D01*
X-356353Y-612891D01*
X-356099Y-612945D01*
X-355823Y-612978D01*
X-355525Y-612989D01*
G37*
G36*
X-355970Y-607233D02*
X-355685Y-607223D01*
X-355383Y-607194D01*
X-355062Y-607145D01*
X-352293Y-606657D01*
X-352971Y-602810D01*
X-355740Y-603298D01*
X-356049Y-603359D01*
X-356336Y-603430D01*
X-356602Y-603511D01*
X-356847Y-603602D01*
X-357071Y-603703D01*
X-357273Y-603814D01*
X-357455Y-603934D01*
X-357615Y-604064D01*
X-357753Y-604207D01*
X-357866Y-604363D01*
X-357955Y-604533D01*
X-358020Y-604716D01*
X-358061Y-604914D01*
X-358078Y-605125D01*
X-358071Y-605350D01*
X-358040Y-605589D01*
X-357986Y-605836D01*
X-357915Y-606062D01*
X-357826Y-606268D01*
X-357719Y-606454D01*
X-357596Y-606620D01*
X-357455Y-606766D01*
X-357296Y-606891D01*
X-357120Y-606997D01*
X-356926Y-607082D01*
X-356715Y-607149D01*
X-356485Y-607196D01*
X-356236Y-607224D01*
X-355970Y-607233D01*
G37*
%LPD*%
G36*
X-343768Y-612477D02*
X-344009Y-612475D01*
X-344476Y-612428D01*
X-344919Y-612325D01*
X-345339Y-612166D01*
X-345736Y-611952D01*
X-346110Y-611682D01*
X-346460Y-611356D01*
X-346787Y-610977D01*
X-347087Y-610547D01*
X-347363Y-610065D01*
X-347612Y-609533D01*
X-347836Y-608951D01*
X-348034Y-608317D01*
X-348207Y-607632D01*
X-348354Y-606896D01*
X-348470Y-606143D01*
X-348546Y-605431D01*
X-348582Y-604762D01*
X-348577Y-604134D01*
X-348533Y-603548D01*
X-348447Y-603004D01*
X-348322Y-602501D01*
X-348156Y-602041D01*
X-347948Y-601623D01*
X-347696Y-601248D01*
X-347401Y-600916D01*
X-347061Y-600627D01*
X-346678Y-600382D01*
X-346470Y-600275D01*
X-346251Y-600179D01*
X-346021Y-600094D01*
X-345780Y-600020D01*
X-345528Y-599956D01*
X-345265Y-599903D01*
X-344992Y-599862D01*
X-344727Y-599834D01*
X-344469Y-599820D01*
X-344217Y-599819D01*
X-343973Y-599833D01*
X-343737Y-599860D01*
X-343284Y-599957D01*
X-342860Y-600108D01*
X-342465Y-600315D01*
X-342098Y-600578D01*
X-341759Y-600895D01*
X-341446Y-601268D01*
X-341157Y-601695D01*
X-340891Y-602177D01*
X-340648Y-602714D01*
X-340428Y-603305D01*
X-340232Y-603951D01*
X-340059Y-604652D01*
X-339910Y-605407D01*
X-339795Y-606153D01*
X-339722Y-606858D01*
X-339689Y-607524D01*
X-339697Y-608149D01*
X-339747Y-608734D01*
X-339837Y-609280D01*
X-339968Y-609785D01*
X-340141Y-610250D01*
X-340354Y-610674D01*
X-340609Y-611053D01*
X-340905Y-611388D01*
X-341243Y-611679D01*
X-341622Y-611926D01*
X-342042Y-612128D01*
X-342268Y-612213D01*
X-342504Y-612287D01*
X-342751Y-612350D01*
X-343008Y-612401D01*
X-343267Y-612440D01*
X-343520Y-612466D01*
X-343768Y-612477D01*
G37*
%LPC*%
G36*
X-343583Y-611176D02*
X-343248Y-611136D01*
X-342918Y-611059D01*
X-342618Y-610948D01*
X-342348Y-610804D01*
X-342108Y-610626D01*
X-341897Y-610415D01*
X-341717Y-610171D01*
X-341566Y-609893D01*
X-341446Y-609582D01*
X-341354Y-609235D01*
X-341289Y-608847D01*
X-341252Y-608420D01*
X-341243Y-607952D01*
X-341261Y-607445D01*
X-341306Y-606898D01*
X-341379Y-606311D01*
X-341479Y-605684D01*
X-341603Y-605043D01*
X-341737Y-604452D01*
X-341883Y-603912D01*
X-342040Y-603421D01*
X-342208Y-602982D01*
X-342387Y-602592D01*
X-342578Y-602253D01*
X-342780Y-601964D01*
X-342997Y-601721D01*
X-343233Y-601519D01*
X-343488Y-601358D01*
X-343761Y-601237D01*
X-344053Y-601157D01*
X-344364Y-601118D01*
X-344694Y-601120D01*
X-345043Y-601163D01*
X-345376Y-601241D01*
X-345679Y-601351D01*
X-345950Y-601494D01*
X-346190Y-601670D01*
X-346400Y-601878D01*
X-346577Y-602119D01*
X-346724Y-602392D01*
X-346840Y-602698D01*
X-346926Y-603041D01*
X-346985Y-603426D01*
X-347018Y-603853D01*
X-347023Y-604322D01*
X-347002Y-604833D01*
X-346953Y-605386D01*
X-346878Y-605981D01*
X-346775Y-606618D01*
X-346657Y-607230D01*
X-346526Y-607797D01*
X-346383Y-608320D01*
X-346227Y-608798D01*
X-346057Y-609232D01*
X-345876Y-609621D01*
X-345681Y-609966D01*
X-345474Y-610266D01*
X-345252Y-610523D01*
X-345015Y-610737D01*
X-344761Y-610910D01*
X-344491Y-611040D01*
X-344204Y-611127D01*
X-343902Y-611173D01*
X-343583Y-611176D01*
G37*
%LPD*%
G36*
X-337266Y-611211D02*
X-337499Y-609891D01*
X-331159Y-608773D01*
X-331363Y-608495D01*
X-331608Y-608218D01*
X-331896Y-607942D01*
X-332226Y-607668D01*
X-332603Y-607388D01*
X-333035Y-607098D01*
X-333521Y-606796D01*
X-334062Y-606484D01*
X-335011Y-605945D01*
X-335798Y-605476D01*
X-336423Y-605077D01*
X-336885Y-604749D01*
X-337246Y-604453D01*
X-337567Y-604149D01*
X-337850Y-603839D01*
X-338093Y-603522D01*
X-338296Y-603197D01*
X-338459Y-602863D01*
X-338582Y-602522D01*
X-338664Y-602173D01*
X-338717Y-601782D01*
X-338735Y-601409D01*
X-338718Y-601054D01*
X-338666Y-600716D01*
X-338580Y-600395D01*
X-338458Y-600091D01*
X-338302Y-599805D01*
X-338111Y-599536D01*
X-337886Y-599287D01*
X-337631Y-599060D01*
X-337344Y-598856D01*
X-337025Y-598674D01*
X-336676Y-598515D01*
X-336295Y-598378D01*
X-335882Y-598263D01*
X-335439Y-598171D01*
X-335027Y-598112D01*
X-334630Y-598084D01*
X-334248Y-598086D01*
X-333879Y-598118D01*
X-333525Y-598181D01*
X-333185Y-598274D01*
X-332859Y-598397D01*
X-332548Y-598551D01*
X-332256Y-598731D01*
X-331989Y-598935D01*
X-331746Y-599162D01*
X-331528Y-599413D01*
X-331334Y-599688D01*
X-331165Y-599986D01*
X-331021Y-600308D01*
X-330901Y-600653D01*
X-332462Y-601079D01*
X-332540Y-600849D01*
X-332633Y-600635D01*
X-332739Y-600437D01*
X-332860Y-600256D01*
X-332995Y-600092D01*
X-333144Y-599944D01*
X-333307Y-599813D01*
X-333484Y-599698D01*
X-333672Y-599601D01*
X-333869Y-599523D01*
X-334073Y-599464D01*
X-334285Y-599423D01*
X-334505Y-599401D01*
X-334734Y-599398D01*
X-334970Y-599413D01*
X-335214Y-599447D01*
X-335466Y-599501D01*
X-335701Y-599569D01*
X-335918Y-599652D01*
X-336119Y-599749D01*
X-336302Y-599862D01*
X-336467Y-599989D01*
X-336616Y-600130D01*
X-336746Y-600287D01*
X-336858Y-600456D01*
X-336949Y-600636D01*
X-337020Y-600827D01*
X-337069Y-601029D01*
X-337098Y-601241D01*
X-337106Y-601464D01*
X-337093Y-601698D01*
X-337059Y-601943D01*
X-336974Y-602300D01*
X-336850Y-602631D01*
X-336687Y-602935D01*
X-336484Y-603211D01*
X-336250Y-603469D01*
X-335990Y-603715D01*
X-335704Y-603951D01*
X-335394Y-604175D01*
X-334714Y-604607D01*
X-333968Y-605026D01*
X-333180Y-605462D01*
X-332379Y-605942D01*
X-331977Y-606203D01*
X-331579Y-606484D01*
X-331187Y-606785D01*
X-330800Y-607105D01*
X-330424Y-607452D01*
X-330067Y-607833D01*
X-329730Y-608248D01*
X-329412Y-608697D01*
X-329218Y-609792D01*
X-337266Y-611211D01*
G37*
G36*
X-502864Y-638563D02*
X-503273Y-638550D01*
X-503673Y-638512D01*
X-504065Y-638448D01*
X-504447Y-638358D01*
X-504821Y-638243D01*
X-505183Y-638103D01*
X-505529Y-637938D01*
X-505860Y-637750D01*
X-506175Y-637538D01*
X-506475Y-637302D01*
X-506759Y-637041D01*
X-507028Y-636757D01*
X-507281Y-636449D01*
X-507516Y-636119D01*
X-507731Y-635771D01*
X-507926Y-635404D01*
X-508100Y-635018D01*
X-508254Y-634613D01*
X-508388Y-634190D01*
X-508501Y-633748D01*
X-508594Y-633287D01*
X-508650Y-632935D01*
X-508690Y-632590D01*
X-508716Y-632252D01*
X-508727Y-631923D01*
X-508723Y-631602D01*
X-508704Y-631288D01*
X-508670Y-630983D01*
X-508621Y-630685D01*
X-508557Y-630395D01*
X-508478Y-630114D01*
X-508385Y-629840D01*
X-508276Y-629574D01*
X-508153Y-629315D01*
X-508014Y-629065D01*
X-507861Y-628823D01*
X-507693Y-628588D01*
X-507511Y-628363D01*
X-507316Y-628148D01*
X-507107Y-627942D01*
X-506886Y-627748D01*
X-506651Y-627563D01*
X-506403Y-627388D01*
X-506142Y-627223D01*
X-505868Y-627069D01*
X-505580Y-626925D01*
X-505280Y-626791D01*
X-504966Y-626667D01*
X-504639Y-626553D01*
X-504299Y-626450D01*
X-503946Y-626356D01*
X-503580Y-626273D01*
X-503201Y-626200D01*
X-499181Y-625491D01*
X-497038Y-637644D01*
X-501584Y-638446D01*
X-502019Y-638511D01*
X-502446Y-638550D01*
X-502864Y-638563D01*
G37*
%LPC*%
G36*
X-502598Y-637179D02*
X-502281Y-637170D01*
X-501958Y-637142D01*
X-501627Y-637093D01*
X-498918Y-636615D01*
X-500596Y-627101D01*
X-502933Y-627513D01*
X-503499Y-627632D01*
X-504024Y-627782D01*
X-504508Y-627963D01*
X-504950Y-628175D01*
X-505351Y-628417D01*
X-505711Y-628691D01*
X-506030Y-628996D01*
X-506308Y-629331D01*
X-506543Y-629696D01*
X-506733Y-630087D01*
X-506879Y-630505D01*
X-506980Y-630949D01*
X-507036Y-631421D01*
X-507048Y-631919D01*
X-507016Y-632444D01*
X-506938Y-632995D01*
X-506865Y-633363D01*
X-506776Y-633715D01*
X-506673Y-634052D01*
X-506555Y-634373D01*
X-506423Y-634679D01*
X-506275Y-634970D01*
X-506113Y-635245D01*
X-505936Y-635505D01*
X-505745Y-635747D01*
X-505543Y-635971D01*
X-505329Y-636176D01*
X-505103Y-636363D01*
X-504865Y-636530D01*
X-504615Y-636679D01*
X-504354Y-636809D01*
X-504081Y-636921D01*
X-503798Y-637012D01*
X-503508Y-637084D01*
X-503212Y-637136D01*
X-502909Y-637168D01*
X-502598Y-637179D01*
G37*
%LPD*%
G36*
X-535819Y-644352D02*
X-536261Y-644328D01*
X-536680Y-644271D01*
X-537075Y-644181D01*
X-537446Y-644058D01*
X-537793Y-643901D01*
X-538111Y-643713D01*
X-538397Y-643497D01*
X-538650Y-643251D01*
X-538870Y-642976D01*
X-539057Y-642672D01*
X-539210Y-642339D01*
X-539331Y-641977D01*
X-539419Y-641586D01*
X-539459Y-641287D01*
X-539473Y-640996D01*
X-539459Y-640714D01*
X-539419Y-640440D01*
X-539352Y-640176D01*
X-539258Y-639920D01*
X-539137Y-639672D01*
X-538989Y-639434D01*
X-538896Y-639312D01*
X-538816Y-639208D01*
X-538619Y-638998D01*
X-538397Y-638803D01*
X-538152Y-638625D01*
X-537882Y-638462D01*
X-537588Y-638316D01*
X-537269Y-638185D01*
X-536927Y-638070D01*
X-537207Y-638047D01*
X-537475Y-638006D01*
X-537729Y-637948D01*
X-537971Y-637871D01*
X-538200Y-637777D01*
X-538415Y-637665D01*
X-538504Y-637608D01*
X-538618Y-637535D01*
X-538808Y-637388D01*
X-538983Y-637224D01*
X-539140Y-637046D01*
X-539281Y-636854D01*
X-539405Y-636648D01*
X-539512Y-636428D01*
X-539602Y-636194D01*
X-539675Y-635945D01*
X-539731Y-635683D01*
X-539777Y-635323D01*
X-539786Y-634980D01*
X-539757Y-634654D01*
X-539691Y-634345D01*
X-539587Y-634053D01*
X-539446Y-633779D01*
X-539268Y-633522D01*
X-539052Y-633282D01*
X-538798Y-633059D01*
X-538507Y-632853D01*
X-538178Y-632664D01*
X-537812Y-632493D01*
X-537409Y-632338D01*
X-536967Y-632201D01*
X-536489Y-632081D01*
X-535973Y-631978D01*
X-531557Y-631200D01*
X-529414Y-643353D01*
X-534347Y-644223D01*
X-534862Y-644299D01*
X-535352Y-644342D01*
X-535819Y-644352D01*
G37*
%LPC*%
G36*
X-535525Y-642989D02*
X-535204Y-642977D01*
X-534860Y-642944D01*
X-534494Y-642888D01*
X-531294Y-642324D01*
X-532066Y-637942D01*
X-535137Y-638484D01*
X-535501Y-638556D01*
X-535839Y-638642D01*
X-536150Y-638740D01*
X-536434Y-638851D01*
X-536692Y-638974D01*
X-536924Y-639110D01*
X-537128Y-639258D01*
X-537307Y-639420D01*
X-537458Y-639593D01*
X-537584Y-639780D01*
X-537682Y-639979D01*
X-537754Y-640191D01*
X-537800Y-640415D01*
X-537819Y-640652D01*
X-537811Y-640901D01*
X-537777Y-641164D01*
X-537719Y-641431D01*
X-537642Y-641678D01*
X-537547Y-641903D01*
X-537433Y-642108D01*
X-537301Y-642291D01*
X-537150Y-642454D01*
X-536980Y-642595D01*
X-536792Y-642715D01*
X-536584Y-642814D01*
X-536353Y-642891D01*
X-536099Y-642945D01*
X-535823Y-642978D01*
X-535525Y-642989D01*
G37*
G36*
X-535970Y-637233D02*
X-535685Y-637223D01*
X-535383Y-637194D01*
X-535062Y-637145D01*
X-532293Y-636657D01*
X-532971Y-632810D01*
X-535740Y-633298D01*
X-536049Y-633359D01*
X-536336Y-633430D01*
X-536602Y-633511D01*
X-536847Y-633602D01*
X-537071Y-633703D01*
X-537273Y-633814D01*
X-537455Y-633934D01*
X-537615Y-634064D01*
X-537753Y-634207D01*
X-537866Y-634363D01*
X-537955Y-634533D01*
X-538020Y-634716D01*
X-538061Y-634914D01*
X-538078Y-635125D01*
X-538071Y-635350D01*
X-538040Y-635589D01*
X-537986Y-635836D01*
X-537915Y-636062D01*
X-537826Y-636268D01*
X-537719Y-636454D01*
X-537596Y-636620D01*
X-537455Y-636766D01*
X-537296Y-636891D01*
X-537120Y-636997D01*
X-536926Y-637082D01*
X-536715Y-637149D01*
X-536485Y-637196D01*
X-536236Y-637224D01*
X-535970Y-637233D01*
G37*
%LPD*%
G36*
X-523474Y-642423D02*
X-523720Y-642419D01*
X-523961Y-642400D01*
X-524196Y-642367D01*
X-524650Y-642257D01*
X-525084Y-642090D01*
X-525496Y-641865D01*
X-525888Y-641581D01*
X-526258Y-641240D01*
X-526604Y-640844D01*
X-526923Y-640397D01*
X-527213Y-639898D01*
X-527476Y-639347D01*
X-527711Y-638745D01*
X-527918Y-638091D01*
X-528098Y-637386D01*
X-528250Y-636629D01*
X-528362Y-635897D01*
X-528433Y-635206D01*
X-528464Y-634557D01*
X-528453Y-633950D01*
X-528402Y-633384D01*
X-528309Y-632859D01*
X-528176Y-632376D01*
X-528002Y-631934D01*
X-527787Y-631533D01*
X-527534Y-631174D01*
X-527242Y-630857D01*
X-526911Y-630581D01*
X-526540Y-630346D01*
X-526131Y-630153D01*
X-525683Y-630001D01*
X-525444Y-629941D01*
X-525196Y-629891D01*
X-524729Y-629827D01*
X-524283Y-629801D01*
X-523857Y-629813D01*
X-523450Y-629865D01*
X-523064Y-629955D01*
X-522699Y-630084D01*
X-522353Y-630251D01*
X-522027Y-630458D01*
X-521726Y-630699D01*
X-521454Y-630972D01*
X-521211Y-631276D01*
X-520997Y-631611D01*
X-520812Y-631978D01*
X-520655Y-632376D01*
X-520528Y-632806D01*
X-520429Y-633266D01*
X-520365Y-633721D01*
X-520335Y-634159D01*
X-520341Y-634579D01*
X-520381Y-634981D01*
X-520455Y-635366D01*
X-520565Y-635733D01*
X-520709Y-636083D01*
X-520888Y-636416D01*
X-521098Y-636724D01*
X-521334Y-637000D01*
X-521597Y-637245D01*
X-521887Y-637459D01*
X-522203Y-637641D01*
X-522546Y-637792D01*
X-522916Y-637911D01*
X-523312Y-637999D01*
X-523561Y-638036D01*
X-523808Y-638056D01*
X-524051Y-638061D01*
X-524293Y-638051D01*
X-524531Y-638025D01*
X-524768Y-637983D01*
X-525001Y-637926D01*
X-525232Y-637853D01*
X-525456Y-637766D01*
X-525665Y-637667D01*
X-525861Y-637556D01*
X-526043Y-637432D01*
X-526211Y-637297D01*
X-526366Y-637148D01*
X-526507Y-636988D01*
X-526634Y-636815D01*
X-526516Y-637371D01*
X-526382Y-637890D01*
X-526232Y-638371D01*
X-526065Y-638816D01*
X-525883Y-639224D01*
X-525685Y-639594D01*
X-525471Y-639928D01*
X-525241Y-640225D01*
X-524997Y-640482D01*
X-524741Y-640697D01*
X-524473Y-640870D01*
X-524193Y-641001D01*
X-523901Y-641089D01*
X-523596Y-641136D01*
X-523280Y-641140D01*
X-522952Y-641102D01*
X-522759Y-641062D01*
X-522577Y-641011D01*
X-522245Y-640879D01*
X-521957Y-640706D01*
X-521712Y-640492D01*
X-521511Y-640236D01*
X-521353Y-639939D01*
X-521238Y-639601D01*
X-521167Y-639222D01*
X-519642Y-639193D01*
X-519686Y-639534D01*
X-519748Y-639854D01*
X-519830Y-640153D01*
X-519932Y-640433D01*
X-520052Y-640692D01*
X-520192Y-640930D01*
X-520351Y-641148D01*
X-520530Y-641346D01*
X-520729Y-641526D01*
X-520948Y-641690D01*
X-521189Y-641839D01*
X-521450Y-641972D01*
X-521733Y-642090D01*
X-522036Y-642191D01*
X-522360Y-642278D01*
X-522706Y-642348D01*
X-522967Y-642387D01*
X-523223Y-642412D01*
X-523474Y-642423D01*
G37*
%LPC*%
G36*
X-524233Y-636879D02*
X-523899Y-636840D01*
X-523632Y-636780D01*
X-523384Y-636699D01*
X-523155Y-636597D01*
X-522943Y-636472D01*
X-522751Y-636327D01*
X-522577Y-636159D01*
X-522421Y-635970D01*
X-522284Y-635759D01*
X-522168Y-635531D01*
X-522076Y-635289D01*
X-522006Y-635032D01*
X-521960Y-634763D01*
X-521937Y-634479D01*
X-521937Y-634181D01*
X-521961Y-633870D01*
X-522008Y-633545D01*
X-522074Y-633229D01*
X-522157Y-632934D01*
X-522258Y-632660D01*
X-522375Y-632406D01*
X-522510Y-632172D01*
X-522663Y-631959D01*
X-522832Y-631766D01*
X-523019Y-631593D01*
X-523220Y-631444D01*
X-523431Y-631321D01*
X-523653Y-631225D01*
X-523885Y-631156D01*
X-524129Y-631112D01*
X-524382Y-631096D01*
X-524647Y-631105D01*
X-524922Y-631141D01*
X-525195Y-631204D01*
X-525448Y-631292D01*
X-525683Y-631405D01*
X-525898Y-631544D01*
X-526094Y-631708D01*
X-526271Y-631897D01*
X-526429Y-632112D01*
X-526567Y-632352D01*
X-526684Y-632612D01*
X-526776Y-632886D01*
X-526845Y-633175D01*
X-526889Y-633477D01*
X-526909Y-633794D01*
X-526905Y-634125D01*
X-526876Y-634470D01*
X-526824Y-634830D01*
X-526742Y-635174D01*
X-526622Y-635492D01*
X-526463Y-635783D01*
X-526267Y-636048D01*
X-526039Y-636280D01*
X-525786Y-636475D01*
X-525507Y-636633D01*
X-525204Y-636754D01*
X-524885Y-636836D01*
X-524562Y-636878D01*
X-524233Y-636879D01*
G37*
%LPD*%
G36*
X-517292Y-641216D02*
X-517525Y-639896D01*
X-514566Y-639374D01*
X-516476Y-628541D01*
X-515044Y-628288D01*
X-511824Y-629757D01*
X-511565Y-631223D01*
X-514653Y-629749D01*
X-513005Y-639099D01*
X-509908Y-638553D01*
X-509676Y-639873D01*
X-517292Y-641216D01*
G37*
G36*
X558680Y-58980D02*
X554064Y-58980D01*
X553624Y-58968D01*
X553197Y-58932D01*
X552783Y-58873D01*
X552382Y-58790D01*
X551995Y-58682D01*
X551620Y-58551D01*
X551259Y-58397D01*
X550911Y-58218D01*
X550579Y-58017D01*
X550267Y-57795D01*
X549974Y-57552D01*
X549700Y-57289D01*
X549446Y-57004D01*
X549211Y-56698D01*
X548996Y-56372D01*
X548800Y-56024D01*
X548626Y-55659D01*
X548474Y-55278D01*
X548346Y-54883D01*
X548242Y-54473D01*
X548160Y-54048D01*
X548102Y-53607D01*
X548067Y-53153D01*
X548056Y-52683D01*
X548062Y-52325D01*
X548082Y-51979D01*
X548115Y-51642D01*
X548162Y-51316D01*
X548222Y-51000D01*
X548295Y-50695D01*
X548382Y-50400D01*
X548481Y-50115D01*
X548595Y-49841D01*
X548721Y-49577D01*
X548861Y-49324D01*
X549014Y-49080D01*
X549180Y-48848D01*
X549360Y-48625D01*
X549553Y-48413D01*
X549759Y-48211D01*
X549978Y-48021D01*
X550207Y-47843D01*
X550448Y-47677D01*
X550700Y-47524D01*
X550964Y-47382D01*
X551238Y-47253D01*
X551524Y-47137D01*
X551821Y-47032D01*
X552129Y-46940D01*
X552448Y-46860D01*
X552778Y-46793D01*
X553120Y-46738D01*
X553473Y-46695D01*
X553837Y-46664D01*
X554212Y-46645D01*
X554598Y-46639D01*
X558680Y-46639D01*
X558680Y-58980D01*
G37*
%LPC*%
G36*
X557007Y-57640D02*
X557007Y-47979D01*
X554633Y-47979D01*
X554055Y-47998D01*
X553512Y-48055D01*
X553005Y-48149D01*
X552532Y-48280D01*
X552095Y-48450D01*
X551693Y-48657D01*
X551326Y-48901D01*
X550994Y-49184D01*
X550699Y-49502D01*
X550444Y-49854D01*
X550228Y-50240D01*
X550051Y-50661D01*
X549914Y-51115D01*
X549816Y-51603D01*
X549757Y-52126D01*
X549737Y-52683D01*
X549746Y-53057D01*
X549772Y-53419D01*
X549815Y-53769D01*
X549875Y-54106D01*
X549953Y-54430D01*
X550048Y-54742D01*
X550160Y-55041D01*
X550289Y-55328D01*
X550434Y-55600D01*
X550595Y-55855D01*
X550770Y-56095D01*
X550960Y-56317D01*
X551165Y-56524D01*
X551385Y-56714D01*
X551620Y-56887D01*
X551870Y-57044D01*
X552132Y-57184D01*
X552405Y-57305D01*
X552688Y-57407D01*
X552981Y-57491D01*
X553285Y-57556D01*
X553598Y-57603D01*
X553922Y-57631D01*
X554257Y-57640D01*
X557007Y-57640D01*
G37*
%LPD*%
G36*
X535773Y-58980D02*
X530764Y-58980D01*
X530244Y-58966D01*
X529754Y-58923D01*
X529292Y-58851D01*
X528861Y-58751D01*
X528458Y-58623D01*
X528085Y-58465D01*
X527741Y-58279D01*
X527427Y-58065D01*
X527145Y-57825D01*
X526902Y-57561D01*
X526695Y-57275D01*
X526527Y-56967D01*
X526395Y-56635D01*
X526302Y-56280D01*
X526245Y-55903D01*
X526227Y-55503D01*
X526239Y-55201D01*
X526276Y-54912D01*
X526339Y-54636D01*
X526426Y-54374D01*
X526538Y-54125D01*
X526675Y-53889D01*
X526837Y-53667D01*
X527024Y-53458D01*
X527137Y-53354D01*
X527233Y-53265D01*
X527464Y-53092D01*
X527716Y-52939D01*
X527989Y-52806D01*
X528283Y-52693D01*
X528599Y-52600D01*
X528935Y-52526D01*
X529292Y-52472D01*
X529020Y-52401D01*
X528763Y-52315D01*
X528523Y-52213D01*
X528298Y-52096D01*
X528089Y-51963D01*
X527896Y-51816D01*
X527818Y-51744D01*
X527719Y-51652D01*
X527558Y-51474D01*
X527414Y-51282D01*
X527290Y-51080D01*
X527184Y-50866D01*
X527098Y-50642D01*
X527031Y-50407D01*
X526983Y-50160D01*
X526954Y-49903D01*
X526945Y-49635D01*
X526962Y-49272D01*
X527013Y-48933D01*
X527098Y-48617D01*
X527216Y-48324D01*
X527369Y-48055D01*
X527556Y-47809D01*
X527776Y-47587D01*
X528031Y-47388D01*
X528319Y-47213D01*
X528642Y-47060D01*
X528998Y-46932D01*
X529388Y-46826D01*
X529813Y-46745D01*
X530271Y-46686D01*
X530763Y-46651D01*
X531289Y-46639D01*
X535773Y-46639D01*
X535773Y-58980D01*
G37*
%LPC*%
G36*
X534101Y-57640D02*
X534101Y-53191D01*
X530982Y-53191D01*
X530611Y-53199D01*
X530264Y-53225D01*
X529941Y-53267D01*
X529641Y-53327D01*
X529366Y-53404D01*
X529114Y-53497D01*
X528887Y-53608D01*
X528683Y-53736D01*
X528504Y-53881D01*
X528348Y-54043D01*
X528216Y-54221D01*
X528109Y-54417D01*
X528025Y-54630D01*
X527965Y-54860D01*
X527929Y-55107D01*
X527917Y-55372D01*
X527928Y-55645D01*
X527961Y-55901D01*
X528016Y-56140D01*
X528092Y-56361D01*
X528191Y-56565D01*
X528311Y-56751D01*
X528453Y-56920D01*
X528618Y-57071D01*
X528806Y-57204D01*
X529020Y-57320D01*
X529260Y-57418D01*
X529526Y-57498D01*
X529819Y-57560D01*
X530137Y-57604D01*
X530481Y-57631D01*
X530851Y-57640D01*
X534101Y-57640D01*
G37*
G36*
X534101Y-51886D02*
X534101Y-47979D01*
X531289Y-47979D01*
X530975Y-47986D01*
X530679Y-48006D01*
X530403Y-48040D01*
X530146Y-48087D01*
X529908Y-48147D01*
X529690Y-48221D01*
X529490Y-48308D01*
X529310Y-48408D01*
X529149Y-48525D01*
X529011Y-48659D01*
X528893Y-48810D01*
X528797Y-48980D01*
X528723Y-49167D01*
X528669Y-49372D01*
X528637Y-49595D01*
X528626Y-49836D01*
X528637Y-50088D01*
X528668Y-50324D01*
X528719Y-50542D01*
X528792Y-50744D01*
X528885Y-50929D01*
X528998Y-51097D01*
X529133Y-51248D01*
X529288Y-51382D01*
X529464Y-51500D01*
X529661Y-51602D01*
X529879Y-51689D01*
X530119Y-51760D01*
X530379Y-51815D01*
X530661Y-51854D01*
X530965Y-51878D01*
X531289Y-51886D01*
X534101Y-51886D01*
G37*
%LPD*%
G36*
X542011Y-59155D02*
X541557Y-59138D01*
X541129Y-59085D01*
X540725Y-58996D01*
X540347Y-58873D01*
X539994Y-58714D01*
X539666Y-58520D01*
X539363Y-58290D01*
X539086Y-58025D01*
X538837Y-57730D01*
X538622Y-57409D01*
X538440Y-57062D01*
X538291Y-56690D01*
X538175Y-56291D01*
X538092Y-55867D01*
X538042Y-55418D01*
X538026Y-54942D01*
X538042Y-54503D01*
X538089Y-54086D01*
X538167Y-53693D01*
X538277Y-53322D01*
X538418Y-52974D01*
X538590Y-52650D01*
X538794Y-52348D01*
X539029Y-52070D01*
X539290Y-51819D01*
X539574Y-51602D01*
X539880Y-51418D01*
X540208Y-51268D01*
X540558Y-51151D01*
X540930Y-51068D01*
X541324Y-51018D01*
X541740Y-51001D01*
X541988Y-51007D01*
X542229Y-51027D01*
X542463Y-51060D01*
X542690Y-51105D01*
X543122Y-51235D01*
X543526Y-51417D01*
X543894Y-51649D01*
X544218Y-51928D01*
X544498Y-52255D01*
X544735Y-52630D01*
X544723Y-52052D01*
X544689Y-51509D01*
X544631Y-51002D01*
X544550Y-50529D01*
X544446Y-50092D01*
X544319Y-49690D01*
X544168Y-49323D01*
X543995Y-48991D01*
X543800Y-48696D01*
X543587Y-48441D01*
X543354Y-48225D01*
X543103Y-48048D01*
X542832Y-47911D01*
X542542Y-47813D01*
X542234Y-47754D01*
X541906Y-47734D01*
X541531Y-47758D01*
X541191Y-47828D01*
X540885Y-47946D01*
X540614Y-48111D01*
X540377Y-48323D01*
X540175Y-48581D01*
X540007Y-48887D01*
X539874Y-49241D01*
X538367Y-48969D01*
X538466Y-48665D01*
X538582Y-48380D01*
X538713Y-48115D01*
X538860Y-47869D01*
X539024Y-47643D01*
X539203Y-47437D01*
X539399Y-47251D01*
X539611Y-47084D01*
X539839Y-46936D01*
X540084Y-46809D01*
X540344Y-46701D01*
X540621Y-46612D01*
X540913Y-46544D01*
X541222Y-46495D01*
X541547Y-46465D01*
X541888Y-46455D01*
X542150Y-46462D01*
X542403Y-46482D01*
X542649Y-46516D01*
X542887Y-46563D01*
X543118Y-46623D01*
X543341Y-46697D01*
X543765Y-46884D01*
X544158Y-47126D01*
X544521Y-47421D01*
X544853Y-47770D01*
X545155Y-48172D01*
X545424Y-48624D01*
X545657Y-49123D01*
X545855Y-49669D01*
X546016Y-50261D01*
X546141Y-50899D01*
X546231Y-51585D01*
X546285Y-52316D01*
X546303Y-53094D01*
X546285Y-53812D01*
X546234Y-54486D01*
X546148Y-55116D01*
X546027Y-55702D01*
X545872Y-56244D01*
X545682Y-56742D01*
X545458Y-57195D01*
X545199Y-57605D01*
X544908Y-57968D01*
X544586Y-58283D01*
X544233Y-58550D01*
X543850Y-58768D01*
X543436Y-58937D01*
X542992Y-59058D01*
X542517Y-59131D01*
X542268Y-59149D01*
X542011Y-59155D01*
G37*
%LPC*%
G36*
X542064Y-57885D02*
X542333Y-57871D01*
X542590Y-57828D01*
X542835Y-57757D01*
X543068Y-57657D01*
X543287Y-57529D01*
X543495Y-57373D01*
X543690Y-57188D01*
X543872Y-56974D01*
X544037Y-56739D01*
X544181Y-56487D01*
X544302Y-56218D01*
X544401Y-55934D01*
X544478Y-55634D01*
X544533Y-55317D01*
X544566Y-54985D01*
X544577Y-54636D01*
X544567Y-54361D01*
X544535Y-54101D01*
X544482Y-53857D01*
X544408Y-53627D01*
X544312Y-53413D01*
X544195Y-53214D01*
X544058Y-53031D01*
X543898Y-52862D01*
X543722Y-52711D01*
X543533Y-52581D01*
X543330Y-52470D01*
X543113Y-52379D01*
X542884Y-52309D01*
X542641Y-52259D01*
X542385Y-52228D01*
X542116Y-52218D01*
X541831Y-52230D01*
X541562Y-52264D01*
X541309Y-52321D01*
X541072Y-52400D01*
X540851Y-52502D01*
X540646Y-52627D01*
X540458Y-52775D01*
X540286Y-52945D01*
X540132Y-53137D01*
X539998Y-53347D01*
X539885Y-53577D01*
X539793Y-53826D01*
X539721Y-54094D01*
X539670Y-54381D01*
X539639Y-54687D01*
X539629Y-55012D01*
X539639Y-55338D01*
X539669Y-55647D01*
X539720Y-55937D01*
X539791Y-56209D01*
X539882Y-56463D01*
X539993Y-56700D01*
X540125Y-56918D01*
X540277Y-57119D01*
X540447Y-57298D01*
X540632Y-57454D01*
X540832Y-57586D01*
X541048Y-57694D01*
X541279Y-57777D01*
X541525Y-57837D01*
X541787Y-57873D01*
X542064Y-57885D01*
G37*
%LPD*%
G36*
X378492Y-58500D02*
X373876Y-58500D01*
X373436Y-58488D01*
X373009Y-58452D01*
X372595Y-58393D01*
X372194Y-58310D01*
X371807Y-58202D01*
X371432Y-58071D01*
X371071Y-57917D01*
X370723Y-57738D01*
X370391Y-57537D01*
X370079Y-57315D01*
X369786Y-57072D01*
X369512Y-56809D01*
X369258Y-56524D01*
X369023Y-56218D01*
X368808Y-55892D01*
X368612Y-55544D01*
X368438Y-55179D01*
X368286Y-54798D01*
X368158Y-54403D01*
X368054Y-53993D01*
X367972Y-53568D01*
X367914Y-53127D01*
X367879Y-52673D01*
X367868Y-52203D01*
X367874Y-51845D01*
X367894Y-51499D01*
X367927Y-51162D01*
X367974Y-50836D01*
X368034Y-50520D01*
X368107Y-50215D01*
X368194Y-49920D01*
X368293Y-49635D01*
X368407Y-49361D01*
X368533Y-49097D01*
X368673Y-48844D01*
X368826Y-48600D01*
X368992Y-48368D01*
X369172Y-48145D01*
X369365Y-47933D01*
X369571Y-47731D01*
X369790Y-47541D01*
X370019Y-47363D01*
X370260Y-47197D01*
X370512Y-47044D01*
X370776Y-46902D01*
X371050Y-46773D01*
X371336Y-46657D01*
X371633Y-46552D01*
X371941Y-46460D01*
X372260Y-46380D01*
X372590Y-46313D01*
X372932Y-46258D01*
X373285Y-46215D01*
X373649Y-46184D01*
X374024Y-46165D01*
X374410Y-46159D01*
X378492Y-46159D01*
X378492Y-58500D01*
G37*
%LPC*%
G36*
X376819Y-57160D02*
X376819Y-47499D01*
X374445Y-47499D01*
X373867Y-47518D01*
X373324Y-47575D01*
X372817Y-47669D01*
X372344Y-47800D01*
X371907Y-47970D01*
X371505Y-48177D01*
X371138Y-48421D01*
X370806Y-48704D01*
X370511Y-49022D01*
X370256Y-49374D01*
X370040Y-49760D01*
X369863Y-50181D01*
X369726Y-50635D01*
X369628Y-51123D01*
X369569Y-51646D01*
X369549Y-52203D01*
X369558Y-52577D01*
X369584Y-52939D01*
X369627Y-53289D01*
X369687Y-53626D01*
X369765Y-53950D01*
X369860Y-54262D01*
X369972Y-54561D01*
X370101Y-54848D01*
X370246Y-55120D01*
X370407Y-55375D01*
X370582Y-55615D01*
X370772Y-55837D01*
X370977Y-56044D01*
X371197Y-56234D01*
X371432Y-56407D01*
X371682Y-56564D01*
X371944Y-56704D01*
X372217Y-56825D01*
X372500Y-56927D01*
X372793Y-57011D01*
X373097Y-57076D01*
X373410Y-57123D01*
X373734Y-57151D01*
X374069Y-57160D01*
X376819Y-57160D01*
G37*
%LPD*%
G36*
X355585Y-58500D02*
X350576Y-58500D01*
X350056Y-58486D01*
X349566Y-58443D01*
X349104Y-58371D01*
X348673Y-58271D01*
X348270Y-58143D01*
X347897Y-57985D01*
X347553Y-57799D01*
X347239Y-57585D01*
X346957Y-57345D01*
X346714Y-57081D01*
X346507Y-56795D01*
X346339Y-56487D01*
X346207Y-56155D01*
X346114Y-55800D01*
X346057Y-55423D01*
X346039Y-55023D01*
X346051Y-54721D01*
X346088Y-54432D01*
X346151Y-54156D01*
X346238Y-53894D01*
X346350Y-53645D01*
X346487Y-53409D01*
X346649Y-53187D01*
X346836Y-52978D01*
X346949Y-52874D01*
X347045Y-52785D01*
X347276Y-52612D01*
X347528Y-52459D01*
X347801Y-52326D01*
X348095Y-52213D01*
X348411Y-52120D01*
X348747Y-52046D01*
X349104Y-51992D01*
X348832Y-51921D01*
X348575Y-51835D01*
X348335Y-51733D01*
X348110Y-51616D01*
X347901Y-51483D01*
X347708Y-51336D01*
X347630Y-51264D01*
X347531Y-51172D01*
X347370Y-50994D01*
X347226Y-50802D01*
X347102Y-50600D01*
X346996Y-50386D01*
X346910Y-50162D01*
X346843Y-49927D01*
X346795Y-49680D01*
X346766Y-49423D01*
X346757Y-49155D01*
X346774Y-48792D01*
X346825Y-48453D01*
X346910Y-48137D01*
X347028Y-47844D01*
X347181Y-47575D01*
X347368Y-47329D01*
X347588Y-47107D01*
X347843Y-46908D01*
X348131Y-46733D01*
X348454Y-46580D01*
X348810Y-46452D01*
X349200Y-46346D01*
X349625Y-46265D01*
X350083Y-46206D01*
X350575Y-46171D01*
X351101Y-46159D01*
X355585Y-46159D01*
X355585Y-58500D01*
G37*
%LPC*%
G36*
X353913Y-57160D02*
X353913Y-52711D01*
X350794Y-52711D01*
X350423Y-52719D01*
X350076Y-52745D01*
X349753Y-52787D01*
X349453Y-52847D01*
X349178Y-52924D01*
X348926Y-53017D01*
X348699Y-53128D01*
X348495Y-53256D01*
X348316Y-53401D01*
X348160Y-53563D01*
X348028Y-53741D01*
X347921Y-53937D01*
X347837Y-54150D01*
X347777Y-54380D01*
X347741Y-54627D01*
X347729Y-54892D01*
X347740Y-55165D01*
X347773Y-55421D01*
X347828Y-55660D01*
X347904Y-55881D01*
X348003Y-56085D01*
X348123Y-56271D01*
X348265Y-56440D01*
X348430Y-56591D01*
X348618Y-56724D01*
X348832Y-56840D01*
X349072Y-56938D01*
X349338Y-57018D01*
X349631Y-57080D01*
X349949Y-57124D01*
X350293Y-57151D01*
X350663Y-57160D01*
X353913Y-57160D01*
G37*
G36*
X353913Y-51406D02*
X353913Y-47499D01*
X351101Y-47499D01*
X350787Y-47506D01*
X350491Y-47526D01*
X350215Y-47560D01*
X349958Y-47607D01*
X349720Y-47667D01*
X349502Y-47741D01*
X349302Y-47828D01*
X349122Y-47928D01*
X348961Y-48045D01*
X348823Y-48179D01*
X348705Y-48330D01*
X348609Y-48500D01*
X348535Y-48687D01*
X348481Y-48892D01*
X348449Y-49115D01*
X348438Y-49356D01*
X348449Y-49608D01*
X348480Y-49844D01*
X348531Y-50062D01*
X348604Y-50264D01*
X348697Y-50449D01*
X348810Y-50617D01*
X348945Y-50768D01*
X349100Y-50902D01*
X349276Y-51020D01*
X349473Y-51122D01*
X349691Y-51209D01*
X349931Y-51280D01*
X350191Y-51335D01*
X350473Y-51374D01*
X350777Y-51398D01*
X351101Y-51406D01*
X353913Y-51406D01*
G37*
%LPD*%
G36*
X362182Y-58675D02*
X361682Y-58658D01*
X361209Y-58605D01*
X360765Y-58518D01*
X360348Y-58395D01*
X359960Y-58237D01*
X359600Y-58045D01*
X359268Y-57817D01*
X358963Y-57554D01*
X358691Y-57261D01*
X358456Y-56942D01*
X358256Y-56596D01*
X358093Y-56225D01*
X357966Y-55828D01*
X357875Y-55404D01*
X357821Y-54955D01*
X357803Y-54480D01*
X357820Y-54061D01*
X357870Y-53662D01*
X357955Y-53283D01*
X358073Y-52925D01*
X358225Y-52587D01*
X358411Y-52269D01*
X358631Y-51972D01*
X358885Y-51695D01*
X359167Y-51444D01*
X359472Y-51227D01*
X359800Y-51043D01*
X360151Y-50893D01*
X360526Y-50776D01*
X360923Y-50693D01*
X361344Y-50643D01*
X361788Y-50626D01*
X362161Y-50638D01*
X362519Y-50675D01*
X362861Y-50737D01*
X363187Y-50823D01*
X363498Y-50934D01*
X363793Y-51070D01*
X364073Y-51230D01*
X364337Y-51414D01*
X364100Y-47499D01*
X358521Y-47499D01*
X358521Y-46159D01*
X365537Y-46159D01*
X365948Y-52798D01*
X364407Y-52798D01*
X364131Y-52575D01*
X363855Y-52387D01*
X363579Y-52233D01*
X363303Y-52115D01*
X363022Y-52027D01*
X362730Y-51964D01*
X362426Y-51926D01*
X362112Y-51914D01*
X361813Y-51925D01*
X361530Y-51958D01*
X361263Y-52015D01*
X361012Y-52093D01*
X360776Y-52194D01*
X360556Y-52318D01*
X360352Y-52463D01*
X360163Y-52632D01*
X359994Y-52818D01*
X359847Y-53019D01*
X359723Y-53233D01*
X359621Y-53462D01*
X359542Y-53704D01*
X359486Y-53960D01*
X359452Y-54231D01*
X359441Y-54515D01*
X359452Y-54841D01*
X359486Y-55149D01*
X359542Y-55439D01*
X359620Y-55712D01*
X359721Y-55966D01*
X359845Y-56202D01*
X359991Y-56421D01*
X360159Y-56621D01*
X360347Y-56801D01*
X360552Y-56957D01*
X360775Y-57088D01*
X361015Y-57196D01*
X361272Y-57280D01*
X361547Y-57340D01*
X361838Y-57376D01*
X362147Y-57388D01*
X362399Y-57381D01*
X362639Y-57359D01*
X362867Y-57323D01*
X363083Y-57273D01*
X363286Y-57209D01*
X363477Y-57130D01*
X363656Y-57037D01*
X363822Y-56930D01*
X363976Y-56809D01*
X364118Y-56673D01*
X364248Y-56522D01*
X364366Y-56358D01*
X364471Y-56179D01*
X364564Y-55986D01*
X364645Y-55779D01*
X364713Y-55557D01*
X366307Y-55741D01*
X366225Y-56087D01*
X366119Y-56413D01*
X365988Y-56717D01*
X365832Y-57000D01*
X365653Y-57262D01*
X365449Y-57503D01*
X365220Y-57723D01*
X364967Y-57922D01*
X364692Y-58099D01*
X364396Y-58252D01*
X364079Y-58381D01*
X363741Y-58487D01*
X363383Y-58569D01*
X363003Y-58628D01*
X362603Y-58663D01*
X362182Y-58675D01*
G37*
G36*
X198152Y49440D02*
X193536Y49440D01*
X193096Y49452D01*
X192669Y49488D01*
X192255Y49547D01*
X191854Y49630D01*
X191467Y49738D01*
X191092Y49869D01*
X190731Y50023D01*
X190383Y50202D01*
X190051Y50403D01*
X189739Y50625D01*
X189446Y50868D01*
X189172Y51131D01*
X188918Y51416D01*
X188683Y51722D01*
X188468Y52048D01*
X188272Y52396D01*
X188098Y52761D01*
X187946Y53142D01*
X187818Y53537D01*
X187714Y53947D01*
X187632Y54372D01*
X187574Y54813D01*
X187539Y55268D01*
X187528Y55737D01*
X187534Y56095D01*
X187554Y56441D01*
X187587Y56778D01*
X187634Y57104D01*
X187694Y57420D01*
X187767Y57725D01*
X187854Y58020D01*
X187953Y58305D01*
X188067Y58579D01*
X188193Y58843D01*
X188333Y59096D01*
X188486Y59340D01*
X188652Y59572D01*
X188832Y59795D01*
X189025Y60007D01*
X189231Y60209D01*
X189450Y60399D01*
X189679Y60577D01*
X189920Y60743D01*
X190172Y60896D01*
X190436Y61038D01*
X190710Y61167D01*
X190996Y61283D01*
X191293Y61388D01*
X191601Y61480D01*
X191920Y61560D01*
X192250Y61627D01*
X192592Y61683D01*
X192945Y61726D01*
X193309Y61756D01*
X193684Y61775D01*
X194070Y61781D01*
X198152Y61781D01*
X198152Y49440D01*
G37*
%LPC*%
G36*
X196479Y50780D02*
X196479Y60441D01*
X194105Y60441D01*
X193527Y60422D01*
X192984Y60365D01*
X192477Y60271D01*
X192004Y60140D01*
X191567Y59970D01*
X191165Y59763D01*
X190798Y59519D01*
X190466Y59236D01*
X190171Y58918D01*
X189916Y58566D01*
X189700Y58180D01*
X189523Y57760D01*
X189386Y57305D01*
X189288Y56817D01*
X189229Y56294D01*
X189209Y55737D01*
X189218Y55363D01*
X189244Y55001D01*
X189287Y54651D01*
X189347Y54314D01*
X189425Y53990D01*
X189520Y53678D01*
X189632Y53379D01*
X189761Y53092D01*
X189906Y52820D01*
X190067Y52565D01*
X190242Y52325D01*
X190432Y52103D01*
X190637Y51896D01*
X190857Y51706D01*
X191092Y51533D01*
X191342Y51376D01*
X191604Y51236D01*
X191877Y51115D01*
X192160Y51013D01*
X192453Y50929D01*
X192757Y50864D01*
X193070Y50817D01*
X193394Y50789D01*
X193729Y50780D01*
X196479Y50780D01*
G37*
%LPD*%
G36*
X175245Y49440D02*
X170236Y49440D01*
X169716Y49454D01*
X169226Y49497D01*
X168764Y49569D01*
X168333Y49669D01*
X167930Y49798D01*
X167557Y49955D01*
X167213Y50141D01*
X166899Y50355D01*
X166617Y50596D01*
X166374Y50859D01*
X166167Y51145D01*
X165999Y51453D01*
X165867Y51785D01*
X165774Y52140D01*
X165717Y52517D01*
X165699Y52917D01*
X165711Y53219D01*
X165748Y53508D01*
X165811Y53784D01*
X165898Y54046D01*
X166010Y54295D01*
X166147Y54531D01*
X166309Y54753D01*
X166496Y54962D01*
X166609Y55066D01*
X166705Y55155D01*
X166936Y55328D01*
X167188Y55481D01*
X167461Y55614D01*
X167755Y55727D01*
X168071Y55820D01*
X168407Y55894D01*
X168764Y55948D01*
X168492Y56019D01*
X168235Y56105D01*
X167995Y56207D01*
X167770Y56324D01*
X167561Y56457D01*
X167368Y56604D01*
X167290Y56676D01*
X167191Y56768D01*
X167030Y56946D01*
X166886Y57138D01*
X166762Y57340D01*
X166656Y57554D01*
X166570Y57778D01*
X166503Y58014D01*
X166455Y58260D01*
X166426Y58517D01*
X166417Y58785D01*
X166434Y59148D01*
X166485Y59487D01*
X166570Y59803D01*
X166688Y60096D01*
X166841Y60365D01*
X167028Y60611D01*
X167248Y60833D01*
X167503Y61032D01*
X167791Y61207D01*
X168114Y61360D01*
X168470Y61488D01*
X168860Y61594D01*
X169285Y61675D01*
X169743Y61734D01*
X170235Y61769D01*
X170761Y61781D01*
X175245Y61781D01*
X175245Y49440D01*
G37*
%LPC*%
G36*
X173573Y50780D02*
X173573Y55229D01*
X170454Y55229D01*
X170083Y55221D01*
X169736Y55195D01*
X169413Y55153D01*
X169113Y55093D01*
X168838Y55016D01*
X168586Y54923D01*
X168359Y54812D01*
X168155Y54684D01*
X167976Y54539D01*
X167820Y54377D01*
X167688Y54199D01*
X167581Y54003D01*
X167497Y53790D01*
X167437Y53560D01*
X167401Y53313D01*
X167389Y53049D01*
X167400Y52775D01*
X167433Y52519D01*
X167488Y52280D01*
X167564Y52059D01*
X167663Y51855D01*
X167783Y51669D01*
X167925Y51500D01*
X168090Y51349D01*
X168278Y51216D01*
X168492Y51100D01*
X168732Y51002D01*
X168998Y50922D01*
X169291Y50860D01*
X169609Y50816D01*
X169953Y50789D01*
X170323Y50780D01*
X173573Y50780D01*
G37*
G36*
X173573Y56534D02*
X173573Y60441D01*
X170761Y60441D01*
X170447Y60434D01*
X170151Y60414D01*
X169875Y60380D01*
X169618Y60333D01*
X169380Y60273D01*
X169162Y60199D01*
X168962Y60112D01*
X168782Y60012D01*
X168621Y59895D01*
X168483Y59761D01*
X168365Y59610D01*
X168269Y59440D01*
X168195Y59253D01*
X168141Y59048D01*
X168109Y58825D01*
X168098Y58584D01*
X168109Y58332D01*
X168140Y58096D01*
X168191Y57878D01*
X168264Y57676D01*
X168357Y57491D01*
X168470Y57324D01*
X168605Y57172D01*
X168760Y57038D01*
X168936Y56920D01*
X169133Y56818D01*
X169351Y56731D01*
X169591Y56660D01*
X169851Y56605D01*
X170133Y56566D01*
X170437Y56542D01*
X170761Y56534D01*
X173573Y56534D01*
G37*
%LPD*%
G36*
X180458Y49440D02*
X178969Y49440D01*
X178969Y52234D01*
X177235Y52234D01*
X177235Y53478D01*
X178969Y53478D01*
X178969Y61781D01*
X180625Y61781D01*
X186274Y53460D01*
X186274Y52234D01*
X180458Y52234D01*
X180458Y49440D01*
G37*
%LPC*%
G36*
X184820Y53478D02*
X184680Y53653D01*
X184207Y54301D01*
X181045Y58961D01*
X180704Y59539D01*
X180458Y60003D01*
X180458Y53478D01*
X184820Y53478D01*
G37*
%LPD*%
G36*
X18152Y99440D02*
X13536Y99440D01*
X13096Y99452D01*
X12669Y99488D01*
X12255Y99547D01*
X11854Y99630D01*
X11467Y99738D01*
X11092Y99869D01*
X10731Y100023D01*
X10383Y100202D01*
X10051Y100403D01*
X9739Y100625D01*
X9446Y100868D01*
X9172Y101131D01*
X8918Y101416D01*
X8683Y101722D01*
X8468Y102048D01*
X8272Y102396D01*
X8098Y102761D01*
X7946Y103142D01*
X7818Y103537D01*
X7714Y103947D01*
X7632Y104372D01*
X7574Y104813D01*
X7539Y105268D01*
X7528Y105737D01*
X7534Y106095D01*
X7554Y106441D01*
X7587Y106778D01*
X7634Y107104D01*
X7694Y107420D01*
X7767Y107725D01*
X7854Y108020D01*
X7953Y108305D01*
X8067Y108579D01*
X8193Y108843D01*
X8333Y109096D01*
X8486Y109340D01*
X8652Y109572D01*
X8832Y109795D01*
X9025Y110007D01*
X9231Y110209D01*
X9450Y110399D01*
X9679Y110577D01*
X9920Y110743D01*
X10172Y110896D01*
X10436Y111038D01*
X10710Y111167D01*
X10996Y111283D01*
X11293Y111388D01*
X11601Y111480D01*
X11920Y111560D01*
X12250Y111627D01*
X12592Y111683D01*
X12945Y111726D01*
X13309Y111756D01*
X13684Y111775D01*
X14070Y111781D01*
X18152Y111781D01*
X18152Y99440D01*
G37*
%LPC*%
G36*
X16479Y100780D02*
X16479Y110441D01*
X14105Y110441D01*
X13527Y110422D01*
X12984Y110365D01*
X12477Y110271D01*
X12004Y110140D01*
X11567Y109970D01*
X11165Y109763D01*
X10798Y109519D01*
X10466Y109236D01*
X10171Y108918D01*
X9916Y108566D01*
X9700Y108180D01*
X9523Y107760D01*
X9386Y107305D01*
X9288Y106817D01*
X9229Y106294D01*
X9209Y105737D01*
X9218Y105363D01*
X9244Y105001D01*
X9287Y104651D01*
X9347Y104314D01*
X9425Y103990D01*
X9520Y103678D01*
X9632Y103379D01*
X9761Y103092D01*
X9906Y102820D01*
X10067Y102565D01*
X10242Y102325D01*
X10432Y102103D01*
X10637Y101896D01*
X10857Y101706D01*
X11092Y101533D01*
X11342Y101376D01*
X11604Y101236D01*
X11877Y101115D01*
X12160Y101013D01*
X12453Y100929D01*
X12757Y100864D01*
X13070Y100817D01*
X13394Y100789D01*
X13729Y100780D01*
X16479Y100780D01*
G37*
%LPD*%
G36*
X-4755Y99440D02*
X-9765Y99440D01*
X-10284Y99454D01*
X-10774Y99497D01*
X-11236Y99569D01*
X-11667Y99669D01*
X-12070Y99798D01*
X-12443Y99955D01*
X-12787Y100141D01*
X-13102Y100355D01*
X-13383Y100596D01*
X-13626Y100859D01*
X-13833Y101145D01*
X-14001Y101453D01*
X-14133Y101785D01*
X-14226Y102140D01*
X-14283Y102517D01*
X-14301Y102917D01*
X-14289Y103219D01*
X-14252Y103508D01*
X-14189Y103784D01*
X-14102Y104046D01*
X-13990Y104295D01*
X-13853Y104531D01*
X-13691Y104753D01*
X-13504Y104962D01*
X-13391Y105066D01*
X-13295Y105155D01*
X-13064Y105328D01*
X-12812Y105481D01*
X-12539Y105614D01*
X-12245Y105727D01*
X-11930Y105820D01*
X-11593Y105894D01*
X-11236Y105948D01*
X-11508Y106019D01*
X-11765Y106105D01*
X-12005Y106207D01*
X-12230Y106324D01*
X-12439Y106457D01*
X-12632Y106604D01*
X-12710Y106676D01*
X-12809Y106768D01*
X-12970Y106946D01*
X-13114Y107138D01*
X-13238Y107340D01*
X-13344Y107554D01*
X-13430Y107778D01*
X-13497Y108014D01*
X-13545Y108260D01*
X-13574Y108517D01*
X-13583Y108785D01*
X-13566Y109148D01*
X-13515Y109487D01*
X-13431Y109803D01*
X-13312Y110096D01*
X-13159Y110365D01*
X-12972Y110611D01*
X-12752Y110833D01*
X-12497Y111032D01*
X-12209Y111207D01*
X-11886Y111360D01*
X-11530Y111488D01*
X-11140Y111594D01*
X-10715Y111675D01*
X-10257Y111734D01*
X-9765Y111769D01*
X-9239Y111781D01*
X-4755Y111781D01*
X-4755Y99440D01*
G37*
%LPC*%
G36*
X-6428Y100780D02*
X-6428Y105229D01*
X-9546Y105229D01*
X-9917Y105221D01*
X-10264Y105195D01*
X-10587Y105153D01*
X-10887Y105093D01*
X-11162Y105016D01*
X-11414Y104923D01*
X-11641Y104812D01*
X-11845Y104684D01*
X-12024Y104539D01*
X-12180Y104377D01*
X-12312Y104199D01*
X-12419Y104003D01*
X-12503Y103790D01*
X-12563Y103560D01*
X-12599Y103313D01*
X-12611Y103049D01*
X-12600Y102775D01*
X-12567Y102519D01*
X-12513Y102280D01*
X-12436Y102059D01*
X-12337Y101855D01*
X-12217Y101669D01*
X-12075Y101500D01*
X-11910Y101349D01*
X-11722Y101216D01*
X-11508Y101100D01*
X-11268Y101002D01*
X-11002Y100922D01*
X-10709Y100860D01*
X-10391Y100816D01*
X-10047Y100789D01*
X-9677Y100780D01*
X-6428Y100780D01*
G37*
G36*
X-6428Y106534D02*
X-6428Y110441D01*
X-9239Y110441D01*
X-9553Y110434D01*
X-9849Y110414D01*
X-10125Y110380D01*
X-10382Y110333D01*
X-10620Y110273D01*
X-10839Y110199D01*
X-11038Y110112D01*
X-11218Y110012D01*
X-11379Y109895D01*
X-11517Y109761D01*
X-11635Y109610D01*
X-11731Y109440D01*
X-11806Y109253D01*
X-11859Y109048D01*
X-11891Y108825D01*
X-11902Y108584D01*
X-11891Y108332D01*
X-11860Y108096D01*
X-11809Y107878D01*
X-11736Y107676D01*
X-11643Y107491D01*
X-11530Y107324D01*
X-11395Y107172D01*
X-11240Y107038D01*
X-11064Y106920D01*
X-10867Y106818D01*
X-10649Y106731D01*
X-10409Y106660D01*
X-10149Y106605D01*
X-9867Y106566D01*
X-9563Y106542D01*
X-9239Y106534D01*
X-6428Y106534D01*
G37*
%LPD*%
G36*
X1684Y99265D02*
X1195Y99280D01*
X735Y99323D01*
X304Y99397D01*
X-98Y99499D01*
X-471Y99631D01*
X-815Y99792D01*
X-1130Y99982D01*
X-1416Y100202D01*
X-1671Y100448D01*
X-1891Y100719D01*
X-2078Y101013D01*
X-2231Y101332D01*
X-2349Y101675D01*
X-2434Y102041D01*
X-2485Y102432D01*
X-2502Y102847D01*
X-2490Y103136D01*
X-2454Y103413D01*
X-2394Y103677D01*
X-2309Y103929D01*
X-2201Y104168D01*
X-2069Y104394D01*
X-1912Y104608D01*
X-1731Y104809D01*
X-1529Y104994D01*
X-1308Y105159D01*
X-1067Y105305D01*
X-807Y105431D01*
X-528Y105537D01*
X-230Y105624D01*
X87Y105690D01*
X423Y105737D01*
X423Y105772D01*
X117Y105846D01*
X-170Y105934D01*
X-438Y106037D01*
X-688Y106155D01*
X-919Y106287D01*
X-1131Y106435D01*
X-1325Y106598D01*
X-1499Y106775D01*
X-1654Y106967D01*
X-1789Y107173D01*
X-1902Y107393D01*
X-1995Y107626D01*
X-2068Y107873D01*
X-2119Y108134D01*
X-2150Y108409D01*
X-2161Y108698D01*
X-2144Y109073D01*
X-2096Y109426D01*
X-2016Y109758D01*
X-1903Y110070D01*
X-1759Y110360D01*
X-1582Y110628D01*
X-1373Y110876D01*
X-1131Y111102D01*
X-861Y111304D01*
X-565Y111479D01*
X-243Y111628D01*
X105Y111749D01*
X478Y111843D01*
X878Y111911D01*
X1303Y111951D01*
X1755Y111965D01*
X2170Y111951D01*
X2566Y111912D01*
X2942Y111845D01*
X3299Y111752D01*
X3637Y111633D01*
X3956Y111487D01*
X4255Y111314D01*
X4535Y111115D01*
X4792Y110892D01*
X5020Y110649D01*
X5219Y110384D01*
X5390Y110099D01*
X5533Y109793D01*
X5648Y109466D01*
X5734Y109119D01*
X5792Y108750D01*
X4207Y108628D01*
X4172Y108864D01*
X4121Y109086D01*
X4052Y109295D01*
X3967Y109490D01*
X3865Y109672D01*
X3746Y109840D01*
X3611Y109994D01*
X3458Y110134D01*
X3291Y110259D01*
X3111Y110368D01*
X2919Y110460D01*
X2715Y110535D01*
X2498Y110593D01*
X2268Y110635D01*
X2026Y110660D01*
X1772Y110668D01*
X1494Y110659D01*
X1234Y110633D01*
X991Y110588D01*
X766Y110525D01*
X559Y110444D01*
X369Y110346D01*
X197Y110229D01*
X42Y110095D01*
X-94Y109945D01*
X-213Y109782D01*
X-313Y109606D01*
X-395Y109417D01*
X-458Y109215D01*
X-504Y109000D01*
X-531Y108772D01*
X-540Y108531D01*
X-529Y108289D01*
X-496Y108059D01*
X-440Y107843D01*
X-362Y107641D01*
X-261Y107453D01*
X-139Y107278D01*
X6Y107116D01*
X174Y106968D01*
X361Y106836D01*
X567Y106721D01*
X791Y106624D01*
X1033Y106544D01*
X1293Y106482D01*
X1572Y106438D01*
X1869Y106412D01*
X2184Y106403D01*
X3042Y106403D01*
X3042Y105037D01*
X2149Y105037D01*
X1794Y105028D01*
X1460Y105001D01*
X1148Y104957D01*
X858Y104895D01*
X589Y104816D01*
X341Y104719D01*
X115Y104604D01*
X-89Y104472D01*
X-271Y104324D01*
X-428Y104162D01*
X-562Y103986D01*
X-671Y103796D01*
X-755Y103593D01*
X-816Y103376D01*
X-852Y103145D01*
X-864Y102900D01*
X-854Y102619D01*
X-822Y102357D01*
X-769Y102113D01*
X-695Y101886D01*
X-599Y101677D01*
X-482Y101486D01*
X-345Y101312D01*
X-186Y101157D01*
X-8Y101019D01*
X186Y100900D01*
X396Y100799D01*
X621Y100717D01*
X863Y100652D01*
X1121Y100607D01*
X1395Y100579D01*
X1684Y100570D01*
X1973Y100578D01*
X2246Y100604D01*
X2502Y100647D01*
X2743Y100707D01*
X2967Y100784D01*
X3175Y100878D01*
X3367Y100989D01*
X3543Y101117D01*
X3703Y101263D01*
X3847Y101425D01*
X3975Y101605D01*
X4087Y101802D01*
X4183Y102015D01*
X4262Y102246D01*
X4326Y102494D01*
X4373Y102759D01*
X6002Y102611D01*
X5936Y102209D01*
X5841Y101834D01*
X5717Y101483D01*
X5566Y101158D01*
X5386Y100858D01*
X5177Y100583D01*
X4941Y100334D01*
X4676Y100110D01*
X4384Y99912D01*
X4070Y99740D01*
X3731Y99595D01*
X3369Y99476D01*
X2984Y99384D01*
X2574Y99318D01*
X2141Y99278D01*
X1684Y99265D01*
G37*
G36*
X-162188Y-240D02*
X-166804Y-240D01*
X-167244Y-228D01*
X-167671Y-192D01*
X-168085Y-133D01*
X-168486Y-50D01*
X-168873Y58D01*
X-169248Y189D01*
X-169609Y343D01*
X-169957Y522D01*
X-170289Y723D01*
X-170602Y945D01*
X-170895Y1188D01*
X-171168Y1451D01*
X-171422Y1736D01*
X-171657Y2042D01*
X-171872Y2368D01*
X-172068Y2716D01*
X-172242Y3081D01*
X-172394Y3462D01*
X-172522Y3857D01*
X-172626Y4267D01*
X-172708Y4692D01*
X-172766Y5133D01*
X-172801Y5588D01*
X-172812Y6057D01*
X-172806Y6415D01*
X-172786Y6761D01*
X-172753Y7098D01*
X-172706Y7424D01*
X-172646Y7740D01*
X-172573Y8045D01*
X-172486Y8340D01*
X-172387Y8625D01*
X-172273Y8899D01*
X-172147Y9163D01*
X-172007Y9416D01*
X-171854Y9660D01*
X-171688Y9892D01*
X-171508Y10115D01*
X-171315Y10327D01*
X-171109Y10529D01*
X-170890Y10719D01*
X-170661Y10897D01*
X-170420Y11063D01*
X-170168Y11216D01*
X-169904Y11358D01*
X-169630Y11487D01*
X-169344Y11603D01*
X-169047Y11708D01*
X-168739Y11800D01*
X-168420Y11880D01*
X-168090Y11947D01*
X-167748Y12003D01*
X-167395Y12046D01*
X-167031Y12076D01*
X-166656Y12095D01*
X-166270Y12101D01*
X-162188Y12101D01*
X-162188Y-240D01*
G37*
%LPC*%
G36*
X-163861Y1100D02*
X-163861Y10761D01*
X-166235Y10761D01*
X-166813Y10742D01*
X-167356Y10685D01*
X-167863Y10591D01*
X-168336Y10460D01*
X-168773Y10290D01*
X-169175Y10083D01*
X-169542Y9839D01*
X-169874Y9556D01*
X-170169Y9238D01*
X-170424Y8886D01*
X-170640Y8500D01*
X-170817Y8080D01*
X-170954Y7625D01*
X-171052Y7137D01*
X-171111Y6614D01*
X-171131Y6057D01*
X-171122Y5683D01*
X-171096Y5321D01*
X-171053Y4971D01*
X-170993Y4634D01*
X-170915Y4310D01*
X-170820Y3998D01*
X-170708Y3699D01*
X-170579Y3412D01*
X-170434Y3140D01*
X-170273Y2885D01*
X-170098Y2645D01*
X-169908Y2423D01*
X-169703Y2216D01*
X-169483Y2026D01*
X-169248Y1853D01*
X-168998Y1696D01*
X-168736Y1556D01*
X-168463Y1435D01*
X-168180Y1333D01*
X-167887Y1249D01*
X-167583Y1184D01*
X-167270Y1137D01*
X-166946Y1109D01*
X-166611Y1100D01*
X-163861Y1100D01*
G37*
%LPD*%
G36*
X-185095Y-240D02*
X-190105Y-240D01*
X-190624Y-226D01*
X-191114Y-183D01*
X-191576Y-111D01*
X-192007Y-11D01*
X-192410Y118D01*
X-192783Y275D01*
X-193127Y461D01*
X-193442Y675D01*
X-193723Y916D01*
X-193966Y1179D01*
X-194173Y1465D01*
X-194341Y1773D01*
X-194473Y2105D01*
X-194566Y2460D01*
X-194623Y2837D01*
X-194641Y3237D01*
X-194629Y3539D01*
X-194592Y3828D01*
X-194529Y4104D01*
X-194442Y4366D01*
X-194330Y4615D01*
X-194193Y4851D01*
X-194031Y5073D01*
X-193844Y5282D01*
X-193731Y5386D01*
X-193635Y5475D01*
X-193404Y5648D01*
X-193152Y5801D01*
X-192879Y5934D01*
X-192585Y6047D01*
X-192270Y6140D01*
X-191933Y6214D01*
X-191576Y6268D01*
X-191848Y6339D01*
X-192105Y6425D01*
X-192345Y6527D01*
X-192570Y6644D01*
X-192779Y6777D01*
X-192972Y6924D01*
X-193050Y6996D01*
X-193149Y7088D01*
X-193310Y7266D01*
X-193454Y7458D01*
X-193578Y7660D01*
X-193684Y7874D01*
X-193770Y8098D01*
X-193837Y8334D01*
X-193885Y8580D01*
X-193914Y8837D01*
X-193923Y9105D01*
X-193906Y9468D01*
X-193855Y9807D01*
X-193771Y10123D01*
X-193652Y10416D01*
X-193499Y10685D01*
X-193312Y10931D01*
X-193092Y11153D01*
X-192837Y11352D01*
X-192549Y11527D01*
X-192226Y11680D01*
X-191870Y11808D01*
X-191480Y11914D01*
X-191055Y11995D01*
X-190597Y12054D01*
X-190105Y12089D01*
X-189579Y12101D01*
X-185095Y12101D01*
X-185095Y-240D01*
G37*
%LPC*%
G36*
X-186768Y1100D02*
X-186768Y5549D01*
X-189886Y5549D01*
X-190257Y5541D01*
X-190604Y5515D01*
X-190927Y5473D01*
X-191227Y5413D01*
X-191502Y5336D01*
X-191754Y5243D01*
X-191981Y5132D01*
X-192185Y5004D01*
X-192364Y4859D01*
X-192520Y4697D01*
X-192652Y4519D01*
X-192759Y4323D01*
X-192843Y4110D01*
X-192903Y3880D01*
X-192939Y3633D01*
X-192951Y3369D01*
X-192940Y3095D01*
X-192907Y2839D01*
X-192853Y2600D01*
X-192776Y2379D01*
X-192677Y2175D01*
X-192557Y1989D01*
X-192415Y1820D01*
X-192250Y1669D01*
X-192062Y1536D01*
X-191848Y1420D01*
X-191608Y1322D01*
X-191342Y1242D01*
X-191049Y1180D01*
X-190731Y1136D01*
X-190387Y1109D01*
X-190017Y1100D01*
X-186768Y1100D01*
G37*
G36*
X-186768Y6854D02*
X-186768Y10761D01*
X-189579Y10761D01*
X-189893Y10754D01*
X-190189Y10734D01*
X-190465Y10700D01*
X-190722Y10653D01*
X-190960Y10593D01*
X-191179Y10519D01*
X-191378Y10432D01*
X-191558Y10332D01*
X-191719Y10215D01*
X-191857Y10081D01*
X-191975Y9930D01*
X-192071Y9760D01*
X-192146Y9573D01*
X-192199Y9368D01*
X-192231Y9145D01*
X-192242Y8904D01*
X-192231Y8652D01*
X-192200Y8416D01*
X-192149Y8198D01*
X-192076Y7996D01*
X-191983Y7811D01*
X-191870Y7644D01*
X-191735Y7492D01*
X-191580Y7358D01*
X-191404Y7240D01*
X-191207Y7138D01*
X-190989Y7051D01*
X-190749Y6980D01*
X-190489Y6925D01*
X-190207Y6886D01*
X-189903Y6862D01*
X-189579Y6854D01*
X-186768Y6854D01*
G37*
%LPD*%
G36*
X-174557Y-240D02*
X-182728Y-240D01*
X-182728Y1100D01*
X-176291Y1100D01*
X-176443Y1410D01*
X-176637Y1725D01*
X-176872Y2047D01*
X-177149Y2374D01*
X-177473Y2715D01*
X-177848Y3076D01*
X-178274Y3457D01*
X-178752Y3859D01*
X-179593Y4555D01*
X-180287Y5153D01*
X-180833Y5654D01*
X-181231Y6057D01*
X-181535Y6412D01*
X-181799Y6767D01*
X-182023Y7122D01*
X-182207Y7476D01*
X-182351Y7832D01*
X-182453Y8188D01*
X-182515Y8545D01*
X-182536Y8904D01*
X-182520Y9297D01*
X-182473Y9668D01*
X-182395Y10015D01*
X-182285Y10339D01*
X-182144Y10640D01*
X-181971Y10918D01*
X-181768Y11173D01*
X-181533Y11404D01*
X-181269Y11611D01*
X-180977Y11790D01*
X-180659Y11941D01*
X-180314Y12065D01*
X-179942Y12161D01*
X-179543Y12230D01*
X-179117Y12271D01*
X-178664Y12285D01*
X-178249Y12271D01*
X-177853Y12230D01*
X-177477Y12162D01*
X-177120Y12066D01*
X-176782Y11943D01*
X-176463Y11792D01*
X-176164Y11614D01*
X-175883Y11409D01*
X-175627Y11180D01*
X-175399Y10933D01*
X-175200Y10667D01*
X-175028Y10382D01*
X-174885Y10078D01*
X-174771Y9755D01*
X-174685Y9413D01*
X-174627Y9053D01*
X-176238Y8904D01*
X-176275Y9144D01*
X-176329Y9371D01*
X-176399Y9584D01*
X-176487Y9783D01*
X-176591Y9968D01*
X-176712Y10140D01*
X-176850Y10297D01*
X-177005Y10441D01*
X-177173Y10569D01*
X-177353Y10681D01*
X-177544Y10775D01*
X-177746Y10852D01*
X-177959Y10911D01*
X-178183Y10954D01*
X-178418Y10980D01*
X-178664Y10988D01*
X-178922Y10980D01*
X-179165Y10953D01*
X-179394Y10910D01*
X-179608Y10848D01*
X-179808Y10769D01*
X-179993Y10673D01*
X-180164Y10559D01*
X-180320Y10428D01*
X-180459Y10281D01*
X-180580Y10119D01*
X-180683Y9943D01*
X-180766Y9753D01*
X-180832Y9549D01*
X-180878Y9331D01*
X-180906Y9098D01*
X-180915Y8851D01*
X-180894Y8485D01*
X-180829Y8138D01*
X-180721Y7810D01*
X-180569Y7503D01*
X-180383Y7208D01*
X-180170Y6920D01*
X-179930Y6639D01*
X-179663Y6364D01*
X-179068Y5821D01*
X-178406Y5278D01*
X-177706Y4712D01*
X-177000Y4100D01*
X-176650Y3773D01*
X-176307Y3428D01*
X-175973Y3064D01*
X-175647Y2681D01*
X-175337Y2274D01*
X-175053Y1837D01*
X-174792Y1370D01*
X-174557Y872D01*
X-174557Y-240D01*
G37*
G36*
X-342528Y-1510D02*
X-347144Y-1510D01*
X-347584Y-1498D01*
X-348011Y-1462D01*
X-348425Y-1403D01*
X-348826Y-1320D01*
X-349213Y-1212D01*
X-349588Y-1081D01*
X-349949Y-927D01*
X-350297Y-748D01*
X-350629Y-547D01*
X-350942Y-325D01*
X-351235Y-82D01*
X-351508Y181D01*
X-351762Y466D01*
X-351997Y772D01*
X-352212Y1098D01*
X-352408Y1446D01*
X-352582Y1811D01*
X-352734Y2192D01*
X-352862Y2587D01*
X-352966Y2997D01*
X-353048Y3422D01*
X-353106Y3863D01*
X-353141Y4318D01*
X-353152Y4787D01*
X-353146Y5145D01*
X-353126Y5491D01*
X-353093Y5828D01*
X-353046Y6154D01*
X-352986Y6470D01*
X-352913Y6775D01*
X-352826Y7070D01*
X-352727Y7355D01*
X-352613Y7629D01*
X-352487Y7893D01*
X-352347Y8146D01*
X-352194Y8390D01*
X-352028Y8622D01*
X-351848Y8845D01*
X-351655Y9057D01*
X-351449Y9259D01*
X-351230Y9449D01*
X-351001Y9627D01*
X-350760Y9793D01*
X-350508Y9946D01*
X-350244Y10088D01*
X-349970Y10217D01*
X-349684Y10333D01*
X-349387Y10438D01*
X-349079Y10530D01*
X-348760Y10610D01*
X-348430Y10677D01*
X-348088Y10733D01*
X-347735Y10776D01*
X-347371Y10806D01*
X-346996Y10825D01*
X-346610Y10831D01*
X-342528Y10831D01*
X-342528Y-1510D01*
G37*
%LPC*%
G36*
X-344201Y-170D02*
X-344201Y9491D01*
X-346575Y9491D01*
X-347153Y9472D01*
X-347696Y9415D01*
X-348203Y9321D01*
X-348676Y9190D01*
X-349113Y9020D01*
X-349515Y8813D01*
X-349882Y8569D01*
X-350214Y8286D01*
X-350509Y7968D01*
X-350764Y7616D01*
X-350980Y7230D01*
X-351157Y6810D01*
X-351294Y6355D01*
X-351392Y5867D01*
X-351451Y5344D01*
X-351471Y4787D01*
X-351462Y4413D01*
X-351436Y4051D01*
X-351393Y3701D01*
X-351333Y3364D01*
X-351255Y3040D01*
X-351160Y2728D01*
X-351048Y2429D01*
X-350919Y2142D01*
X-350774Y1870D01*
X-350613Y1615D01*
X-350438Y1375D01*
X-350248Y1153D01*
X-350043Y946D01*
X-349823Y756D01*
X-349588Y583D01*
X-349338Y426D01*
X-349076Y286D01*
X-348803Y165D01*
X-348520Y63D01*
X-348227Y-21D01*
X-347923Y-86D01*
X-347610Y-133D01*
X-347286Y-161D01*
X-346951Y-170D01*
X-344201Y-170D01*
G37*
%LPD*%
G36*
X-365435Y-1510D02*
X-370445Y-1510D01*
X-370964Y-1496D01*
X-371454Y-1453D01*
X-371916Y-1381D01*
X-372347Y-1281D01*
X-372750Y-1153D01*
X-373123Y-995D01*
X-373467Y-809D01*
X-373782Y-595D01*
X-374063Y-355D01*
X-374306Y-91D01*
X-374513Y195D01*
X-374681Y503D01*
X-374813Y835D01*
X-374906Y1190D01*
X-374963Y1567D01*
X-374981Y1967D01*
X-374969Y2269D01*
X-374932Y2558D01*
X-374869Y2834D01*
X-374782Y3096D01*
X-374670Y3345D01*
X-374533Y3581D01*
X-374371Y3803D01*
X-374184Y4012D01*
X-374071Y4116D01*
X-373975Y4205D01*
X-373744Y4378D01*
X-373492Y4531D01*
X-373219Y4664D01*
X-372925Y4777D01*
X-372610Y4870D01*
X-372273Y4944D01*
X-371916Y4998D01*
X-372188Y5069D01*
X-372445Y5155D01*
X-372685Y5257D01*
X-372910Y5374D01*
X-373119Y5507D01*
X-373312Y5654D01*
X-373390Y5726D01*
X-373489Y5818D01*
X-373650Y5996D01*
X-373794Y6188D01*
X-373918Y6390D01*
X-374024Y6604D01*
X-374110Y6828D01*
X-374177Y7064D01*
X-374225Y7310D01*
X-374254Y7567D01*
X-374263Y7835D01*
X-374246Y8198D01*
X-374195Y8537D01*
X-374111Y8853D01*
X-373992Y9146D01*
X-373839Y9415D01*
X-373652Y9661D01*
X-373432Y9883D01*
X-373177Y10082D01*
X-372889Y10257D01*
X-372566Y10410D01*
X-372210Y10538D01*
X-371820Y10644D01*
X-371395Y10725D01*
X-370937Y10784D01*
X-370445Y10819D01*
X-369919Y10831D01*
X-365435Y10831D01*
X-365435Y-1510D01*
G37*
%LPC*%
G36*
X-367108Y-170D02*
X-367108Y4279D01*
X-370226Y4279D01*
X-370597Y4271D01*
X-370944Y4245D01*
X-371267Y4203D01*
X-371567Y4143D01*
X-371842Y4066D01*
X-372094Y3973D01*
X-372321Y3862D01*
X-372525Y3734D01*
X-372704Y3589D01*
X-372860Y3427D01*
X-372992Y3249D01*
X-373099Y3053D01*
X-373183Y2840D01*
X-373243Y2610D01*
X-373279Y2363D01*
X-373291Y2099D01*
X-373280Y1825D01*
X-373247Y1569D01*
X-373193Y1330D01*
X-373116Y1109D01*
X-373017Y905D01*
X-372897Y719D01*
X-372755Y550D01*
X-372590Y399D01*
X-372402Y266D01*
X-372188Y150D01*
X-371948Y52D01*
X-371682Y-28D01*
X-371389Y-90D01*
X-371071Y-134D01*
X-370727Y-161D01*
X-370357Y-170D01*
X-367108Y-170D01*
G37*
G36*
X-367108Y5584D02*
X-367108Y9491D01*
X-369919Y9491D01*
X-370233Y9484D01*
X-370529Y9464D01*
X-370805Y9430D01*
X-371062Y9383D01*
X-371300Y9323D01*
X-371519Y9249D01*
X-371718Y9162D01*
X-371898Y9062D01*
X-372059Y8945D01*
X-372197Y8811D01*
X-372315Y8660D01*
X-372411Y8490D01*
X-372486Y8303D01*
X-372539Y8098D01*
X-372571Y7875D01*
X-372582Y7634D01*
X-372571Y7382D01*
X-372540Y7146D01*
X-372489Y6928D01*
X-372416Y6726D01*
X-372323Y6541D01*
X-372210Y6374D01*
X-372075Y6222D01*
X-371920Y6088D01*
X-371744Y5970D01*
X-371547Y5868D01*
X-371329Y5781D01*
X-371089Y5710D01*
X-370829Y5655D01*
X-370547Y5616D01*
X-370243Y5592D01*
X-369919Y5584D01*
X-367108Y5584D01*
G37*
%LPD*%
G36*
X-355361Y-1510D02*
X-363095Y-1510D01*
X-363095Y-170D01*
X-360090Y-170D01*
X-360090Y10831D01*
X-358636Y10831D01*
X-355720Y8825D01*
X-355720Y7336D01*
X-358505Y9324D01*
X-358505Y-170D01*
X-355361Y-170D01*
X-355361Y-1510D01*
G37*
D10*
X-571100Y-362400D02*
X-571100Y-32200D01*
X-748900Y-32200D01*
X-748900Y-362400D01*
X-571100Y-362400D01*
X-609200Y-19500D02*
X-710800Y-19500D01*
X-710800Y-95700D01*
X-609200Y-95700D01*
X-609200Y-19500D01*
X526000Y-218000D02*
X548000Y-218000D01*
X554000Y-218000D01*
X554000Y-216000D01*
X526000Y-216000D02*
X526000Y-218000D01*
X526000Y-204000D02*
X526000Y-202000D01*
X548000Y-202000D01*
X555000Y-202000D01*
X555000Y-204000D01*
X548000Y-202000D02*
X548000Y-218000D01*
X548000Y-388000D02*
X526000Y-388000D01*
X548000Y-388000D02*
X554000Y-388000D01*
X554000Y-386000D01*
X526000Y-386000D02*
X526000Y-388000D01*
X526000Y-374000D02*
X526000Y-372000D01*
X548000Y-372000D01*
X555000Y-372000D01*
X555000Y-374000D01*
X548000Y-372000D02*
X548000Y-388000D01*
X368000Y-218000D02*
X346000Y-218000D01*
X368000Y-218000D02*
X374000Y-218000D01*
X374000Y-216000D01*
X346000Y-216000D02*
X346000Y-218000D01*
X346000Y-204000D02*
X346000Y-202000D01*
X368000Y-202000D01*
X375000Y-202000D01*
X375000Y-204000D01*
X368000Y-202000D02*
X368000Y-218000D01*
X368000Y-388000D02*
X346000Y-388000D01*
X368000Y-388000D02*
X374000Y-388000D01*
X374000Y-386000D01*
X346000Y-386000D02*
X346000Y-388000D01*
X346000Y-374000D02*
X346000Y-372000D01*
X368000Y-372000D01*
X375000Y-372000D01*
X375000Y-374000D01*
X368000Y-372000D02*
X368000Y-388000D01*
X188000Y-108000D02*
X166000Y-108000D01*
X188000Y-108000D02*
X194000Y-108000D01*
X194000Y-106000D01*
X166000Y-106000D02*
X166000Y-108000D01*
X166000Y-94000D02*
X166000Y-92000D01*
X188000Y-92000D01*
X195000Y-92000D01*
X195000Y-94000D01*
X188000Y-92000D02*
X188000Y-108000D01*
X188000Y-278000D02*
X166000Y-278000D01*
X188000Y-278000D02*
X194000Y-278000D01*
X194000Y-276000D01*
X166000Y-276000D02*
X166000Y-278000D01*
X166000Y-264000D02*
X166000Y-262000D01*
X188000Y-262000D01*
X195000Y-262000D01*
X195000Y-264000D01*
X188000Y-262000D02*
X188000Y-278000D01*
X8000Y-58000D02*
X-14000Y-58000D01*
X8000Y-58000D02*
X14000Y-58000D01*
X14000Y-56000D01*
X-14000Y-56000D02*
X-14000Y-58000D01*
X-14000Y-44000D02*
X-14000Y-42000D01*
X8000Y-42000D01*
X15000Y-42000D01*
X15000Y-44000D01*
X8000Y-42000D02*
X8000Y-58000D01*
X8000Y-228000D02*
X-14000Y-228000D01*
X8000Y-228000D02*
X14000Y-228000D01*
X14000Y-226000D01*
X-14000Y-226000D02*
X-14000Y-228000D01*
X-14000Y-214000D02*
X-14000Y-212000D01*
X8000Y-212000D01*
X15000Y-212000D01*
X15000Y-214000D01*
X8000Y-212000D02*
X8000Y-228000D01*
X-172000Y-158000D02*
X-194000Y-158000D01*
X-172000Y-158000D02*
X-166000Y-158000D01*
X-166000Y-156000D01*
X-194000Y-156000D02*
X-194000Y-158000D01*
X-194000Y-144000D02*
X-194000Y-142000D01*
X-172000Y-142000D01*
X-165000Y-142000D01*
X-165000Y-144000D01*
X-172000Y-142000D02*
X-172000Y-158000D01*
X-172000Y-328000D02*
X-194000Y-328000D01*
X-172000Y-328000D02*
X-166000Y-328000D01*
X-166000Y-326000D01*
X-194000Y-326000D02*
X-194000Y-328000D01*
X-194000Y-314000D02*
X-194000Y-312000D01*
X-172000Y-312000D01*
X-165000Y-312000D01*
X-165000Y-314000D01*
X-172000Y-312000D02*
X-172000Y-328000D01*
X-352000Y-158000D02*
X-374000Y-158000D01*
X-352000Y-158000D02*
X-346000Y-158000D01*
X-346000Y-156000D01*
X-374000Y-156000D02*
X-374000Y-158000D01*
X-374000Y-144000D02*
X-374000Y-142000D01*
X-352000Y-142000D01*
X-345000Y-142000D01*
X-345000Y-144000D01*
X-352000Y-142000D02*
X-352000Y-158000D01*
X-352000Y-328000D02*
X-374000Y-328000D01*
X-352000Y-328000D02*
X-346000Y-328000D01*
X-346000Y-326000D01*
X-374000Y-326000D02*
X-374000Y-328000D01*
X-374000Y-314000D02*
X-374000Y-312000D01*
X-352000Y-312000D01*
X-345000Y-312000D01*
X-345000Y-314000D01*
X-352000Y-312000D02*
X-352000Y-328000D01*
X-182398Y-570310D02*
X-160732Y-566489D01*
X-154824Y-565447D01*
X-155171Y-563478D01*
X-182745Y-568340D02*
X-182398Y-570310D01*
X-184829Y-556522D02*
X-185177Y-554553D01*
X-163511Y-550732D01*
X-156617Y-549517D01*
X-156270Y-551486D01*
X-163511Y-550732D02*
X-160732Y-566489D01*
X-340732Y-596489D02*
X-362398Y-600310D01*
X-340732Y-596489D02*
X-334824Y-595447D01*
X-335171Y-593478D01*
X-362745Y-598340D02*
X-362398Y-600310D01*
X-364829Y-586522D02*
X-365177Y-584553D01*
X-343511Y-580732D01*
X-336617Y-579517D01*
X-336270Y-581486D01*
X-343511Y-580732D02*
X-340732Y-596489D01*
X-520732Y-626489D02*
X-542398Y-630310D01*
X-520732Y-626489D02*
X-514824Y-625447D01*
X-515171Y-623478D01*
X-542745Y-628340D02*
X-542398Y-630310D01*
X-544829Y-616522D02*
X-545177Y-614553D01*
X-523511Y-610732D01*
X-516617Y-609517D01*
X-516270Y-611486D01*
X-523511Y-610732D02*
X-520732Y-626489D01*
X525258Y-43880D02*
X547258Y-43880D01*
X553258Y-43880D01*
X553258Y-41880D01*
X525258Y-41880D02*
X525258Y-43880D01*
X525258Y-29880D02*
X525258Y-27880D01*
X547258Y-27880D01*
X554258Y-27880D01*
X554258Y-29880D01*
X547258Y-27880D02*
X547258Y-43880D01*
X367070Y-43400D02*
X345070Y-43400D01*
X367070Y-43400D02*
X373070Y-43400D01*
X373070Y-41400D01*
X345070Y-41400D02*
X345070Y-43400D01*
X345070Y-29400D02*
X345070Y-27400D01*
X367070Y-27400D01*
X374070Y-27400D01*
X374070Y-29400D01*
X367070Y-27400D02*
X367070Y-43400D01*
X186730Y64540D02*
X164730Y64540D01*
X186730Y64540D02*
X192730Y64540D01*
X192730Y66540D01*
X164730Y66540D02*
X164730Y64540D01*
X164730Y78540D02*
X164730Y80540D01*
X186730Y80540D01*
X193730Y80540D01*
X193730Y78540D01*
X186730Y80540D02*
X186730Y64540D01*
X6730Y114540D02*
X-15270Y114540D01*
X6730Y114540D02*
X12730Y114540D01*
X12730Y116540D01*
X-15270Y116540D02*
X-15270Y114540D01*
X-15270Y128540D02*
X-15270Y130540D01*
X6730Y130540D01*
X13730Y130540D01*
X13730Y128540D01*
X6730Y130540D02*
X6730Y114540D01*
X-173610Y14860D02*
X-195610Y14860D01*
X-173610Y14860D02*
X-167610Y14860D01*
X-167610Y16860D01*
X-195610Y16860D02*
X-195610Y14860D01*
X-195610Y28860D02*
X-195610Y30860D01*
X-173610Y30860D01*
X-166610Y30860D01*
X-166610Y28860D01*
X-173610Y30860D02*
X-173610Y14860D01*
X-353950Y13590D02*
X-375950Y13590D01*
X-353950Y13590D02*
X-347950Y13590D01*
X-347950Y15590D01*
X-375950Y15590D02*
X-375950Y13590D01*
X-375950Y27590D02*
X-375950Y29590D01*
X-353950Y29590D01*
X-346950Y29590D01*
X-346950Y27590D01*
X-353950Y29590D02*
X-353950Y13590D01*
M02*
