G04 EAGLE Gerber RS-274X export*
G75*
%MOMM*%
%FSLAX34Y34*%
%LPD*%
%INSolderpaste Top*%
%IPPOS*%
%AMOC8*
5,1,8,0,0,1.08239X$1,22.5*%
G01*
G04 Define Apertures*
%ADD10R,0.635000X1.270000*%
%ADD11R,0.900000X0.950000*%
D10*
X-692700Y-249200D03*
X-680000Y-249200D03*
D11*
X555750Y-210000D03*
X524250Y-210000D03*
X555750Y-380000D03*
X524250Y-380000D03*
X375750Y-210000D03*
X344250Y-210000D03*
X375750Y-380000D03*
X344250Y-380000D03*
X195750Y-100000D03*
X164250Y-100000D03*
X195750Y-270000D03*
X164250Y-270000D03*
X15750Y-50000D03*
X-15750Y-50000D03*
X15750Y-220000D03*
X-15750Y-220000D03*
X-164250Y-150000D03*
X-195750Y-150000D03*
X-164250Y-320000D03*
X-195750Y-320000D03*
X-344250Y-150000D03*
X-375750Y-150000D03*
X-344250Y-320000D03*
X-375750Y-320000D03*
G36*
X-149233Y-561161D02*
X-158095Y-562724D01*
X-159745Y-553369D01*
X-150883Y-551806D01*
X-149233Y-561161D01*
G37*
G36*
X-180255Y-566631D02*
X-189117Y-568194D01*
X-190767Y-558839D01*
X-181905Y-557276D01*
X-180255Y-566631D01*
G37*
G36*
X-329233Y-591161D02*
X-338095Y-592724D01*
X-339745Y-583369D01*
X-330883Y-581806D01*
X-329233Y-591161D01*
G37*
G36*
X-360255Y-596631D02*
X-369117Y-598194D01*
X-370767Y-588839D01*
X-361905Y-587276D01*
X-360255Y-596631D01*
G37*
G36*
X-509233Y-621161D02*
X-518095Y-622724D01*
X-519745Y-613369D01*
X-510883Y-611806D01*
X-509233Y-621161D01*
G37*
G36*
X-540255Y-626631D02*
X-549117Y-628194D01*
X-550767Y-618839D01*
X-541905Y-617276D01*
X-540255Y-626631D01*
G37*
X555070Y-37140D03*
X523570Y-37140D03*
X374820Y-35080D03*
X343320Y-35080D03*
X194820Y72390D03*
X163320Y72390D03*
X14800Y121300D03*
X-16700Y121300D03*
X-165860Y22860D03*
X-197360Y22860D03*
X-346200Y21590D03*
X-377700Y21590D03*
M02*
