G04 EAGLE Gerber RS-274X export*
G75*
%MOMM*%
%FSLAX34Y34*%
%LPD*%
%INSoldermask Top*%
%IPPOS*%
%AMOC8*
5,1,8,0,0,1.08239X$1,22.5*%
G01*
G04 Define Apertures*
%ADD10C,3.603200*%
%ADD11C,2.103200*%
%ADD12C,2.743200*%
%ADD13C,1.981200*%
%ADD14C,1.727200*%
%ADD15C,5.283200*%
%ADD16R,0.838200X1.473200*%
%ADD17C,1.463200*%
%ADD18R,1.103200X1.153200*%
%ADD19C,0.959600*%
D10*
X540000Y-160000D03*
D11*
X485000Y-160000D03*
X595000Y-160000D03*
D12*
X540000Y-101000D03*
X590000Y-122000D03*
X490000Y-122000D03*
D10*
X540000Y-330000D03*
D11*
X485000Y-330000D03*
X595000Y-330000D03*
D12*
X540000Y-271000D03*
X590000Y-292000D03*
X490000Y-292000D03*
D10*
X360000Y-160000D03*
D11*
X305000Y-160000D03*
X415000Y-160000D03*
D12*
X360000Y-101000D03*
X410000Y-122000D03*
X310000Y-122000D03*
D10*
X360000Y-330000D03*
D11*
X305000Y-330000D03*
X415000Y-330000D03*
D12*
X360000Y-271000D03*
X410000Y-292000D03*
X310000Y-292000D03*
D10*
X180000Y-50000D03*
D11*
X125000Y-50000D03*
X235000Y-50000D03*
D12*
X180000Y9000D03*
X230000Y-12000D03*
X130000Y-12000D03*
D10*
X180000Y-220000D03*
D11*
X125000Y-220000D03*
X235000Y-220000D03*
D12*
X180000Y-161000D03*
X230000Y-182000D03*
X130000Y-182000D03*
D10*
X0Y0D03*
D11*
X-55000Y0D03*
X55000Y0D03*
D12*
X0Y59000D03*
X50000Y38000D03*
X-50000Y38000D03*
D10*
X0Y-170000D03*
D11*
X-55000Y-170000D03*
X55000Y-170000D03*
D12*
X0Y-111000D03*
X50000Y-132000D03*
X-50000Y-132000D03*
D10*
X-180000Y-100000D03*
D11*
X-235000Y-100000D03*
X-125000Y-100000D03*
D12*
X-180000Y-41000D03*
X-130000Y-62000D03*
X-230000Y-62000D03*
D10*
X-180000Y-270000D03*
D11*
X-235000Y-270000D03*
X-125000Y-270000D03*
D12*
X-180000Y-211000D03*
X-130000Y-232000D03*
X-230000Y-232000D03*
D10*
X-360000Y-100000D03*
D11*
X-415000Y-100000D03*
X-305000Y-100000D03*
D12*
X-360000Y-41000D03*
X-310000Y-62000D03*
X-410000Y-62000D03*
D10*
X-360000Y-270000D03*
D11*
X-415000Y-270000D03*
X-305000Y-270000D03*
D12*
X-360000Y-211000D03*
X-310000Y-232000D03*
X-410000Y-232000D03*
D10*
X-180000Y-510000D03*
D11*
X-234164Y-519551D03*
X-125836Y-500449D03*
D12*
X-190245Y-451896D03*
X-137358Y-463895D03*
X-235839Y-481260D03*
D10*
X-357265Y-541257D03*
D11*
X-411430Y-550807D03*
X-303101Y-531706D03*
D12*
X-367511Y-483153D03*
X-314624Y-495152D03*
X-413104Y-512516D03*
D10*
X-534531Y-572513D03*
D11*
X-588695Y-582064D03*
X-480366Y-562963D03*
D12*
X-544776Y-514410D03*
X-491889Y-526408D03*
X-590370Y-543773D03*
D13*
X-766200Y-70300D03*
X-766200Y-95700D03*
X-766200Y-121100D03*
X-766200Y-146500D03*
X-766200Y-171900D03*
X-766200Y-197300D03*
X-766200Y-222700D03*
X-766200Y-248100D03*
X-766200Y-273500D03*
X-766200Y-298900D03*
X-766200Y-324300D03*
X-766200Y-349700D03*
X-613800Y-70300D03*
X-613800Y-95700D03*
X-613800Y-121100D03*
X-613800Y-146500D03*
X-613800Y-171900D03*
X-613800Y-197300D03*
X-613800Y-222700D03*
X-613800Y-248100D03*
X-613800Y-273500D03*
X-613800Y-298900D03*
X-613800Y-324300D03*
X-613800Y-349700D03*
X-583800Y-70300D03*
X-583800Y-95700D03*
X-583800Y-121100D03*
X-583800Y-146500D03*
X-583800Y-171900D03*
X-583800Y-197300D03*
X-583800Y-222700D03*
X-583800Y-248100D03*
X-583800Y-273500D03*
X-583800Y-298900D03*
X-583800Y-324300D03*
X-583800Y-349700D03*
X-736200Y-70300D03*
X-736200Y-95700D03*
X-736200Y-121100D03*
X-736200Y-146500D03*
X-736200Y-171900D03*
X-736200Y-197300D03*
X-736200Y-222700D03*
X-736200Y-248100D03*
X-736200Y-273500D03*
X-736200Y-298900D03*
X-736200Y-324300D03*
X-736200Y-349700D03*
D14*
X-794280Y-170800D02*
X-809520Y-170800D01*
X-809520Y-145400D02*
X-794280Y-145400D01*
X-794280Y-120000D02*
X-809520Y-120000D01*
X-809520Y-94600D02*
X-794280Y-94600D01*
X-794280Y-69200D02*
X-809520Y-69200D01*
X-739520Y-500800D02*
X-724280Y-500800D01*
X-724280Y-475400D02*
X-739520Y-475400D01*
X-739520Y-450000D02*
X-724280Y-450000D01*
X-724280Y-424600D02*
X-739520Y-424600D01*
X-739520Y-399200D02*
X-724280Y-399200D01*
D15*
X-680000Y-300000D03*
D16*
X-692700Y-249200D03*
X-680000Y-249200D03*
D17*
X-696200Y-400000D03*
X-623800Y-400000D03*
X-696200Y-440000D03*
X-623800Y-440000D03*
D18*
X555750Y-210000D03*
X524250Y-210000D03*
X555750Y-380000D03*
X524250Y-380000D03*
X375750Y-210000D03*
X344250Y-210000D03*
X375750Y-380000D03*
X344250Y-380000D03*
X195750Y-100000D03*
X164250Y-100000D03*
X195750Y-270000D03*
X164250Y-270000D03*
X15750Y-50000D03*
X-15750Y-50000D03*
X15750Y-220000D03*
X-15750Y-220000D03*
X-164250Y-150000D03*
X-195750Y-150000D03*
X-164250Y-320000D03*
X-195750Y-320000D03*
X-344250Y-150000D03*
X-375750Y-150000D03*
X-344250Y-320000D03*
X-375750Y-320000D03*
G36*
X-148056Y-561985D02*
X-158919Y-563901D01*
X-160922Y-552545D01*
X-150059Y-550629D01*
X-148056Y-561985D01*
G37*
G36*
X-179078Y-567455D02*
X-189941Y-569371D01*
X-191944Y-558015D01*
X-181081Y-556099D01*
X-179078Y-567455D01*
G37*
G36*
X-328056Y-591985D02*
X-338919Y-593901D01*
X-340922Y-582545D01*
X-330059Y-580629D01*
X-328056Y-591985D01*
G37*
G36*
X-359078Y-597455D02*
X-369941Y-599371D01*
X-371944Y-588015D01*
X-361081Y-586099D01*
X-359078Y-597455D01*
G37*
G36*
X-508056Y-621985D02*
X-518919Y-623901D01*
X-520922Y-612545D01*
X-510059Y-610629D01*
X-508056Y-621985D01*
G37*
G36*
X-539078Y-627455D02*
X-549941Y-629371D01*
X-551944Y-618015D01*
X-541081Y-616099D01*
X-539078Y-627455D01*
G37*
D10*
X540000Y10000D03*
D11*
X485000Y10000D03*
X595000Y10000D03*
D12*
X540000Y69000D03*
X590000Y48000D03*
X490000Y48000D03*
D18*
X555070Y-37140D03*
X523570Y-37140D03*
D10*
X360000Y10000D03*
D11*
X305000Y10000D03*
X415000Y10000D03*
D12*
X360000Y69000D03*
X410000Y48000D03*
X310000Y48000D03*
D18*
X374820Y-35080D03*
X343320Y-35080D03*
D10*
X180000Y120000D03*
D11*
X125000Y120000D03*
X235000Y120000D03*
D12*
X180000Y179000D03*
X230000Y158000D03*
X130000Y158000D03*
D18*
X194820Y72390D03*
X163320Y72390D03*
D10*
X0Y170000D03*
D11*
X-55000Y170000D03*
X55000Y170000D03*
D12*
X0Y229000D03*
X50000Y208000D03*
X-50000Y208000D03*
D18*
X14800Y121300D03*
X-16700Y121300D03*
D10*
X-180000Y70000D03*
D11*
X-235000Y70000D03*
X-125000Y70000D03*
D12*
X-180000Y129000D03*
X-130000Y108000D03*
X-230000Y108000D03*
D18*
X-165860Y22860D03*
X-197360Y22860D03*
D10*
X-360000Y70000D03*
D11*
X-415000Y70000D03*
X-305000Y70000D03*
D12*
X-360000Y129000D03*
X-310000Y108000D03*
X-410000Y108000D03*
D18*
X-346200Y21590D03*
X-377700Y21590D03*
D19*
X580000Y-210000D03*
X-220980Y22860D03*
X-220000Y-150000D03*
X-220000Y-320000D03*
X-510000Y-280000D03*
X-384810Y-593090D03*
X-690000Y-470000D03*
X580000Y-380000D03*
X400000Y-210000D03*
X-40000Y-220000D03*
X-40000Y-50000D03*
X-39370Y121920D03*
X-470000Y-260000D03*
X-207010Y-562610D03*
X400000Y-380000D03*
X220000Y-100000D03*
X220000Y-270000D03*
X40000Y-50000D03*
X144780Y72390D03*
X140000Y-100000D03*
X140000Y-270000D03*
X-460000Y-180000D03*
X40000Y-220000D03*
X-140000Y-150000D03*
X-140000Y-320000D03*
X320040Y-35560D03*
X320000Y-210000D03*
X320000Y-380000D03*
X-480000Y-90000D03*
X-320000Y-320000D03*
X-135890Y-557530D03*
X501650Y-35560D03*
X500000Y-210000D03*
X500000Y-380000D03*
X-490000Y-70000D03*
X-314960Y-586740D03*
X-490000Y-620000D03*
X-270000Y-150000D03*
X-710000Y-120000D03*
X-630000Y-420000D03*
X-640000Y-300000D03*
X-701594Y-258772D03*
X-719342Y-287061D03*
X-700000Y-370000D03*
X-711698Y-260000D03*
X-786882Y-183119D03*
X-786130Y-312420D03*
X-640000Y-270000D03*
X-320000Y-150000D03*
X576580Y-36830D03*
X393700Y-35560D03*
X213360Y72390D03*
X36830Y121920D03*
X-139700Y22860D03*
X-322580Y21590D03*
X-397510Y21590D03*
X-400000Y-320000D03*
X-710828Y-324810D03*
X-647592Y-380000D03*
X-562610Y-622300D03*
X-400000Y-150000D03*
M02*
